<svg width="114" height="137" viewBox="0 0 114 137" fill="none" xmlns="http://www.w3.org/2000/svg">
<path d="M80.3946 0.000307837C80.3946 0.000307837 79.9442 -0.00592586 79.1587 0.03771C75.738 0.224721 65.9729 1.32497 59.6146 7.75502C53.0552 14.3877 52.2058 24.5782 52.1014 27.6841C52.0811 28.2795 52.0889 28.6192 52.0889 28.6192C52.0889 28.6192 65.0519 28.7672 72.8689 20.8629C80.686 12.9586 80.3946 0.000307837 80.3946 0.000307837ZM50.7643 26.3081C50.4199 23.4047 49.3227 18.3804 45.7991 14.8957C41.5291 10.6724 35.0273 10.0334 32.8035 9.93993C32.3094 9.91811 32.0211 9.92435 32.0211 9.92435C32.0211 9.92435 31.9229 18.4848 37.1437 23.6478C42.3644 28.8109 50.9217 28.6176 50.9217 28.6176C50.9217 28.6176 50.9295 27.706 50.7643 26.3081Z" fill="#8BC53F"/>
<path d="M89.5033 98.2006C81.3387 97.7907 71.4256 96.9336 60.5135 96.9336C48.1849 96.9336 38.3263 98.2832 30.9846 98.8925L30.7227 98.9128C14.7598 104.003 3.26489 112.083 0.604668 118.931C0.218179 119.925 0 120.896 0 121.826C0 132.988 25.9711 137.001 60.4154 137.001C94.6742 137.001 112.83 134.261 113.023 123.249C113.025 123.19 113.042 123.138 113.042 123.079C113.042 115.314 105.614 104.233 89.5033 98.2006ZM22.2621 107.453C22.2621 107.453 36.7476 99.5034 58.9349 99.5034H70.6449C78.9497 99.8011 80.3164 102.589 73.9409 102.081H66.7301C41.8982 102.081 23.5462 109.186 23.5462 109.186C15.2476 112.398 14.6694 111.617 22.2621 107.453Z" fill="#5A5F65"/>
<path d="M111.606 86.0099C108.676 76.4973 95.7166 65.1364 78.5148 59.7069C74.8447 59.4186 68.7154 58.1484 58.6854 58.1484C51.9172 58.1484 44.9526 58.6191 38.6176 58.937C18.0869 64.9369 15.4641 80.7565 15.4641 91.3802C15.4641 99.0726 20.6848 99.7256 30.7242 98.9121L30.986 98.8918C38.3262 98.2825 48.1863 96.9329 60.515 96.9329C71.4271 96.9329 81.3386 97.7916 89.5048 98.1999C103.406 98.895 112.233 98.2841 112.233 89.8826C112.231 88.6437 112.016 87.3455 111.606 86.0099ZM52.3224 62.8144H62.0422C80.4566 62.8144 92.4798 72.3301 92.4798 72.3301C98.7805 77.3155 98.3005 78.2505 91.4138 74.4043C91.4138 74.4043 76.1818 65.9 55.5701 65.9H49.5858C44.2949 66.5109 45.4295 63.1712 52.3224 62.8144Z" fill="#66675E"/>
<path d="M62.125 30.1033C58.4486 30.041 54.8908 29.9412 52.0124 30.0612C50.2482 30.1345 48.7038 30.1002 47.3418 29.8789C36.2053 31.3127 26.5462 36.524 20.7192 42.3214C17.0351 45.9883 14.8564 49.8782 14.8564 53.1914C14.8564 59.6027 25.3446 59.6058 38.6177 58.9388C44.9527 58.6209 51.9173 58.1503 58.6855 58.1503C68.7155 58.1503 74.8432 59.4204 78.5149 59.7087C81.9559 59.9783 83.2369 59.3845 83.5268 56.0589C83.572 55.5228 83.6 54.9384 83.6 54.2542C83.5985 45.9135 81.3325 33.0612 62.125 30.1033ZM33.1383 37.7193C33.1383 37.7193 38.6427 33.3744 47.4072 32.2072C52.7448 32.8726 55.204 32.79 59.873 32.4316C50.0939 33.5911 33.7897 38.9863 33.7897 38.9863C29.9778 40.431 29.2937 40.7614 33.1383 37.7193Z" fill="#5A5F65"/>
<path d="M72.8674 20.8645C80.6844 12.9602 80.3946 0.000307837 80.3946 0.000307837C80.3946 0.000307837 79.9442 -0.00592586 79.1587 0.03771C73.1931 11.023 63.7179 22.5258 52.1014 27.6841C52.0811 28.2795 52.0889 28.6192 52.0889 28.6192C52.0889 28.6192 65.0519 28.7672 72.8674 20.8645ZM50.9201 28.6176C50.9201 28.6176 50.9295 27.706 50.7627 26.3081C43.3415 22.9216 36.9177 17.0292 32.8035 9.93993C32.3094 9.91811 32.0211 9.92435 32.0211 9.92435C32.0211 9.92435 31.9229 18.4848 37.1437 23.6478C42.3644 28.8109 50.9201 28.6176 50.9201 28.6176Z" fill="#7EA43F"/>
</svg>
