<svg width="228" height="35" viewBox="0 0 228 35" fill="none" xmlns="http://www.w3.org/2000/svg">
<path d="M21.5186 7.8646e-05C21.5186 7.8646e-05 21.4036 -0.00151394 21.2029 0.00963414C20.329 0.0574116 17.8342 0.338502 16.2097 1.98125C14.534 3.67576 14.317 6.27923 14.2903 7.07274C14.2851 7.22483 14.2871 7.31162 14.2871 7.31162C14.2871 7.31162 17.5989 7.34945 19.596 5.33005C21.5931 3.31066 21.5186 7.8646e-05 21.5186 7.8646e-05ZM13.9487 6.72117C13.8607 5.97943 13.5804 4.69581 12.6802 3.80555C11.5893 2.72658 9.92821 2.56334 9.36006 2.53945C9.23385 2.53388 9.16019 2.53547 9.16019 2.53547C9.16019 2.53547 9.13511 4.72248 10.4689 6.04154C11.8027 7.36059 13.9889 7.31123 13.9889 7.31123C13.9889 7.31123 13.9909 7.07831 13.9487 6.72117Z" fill="#8BC53F"/>
<path d="M23.8453 25.0874C21.7594 24.9827 19.2268 24.7637 16.439 24.7637C13.2893 24.7637 10.7706 25.1085 8.89493 25.2641L8.82804 25.2693C4.74984 26.5697 1.81312 28.634 1.13348 30.3835C1.03474 30.6375 0.979004 30.8856 0.979004 31.1233C0.979004 33.9748 7.61409 35 16.4139 35C25.1663 35 29.8047 34.3001 29.8541 31.4868C29.8545 31.4716 29.8589 31.4585 29.8589 31.4434C29.8589 29.4594 27.9613 26.6286 23.8453 25.0874ZM6.66651 27.4512C6.66651 27.4512 10.3673 25.4202 16.0357 25.4202H19.0273C21.149 25.4963 21.4982 26.2085 19.8694 26.0787H18.0272C11.6831 26.0787 6.99458 27.8939 6.99458 27.8939C4.87446 28.7145 4.72675 28.515 6.66651 27.4512Z" fill="#5A5F65"/>
<path d="M29.4926 21.9735C28.744 19.5432 25.4331 16.6408 21.0383 15.2536C20.1007 15.18 18.5348 14.8555 15.9723 14.8555C14.2432 14.8555 12.4639 14.9757 10.8454 15.0569C5.60025 16.5898 4.93018 20.6314 4.93018 23.3455C4.93018 25.3108 6.26396 25.4776 8.82881 25.2698L8.8957 25.2646C10.771 25.1089 13.29 24.7641 16.4398 24.7641C19.2276 24.7641 21.7598 24.9835 23.8461 25.0878C27.3975 25.2654 29.6526 25.1093 29.6526 22.9629C29.6522 22.6464 29.5973 22.3147 29.4926 21.9735ZM14.3467 16.0475H16.8299C21.5344 16.0475 24.6061 18.4786 24.6061 18.4786C26.2158 19.7523 26.0932 19.9911 24.3338 19.0085C24.3338 19.0085 20.4423 16.8358 15.1764 16.8358H13.6476C12.2959 16.9919 12.5857 16.1387 14.3467 16.0475Z" fill="#66675E"/>
<path d="M16.851 7.68819C15.9118 7.67227 15.0029 7.64679 14.2675 7.67744C13.8168 7.69616 13.4222 7.6874 13.0742 7.63086C10.2291 7.99715 7.76139 9.32855 6.27272 10.8097C5.33151 11.7465 4.7749 12.7403 4.7749 13.5867C4.7749 15.2247 7.45442 15.2255 10.8454 15.0551C12.4639 14.9739 14.2432 14.8536 15.9723 14.8536C18.5348 14.8536 20.1003 15.1781 21.0383 15.2518C21.9174 15.3206 22.2447 15.1689 22.3188 14.3193C22.3303 14.1823 22.3375 14.033 22.3375 13.8583C22.3371 11.7274 21.7582 8.44387 16.851 7.68819ZM9.44554 9.63393C9.44554 9.63393 10.8518 8.5239 13.091 8.22569C14.4546 8.3957 15.0829 8.3746 16.2757 8.28302C13.7774 8.57924 9.61197 9.95762 9.61197 9.95762C8.63811 10.3267 8.46332 10.4111 9.44554 9.63393Z" fill="#5A5F65"/>
<path d="M19.5956 5.33045C21.5927 3.31106 21.5186 7.8646e-05 21.5186 7.8646e-05C21.5186 7.8646e-05 21.4036 -0.00151394 21.2029 0.00963414C19.6788 2.81616 17.2581 5.75487 14.2903 7.07274C14.2851 7.22483 14.2871 7.31162 14.2871 7.31162C14.2871 7.31162 17.5989 7.34945 19.5956 5.33045ZM13.9885 7.31123C13.9885 7.31123 13.9909 7.07831 13.9483 6.72117C12.0523 5.856 10.4112 4.35061 9.36006 2.53945C9.23385 2.53388 9.16019 2.53547 9.16019 2.53547C9.16019 2.53547 9.13511 4.72248 10.4689 6.04154C11.8027 7.36059 13.9885 7.31123 13.9885 7.31123Z" fill="#7EA43F"/>
<path d="M224.134 13.1091V19.7204C224.134 20.1809 224.241 20.518 224.454 20.7318C224.685 20.9292 225.063 21.0278 225.589 21.0278H227.193V23.9388H225.022C222.111 23.9388 220.655 22.5244 220.655 19.6957V13.1091H219.027V10.2722H220.655V6.89258H224.134V10.2722H227.193V13.1091H224.134Z" fill="#222222"/>
<path d="M211.376 10.0762C213.004 10.0762 214.32 10.5942 215.323 11.6303C216.326 12.65 216.828 14.0808 216.828 15.9227V23.9401H213.374V16.3914C213.374 15.306 213.103 14.4755 212.56 13.8998C212.017 13.3078 211.277 13.0118 210.34 13.0118C209.386 13.0118 208.63 13.3078 208.07 13.8998C207.528 14.4755 207.256 15.306 207.256 16.3914V23.9401H203.803V10.2735H207.256V11.9757C207.717 11.3836 208.301 10.9231 209.008 10.5942C209.731 10.2489 210.521 10.0762 211.376 10.0762Z" fill="#222222"/>
<path d="M186.196 17.0567C186.196 15.6753 186.467 14.4501 187.01 13.3811C187.569 12.3121 188.317 11.4898 189.255 10.9142C190.209 10.3386 191.269 10.0508 192.437 10.0508C193.457 10.0508 194.345 10.2564 195.101 10.6675C195.874 11.0787 196.491 11.5967 196.951 12.2216V10.2728H200.43V23.9394H196.951V21.9412C196.507 22.5826 195.891 23.1171 195.101 23.5447C194.328 23.9558 193.432 24.1614 192.412 24.1614C191.261 24.1614 190.209 23.8654 189.255 23.2733C188.317 22.6812 187.569 21.8507 187.01 20.7817C186.467 19.6963 186.196 18.4546 186.196 17.0567ZM196.951 17.1061C196.951 16.2673 196.787 15.5519 196.458 14.9599C196.129 14.3514 195.685 13.8909 195.126 13.5784C194.567 13.2495 193.966 13.0851 193.325 13.0851C192.684 13.0851 192.092 13.2413 191.549 13.5538C191.006 13.8662 190.562 14.3267 190.217 14.9352C189.888 15.5273 189.723 16.2344 189.723 17.0567C189.723 17.879 189.888 18.6027 190.217 19.2276C190.562 19.8361 191.006 20.3048 191.549 20.6337C192.108 20.9626 192.7 21.1271 193.325 21.1271C193.966 21.1271 194.567 20.9709 195.126 20.6584C195.685 20.3295 196.129 19.869 196.458 19.2769C196.787 18.6684 196.951 17.9448 196.951 17.1061Z" fill="#222222"/>
<path d="M183.672 5.6875V23.9425H180.218V5.6875H183.672Z" fill="#222222"/>
<path d="M176.806 5.6875V23.9425H173.353V5.6875H176.806Z" fill="#222222"/>
<path d="M168.238 8.64531C167.63 8.64531 167.12 8.45618 166.709 8.07792C166.314 7.68322 166.117 7.19806 166.117 6.62246C166.117 6.04685 166.314 5.56992 166.709 5.19166C167.12 4.79696 167.63 4.59961 168.238 4.59961C168.847 4.59961 169.348 4.79696 169.743 5.19166C170.154 5.56992 170.36 6.04685 170.36 6.62246C170.36 7.19806 170.154 7.68322 169.743 8.07792C169.348 8.45618 168.847 8.64531 168.238 8.64531ZM169.94 10.2735V23.94H166.487V10.2735H169.94Z" fill="#222222"/>
<path d="M148.879 17.0567C148.879 15.6753 149.151 14.4501 149.693 13.3811C150.253 12.3121 151.001 11.4898 151.938 10.9142C152.892 10.3386 153.953 10.0508 155.121 10.0508C156.14 10.0508 157.028 10.2564 157.785 10.6675C158.558 11.0787 159.175 11.5967 159.635 12.2216V10.2728H163.113V23.9394H159.635V21.9412C159.191 22.5826 158.574 23.1171 157.785 23.5447C157.012 23.9558 156.116 24.1614 155.096 24.1614C153.945 24.1614 152.892 23.8654 151.938 23.2733C151.001 22.6812 150.253 21.8507 149.693 20.7817C149.151 19.6963 148.879 18.4546 148.879 17.0567ZM159.635 17.1061C159.635 16.2673 159.471 15.5519 159.142 14.9599C158.813 14.3514 158.369 13.8909 157.81 13.5784C157.25 13.2495 156.65 13.0851 156.009 13.0851C155.367 13.0851 154.775 13.2413 154.233 13.5538C153.69 13.8662 153.246 14.3267 152.9 14.9352C152.572 15.5273 152.407 16.2344 152.407 17.0567C152.407 17.879 152.572 18.6027 152.9 19.2276C153.246 19.8361 153.69 20.3048 154.233 20.6337C154.792 20.9626 155.384 21.1271 156.009 21.1271C156.65 21.1271 157.25 20.9709 157.81 20.6584C158.369 20.3295 158.813 19.869 159.142 19.2769C159.471 18.6684 159.635 17.9448 159.635 17.1061Z" fill="#222222"/>
<path d="M147.697 6.72266L141.382 23.9415H137.188L130.873 6.72266H134.573L139.31 20.4139L144.022 6.72266H147.697Z" fill="#222222"/>
<path d="M117.615 10.0762C119.243 10.0762 120.559 10.5942 121.562 11.6303C122.566 12.65 123.067 14.0808 123.067 15.9227V23.9401H119.614V16.3914C119.614 15.306 119.342 14.4755 118.799 13.8998C118.257 13.3078 117.517 13.0118 116.579 13.0118C115.625 13.0118 114.869 13.3078 114.31 13.8998C113.767 14.4755 113.496 15.306 113.496 16.3914V23.9401H110.042V10.2735H113.496V11.9757C113.956 11.3836 114.54 10.9231 115.247 10.5942C115.971 10.2489 116.76 10.0762 117.615 10.0762Z" fill="#222222"/>
<path d="M104.928 8.64531C104.319 8.64531 103.809 8.45618 103.398 8.07792C103.003 7.68322 102.806 7.19806 102.806 6.62246C102.806 6.04685 103.003 5.56992 103.398 5.19166C103.809 4.79696 104.319 4.59961 104.928 4.59961C105.536 4.59961 106.038 4.79696 106.432 5.19166C106.844 5.56992 107.049 6.04685 107.049 6.62246C107.049 7.19806 106.844 7.68322 106.432 8.07792C106.038 8.45618 105.536 8.64531 104.928 8.64531ZM106.63 10.2735V23.94H103.176V10.2735H106.63Z" fill="#222222"/>
<path d="M85.5693 17.0567C85.5693 15.6753 85.8407 14.4501 86.3834 13.3811C86.9426 12.3121 87.6909 11.4898 88.6283 10.9142C89.5821 10.3386 90.6429 10.0508 91.8106 10.0508C92.8302 10.0508 93.7183 10.2564 94.4748 10.6675C95.2478 11.0787 95.8645 11.5967 96.325 12.2216V10.2728H99.8033V23.9394H96.325V21.9412C95.8809 22.5826 95.2642 23.1171 94.4748 23.5447C93.7018 23.9558 92.8055 24.1614 91.7859 24.1614C90.6347 24.1614 89.5821 23.8654 88.6283 23.2733C87.6909 22.6812 86.9426 21.8507 86.3834 20.7817C85.8407 19.6963 85.5693 18.4546 85.5693 17.0567ZM96.325 17.1061C96.325 16.2673 96.1605 15.5519 95.8316 14.9599C95.5027 14.3514 95.0586 13.8909 94.4995 13.5784C93.9403 13.2495 93.34 13.0851 92.6986 13.0851C92.0573 13.0851 91.4652 13.2413 90.9225 13.5538C90.3798 13.8662 89.9357 14.3267 89.5904 14.9352C89.2614 15.5273 89.097 16.2344 89.097 17.0567C89.097 17.879 89.2614 18.6027 89.5904 19.2276C89.9357 19.8361 90.3798 20.3048 90.9225 20.6337C91.4816 20.9626 92.0737 21.1271 92.6986 21.1271C93.34 21.1271 93.9403 20.9709 94.4995 20.6584C95.0586 20.3295 95.5027 19.869 95.8316 19.2769C96.1605 18.6684 96.325 17.9448 96.325 17.1061Z" fill="#222222"/>
<path d="M77.3883 20.7577L80.842 10.2734H84.5177L79.4605 23.94H75.2668L70.2344 10.2734H73.9347L77.3883 20.7577Z" fill="#222222"/>
<path d="M68.2774 5.6875V23.9425H64.8237V5.6875H68.2774Z" fill="#222222"/>
<path d="M62.9624 10.2734L54.501 30.4032H50.8253L53.7856 23.5946L48.3091 10.2734H52.1821L55.7097 19.8203L59.2867 10.2734H62.9624Z" fill="#222222"/>
<path d="M40.8004 24.1109C39.5998 24.1109 38.5144 23.9053 37.5441 23.4942C36.5902 23.083 35.8337 22.491 35.2745 21.718C34.7154 20.9451 34.4276 20.0323 34.4111 18.9798H38.1115C38.1608 19.687 38.4075 20.2461 38.8515 20.6573C39.312 21.0684 39.937 21.274 40.7264 21.274C41.5322 21.274 42.1654 21.0849 42.6259 20.7066C43.0864 20.3119 43.3166 19.8021 43.3166 19.1771C43.3166 18.6673 43.1604 18.2479 42.8479 17.919C42.5354 17.5901 42.1407 17.3352 41.6638 17.1543C41.2033 16.9569 40.5619 16.7431 39.7396 16.5129C38.6213 16.184 37.7085 15.8633 37.0014 15.5508C36.3106 15.2219 35.7104 14.7367 35.2005 14.0953C34.7072 13.4375 34.4605 12.5659 34.4605 11.4804C34.4605 10.4608 34.7154 9.57271 35.2252 8.8162C35.735 8.05969 36.4504 7.48408 37.3714 7.08938C38.2924 6.67823 39.3449 6.47266 40.529 6.47266C42.3052 6.47266 43.7442 6.90847 44.8461 7.78011C45.9644 8.63529 46.5811 9.83585 46.6962 11.3818H42.8972C42.8643 10.7897 42.6094 10.3046 42.1325 9.9263C41.672 9.5316 41.0553 9.33425 40.2823 9.33425C39.608 9.33425 39.0653 9.50693 38.6542 9.85229C38.2595 10.1977 38.0621 10.6993 38.0621 11.3571C38.0621 11.8176 38.2101 12.2041 38.5062 12.5165C38.8186 12.8126 39.1969 13.0592 39.6409 13.2566C40.1014 13.4375 40.7428 13.6513 41.5651 13.898C42.6834 14.2269 43.5962 14.5558 44.3034 14.8847C45.0105 15.2137 45.619 15.707 46.1288 16.3649C46.6387 17.0227 46.8936 17.8861 46.8936 18.9551C46.8936 19.8761 46.6551 20.7313 46.1782 21.5207C45.7013 22.3101 45.0023 22.9432 44.0813 23.4202C43.1604 23.8807 42.0667 24.1109 40.8004 24.1109Z" fill="#222222"/>
</svg>
