<svg width="477" height="500" viewBox="0 0 477 500" fill="none" xmlns="http://www.w3.org/2000/svg">
<g opacity="0.4">
<path d="M451.512 209.247L450.677 205.107C450.152 202.503 450.039 200.264 450.339 198.387C450.638 196.512 451.17 194.846 451.934 193.391C452.697 191.937 453.5 190.61 454.342 189.41C455.486 187.826 456.476 186.284 457.312 184.788C458.149 183.292 458.357 181.502 457.937 179.419C457.706 178.274 457.225 177.368 456.495 176.702C455.764 176.036 454.951 175.564 454.055 175.284C453.158 175.005 452.32 174.943 451.538 175.1C450.027 175.405 448.836 176.01 447.962 176.918C447.088 177.826 446.435 178.892 446.005 180.117C445.574 181.342 445.246 182.601 445.018 183.893L435.185 181.485C435.308 180.485 435.614 179.177 436.101 177.561C436.588 175.946 437.4 174.265 438.539 172.517C439.677 170.771 441.227 169.185 443.189 167.759C445.15 166.335 447.642 165.317 450.662 164.708C453.63 164.11 456.401 164.08 458.976 164.617C461.55 165.155 463.753 166.337 465.584 168.163C467.415 169.989 468.677 172.62 469.37 176.057C469.947 178.922 470.024 181.318 469.599 183.246C469.175 185.174 468.512 186.866 467.614 188.32C466.715 189.775 465.812 191.217 464.909 192.645C464.202 193.71 463.553 194.857 462.961 196.086C462.368 197.317 461.98 198.682 461.795 200.182C461.61 201.682 461.717 203.423 462.115 205.401L462.446 207.041L451.512 209.247ZM460.302 224.628C458.427 225.006 456.788 224.808 455.386 224.034C453.982 223.26 453.114 222.04 452.778 220.373C452.453 218.759 452.791 217.281 453.795 215.941C454.798 214.601 456.21 213.747 458.034 213.379C459.856 213.012 461.464 213.257 462.857 214.114C464.249 214.972 465.108 216.208 465.433 217.822C465.769 219.489 465.466 220.945 464.525 222.192C463.584 223.438 462.177 224.25 460.302 224.628Z" fill="#55A3F3"/>
<path d="M44.6538 269.415L43.0508 265.917C42.0428 263.717 41.4748 261.755 41.3498 260.028C41.2238 258.303 41.3488 256.715 41.7228 255.265C42.0968 253.816 42.5318 252.472 43.0288 251.232C43.7128 249.588 44.2698 248.015 44.6998 246.513C45.1298 245.012 44.9418 243.381 44.1348 241.621C43.6918 240.654 43.0758 239.95 42.2898 239.512C41.5028 239.074 40.6828 238.824 39.8298 238.763C38.9758 238.702 38.2198 238.822 37.5598 239.124C36.2828 239.709 35.3528 240.495 34.7678 241.482C34.1818 242.469 33.8258 243.551 33.6988 244.727C33.5718 245.904 33.5428 247.088 33.6108 248.281L24.3878 248.195C24.2888 247.282 24.2878 246.059 24.3828 244.524C24.4788 242.99 24.8478 241.33 25.4938 239.542C26.1388 237.757 27.1828 236.027 28.6258 234.353C30.0678 232.681 32.0658 231.259 34.6178 230.089C37.1258 228.94 39.5768 228.336 41.9728 228.276C44.3678 228.217 46.5678 228.806 48.5728 230.043C50.5778 231.28 52.2448 233.351 53.5758 236.255C54.6848 238.675 55.2528 240.785 55.2778 242.583C55.3038 244.382 55.0688 246.021 54.5748 247.497C54.0808 248.975 53.5808 250.442 53.0778 251.897C52.6718 252.989 52.3358 254.141 52.0668 255.355C51.7978 256.57 51.7378 257.862 51.8868 259.231C52.0348 260.6 52.4928 262.122 53.2588 263.793L53.8938 265.179L44.6538 269.415ZM55.6558 281.223C54.0718 281.949 52.5768 282.115 51.1718 281.721C49.7658 281.327 48.7418 280.426 48.0958 279.018C47.4708 277.655 47.4628 276.273 48.0738 274.875C48.6838 273.478 49.7588 272.426 51.2998 271.719C52.8398 271.014 54.3168 270.896 55.7298 271.366C57.1428 271.837 58.1628 272.754 58.7878 274.118C59.4338 275.527 59.4678 276.881 58.8938 278.183C58.3188 279.484 57.2398 280.497 55.6558 281.223Z" fill="#55A3F3"/>
<path d="M256.452 51.4341L256.934 48.2351C257.237 46.2231 257.741 44.5811 258.448 43.3081C259.154 42.0361 259.972 40.9761 260.903 40.1281C261.833 39.2801 262.758 38.5351 263.679 37.8921C264.917 37.0501 266.033 36.2001 267.027 35.3411C268.021 34.4831 268.639 33.2491 268.882 31.6381C269.015 30.7531 268.906 29.9751 268.554 29.3041C268.202 28.6341 267.74 28.0811 267.168 27.6441C266.595 27.2081 266.008 26.9441 265.404 26.8531C264.236 26.6771 263.22 26.8021 262.353 27.2271C261.486 27.6521 260.737 28.2491 260.107 29.0191C259.476 29.7881 258.911 30.6091 258.409 31.4801L251.958 27.1741C252.309 26.4861 252.871 25.6241 253.644 24.5881C254.418 23.5531 255.442 22.5551 256.719 21.5941C257.995 20.6351 259.526 19.8981 261.312 19.3851C263.097 18.8731 265.157 18.7911 267.491 19.1431C269.785 19.4891 271.788 20.1921 273.501 21.2531C275.213 22.3141 276.491 23.7411 277.332 25.5351C278.173 27.3291 278.394 29.5531 277.993 32.2101C277.66 34.4241 277.088 36.1691 276.278 37.4461C275.468 38.7241 274.549 39.7691 273.521 40.5801C272.493 41.3931 271.466 42.1951 270.442 42.9871C269.654 43.5691 268.887 44.2251 268.139 44.9551C267.39 45.6861 266.754 46.5671 266.228 47.5991C265.702 48.6311 265.324 49.9121 265.093 51.4411L264.902 52.7081L256.452 51.4341ZM258.758 64.8081C257.309 64.5901 256.181 64.0181 255.374 63.0941C254.566 62.1701 254.26 61.0641 254.454 59.7761C254.642 58.5291 255.272 57.5531 256.346 56.8511C257.418 56.1481 258.659 55.9031 260.068 56.1151C261.476 56.3271 262.57 56.9241 263.348 57.9061C264.126 58.8881 264.421 60.0031 264.233 61.2501C264.039 62.5381 263.439 63.5071 262.436 64.1591C261.432 64.8101 260.206 65.0271 258.758 64.8081Z" fill="#55A3F3"/>
<path d="M228.218 88.0727L227.732 85.4927C227.427 83.8697 227.374 82.4777 227.575 81.3137C227.776 80.1507 228.119 79.1197 228.606 78.2207C229.092 77.3227 229.601 76.5047 230.135 75.7657C230.859 74.7897 231.486 73.8397 232.018 72.9157C232.55 71.9927 232.693 70.8817 232.449 69.5837C232.315 68.8697 232.023 68.3027 231.574 67.8837C231.125 67.4637 230.623 67.1637 230.069 66.9827C229.514 66.8017 228.993 66.7567 228.506 66.8487C227.564 67.0257 226.819 67.3927 226.269 67.9507C225.719 68.5077 225.305 69.1657 225.028 69.9237C224.75 70.6817 224.536 71.4617 224.385 72.2627L218.292 70.6877C218.377 70.0667 218.577 69.2567 218.893 68.2557C219.209 67.2557 219.727 66.2177 220.449 65.1397C221.17 64.0637 222.146 63.0897 223.377 62.2197C224.607 61.3497 226.164 60.7367 228.046 60.3827C229.896 60.0347 231.618 60.0377 233.215 60.3927C234.81 60.7477 236.171 61.4997 237.294 62.6487C238.418 63.7977 239.181 65.4437 239.585 67.5857C239.921 69.3707 239.95 70.8617 239.67 72.0557C239.391 73.2507 238.966 74.2977 238.396 75.1937C237.825 76.0917 237.253 76.9807 236.68 77.8607C236.232 78.5167 235.819 79.2247 235.442 79.9847C235.064 80.7447 234.812 81.5897 234.685 82.5217C234.558 83.4527 234.611 84.5357 234.843 85.7687L235.035 86.7907L228.218 88.0727ZM233.56 97.7027C232.392 97.9227 231.374 97.7867 230.509 97.2947C229.643 96.8027 229.113 96.0377 228.917 94.9987C228.728 93.9927 228.95 93.0767 229.584 92.2517C230.218 91.4267 231.103 90.9067 232.239 90.6927C233.375 90.4787 234.372 90.6437 235.231 91.1877C236.09 91.7317 236.614 92.5077 236.803 93.5127C236.999 94.5517 236.799 95.4537 236.204 96.2217C235.609 96.9897 234.728 97.4827 233.56 97.7027Z" fill="#55A3F3"/>
<path d="M283.464 87.8703L283.934 85.9893C284.23 84.8063 284.624 83.8553 285.118 83.1363C285.611 82.4173 286.16 81.8323 286.763 81.3793C287.366 80.9273 287.96 80.5353 288.546 80.2033C289.332 79.7723 290.047 79.3283 290.688 78.8723C291.33 78.4173 291.769 77.7163 292.005 76.7693C292.135 76.2493 292.114 75.7783 291.943 75.3583C291.771 74.9383 291.527 74.5823 291.211 74.2893C290.894 73.9963 290.559 73.8063 290.204 73.7173C289.517 73.5463 288.904 73.5623 288.363 73.7663C287.822 73.9703 287.341 74.2843 286.921 74.7073C286.501 75.1303 286.117 75.5873 285.768 76.0783L282.165 73.1423C282.413 72.7513 282.798 72.2703 283.318 71.6963C283.838 71.1223 284.506 70.5853 285.323 70.0853C286.139 69.5853 287.094 69.2333 288.189 69.0293C289.283 68.8253 290.516 68.8943 291.889 69.2373C293.238 69.5743 294.392 70.1083 295.354 70.8383C296.315 71.5683 296.996 72.4923 297.395 73.6103C297.795 74.7283 297.799 76.0673 297.409 77.6293C297.084 78.9303 296.643 79.9393 296.087 80.6553C295.531 81.3713 294.923 81.9423 294.264 82.3683C293.604 82.7943 292.946 83.2143 292.29 83.6283C291.787 83.9303 291.292 84.2783 290.804 84.6713C290.316 85.0643 289.886 85.5543 289.513 86.1403C289.14 86.7263 288.842 87.4683 288.617 88.3673L288.431 89.1123L283.464 87.8703ZM284.078 95.9793C283.226 95.7663 282.585 95.3613 282.157 94.7643C281.728 94.1663 281.608 93.4903 281.797 92.7323C281.98 91.9993 282.412 91.4533 283.092 91.0953C283.772 90.7373 284.526 90.6613 285.355 90.8683C286.183 91.0753 286.801 91.4933 287.21 92.1233C287.618 92.7533 287.731 93.4353 287.548 94.1683C287.359 94.9253 286.946 95.4693 286.311 95.8013C285.674 96.1323 284.93 96.1923 284.078 95.9793Z" fill="#55A3F3"/>
<path d="M428.283 262.466L428.701 259.878C428.964 258.25 429.386 256.924 429.97 255.899C430.553 254.874 431.225 254.022 431.986 253.344C432.747 252.665 433.502 252.069 434.254 251.556C435.264 250.885 436.176 250.205 436.988 249.518C437.801 248.831 438.312 247.836 438.522 246.534C438.638 245.818 438.556 245.187 438.277 244.641C437.997 244.095 437.628 243.643 437.168 243.285C436.708 242.927 436.234 242.708 435.746 242.629C434.801 242.476 433.977 242.569 433.271 242.906C432.565 243.243 431.953 243.72 431.436 244.338C430.918 244.956 430.453 245.616 430.039 246.317L424.849 242.773C425.139 242.219 425.602 241.525 426.237 240.692C426.873 239.86 427.711 239.06 428.754 238.293C429.796 237.527 431.042 236.943 432.494 236.542C433.944 236.142 435.614 236.094 437.502 236.399C439.357 236.699 440.974 237.286 442.353 238.159C443.731 239.033 444.754 240.2 445.42 241.661C446.086 243.121 446.246 244.926 445.899 247.074C445.61 248.865 445.132 250.274 444.465 251.302C443.798 252.33 443.044 253.169 442.205 253.818C441.365 254.468 440.526 255.109 439.69 255.742C439.047 256.206 438.419 256.731 437.807 257.317C437.194 257.903 436.671 258.611 436.236 259.443C435.801 260.275 435.484 261.309 435.284 262.546L435.118 263.571L428.283 262.466ZM430.038 273.321C428.866 273.132 427.957 272.659 427.311 271.904C426.664 271.148 426.426 270.25 426.594 269.208C426.757 268.199 427.276 267.414 428.152 266.854C429.027 266.294 430.034 266.106 431.174 266.29C432.313 266.474 433.194 266.967 433.816 267.769C434.438 268.571 434.667 269.477 434.505 270.486C434.337 271.528 433.843 272.308 433.025 272.827C432.205 273.346 431.21 273.511 430.038 273.321Z" fill="#55A3F3"/>
<path d="M56.3745 211.222L56.3065 208.634C56.2635 207.006 56.4305 205.642 56.8085 204.541C57.1865 203.44 57.6825 202.49 58.2965 201.692C58.9105 200.894 59.5345 200.177 60.1695 199.541C61.0275 198.704 61.7865 197.878 62.4495 197.062C63.1125 196.247 63.4265 195.188 63.3915 193.885C63.3725 193.169 63.1775 192.571 62.8065 192.093C62.4355 191.614 61.9935 191.243 61.4825 190.98C60.9705 190.717 60.4705 190.591 59.9825 190.604C59.0375 190.629 58.2545 190.869 57.6315 191.326C57.0085 191.782 56.5015 192.358 56.1135 193.052C55.7245 193.746 55.3935 194.472 55.1205 195.228L49.4355 192.74C49.6155 192.149 49.9375 191.391 50.4015 190.467C50.8655 189.543 51.5325 188.613 52.4045 187.678C53.2755 186.743 54.3775 185.948 55.7125 185.294C57.0465 184.64 58.6585 184.288 60.5465 184.238C62.4015 184.189 64.0785 184.462 65.5765 185.058C67.0745 185.654 68.2805 186.599 69.1945 187.894C70.1085 189.189 70.5935 190.911 70.6505 193.059C70.6975 194.85 70.4915 196.305 70.0325 197.424C69.5735 198.544 68.9955 199.496 68.3005 200.279C67.6045 201.063 66.9075 201.839 66.2125 202.606C65.6735 203.175 65.1605 203.799 64.6735 204.479C64.1865 205.16 63.8085 205.943 63.5385 206.83C63.2685 207.717 63.1505 208.779 63.1835 210.016L63.2105 211.041L56.3745 211.222ZM60.0655 221.434C58.8935 221.465 57.9245 221.173 57.1595 220.558C56.3935 219.943 55.9975 219.115 55.9695 218.073C55.9425 217.064 56.3025 216.207 57.0495 215.503C57.7955 214.799 58.7385 214.432 59.8785 214.402C61.0175 214.372 61.9625 214.689 62.7135 215.353C63.4635 216.017 63.8525 216.854 63.8795 217.863C63.9075 218.905 63.5705 219.752 62.8715 220.406C62.1725 221.061 61.2365 221.403 60.0655 221.434Z" fill="#55A3F3"/>
</g>
<path d="M172.038 120.67C182.58 83.2271 160.771 44.3278 123.327 33.7863C85.8837 23.2448 46.9841 45.0529 36.4428 82.4961C25.9014 119.939 47.7101 158.839 85.1538 169.38C122.598 179.922 161.497 158.113 172.038 120.67Z" fill="#55A3F3"/>
<path d="M153.152 152.266C183.808 122.88 186.838 76.2937 159.921 48.2129C133.003 20.132 86.3301 21.1903 55.6741 50.5766C25.0181 79.9629 21.9877 126.549 48.9054 154.63C75.8232 182.711 122.496 181.653 153.152 152.266Z" stroke="#55A3F3" stroke-width="1.0506" stroke-miterlimit="10"/>
<path d="M98.1836 168.673L127.129 193.687L113.883 159.146L98.1836 168.673Z" fill="#55A3F3"/>
<path d="M103.49 125.608L101.758 119.101C100.669 115.008 100.27 111.455 100.564 108.439C100.857 105.425 101.541 102.723 102.615 100.333C103.688 97.9441 104.836 95.7541 106.06 93.7621C107.726 91.1291 109.151 88.5801 110.336 86.1161C111.522 83.6531 111.678 80.7851 110.807 77.5091C110.328 75.7101 109.474 74.3141 108.247 73.3251C107.019 72.3371 105.679 71.6641 104.225 71.3051C102.77 70.9481 101.43 70.9311 100.202 71.2581C97.8268 71.8901 95.9898 72.9711 94.6878 74.5001C93.3858 76.0301 92.4508 77.7911 91.8858 79.7821C91.3188 81.7741 90.9198 83.8091 90.6838 85.8881L87.3398 86.7781L74.7988 83.0151C74.8978 81.4111 75.2568 79.3001 75.8748 76.6801C76.4928 74.0631 77.6208 71.3071 79.2638 68.4151C80.9048 65.5251 83.2168 62.8491 86.2008 60.3891C89.1828 57.9311 93.0488 56.0681 97.7978 54.8041C102.464 53.5621 106.871 53.2441 111.021 53.8491C115.17 54.4541 118.792 56.1201 121.884 58.8481C124.977 61.5751 127.242 65.6401 128.68 71.0431C129.878 75.5461 130.234 79.3531 129.746 82.4621C129.259 85.5721 128.37 88.3301 127.082 90.7321C125.793 93.1361 124.497 95.5181 123.199 97.8801C122.177 99.6441 121.256 101.532 120.434 103.547C119.61 105.563 119.126 107.774 118.978 110.18C118.829 112.586 119.169 115.346 119.997 118.456L120.683 121.034L103.49 125.608ZM118.98 149.23C116.033 150.014 113.405 149.859 111.098 148.764C108.789 147.669 107.288 145.812 106.591 143.192C105.916 140.655 106.31 138.27 107.777 136.039C109.242 133.808 111.408 132.311 114.274 131.549C117.138 130.787 119.722 131.02 122.021 132.249C124.32 133.478 125.808 135.362 126.483 137.899C127.181 140.52 126.839 142.866 125.465 144.942C124.088 147.017 121.927 148.446 118.98 149.23Z" fill="#2C54AC"/>
<path d="M100.145 126.498L98.4126 119.99C97.3236 115.897 96.9246 112.344 97.2186 109.328C97.5116 106.314 98.1956 103.612 99.2696 101.222C100.343 98.8334 101.491 96.6434 102.715 94.6514C104.381 92.0184 105.806 89.4694 106.991 87.0044C108.177 84.5414 108.333 81.6734 107.462 78.3984C106.983 76.5984 106.129 75.2034 104.902 74.2144C103.674 73.2264 102.334 72.5534 100.88 72.1944C99.4246 71.8374 98.0846 71.8204 96.8566 72.1474C94.4816 72.7794 92.6446 73.8594 91.3426 75.3894C90.0406 76.9194 89.1056 78.6804 88.5406 80.6714C87.9736 82.6634 87.5746 84.6984 87.3386 86.7764L71.4526 83.9034C71.5516 82.2994 71.9106 80.1884 72.5286 77.5684C73.1466 74.9514 74.2746 72.1964 75.9176 69.3034C77.5586 66.4144 79.8706 63.7384 82.8546 61.2774C85.8366 58.8194 89.7026 56.9564 94.4516 55.6924C99.1176 54.4504 103.525 54.1334 107.676 54.7374C111.825 55.3424 115.447 57.0084 118.539 59.7364C121.632 62.4634 123.897 66.5284 125.335 71.9314C126.533 76.4344 126.889 80.2414 126.401 83.3504C125.914 86.4614 125.025 89.2194 123.737 91.6204C122.448 94.0244 121.152 96.4074 119.854 98.7684C118.832 100.531 117.911 102.42 117.089 104.435C116.265 106.451 115.781 108.662 115.633 111.068C115.484 113.474 115.824 116.234 116.652 119.344L117.338 121.922L100.145 126.498ZM115.636 150.12C112.689 150.904 110.061 150.749 107.754 149.654C105.445 148.559 103.944 146.703 103.247 144.082C102.572 141.545 102.966 139.16 104.433 136.929C105.898 134.699 108.064 133.201 110.93 132.439C113.794 131.677 116.377 131.91 118.677 133.139C120.976 134.368 122.464 136.253 123.139 138.789C123.837 141.41 123.495 143.756 122.121 145.832C120.743 147.907 118.583 149.336 115.636 150.12Z" fill="white"/>
<path d="M406.485 160.757C445.431 149.862 468.171 109.457 457.276 70.5106C446.381 31.5643 405.976 8.82438 367.03 19.7196C328.083 30.6149 305.344 71.0195 316.239 109.966C327.134 148.912 367.539 171.652 406.485 160.757Z" fill="#2C54AC"/>
<path d="M387.02 163.456C431.172 163.456 466.964 130.671 466.964 90.228C466.964 49.7853 431.172 17 387.02 17C342.868 17 307.076 49.7853 307.076 90.228C307.076 130.671 342.868 163.456 387.02 163.456Z" stroke="#2C54AC" stroke-width="0.9215" stroke-miterlimit="10"/>
<path d="M415.19 152.815L396.865 188.116L396.361 149.658L415.19 152.815Z" fill="#2C54AC"/>
<path d="M380.791 111.986L381.124 105.26C381.334 101.03 382.036 97.5235 383.235 94.7405C384.432 91.9595 385.907 89.5935 387.658 87.6445C389.408 85.6955 391.168 83.9595 392.941 82.4355C395.33 80.4355 397.464 78.4415 399.344 76.4555C401.224 74.4715 402.247 71.7865 402.415 68.4015C402.507 66.5415 402.119 64.9525 401.251 63.6365C400.382 62.3215 399.311 61.2725 398.036 60.4875C396.759 59.7045 395.488 59.2795 394.218 59.2165C391.763 59.0945 389.684 59.5645 387.978 60.6245C386.272 61.6855 384.845 63.0775 383.7 64.8015C382.553 66.5265 381.553 68.3425 380.695 70.2505L377.238 70.0795L366.44 62.6745C367.023 61.1765 368.008 59.2755 369.394 56.9685C370.78 54.6635 372.694 52.3835 375.14 50.1285C377.583 47.8765 380.6 46.0315 384.192 44.5975C387.781 43.1655 392.031 42.5685 396.939 42.8115C401.761 43.0505 406.055 44.0905 409.825 45.9305C413.592 47.7705 416.534 50.4615 418.649 54.0015C420.764 57.5415 421.683 62.1025 421.407 67.6875C421.177 72.3415 420.355 76.0755 418.944 78.8885C417.532 81.7025 415.845 84.0585 413.887 85.9535C411.926 87.8505 409.967 89.7245 408.011 91.5785C406.5 92.9465 405.047 94.4655 403.651 96.1335C402.252 97.8035 401.117 99.7605 400.243 102.008C399.368 104.254 398.851 106.986 398.692 110.201L398.56 112.866L380.791 111.986ZM388.348 139.204C385.302 139.053 382.846 138.105 380.983 136.359C379.117 134.612 378.254 132.387 378.388 129.678C378.518 127.056 379.62 124.905 381.697 123.226C383.772 121.548 386.291 120.782 389.253 120.928C392.213 121.075 394.603 122.084 396.418 123.955C398.234 125.826 399.077 128.074 398.947 130.696C398.813 133.405 397.773 135.536 395.831 137.094C393.888 138.652 391.394 139.355 388.348 139.204Z" fill="#55A3F3"/>
<path d="M377.334 111.815L377.667 105.089C377.876 100.859 378.579 97.3526 379.778 94.5696C380.975 91.7886 382.45 89.4226 384.201 87.4736C385.951 85.5246 387.711 83.7886 389.484 82.2646C391.873 80.2646 394.007 78.2706 395.887 76.2846C397.767 74.3006 398.79 71.6156 398.957 68.2306C399.049 66.3706 398.661 64.7806 397.793 63.4656C396.924 62.1506 395.853 61.1016 394.578 60.3166C393.301 59.5336 392.03 59.1086 390.76 59.0466C388.305 58.9246 386.226 59.3946 384.52 60.4546C382.814 61.5156 381.387 62.9076 380.242 64.6316C379.095 66.3566 378.095 68.1726 377.237 70.0806L362.982 62.5046C363.565 61.0066 364.55 59.1056 365.936 56.7986C367.322 54.4936 369.236 52.2136 371.682 49.9586C374.125 47.7066 377.142 45.8616 380.734 44.4276C384.323 42.9956 388.573 42.3986 393.481 42.6416C398.304 42.8806 402.597 43.9206 406.367 45.7606C410.134 47.6006 413.076 50.2916 415.191 53.8316C417.306 57.3706 418.225 61.9326 417.949 67.5166C417.719 72.1706 416.897 75.9046 415.486 78.7176C414.074 81.5316 412.387 83.8876 410.429 85.7826C408.469 87.6796 406.509 89.5546 404.553 91.4076C403.042 92.7756 401.59 94.2936 400.193 95.9626C398.794 97.6326 397.66 99.5896 396.785 101.837C395.91 104.084 395.393 106.815 395.234 110.03L395.102 112.695L377.334 111.815ZM384.892 139.033C381.846 138.882 379.39 137.934 377.527 136.188C375.661 134.441 374.798 132.216 374.932 129.507C375.062 126.885 376.164 124.734 378.241 123.055C380.316 121.377 382.835 120.611 385.797 120.757C388.757 120.904 391.147 121.913 392.962 123.783C394.777 125.654 395.62 127.902 395.491 130.524C395.357 133.233 394.317 135.364 392.375 136.922C390.431 138.481 387.937 139.184 384.892 139.033Z" fill="white"/>
<path d="M256.258 226.15C287.545 221.581 309.205 192.514 304.636 161.226C300.067 129.939 270.999 108.279 239.712 112.848C208.424 117.417 186.765 146.485 191.334 177.772C195.903 209.059 224.97 230.719 256.258 226.15Z" fill="#0A2A6B"/>
<path d="M265.345 224.539C298.25 214.372 317.358 181.641 308.024 151.431C298.69 121.222 264.449 104.975 231.544 115.142C198.639 125.309 179.531 158.04 188.865 188.249C198.199 218.459 232.44 234.706 265.345 224.539Z" stroke="#0A2A6B" stroke-width="1.1674" stroke-miterlimit="10"/>
<path d="M249.67 224.033L265.921 244.228L263.931 219.626L249.67 224.033Z" fill="#0A2A6B"/>
<path d="M245.111 188.71L244.43 183.288C244.002 179.878 244.069 176.978 244.636 174.585C245.201 172.194 246.046 170.096 247.171 168.291C248.295 166.487 249.457 164.852 250.659 163.384C252.287 161.449 253.711 159.555 254.933 157.703C256.156 155.853 256.595 153.563 256.252 150.835C256.064 149.336 255.529 148.12 254.651 147.191C253.772 146.262 252.767 145.575 251.638 145.128C250.507 144.682 249.431 144.522 248.408 144.65C246.429 144.899 244.834 145.567 243.62 146.654C242.406 147.742 241.462 149.056 240.79 150.595C240.116 152.135 239.573 153.727 239.156 155.373L236.37 155.723L226.698 151.327C226.953 150.048 227.472 148.39 228.255 146.351C229.038 144.314 230.247 142.222 231.883 140.076C233.518 137.932 235.669 136.033 238.337 134.381C241.004 132.731 244.316 131.655 248.272 131.158C252.159 130.67 255.737 130.896 259.009 131.836C262.279 132.776 265.009 134.512 267.197 137.043C269.385 139.574 270.763 143.09 271.328 147.591C271.799 151.343 271.669 154.442 270.937 156.889C270.205 159.337 269.189 161.457 267.891 163.247C266.592 165.039 265.29 166.813 263.987 168.569C262.972 169.875 262.025 171.293 261.144 172.823C260.261 174.354 259.63 176.078 259.248 177.997C258.865 179.915 258.837 182.171 259.162 184.762L259.432 186.91L245.111 188.71ZM254.984 209.397C252.529 209.705 250.432 209.294 248.698 208.161C246.961 207.028 245.957 205.371 245.683 203.188C245.417 201.075 245.995 199.2 247.419 197.566C248.841 195.933 250.746 194.966 253.134 194.666C255.52 194.366 257.572 194.836 259.286 196.076C261 197.316 261.991 198.993 262.256 201.107C262.53 203.291 261.999 205.14 260.667 206.658C259.333 208.175 257.44 209.088 254.984 209.397Z" fill="#55A3F3"/>
<path d="M242.325 189.061L241.644 183.639C241.216 180.229 241.283 177.329 241.85 174.936C242.415 172.545 243.26 170.447 244.385 168.642C245.509 166.838 246.671 165.203 247.873 163.735C249.501 161.8 250.925 159.906 252.147 158.054C253.37 156.204 253.809 153.914 253.466 151.186C253.278 149.687 252.743 148.471 251.865 147.542C250.985 146.613 249.982 145.926 248.852 145.478C247.721 145.032 246.646 144.872 245.622 145C243.643 145.249 242.048 145.916 240.834 147.004C239.62 148.092 238.676 149.406 238.004 150.945C237.33 152.485 236.787 154.077 236.37 155.723L223.912 151.676C224.167 150.397 224.686 148.739 225.469 146.7C226.252 144.663 227.461 142.571 229.097 140.425C230.732 138.281 232.883 136.382 235.552 134.73C238.218 133.08 241.531 132.004 245.487 131.507C249.374 131.019 252.952 131.245 256.224 132.185C259.494 133.125 262.224 134.86 264.412 137.392C266.601 139.923 267.978 143.438 268.543 147.94C269.014 151.692 268.884 154.791 268.152 157.238C267.42 159.686 266.404 161.806 265.106 163.596C263.807 165.388 262.505 167.162 261.202 168.919C260.187 170.225 259.24 171.643 258.359 173.173C257.477 174.704 256.845 176.428 256.463 178.347C256.08 180.265 256.052 182.521 256.378 185.113L256.648 187.261L242.325 189.061ZM252.198 209.747C249.743 210.056 247.647 209.644 245.912 208.511C244.175 207.378 243.172 205.721 242.897 203.538C242.631 201.425 243.209 199.55 244.633 197.916C246.055 196.283 247.96 195.316 250.348 195.016C252.734 194.716 254.786 195.186 256.5 196.425C258.214 197.665 259.205 199.342 259.47 201.456C259.744 203.64 259.213 205.489 257.881 207.007C256.547 208.525 254.653 209.439 252.198 209.747Z" fill="white"/>
<path d="M99.6866 479.882L58.1276 453.544L70.3336 428.624L40.6836 417.466L19.8496 464.113C19.8496 464.113 49.3026 477.536 69.7096 485.257C90.1166 492.978 104.803 493.408 104.803 493.408L99.6866 479.882Z" fill="#FF8775"/>
<path d="M227.189 455.341L233.821 500H99.4717L109.591 463.729L227.189 455.341Z" fill="#0A2A6B"/>
<path d="M121.293 268.668V316.806L109.591 322.59C109.591 322.59 130.732 359.899 149.027 348.041C167.321 336.183 167.032 315.649 167.032 315.649L152.86 315.071L151.703 298.296L128.855 265.036L121.293 268.668Z" fill="#FF8775"/>
<path d="M122.225 225.745C119.849 232.929 119.411 240.734 119.635 248.387C120.078 263.555 125.117 278.828 131.908 291.98C133.682 295.417 135.727 298.726 138.347 301.409C145.744 308.986 159.411 310.717 168.102 305.101C171.215 303.09 173.883 300.316 176.277 297.322C182.872 289.077 184.623 277.963 186.485 266.304C188.351 254.623 190.32 242.394 188.609 231.493C187.637 225.3 184.675 222.662 181.367 217.57C176.615 210.257 168.762 205.888 160.727 204.753C152.479 203.587 144.194 205.798 136.343 208.473C129.523 210.797 124.583 218.616 122.225 225.745Z" fill="#FF8775"/>
<path d="M126.972 225.768C130.846 239.889 129.437 255.394 123.081 268.586C117.257 265.723 111.907 261.051 108.839 255.333C105.771 249.615 104.168 243.202 103.404 236.758C102.853 232.112 102.759 227.223 104.674 222.955C106.59 218.686 110.99 215.237 115.641 215.745C116.24 210.203 120.298 204.922 124.822 201.666C129.345 198.409 134.827 196.711 140.333 195.843C156.294 193.326 173.221 197.686 185.98 207.601C189.249 210.141 192.331 213.137 193.944 216.949C195.557 220.761 195.422 225.534 192.723 228.672C189.522 232.393 183.999 232.786 179.092 232.903C160.522 233.342 143.761 233.717 126.972 225.768Z" fill="#0A2A6B"/>
<path d="M107.647 260.582C108.239 264.73 110.685 268.578 114.19 270.874C115.287 271.593 116.515 272.174 117.823 272.268C120.773 272.48 123.44 270.064 124.34 267.247C125.24 264.43 124.719 261.351 123.825 258.532C122.67 254.887 120.452 251.062 116.729 250.191C110.728 248.786 106.915 255.443 107.647 260.582Z" fill="#FF8775"/>
<path d="M121.293 268.667C120.003 268.275 118.828 267.514 117.943 266.497C117.765 266.293 117.593 266.066 117.549 265.799C117.465 265.288 117.862 264.837 118.229 264.472C118.971 263.734 119.714 262.995 120.456 262.257C120.604 262.11 120.758 261.953 120.815 261.752C120.877 261.531 120.811 261.295 120.745 261.075C119.905 258.268 118.91 255.242 116.491 253.587C115.838 253.14 115.08 252.81 114.289 252.794C113.115 252.772 112.014 253.454 111.261 254.356C110.508 255.258 110.049 256.363 109.622 257.457C109.622 257.457 109 263.467 113.173 267.087C117.347 270.707 121.293 268.667 121.293 268.667Z" fill="#FF8775"/>
<path d="M109.624 257.457C109.942 256.287 110.356 255.116 111.12 254.086C111.891 253.097 113.121 252.267 114.554 252.356C115.968 252.458 117.104 253.274 118.013 254.174C118.923 255.109 119.568 256.237 120.074 257.378C120.568 258.532 120.928 259.712 121.264 260.881C121.303 261.026 121.359 261.203 121.377 261.435C121.403 261.657 121.339 261.981 121.201 262.187C120.916 262.599 120.706 262.715 120.488 262.946L119.16 264.187C118.728 264.605 118.207 265.004 117.99 265.384C117.883 265.581 117.86 265.734 117.947 265.938C118.034 266.141 118.24 266.377 118.425 266.597C119.172 267.5 120.176 268.186 121.292 268.666C120.092 268.437 118.961 267.828 118.016 266.997C117.787 266.779 117.557 266.581 117.354 266.249C117.138 265.921 117.129 265.4 117.298 265.058C117.451 264.7 117.682 264.442 117.896 264.208L118.518 263.541L119.767 262.22C119.962 262.01 120.24 261.748 120.284 261.647C120.317 261.602 120.309 261.51 120.206 261.198C119.842 260.05 119.483 258.91 119.005 257.844C118.552 256.767 117.972 255.761 117.214 254.932C116.47 254.104 115.498 253.414 114.471 253.259C113.447 253.113 112.344 253.645 111.549 254.46C110.714 255.271 110.182 256.382 109.624 257.457Z" fill="#0A2A6B"/>
<path d="M115.457 319.69C115.457 319.69 73.0345 339.365 66.0935 346.017C59.1525 352.669 23.0005 411.091 23.0005 411.091C23.0005 411.091 34.3555 424.106 47.6215 429.312C60.8875 434.518 75.3485 434.807 75.3485 434.807L90.9665 401.547L109.59 463.729C109.59 463.729 139.555 485.709 178.31 480.504C217.065 475.298 227.188 455.342 227.188 455.342L219.668 401.946C219.668 401.946 234.129 398.366 243.673 390.846C253.217 383.326 264.497 369.155 264.497 369.155C264.497 369.155 218.511 325.483 213.595 319.988C208.678 314.493 162.399 315.461 162.399 315.461C162.399 315.461 164.138 332.714 150.256 335.606C136.373 338.497 115.457 319.69 115.457 319.69Z" fill="#55A3F3"/>
<path d="M152.376 308.052C147.244 306.998 142.528 304.423 138.515 301.055C134.908 298.027 132.026 294.244 129.177 290.494C130.227 292.84 130.917 294.6 132.294 296.771C134.603 300.412 137.262 303.882 140.595 306.616C143.928 309.35 148.346 311.582 152.643 311.931" fill="#0A2A6B"/>
<path d="M155.394 254.741C155.394 256.772 154.267 258.419 152.876 258.419C151.485 258.419 150.358 256.772 150.358 254.741C150.358 252.71 151.485 251.063 152.876 251.063C154.267 251.063 155.394 252.71 155.394 254.741Z" fill="#0A2A6B"/>
<path d="M180.807 254.741C180.807 256.772 179.68 258.419 178.289 258.419C176.899 258.419 175.771 256.772 175.771 254.741C175.771 252.71 176.898 251.063 178.289 251.063C179.68 251.063 180.807 252.71 180.807 254.741Z" fill="#0A2A6B"/>
<path d="M168.328 250C169.404 251.923 170.3 253.955 171.033 256.043C171.767 258.132 172.353 260.275 172.792 262.45C173.243 264.623 173.522 266.832 173.666 269.05C173.795 271.27 173.774 273.504 173.524 275.722L173.467 276.224L172.986 276.213C171.131 276.17 169.276 276.114 167.42 276.025C165.565 275.932 163.71 275.83 161.854 275.673C163.709 275.517 165.564 275.414 167.42 275.321C169.275 275.232 171.13 275.176 172.986 275.133L172.449 275.624C172.725 271.302 172.398 266.945 171.68 262.656C171.317 260.511 170.86 258.379 170.304 256.268C169.744 254.157 169.102 252.064 168.328 250Z" fill="#0A2A6B"/>
<path d="M167.047 291.805C169.636 291.805 171.734 290.909 171.734 289.805C171.734 288.7 169.636 287.805 167.047 287.805C164.459 287.805 162.36 288.7 162.36 289.805C162.36 290.909 164.459 291.805 167.047 291.805Z" fill="#0A2A6B"/>
<path d="M141.662 248.567C142.374 246.695 143.57 244.997 144.987 243.493C146.432 242.01 148.156 240.777 150.055 239.85C150.999 239.386 151.958 238.92 152.956 238.539C153.955 238.164 155.009 237.971 156.066 237.97C158.177 237.989 160.291 238.439 162.137 239.73L162.098 240.128C160.073 241.042 158.276 241.483 156.52 241.944C155.645 242.164 154.779 242.305 153.887 242.387C152.995 242.463 152.092 242.578 151.227 242.827C150.364 243.07 149.513 243.381 148.686 243.757C147.849 244.117 147.034 244.544 146.254 245.04C144.66 245.996 143.245 247.267 142.009 248.766L141.662 248.567Z" fill="#0A2A6B"/>
<path d="M186.317 248.754C185.236 247.328 184.013 246.076 182.607 245.107C181.228 244.117 179.731 243.349 178.19 242.817C177.416 242.552 176.6 242.416 175.795 242.322C174.991 242.22 174.213 242.075 173.427 241.853C172.64 241.632 171.835 241.404 170.997 241.123C170.157 240.854 169.289 240.562 168.349 240.119L168.308 239.743C169.146 239.106 170.066 238.718 171.014 238.462C171.964 238.192 172.947 238.085 173.932 238.103C174.917 238.12 175.896 238.334 176.813 238.717C177.729 239.109 178.597 239.586 179.45 240.065C181.162 241.022 182.673 242.272 183.902 243.728C185.105 245.204 186.086 246.832 186.653 248.581L186.317 248.754Z" fill="#0A2A6B"/>
<path d="M109.591 322.59C109.591 322.59 131.949 344.651 152.643 340.008C173.364 335.359 168.715 315.394 168.715 315.394" stroke="#0A2A6B" stroke-miterlimit="10"/>
<path d="M220.133 403.973C219.6 398.799 219.057 393.633 218.412 388.481C217.765 383.33 217.088 378.183 216.244 373.061C215.48 367.927 214.556 362.819 213.596 357.716C213.118 355.164 212.611 352.617 212.087 350.073L210.503 342.438C211.245 344.931 211.9 347.448 212.565 349.964C213.187 352.49 213.779 355.023 214.35 357.562C215.469 362.645 216.388 367.77 217.232 372.906C217.995 378.055 218.689 383.215 219.174 388.397C219.661 393.579 220.012 398.772 220.133 403.973Z" fill="#0A2A6B"/>
<path d="M259.275 364.188C259.275 364.188 251.468 377.388 242.542 383.71C233.616 390.033 219.501 395.609 219.501 395.609" stroke="#0A2A6B" stroke-miterlimit="10"/>
<path d="M89.8047 403.414C91.2127 399.199 92.3847 394.916 93.1237 390.561C93.8597 386.21 94.2287 381.793 93.9637 377.398C93.7787 373.004 92.9517 368.643 91.5597 364.467C90.8697 362.377 90.0127 360.338 88.9917 358.381C87.9987 356.407 86.8067 354.535 85.4927 352.742C86.9847 354.393 88.2717 356.228 89.4207 358.144C90.5427 360.078 91.4937 362.113 92.2847 364.21C93.8547 368.412 94.6947 372.871 94.9607 377.347C95.1467 381.828 94.7837 386.326 93.8757 390.702C92.9717 395.079 91.5987 399.345 89.8047 403.414Z" fill="#0A2A6B"/>
<path d="M26.1006 406.107C26.1006 406.107 32.9616 415.509 47.8386 422.761C62.7156 430.014 78.1996 428.735 78.1996 428.735" stroke="#0A2A6B" stroke-miterlimit="10"/>
<g opacity="0.31">
<path d="M116.49 211.316C118.039 212.192 119.635 212.972 121.288 213.611C122.949 214.225 124.64 214.756 126.37 215.128C129.817 215.915 133.352 216.276 136.886 216.333C143.965 216.487 151.014 215.527 158.096 214.793C161.642 214.462 165.206 214.194 168.785 214.177C170.573 214.173 172.365 214.212 174.151 214.362C175.937 214.485 177.726 214.721 179.482 215.127C182.971 215.914 186.462 217.421 188.923 220.132C190.125 221.485 191.059 223.078 191.574 224.806C192.117 226.523 192.149 228.395 191.647 230.102C192.465 226.588 190.99 222.933 188.564 220.466C186.132 217.933 182.737 216.556 179.32 215.879C172.389 214.599 165.231 215.074 158.194 215.787C151.134 216.434 144.026 217.418 136.863 217.098C133.292 216.947 129.72 216.496 126.255 215.601C122.8 214.678 119.459 213.287 116.49 211.316Z" fill="white"/>
<path d="M123.721 202.616C124.881 202.997 126.06 203.3 127.25 203.534C128.445 203.748 129.65 203.882 130.858 203.951C133.275 204.093 135.699 203.966 138.1 203.663C142.908 203.066 147.618 201.832 152.382 200.742C157.15 199.736 162.056 198.835 167 199.192C169.46 199.376 171.906 199.823 174.235 200.635C176.547 201.484 178.739 202.687 180.561 204.321C179.576 203.599 178.537 202.964 177.459 202.414C176.368 201.884 175.237 201.452 174.082 201.101C171.771 200.399 169.367 200.048 166.959 199.96C162.131 199.769 157.33 200.64 152.597 201.718C147.843 202.719 143.088 203.982 138.182 204.424C135.735 204.639 133.266 204.683 130.818 204.437C128.378 204.153 125.96 203.598 123.721 202.616Z" fill="white"/>
<path d="M122.253 224.963C122.558 226.152 122.517 227.419 122.315 228.642C122.083 229.864 121.663 231.044 121.158 232.174C120.14 234.434 118.701 236.49 117.043 238.33C115.347 240.136 113.419 241.737 111.264 242.953C109.132 244.201 106.803 245.097 104.408 245.577C105.541 245.116 106.674 244.688 107.738 244.109C108.819 243.573 109.869 242.98 110.858 242.299C112.855 240.967 114.687 239.408 116.307 237.653C117.923 235.895 119.326 233.939 120.471 231.834C121.041 230.783 121.52 229.682 121.84 228.531C122.191 227.388 122.334 226.183 122.253 224.963Z" fill="white"/>
<path d="M113.206 219.685C112.792 222.399 111.488 224.972 109.695 227.087C107.896 229.199 105.564 230.897 102.953 231.778L102.63 231.887L102.781 231.61C102.948 231.304 103.128 231.003 103.314 230.704C103.223 231.043 103.126 231.38 103.017 231.712L102.845 231.544C105.152 230.13 107.209 228.44 108.946 226.441C110.69 224.447 112.084 222.175 113.206 219.685Z" fill="white"/>
</g>
<path d="M103.304 493.316C103.304 493.316 108.576 492.201 110.811 490.531C113.047 488.861 115.103 486.284 115.41 483.51C118.275 483.865 120.398 486.285 123.017 487.5C123.318 487.64 123.672 487.763 123.971 487.619C124.458 487.384 124.408 486.681 124.255 486.163C122.626 480.652 117.619 476.107 111.928 475.309C114.708 475.696 117.542 476.1 120.062 477.336C121.825 478.201 123.434 479.471 125.359 479.857C125.553 479.896 125.768 479.922 125.935 479.817C126.111 479.707 126.18 479.485 126.2 479.278C126.303 478.207 125.475 477.291 124.67 476.577C120.335 472.729 115.079 470.288 109.345 469.445C115.039 468.391 121.093 469.401 126.137 472.245C126.65 472.534 127.181 472.851 127.769 472.875C128.358 472.9 129.012 472.509 129.045 471.921C129.059 471.674 128.964 471.434 128.86 471.21C127.831 468.979 125.814 467.358 123.691 466.122C118.337 463.005 111.83 461.628 105.735 462.742C111.24 460.62 117.47 460.435 123.091 462.227C124.635 462.719 126.146 463.358 127.749 463.593C127.935 463.62 128.145 463.636 128.29 463.517C128.549 463.304 128.391 462.887 128.207 462.607C125.759 458.896 121.609 456.457 117.227 455.707C112.845 454.956 107.84 454.906 104.381 457.698C104.381 457.698 102.612 461.447 101.869 466.068C101.126 470.69 99.6844 479.882 99.6844 479.882L95.2964 480.101L102.424 493.242L103.304 493.316Z" fill="#FF8775"/>
<path d="M253.973 381.189C253.973 381.189 250.384 385.395 243.318 390.595C238.659 394.024 231.862 397.671 231.862 397.671L256.626 430.825L237.573 463.426C237.573 463.426 234.356 454.855 232.722 450.55C231.088 446.244 228.638 442.984 228.638 442.984C224.75 440.98 219.937 442.024 215.864 443.618C211.791 445.212 208.276 448.387 206.655 452.449C206.533 452.756 206.463 453.189 206.756 453.342C206.804 453.367 206.854 453.38 206.906 453.384C207.729 453.451 208.514 453.034 209.184 452.551C214.649 448.608 221.703 447.011 228.337 448.112C221.059 448.277 213.92 451.982 209.236 457.466C208.299 458.563 207.626 459.935 207.671 461.377C207.673 461.449 207.682 461.521 207.701 461.591C207.85 462.151 208.558 462.398 209.12 462.257C209.682 462.116 210.131 461.706 210.568 461.325C214.863 457.582 220.496 455.406 226.192 455.289C220.834 457.242 216.255 460.639 212.842 465.208C212.209 466.056 211.592 467.103 211.904 468.115C211.964 468.31 212.075 468.511 212.266 468.582C212.448 468.65 212.651 468.582 212.83 468.506C214.609 467.752 215.906 466.208 217.433 465.024C219.615 463.332 222.266 462.379 224.868 461.454C219.542 463.354 215.621 468.728 215.147 474.363C215.102 474.893 215.194 475.581 215.71 475.71C216.026 475.789 216.343 475.6 216.605 475.406C218.887 473.715 220.451 470.96 223.142 470.049C223.99 472.661 226.483 474.735 228.969 475.9C231.455 477.065 233.939 477.055 233.939 477.055L233.978 477.053C238.743 476.864 243.283 474.973 246.773 471.723L289.174 424.878L253.973 381.189Z" fill="#FF8775"/>
<path d="M252.445 437.98C253.662 435.319 255.094 432.762 256.655 430.282C258.22 427.804 259.959 425.427 261.951 423.235C262.946 422.147 264.077 421.141 265.29 420.277C266.503 419.431 267.765 418.657 269.087 418.002C271.715 416.675 274.495 415.623 277.384 415.125C275.992 415.568 274.632 416.087 273.315 416.698C271.988 417.282 270.695 417.937 269.449 418.667C266.951 420.135 264.574 421.756 262.669 423.907C260.674 425.981 258.965 428.337 257.282 430.701C256.433 431.88 255.625 433.09 254.829 434.309C254.006 435.513 253.235 436.75 252.445 437.98Z" fill="#0A2A6B"/>
<path d="M65.2866 458.081L62.3396 456.404C61.3646 455.838 60.3846 455.282 59.3966 454.741C58.3926 454.208 57.4496 453.62 56.4336 453.219C55.4206 452.793 54.3776 452.421 53.3026 452.148C51.1676 451.55 48.9576 451.203 46.7386 450.982C44.5136 450.777 42.2706 450.765 40.0166 450.987C41.1046 450.664 42.2316 450.488 43.3636 450.337C44.4986 450.242 45.6406 450.19 46.7826 450.214C49.0676 450.257 51.3486 450.586 53.5686 451.184C54.6766 451.486 55.7656 451.877 56.8196 452.357C57.8836 452.844 58.8586 453.464 59.7926 454.085C61.6886 455.323 63.5546 456.615 65.2866 458.081Z" fill="#0A2A6B"/>
<path d="M316.359 360.084C316.359 360.084 310.289 347.583 306.173 344.571C302.057 341.56 292.052 338.096 290.141 338.169C288.23 338.242 289.263 342.115 290.085 342.869C290.906 343.623 296.746 347.611 296.746 347.611C296.746 347.611 286.997 344.15 284.776 342.404C282.555 340.658 269.753 328.084 268.336 328.545C266.919 329.005 268.185 334.179 270.151 336.4C272.117 338.621 283.765 349.079 283.765 349.079C283.765 349.079 264.456 333.466 263.121 334.023C261.786 334.58 260.588 344.405 265.996 350.394C271.404 356.382 280.196 361.36 283.604 362.452C287.012 363.544 298.215 365.328 298.215 365.328L302.344 369.67L316.359 360.084Z" fill="#FF8775"/>
<path d="M296.724 347.548C297.026 349.591 297.503 351.528 298.278 353.367C299.037 355.213 300.074 356.916 301.306 358.573C299.608 357.377 298.329 355.61 297.52 353.682C296.726 351.747 296.375 349.595 296.724 347.548Z" fill="#0A2A6B"/>
<path d="M263.413 345.585C263.411 345.062 263.99 344.709 264.505 344.737C265.046 344.77 265.493 345.098 265.868 345.408C266.599 346.05 267.322 346.68 268.067 347.293C269.555 348.516 271.051 349.726 272.595 350.873C274.126 352.037 275.707 353.133 277.299 354.218C278.896 355.296 280.531 356.32 282.171 357.359C280.373 356.623 278.645 355.729 276.963 354.754C275.276 353.786 273.662 352.693 272.102 351.531C270.553 350.354 269.051 349.112 267.649 347.764C266.95 347.09 266.261 346.397 265.595 345.702C265.276 345.36 264.923 345.038 264.485 344.955C264.07 344.886 263.507 345.084 263.413 345.585Z" fill="#0A2A6B"/>
<path d="M262.106 340.136C262.229 339.627 262.393 339.105 262.763 338.681C262.943 338.469 263.204 338.297 263.507 338.246C263.807 338.193 264.127 338.279 264.378 338.422C264.88 338.732 265.22 339.12 265.623 339.454L266.809 340.483C268.398 341.844 270.005 343.184 271.672 344.451C273.298 345.77 274.984 347.015 276.651 348.29C278.317 349.566 279.996 350.832 281.624 352.171C279.802 351.112 278.032 349.976 276.283 348.803C274.534 347.631 272.843 346.373 271.165 345.096C269.529 343.766 267.898 342.422 266.386 340.948L265.267 339.828C264.891 339.462 264.543 339.036 264.167 338.762C263.799 338.468 263.282 338.48 262.917 338.834C262.551 339.17 262.309 339.655 262.106 340.136Z" fill="#0A2A6B"/>
<path d="M298.216 365.328L328.882 465.876L346.178 430.508L316.359 360.084L298.216 365.328Z" fill="#FF8775"/>
<path d="M387.704 276.125C387.704 276.125 406.506 254.769 405.046 240.651C404.418 234.577 402.756 228.61 400.154 223.086C398.359 219.275 396.053 215.599 392.749 212.985C388.539 209.655 383.13 208.348 377.939 206.979C370.298 204.964 362.456 202.607 354.631 203.707C348.824 204.523 343.327 206.95 338.126 209.66C331.575 213.073 329.022 219.699 326.609 226.681C324.197 233.663 322.717 241.018 322.694 248.405C322.685 251.289 322.734 254.222 321.938 256.994C320.674 261.397 312.295 268.251 312.295 268.251C312.295 268.251 318.006 271.25 320.85 271.861C321.939 275.604 322.805 278.816 323.76 281.972C323.874 281.964 323.985 281.95 324.103 281.95C325.898 281.95 328.442 282.906 328.442 284.056C328.442 284.991 326.385 285.75 325.061 286.013C325.782 288.126 326.59 290.295 327.599 292.671C328.359 294.461 330.991 299.157 332.589 300.264C334.211 301.388 336.309 301.523 338.282 301.477C344.025 301.343 349.736 299.986 354.925 297.523C355.339 299.989 355.306 301.942 355.529 304.432C355.7 306.351 355.814 308.294 355.519 310.199C354.862 314.447 352.263 318.103 349.739 321.582C355.584 324.108 362.068 323.53 368.361 322.565C375.307 321.5 382.745 319.828 387.364 314.531C389.127 314.57 388.575 314.222 389.111 312.542C389.646 310.861 389.498 307.289 389.498 307.289L387.704 276.125Z" fill="#FF8775"/>
<path d="M389.5 307.288C389.5 307.288 380.696 314.807 369.397 317.888C358.099 320.969 351.564 319.005 351.564 319.005C351.564 319.005 334.822 344.272 332.143 379.898C329.464 415.524 325.449 500 325.449 500H346.428H441.505L417.22 378.03L439.72 367.764C439.72 367.764 430.296 344.727 421.111 330.027C409.234 311.02 389.5 307.288 389.5 307.288Z" fill="#0A2A6B"/>
<path d="M427.79 373.207L396.749 387.089L412.27 434.602L386.757 500H407.274L439.446 432.511L427.79 373.207Z" fill="#FF8775"/>
<path d="M396.749 387.089L390.188 390.412C388.001 391.52 385.806 392.611 383.605 393.689L383.32 393.829L383.199 393.529C381.005 388.059 378.931 382.545 377.027 376.968C375.112 371.396 373.268 365.791 371.83 360.059C371.086 357.204 370.46 354.301 370.062 351.362C369.657 348.424 369.524 345.46 369.527 342.506C369.555 336.597 370.169 330.697 371.412 324.939C370.494 330.754 370.1 336.638 370.201 342.499C370.258 345.43 370.518 348.351 370.917 351.244C371.334 354.134 371.974 356.991 372.739 359.824C374.252 365.491 376.035 371.096 377.89 376.674C378.82 379.463 379.797 382.236 380.775 385.01C381.742 387.787 382.732 390.558 383.755 393.313L383.349 393.152C385.572 392.119 387.801 391.101 390.039 390.098L396.749 387.089Z" fill="white"/>
<path d="M354.444 297.674C358.671 294.938 362.354 291.364 365.218 287.222C363.298 292.821 359.546 298.745 355.423 302.991L354.444 297.674Z" fill="#0A2A6B"/>
<path d="M333.235 255.393C333.235 257.195 332.261 258.656 331.059 258.656C329.857 258.656 328.883 257.195 328.883 255.393C328.883 253.591 329.857 252.13 331.059 252.13C332.261 252.13 333.235 253.591 333.235 255.393Z" fill="#0A2A6B"/>
<path d="M340.149 252.6C339.336 251.181 338.358 249.901 337.185 248.856C336.035 247.797 334.744 246.934 333.381 246.306C331.996 245.673 330.495 245.564 329.107 245.096C327.682 244.65 326.228 244.293 324.501 243.744L324.451 243.448C325.955 242.352 327.824 242.021 329.625 242.14C331.464 242.237 333.096 243.235 334.563 244.216C336.051 245.202 337.323 246.456 338.319 247.872C339.293 249.302 340.048 250.858 340.429 252.49L340.149 252.6Z" fill="#0A2A6B"/>
<path d="M395.008 286.149C395.057 287.225 395.716 288.162 396.119 289.162C396.521 290.162 396.581 291.497 395.708 292.129C395.136 292.543 394.362 292.504 393.664 292.405C386.125 291.341 379.682 284.869 378.652 277.325C378.723 278.542 378.794 279.759 378.866 280.976C378.896 281.483 378.91 282.04 378.596 282.439C378.239 282.892 377.578 282.974 377.008 282.89C374.909 282.579 373.478 280.654 372.367 278.846C365.817 268.188 356.598 261.225 356.598 261.225C356.598 261.225 350.552 247.972 361.399 232.563C356.914 236.094 351.661 238.068 346.03 239.006C345.349 239.119 344.636 239.21 343.979 238.998C343.322 238.786 342.739 238.186 342.773 237.496C342.795 237.042 343.069 236.642 343.341 236.278C344.821 234.297 346.57 232.518 348.527 231.006C341.454 234.507 332.908 235.572 325.021 235.867C323.955 235.907 322.548 235.66 322.41 234.602C322.346 234.114 322.613 233.647 322.891 233.24C323.783 231.934 324.902 230.783 326.181 229.854C321.239 232.125 316.23 234.128 311.094 232.338C309.963 231.944 308.848 231.321 308.223 230.3C307.598 229.279 307.625 227.792 308.536 227.015C308.953 226.659 309.492 226.49 310.006 226.299C316.867 223.752 320.699 216.667 325.639 211.267C332.116 204.186 341.274 199.62 350.827 198.707C349.264 198.136 347.74 197.107 346.477 196.023C345.894 195.522 345.312 194.879 345.335 194.111C345.369 192.957 346.67 192.325 347.777 191.998C356.876 189.31 366.867 189.743 375.699 193.209C384.531 196.675 392.15 203.152 396.993 211.311C396.872 209 396.73 207.088 396.609 204.776C396.544 203.54 396.704 201.958 397.885 201.586C398.673 201.338 399.505 201.816 400.109 202.379C402.824 204.913 403.108 209.046 403.212 212.758C405.454 213.302 407.455 214.109 409.346 215.43C411.237 216.752 412.769 218.708 413.187 220.977C413.248 221.308 413.254 221.717 412.975 221.905C412.783 222.034 412.529 222.003 412.301 221.966C409.893 221.571 407.511 221.012 405.178 220.295C411.04 225.538 413.315 234.335 412.679 242.174C412.042 250.013 408.839 257.41 405.186 264.375C401.529 271.342 394.65 278.293 395.008 286.149Z" fill="#0A2A6B"/>
<g opacity="0.29">
<path d="M325.197 229.567C327.322 229.347 329.102 228.057 330.665 226.705C332.252 225.337 333.698 223.818 335.121 222.277C337.965 219.2 340.655 215.918 343.976 213.228C347.298 210.545 351.339 208.729 355.563 208.028C359.783 207.315 364.2 207.645 368.238 209.121L367.701 209.867C367.172 209.19 366.722 208.451 366.369 207.668C366.191 207.277 366.038 206.876 365.909 206.466C365.789 206.06 365.647 205.644 365.642 205.124C365.62 204.608 365.902 204.002 366.35 203.697C366.789 203.381 367.269 203.272 367.721 203.218C368.647 203.141 369.449 203.26 370.297 203.395C373.657 203.998 376.594 205.648 379.489 207.184C385.28 210.351 390.666 214.146 395.989 217.991C390.465 214.437 384.969 210.822 379.159 207.803C376.242 206.346 373.298 204.81 370.148 204.258C369.379 204.136 368.534 204.037 367.822 204.108C367.464 204.15 367.119 204.252 366.891 204.424C366.665 204.598 366.557 204.816 366.559 205.123C366.558 205.429 366.673 205.807 366.792 206.183C366.912 206.556 367.055 206.922 367.221 207.277C367.549 207.989 367.965 208.659 368.452 209.272L369.479 210.565L367.914 210.018C364.024 208.659 359.794 208.311 355.718 208.955C351.633 209.598 347.747 211.315 344.493 213.88C341.196 216.417 338.434 219.613 335.505 222.636C334.038 224.149 332.501 225.606 330.852 226.927C329.228 228.235 327.338 229.473 325.197 229.567Z" fill="white"/>
<path d="M393.203 222.242C389.628 220.011 385.481 218.791 381.34 218.791C379.272 218.799 377.213 219.102 375.206 219.619C373.203 220.159 371.247 220.886 369.34 221.74C365.497 223.377 361.786 225.419 357.919 227.115C355.99 227.972 354.051 228.805 352.099 229.605C350.134 230.374 348.172 231.148 346.177 231.834C348.086 230.937 350.008 230.076 351.903 229.156C353.811 228.266 355.709 227.358 357.591 226.419L363.233 223.591C365.111 222.636 366.999 221.68 368.943 220.823C372.829 219.167 377.034 217.854 381.356 218.025C383.499 218.118 385.622 218.515 387.634 219.219C389.631 219.955 391.534 220.948 393.203 222.242Z" fill="white"/>
<path d="M397.357 225.595C400.71 230.113 402.293 235.96 401.691 241.636C401.127 247.328 398.29 252.731 394.049 256.58L393.675 255.738C394.214 255.675 394.796 255.865 395.196 256.195C395.599 256.525 395.874 256.937 396.078 257.359C396.498 258.195 396.572 259.176 396.529 260.024C396.466 261.775 395.965 263.453 395.309 265.017C393.991 268.159 391.982 270.871 390.905 273.946C389.814 277.001 389.806 280.426 390.726 283.57C391.617 286.727 393.459 289.644 396.054 291.744C393.31 289.832 391.298 286.922 390.232 283.722C389.188 280.512 389.076 276.952 390.132 273.683C391.208 270.422 393.232 267.683 394.447 264.658C395.062 263.153 395.507 261.578 395.547 259.99C395.579 259.181 395.496 258.455 395.18 257.78C394.878 257.111 394.355 256.627 393.778 256.699L392.226 256.894L393.404 255.857C397.539 252.217 400.218 247.016 400.977 241.55C401.697 236.069 400.396 230.318 397.357 225.595Z" fill="white"/>
<path d="M379.543 279.628C378.061 275.245 377.156 270.653 376.842 266.01C376.525 261.367 376.877 256.67 377.856 252.105C378.913 247.558 380.618 243.148 383.039 239.158C384.255 237.168 385.627 235.277 387.155 233.523C388.707 231.792 390.386 230.174 392.235 228.781C390.533 230.346 388.94 232.02 387.532 233.837C386.099 235.632 384.818 237.544 383.704 239.546C381.465 243.54 379.792 247.851 378.831 252.323C377.791 256.781 377.458 261.387 377.607 265.971C377.759 270.561 378.459 275.135 379.543 279.628Z" fill="white"/>
</g>
<path d="M373.753 258.11C373.161 262.258 370.715 266.106 367.21 268.402C366.113 269.121 364.885 269.702 363.577 269.796C360.627 270.008 357.96 267.592 357.06 264.774C356.16 261.957 356.681 258.879 357.575 256.059C358.73 252.414 360.948 248.589 364.671 247.718C370.673 246.314 374.486 252.972 373.753 258.11Z" fill="#FF8775"/>
<path d="M360.107 266.197C361.397 265.805 362.572 265.044 363.457 264.027C363.635 263.823 363.807 263.596 363.851 263.329C363.935 262.818 363.538 262.367 363.171 262.002C362.429 261.264 361.686 260.525 360.944 259.787C360.796 259.639 360.642 259.483 360.585 259.281C360.523 259.06 360.589 258.825 360.655 258.604C361.496 255.797 362.49 252.771 364.909 251.116C365.562 250.669 366.32 250.339 367.111 250.324C368.285 250.301 369.386 250.984 370.139 251.885C370.892 252.787 371.351 253.892 371.778 254.987C371.778 254.987 372.4 260.997 368.227 264.617C364.054 268.237 360.107 266.197 360.107 266.197Z" fill="#FF8775"/>
<path d="M371.777 254.986C371.219 253.91 370.687 252.799 369.852 251.989C369.057 251.175 367.954 250.643 366.93 250.788C365.903 250.943 364.931 251.632 364.187 252.461C363.429 253.29 362.848 254.297 362.396 255.373C361.918 256.44 361.56 257.579 361.195 258.727C361.092 259.039 361.084 259.132 361.116 259.177C361.16 259.278 361.438 259.54 361.633 259.75L362.882 261.071L363.504 261.738C363.718 261.973 363.949 262.231 364.102 262.588C364.271 262.931 364.262 263.451 364.046 263.779C363.843 264.111 363.613 264.308 363.384 264.527C362.439 265.359 361.308 265.967 360.108 266.196C361.224 265.716 362.228 265.029 362.975 264.127C363.16 263.907 363.365 263.671 363.453 263.468C363.54 263.264 363.517 263.111 363.41 262.914C363.193 262.534 362.672 262.134 362.24 261.717L360.912 260.476C360.694 260.246 360.484 260.129 360.199 259.717C360.061 259.511 359.997 259.186 360.023 258.965C360.041 258.733 360.097 258.556 360.135 258.411C360.471 257.242 360.83 256.061 361.325 254.908C361.831 253.766 362.476 252.638 363.386 251.704C364.295 250.804 365.432 249.988 366.845 249.886C368.279 249.797 369.508 250.627 370.279 251.616C371.044 252.645 371.459 253.816 371.777 254.986Z" fill="#0A2A6B"/>
</svg>
