<svg width="1589" height="733" viewBox="0 0 1589 733" fill="none" xmlns="http://www.w3.org/2000/svg">
<path d="M1517.39 729.876L52.1308 727.446C52.1308 713.716 -106.569 247.739 129.825 98.857C240.928 28.8811 340.628 2.0774 428.685 0.118509C429.756 0.0881216 430.828 0.0696851 431.893 0.0572047C649.08 -3.32175 794.993 144.036 866.2 164.456C1118.58 236.825 1215.21 69.396 1412.27 124.737C1634.8 187.22 1619.61 573.318 1517.39 729.876Z" fill="#EBF3FA"/>
<path d="M1205.9 313.015H1134.56C1131.28 313.015 1128.6 310.334 1128.6 307.06V238.199C1128.6 234.924 1131.28 232.244 1134.56 232.244H1205.9C1209.18 232.244 1211.86 234.924 1211.86 238.199V307.06C1211.85 310.335 1209.18 313.015 1205.9 313.015Z" fill="#C0D8FB"/>
<path d="M1202.81 309.516H1137.65C1134.65 309.516 1132.21 307.068 1132.21 304.077V241.183C1132.21 238.191 1134.65 235.744 1137.65 235.744H1202.81C1205.8 235.744 1208.25 238.192 1208.25 241.183V304.077C1208.25 307.068 1205.8 309.516 1202.81 309.516Z" fill="#DFEBFD"/>
<path d="M1168.5 243.115C1168.5 242.163 1169.28 241.391 1170.23 241.391C1171.18 241.391 1171.95 242.163 1171.95 243.115C1171.95 244.067 1171.18 244.84 1170.23 244.84C1169.28 244.84 1168.5 244.067 1168.5 243.115Z" fill="#B7D3F3"/>
<path d="M1182.42 245.553C1182.88 244.721 1183.93 244.421 1184.76 244.884C1185.6 245.346 1185.9 246.396 1185.43 247.229C1184.97 248.061 1183.92 248.361 1183.09 247.898C1182.26 247.436 1181.96 246.386 1182.42 245.553Z" fill="#B7D3F3"/>
<path d="M1194.34 255.024C1195.14 254.507 1196.21 254.738 1196.73 255.538C1197.24 256.339 1197.01 257.406 1196.21 257.922C1195.41 258.439 1194.34 258.208 1193.83 257.408C1193.31 256.608 1193.54 255.54 1194.34 255.024Z" fill="#B7D3F3"/>
<path d="M1200.25 269.686C1201.2 269.686 1201.97 270.458 1201.97 271.41C1201.97 272.362 1201.2 273.135 1200.25 273.135C1199.29 273.135 1198.52 272.362 1198.52 271.41C1198.52 270.458 1199.29 269.686 1200.25 269.686Z" fill="#B7D3F3"/>
<path d="M1197.23 286.699C1197.9 287.372 1197.9 288.464 1197.23 289.138C1196.56 289.811 1195.47 289.811 1194.79 289.138C1194.12 288.464 1194.12 287.373 1194.79 286.699C1195.47 286.025 1196.56 286.025 1197.23 286.699Z" fill="#B7D3F3"/>
<path d="M1186.4 297.556C1187.07 298.23 1187.07 299.322 1186.4 299.995C1185.73 300.669 1184.64 300.669 1183.96 299.995C1183.29 299.322 1183.29 298.23 1183.96 297.556C1184.64 296.882 1185.73 296.882 1186.4 297.556Z" fill="#B7D3F3"/>
<path d="M1168.5 303.152C1168.5 302.2 1169.28 301.428 1170.23 301.428C1171.18 301.428 1171.95 302.2 1171.95 303.152C1171.95 304.105 1171.18 304.877 1170.23 304.877C1169.28 304.877 1168.5 304.105 1168.5 303.152Z" fill="#B7D3F3"/>
<path d="M1157.98 245.551C1157.52 244.719 1156.47 244.419 1155.64 244.882C1154.8 245.344 1154.5 246.394 1154.97 247.227C1155.43 248.059 1156.48 248.359 1157.31 247.896C1158.14 247.434 1158.44 246.384 1157.98 245.551Z" fill="#B7D3F3"/>
<path d="M1146.06 255.024C1145.26 254.507 1144.19 254.738 1143.67 255.538C1143.16 256.339 1143.39 257.406 1144.19 257.922C1144.99 258.439 1146.06 258.208 1146.57 257.408C1147.09 256.608 1146.86 255.54 1146.06 255.024Z" fill="#B7D3F3"/>
<path d="M1140.15 269.684C1139.2 269.684 1138.43 270.456 1138.43 271.408C1138.43 272.36 1139.2 273.133 1140.15 273.133C1141.11 273.133 1141.88 272.36 1141.88 271.408C1141.88 270.456 1141.11 269.684 1140.15 269.684Z" fill="#B7D3F3"/>
<path d="M1143.17 286.697C1142.5 287.37 1142.5 288.462 1143.17 289.136C1143.84 289.809 1144.93 289.809 1145.61 289.136C1146.28 288.462 1146.28 287.371 1145.61 286.697C1144.93 286.023 1143.84 286.023 1143.17 286.697Z" fill="#B7D3F3"/>
<path d="M1154 297.554C1153.33 298.228 1153.33 299.32 1154 299.993C1154.67 300.667 1155.76 300.667 1156.44 299.993C1157.11 299.32 1157.11 298.228 1156.44 297.554C1155.76 296.88 1154.67 296.88 1154 297.554Z" fill="#B7D3F3"/>
<path d="M1169.76 271.41C1169.76 270.458 1170.53 269.686 1171.49 269.686C1172.44 269.686 1173.21 270.458 1173.21 271.41C1173.21 272.362 1172.44 273.135 1171.49 273.135C1170.53 273.135 1169.76 272.362 1169.76 271.41Z" fill="#B7D3F3"/>
<path d="M1171.72 249.865H1171.25V271.41H1171.72V249.865Z" fill="#B7D3F3"/>
<path d="M1182.22 261.79L1170.8 270.76L1171.67 271.871L1183.09 262.901L1182.22 261.79Z" fill="#B7D3F3"/>
<path d="M1044.78 458.011C1044.78 458.011 1053.95 447.313 1045.34 440.519C1045.34 440.519 1039.06 436.714 1033.94 437.023C1033.94 437.023 1041.2 449.199 1038.85 450.411C1036.5 451.621 1031.74 436.259 1031.74 436.259C1031.74 436.259 1017.43 434.872 1012.83 437.085C1012.83 437.085 1025.06 447.09 1022.48 447.685C1019.91 448.281 1006.7 438.461 1006.7 438.461C1006.7 438.461 993.393 440.726 994.102 448.846C994.812 456.966 999.399 459.474 1001.41 459.258C1003.43 459.042 1015.22 454.541 1015.48 456.192C1015.74 457.844 1008.64 463.242 1003.67 463.494C1003.67 463.494 1013.05 473.844 1019.29 470.857C1025.53 467.87 1026.06 463.136 1029.95 461.36C1033.83 459.584 1037.15 459.588 1035.55 461.399C1033.94 463.21 1026.91 464.97 1024.68 468.903C1022.46 472.836 1020.46 475.489 1026.92 474.517C1033.37 473.547 1043.86 468.825 1044.32 463.418C1044.78 458.012 1044.78 458.011 1044.78 458.011Z" fill="#82B378"/>
<path d="M1000.64 449.065C1000.64 449.065 1036.8 447.671 1044.78 458.011C1044.78 458.011 1046.55 463.299 1051.98 468.114L1052.83 470.422C1052.83 470.422 1046.56 463.817 1044.32 463.417C1044.32 463.417 1047.82 450.608 1000.64 449.065Z" fill="#82B378"/>
<path d="M1051.98 468.115C1051.98 468.115 1059.74 473.853 1060.28 484.108L1058.87 484.234C1058.87 484.234 1056.39 473.631 1051.91 469.485C1047.43 465.339 1051.98 468.115 1051.98 468.115Z" fill="#82B378"/>
<path d="M1076.84 444.559C1076.84 444.559 1062.25 436.39 1069.06 425.305C1069.06 425.305 1074.5 418.498 1080.34 416.748C1080.34 416.748 1077.23 433.279 1080.34 433.668C1083.45 434.057 1082.48 414.998 1082.48 414.998C1082.48 414.998 1097.84 407.608 1103.87 408.191C1103.87 408.191 1094.34 424.333 1097.45 423.944C1100.56 423.554 1111.26 407.219 1111.26 407.219C1111.26 407.219 1127.01 404.301 1129.54 413.636C1132.07 422.972 1127.99 427.639 1125.65 428.222C1123.32 428.806 1108.34 428.611 1108.73 430.556C1109.12 432.501 1119.23 435.613 1124.87 433.863C1124.87 433.863 1118.65 449.226 1110.48 448.449C1102.32 447.671 1099.79 442.614 1094.73 442.225C1089.67 441.836 1085.98 443.198 1088.51 444.559C1091.03 445.921 1099.59 445.005 1103.68 448.477C1107.76 451.95 1111.07 454.089 1103.48 455.645C1095.9 457.2 1082.28 456.228 1079.56 450.393C1076.84 444.559 1076.84 444.559 1076.84 444.559Z" fill="#A8D29F"/>
<path d="M1122.35 416.553C1122.35 416.553 1081.51 429.777 1076.84 444.558C1076.84 444.558 1077.03 451.17 1072.95 458.755V461.672C1072.95 461.672 1077.23 451.754 1079.56 450.392C1079.56 450.392 1070.42 437.557 1122.35 416.553Z" fill="#82B378"/>
<path d="M1072.95 458.755C1072.95 458.755 1066.65 468.319 1070.24 479.962L1071.86 479.526C1071.86 479.526 1070.29 466.703 1073.58 460.253C1076.88 453.804 1072.95 458.755 1072.95 458.755Z" fill="#82B378"/>
<path d="M1053.63 433.293C1053.63 433.293 1072.86 422.526 1063.89 407.914C1063.89 407.914 1056.71 398.941 1049.02 396.634C1049.02 396.634 1053.12 418.424 1049.02 418.937C1044.92 419.45 1046.2 394.327 1046.2 394.327C1046.2 394.327 1025.95 384.585 1018 385.354C1018 385.354 1030.56 406.633 1026.46 406.12C1022.36 405.607 1008.26 384.073 1008.26 384.073C1008.26 384.073 987.492 380.228 984.16 392.533C980.827 404.838 986.21 410.991 989.287 411.76C992.363 412.529 1012.1 412.273 1011.59 414.836C1011.08 417.4 997.747 421.502 990.312 419.194C990.312 419.194 998.516 439.446 1009.28 438.421C1020.05 437.396 1023.38 430.731 1030.05 430.218C1036.71 429.706 1041.58 431.5 1038.25 433.294C1034.92 435.089 1023.64 433.882 1018.26 438.459C1012.87 443.036 1008.51 445.856 1018.51 447.907C1028.51 449.958 1046.46 448.676 1050.04 440.985C1053.63 433.293 1053.63 433.293 1053.63 433.293Z" fill="#A8D29F"/>
<path d="M993.646 396.377C993.646 396.377 1047.48 413.809 1053.63 433.293C1053.63 433.293 1053.38 442.009 1058.76 452.007V455.852C1058.76 455.852 1053.12 442.778 1050.04 440.984C1050.04 440.984 1062.09 424.064 993.646 396.377Z" fill="#82B378"/>
<path d="M1058.76 452.006C1058.76 452.006 1067.06 464.614 1062.33 479.961L1060.19 479.387C1060.19 479.387 1062.27 462.484 1057.92 453.982C1053.58 445.481 1058.76 452.006 1058.76 452.006Z" fill="#82B378"/>
<path d="M1054.28 513.242C1033.48 513.242 1016.62 496.38 1016.62 475.58H1091.94C1091.94 496.38 1075.08 513.242 1054.28 513.242Z" fill="#8CB4F4"/>
<path d="M1065.4 512.955C1063.87 513.146 1062.31 513.243 1060.72 513.243C1039.92 513.243 1023.06 496.38 1023.06 475.58H1032.42C1032.42 494.797 1046.81 510.651 1065.4 512.955Z" fill="#99C3FF"/>
<path d="M1016.1 515.158H1092.46C1092.46 512.592 1090.38 510.512 1087.82 510.512H1020.75C1018.18 510.512 1016.1 512.592 1016.1 515.158Z" fill="#8CB4F4"/>
<path d="M1015.76 476.734H1093.18V475.579H1015.76V476.734Z" fill="#99C3FF"/>
<path d="M283.034 501.406L288.643 530.078L276.547 531.095L262.896 503.185L283.034 501.406Z" fill="#2A4E96"/>
<path d="M671.415 452.361L677.025 481.033L664.928 482.05L651.278 454.14L671.415 452.361Z" fill="#2A4E96"/>
<path d="M245.34 728.543H330.741V658.124H245.34V728.543Z" fill="#C3DAFC"/>
<path d="M288.041 728.543H373.442V658.124H288.041V728.543Z" fill="#D4E4F8"/>
<path d="M245.39 710.685H258.923L257.73 706.877L258.923 704.156H245.39V710.685Z" fill="#9DC3F3"/>
<path d="M288.041 679.917H301.573L300.381 676.109L301.573 673.389H288.041V679.917Z" fill="#E3F0FF"/>
<path d="M288.041 673.389H274.508L275.7 677.197L274.508 679.917H288.041V673.389Z" fill="#9DC3F3"/>
<path d="M373.444 711.441H359.911L361.103 715.25L359.911 717.97H373.444V711.441Z" fill="#E3F0FF"/>
<path d="M367.851 662.898H343.275V672.459H367.851V662.898Z" fill="white"/>
<path d="M382.593 728.543H467.994V658.124H382.593V728.543Z" fill="#C3DAFC"/>
<path d="M425.293 728.543H510.695V658.124H425.293V728.543Z" fill="#D4E4F8"/>
<path d="M382.643 710.685H396.175L394.983 706.877L396.175 704.156H382.643V710.685Z" fill="#9DC3F3"/>
<path d="M425.293 679.917H438.826L437.634 676.109L438.826 673.389H425.293V679.917Z" fill="#E3F0FF"/>
<path d="M425.293 673.389H411.761L412.953 677.197L411.761 679.917H425.293V673.389Z" fill="#9DC3F3"/>
<path d="M510.696 711.441H497.163L498.356 715.25L497.163 717.97H510.696V711.441Z" fill="#E3F0FF"/>
<path d="M505.103 662.898H480.528V672.459H505.103V662.898Z" fill="white"/>
<path d="M318.591 658.941H403.992V588.523H318.591V658.941Z" fill="#C3DAFC"/>
<path d="M361.291 658.941H446.693V588.523H361.291V658.941Z" fill="#D4E4F8"/>
<path d="M318.641 641.084H332.173L330.981 637.275L332.173 634.555H318.641V641.084Z" fill="#9DC3F3"/>
<path d="M361.291 610.315H374.824L373.632 606.506L374.824 603.785H361.291V610.315Z" fill="#E3F0FF"/>
<path d="M361.291 603.785H347.759L348.951 607.593L347.759 610.315H361.291V603.785Z" fill="#9DC3F3"/>
<path d="M446.695 641.838H433.162L434.354 645.646L433.162 648.367H446.695V641.838Z" fill="#E3F0FF"/>
<path d="M441.101 593.297H416.525V602.858H441.101V593.297Z" fill="white"/>
<path d="M638.905 340.393C637.758 343.918 623.573 348.613 602.32 353.711C598.574 354.611 594.613 355.521 590.459 356.443C517.984 372.496 317.564 398.816 304.921 397.774C287.451 396.334 235.906 238.842 235.906 238.842C235.906 238.842 335.991 226.333 415.529 216.899C442.739 213.676 537.416 202.718 554.985 200.811C582.198 197.857 640.756 334.683 638.905 340.393Z" fill="#B0D4FF"/>
<path d="M608.909 322.716C608.909 322.716 566.143 215.611 562.913 206.57C561.475 202.541 558.261 201.377 555.146 201.325C560.504 200.251 564.436 199.787 564.436 199.787C575.086 198.631 585.28 204.317 589.781 213.925C599.597 234.879 618.946 275.082 637.288 314.45C636.582 314.51 608.909 322.716 608.909 322.716Z" fill="#D2E3FC"/>
<path d="M806.091 400.256C804.189 428.494 774.003 449.621 741.077 453.194L675.863 460.271L663.548 299.66C663.548 299.66 723.753 273.895 741.196 288.932C756.478 302.104 799.904 356.1 805.585 390.232C806.154 393.657 806.312 397.005 806.091 400.256Z" fill="#D2E3FC"/>
<path d="M806.091 400.258C804.189 428.495 774.003 449.622 741.077 453.196L709.088 456.667C729.039 441.618 744.067 400.281 806.091 400.258Z" fill="#AFCDFB"/>
<path d="M622.228 320.012C622.228 320.012 705.91 270.917 725.377 294.942C735.713 307.699 765.999 359.78 771.523 393.928C776.891 427.107 746.447 452.611 712.681 456.275L652.709 462.784L622.228 320.012Z" fill="#AAC8E8"/>
<path d="M750.883 424.849C749.989 425.685 749.067 426.511 748.121 427.328C736.367 437.48 720.55 446.257 702.064 452.642C688.093 457.466 672.597 460.922 656.176 462.569L627.66 465.672L627.273 465.714L492.292 480.397L414.921 488.814L413.777 488.939L413.767 488.908L409.655 476.046L370.761 346.047C370.761 346.047 709.04 302.1 738.209 313.85C751.754 319.304 762.095 346.867 769.513 377.671C773.461 394.073 766.071 410.673 750.883 424.849Z" fill="#9FC3F7"/>
<path d="M750.883 424.85C749.989 425.685 749.067 426.511 748.121 427.328C736.367 437.48 720.55 446.257 702.064 452.643C688.093 457.466 672.597 460.922 656.176 462.569L627.66 465.672L627.273 465.714L492.292 480.397L414.921 488.815L413.767 488.909L409.655 476.046C456.148 462.315 520.826 446.475 589.355 439.722C654.803 433.273 709.534 427.25 750.883 424.85Z" fill="#8BB3EE"/>
<path d="M475.914 437.556C473.541 465 446.371 485.177 416.625 488.406L356.652 494.914L343.82 332.924C343.82 332.924 399.131 309.126 415.319 324.298C429.501 337.59 469.943 391.909 475.468 426.058C476.105 430.008 476.24 433.849 475.914 437.556Z" fill="#D2E3FC"/>
<path d="M475.914 437.555C473.541 464.998 446.371 485.176 416.625 488.404L368.633 493.612C389.643 477.765 415.868 437.431 475.914 437.555Z" fill="#AFCDFB"/>
<path d="M441.718 442.402C440.485 453.27 435.369 462.957 427.786 470.855L427.782 470.859C423.257 475.57 417.849 479.643 411.86 482.947C404.502 487.011 396.263 489.918 387.693 491.426C387.249 491.501 386.804 491.575 386.36 491.647C386.006 491.702 385.648 491.754 385.293 491.803C384.7 491.891 384.107 491.972 383.512 492.043C383.199 492.08 382.882 492.118 382.561 492.153L322.589 498.66L322.583 498.635C321.446 498.772 320.289 498.911 319.124 499.05C312.959 499.786 306.515 500.549 300.538 501.244C299.535 501.363 298.55 501.477 297.578 501.589C297.215 501.631 296.852 501.671 296.5 501.709C290.593 502.387 285.367 502.971 281.636 503.353C276.391 503.891 271.413 504.101 266.696 503.955C260.609 503.771 254.961 502.998 249.714 501.585C248.778 501.332 247.854 501.062 246.945 500.766C246.018 500.466 245.102 500.148 244.203 499.805C241.801 498.897 239.49 497.829 237.275 496.604C231.55 493.439 226.435 489.203 221.888 483.797C218.725 480.036 215.831 475.71 213.2 470.78C209.976 464.753 207.149 457.821 204.681 449.929C204.617 449.729 204.552 449.529 204.491 449.325C203.37 445.697 202.324 441.868 201.351 437.833C200.909 435.995 200.481 434.115 200.068 432.19C198.607 425.394 197.333 418.057 196.23 410.153C196.134 409.466 196.04 408.771 195.947 408.074C195.927 407.919 195.906 407.765 195.886 407.61C195.055 401.326 194.328 394.697 193.701 387.701C193.425 384.636 193.171 381.505 192.933 378.299C192.825 376.841 192.722 375.37 192.622 373.885C192.123 366.427 191.723 358.604 191.41 350.401C191.271 346.717 191.148 342.957 191.045 339.119C190.619 323.303 190.506 306.166 190.662 287.639C190.836 266.609 192.062 251.789 195.775 248.04C201.252 242.512 213.571 239.188 222.205 237.456L222.212 237.455C227.567 236.38 231.498 235.917 231.498 235.917C231.692 235.896 231.886 235.878 232.08 235.861C232.218 235.849 232.355 235.837 232.493 235.829C232.826 235.806 233.159 235.79 233.489 235.781C233.674 235.774 233.863 235.771 234.048 235.77C234.172 235.767 234.294 235.767 234.415 235.77C234.6 235.77 234.786 235.773 234.969 235.78C235.298 235.788 235.624 235.806 235.95 235.828C236.173 235.843 236.4 235.862 236.623 235.885C236.641 235.883 236.663 235.887 236.681 235.888C236.843 235.904 237.005 235.92 237.168 235.943C237.478 235.976 237.785 236.019 238.09 236.066C238.301 236.1 238.508 236.135 238.715 236.172C238.86 236.2 239.003 236.227 239.148 236.255C240.871 236.602 242.543 237.126 244.143 237.813C249.628 240.172 254.211 244.463 256.848 250.103C266.021 269.725 282.4 304.807 299.468 341.508C299.552 341.693 299.64 341.877 299.724 342.061C300.705 344.169 301.687 346.286 302.672 348.403C302.77 348.616 302.868 348.832 302.97 349.045C303.021 349.153 303.072 349.261 303.122 349.369C303.821 349.003 304.542 348.621 305.291 348.235C305.315 348.22 305.338 348.207 305.369 348.194C308.338 346.646 311.702 344.939 315.343 343.178L315.347 343.178C317.233 342.265 319.189 341.332 321.212 340.398C326.913 337.759 333.086 335.089 339.377 332.687C342.166 331.616 344.985 330.596 347.792 329.66C351.397 328.454 354.986 327.373 358.504 326.481C358.626 326.448 358.722 326.424 358.809 326.402C359.226 326.296 359.639 326.198 360.052 326.097C362.536 325.5 364.973 324.995 367.344 324.607H367.348C379.473 322.627 389.806 323.675 395.208 330.358C397.225 332.857 400.005 336.859 403.215 341.936C409.848 352.435 418.313 367.539 425.662 383.462C432.964 399.28 439.167 415.908 441.388 429.643C442.101 434.044 442.186 438.305 441.718 442.402Z" fill="#77A4E5"/>
<path d="M275.973 358.847C275.973 358.847 233.206 251.742 229.976 242.701C228.539 238.671 225.325 237.507 222.209 237.456C227.567 236.382 231.499 235.918 231.499 235.918C242.149 234.762 252.343 240.448 256.844 250.055C266.66 271.01 284.742 309.653 303.084 349.021C302.379 349.082 275.973 358.847 275.973 358.847Z" fill="#D2E3FC"/>
<path d="M720.183 460.272C719.85 460.079 709.544 462.719 706.663 462.784C704.142 462.841 694.662 460.702 693.594 458.348C693.441 458.012 704.558 457.336 706.312 456.235C707.186 455.687 710.874 453.319 713.977 453.54C717.08 453.762 718.742 453.525 718.742 453.525L720.183 460.272Z" fill="#FFB27D"/>
<path d="M182.804 340.837C182.804 340.837 192.767 357.089 209.15 353.404C209.15 353.404 213.697 345.86 214.643 339.934C214.759 339.204 214.876 338.498 214.989 337.827C216.084 331.158 216.876 327.443 216.876 327.443C216.876 327.443 216.873 327.441 216.861 327.438C216.202 327.037 194.686 314.142 194.586 314.927C192.242 333.056 182.804 340.837 182.804 340.837Z" fill="#FFB27D"/>
<path d="M196.237 319.586C197.829 324.022 204.204 333.196 214.989 337.828C216.084 331.16 216.877 327.445 216.877 327.445C216.877 327.445 216.873 327.443 216.862 327.439C216.252 327.172 195.762 318.278 196.237 319.586Z" fill="#ED975D"/>
<path d="M221.539 327.477C221.539 327.477 194.817 329.634 193.731 312.972C192.644 296.311 188.463 285.368 205.477 283.286C222.493 281.205 226.225 287.346 227.941 292.819C229.657 298.293 228.462 326.487 221.539 327.477Z" fill="#FFB27D"/>
<path d="M194.196 317.501C193.809 317.673 187.999 318.538 180.657 295.998C179.505 292.46 179.458 285.177 184.258 279.475C189.057 273.773 203.448 270.898 215.108 270.465C226.768 270.032 228.523 276.822 230.222 283.636C232.004 290.79 239.257 297.555 239.257 297.555C228.656 301.534 218.067 291.941 213.794 292.608C209.52 293.274 207.106 299.483 206.488 301.497C205.87 303.511 205.14 305.151 200.291 302.535C195.441 299.918 196.871 309.451 197.429 311.317C197.429 311.317 197.423 316.062 194.196 317.501Z" fill="#2A4E96"/>
<path d="M209.128 730.065H167.24C166.839 729.987 166.536 729.899 166.351 729.807C163.554 728.407 164.43 717.699 164.766 714.392C164.831 713.779 164.877 713.42 164.877 713.42C164.877 713.42 179.605 701.64 181.633 710.66C181.697 710.941 181.77 711.218 181.849 711.489V711.494C184.406 719.934 195.836 723.767 202.438 724.836C207.483 725.656 208.791 728.596 209.128 730.065Z" fill="#2C3A64"/>
<path d="M99.1204 730.066H83.3179C80.0057 730.066 76.3245 726.749 75.4031 720.677C74.4817 714.601 67.6723 711.287 66.1985 706.317C64.7242 701.346 72.2754 694.347 72.2754 694.347L73.5375 692.725L74.8507 691.035L87.3681 693.979C87.3681 693.979 87.6768 696.96 87.87 700.756C88.004 703.497 88.0773 706.667 87.921 709.445C87.5526 716.075 89.7774 723.211 95.6654 724.501C101.557 725.791 99.1204 730.066 99.1204 730.066Z" fill="#2C3A64"/>
<path d="M200.685 488.515C200.685 488.515 198.448 516.424 195.819 549.972C192.245 595.543 187.948 651.522 187.523 662.126C186.788 680.541 183.839 709.997 183.839 709.997C183.839 709.997 176.847 716.994 162.851 714.045C162.851 714.045 150.379 671.997 146.816 627.507C146.761 626.778 146.706 626.044 146.651 625.308C143.337 580.018 138.184 484.648 138.184 484.648L200.685 488.515Z" fill="#FF9E55"/>
<path d="M189.393 494.026C189.393 494.026 193.798 504.069 185.745 536.743C179.835 560.715 146.817 627.507 146.817 627.507C146.762 626.778 146.706 626.044 146.651 625.308C143.338 580.018 138.184 484.648 138.184 484.648L189.393 494.026Z" fill="#ED823A"/>
<path d="M192.351 486.657C192.351 486.657 150.15 592.905 123.639 640.405C97.1278 687.904 88.8429 701.16 88.8429 701.16C88.8429 701.16 73.6542 695.084 72.2732 690.942C72.2732 690.942 82.4111 599.242 100.165 576.888C110.198 564.257 121.982 526.35 122.535 513.094C123.087 499.839 126.125 473.604 126.125 473.604L192.351 486.657Z" fill="#FF9E55"/>
<path d="M194.498 491.46C188.805 489.851 130.757 467.102 131.889 463.812C135.823 452.366 139.887 433.037 144.744 409.533C145.658 405.157 146.679 400.852 147.793 396.636C150.7 385.656 154.257 375.347 158.298 366.323C165.811 349.559 178.009 338.186 187.764 334.301C189.034 333.822 191.7 337.84 196.922 342.428C201.746 346.663 206.762 346.583 212.305 346.934L216.779 354.868C220.405 361.748 223.494 371.389 223.9 379.242C223.9 379.242 195.007 491.598 194.498 491.46Z" fill="#2A4E96"/>
<path d="M223.9 379.243L206.529 377.373L163.525 429.54C157.349 437.032 147.16 439.883 137.993 436.684L126.124 473.604L199.09 497.158L223.9 379.243Z" fill="#FF9E55"/>
<path d="M195.931 354.219C193.403 349.438 184.74 335.706 184.74 335.706C184.74 335.706 185.816 335.128 186.189 334.954C186.572 334.776 187.763 334.301 187.763 334.301C189.482 334.521 198.625 348.172 201.471 353.289C204.897 359.451 213.118 378.095 213.118 378.095L206.529 377.373C206.529 377.373 198.907 359.846 195.931 354.219Z" fill="#ED823A"/>
<path d="M220.441 487.162C220.441 487.162 224.773 489.444 227.347 489.33C229.922 489.218 231.73 489.625 235.548 490.44C239.367 491.255 239.523 492.543 236.687 493.178C233.85 493.813 230.636 492.598 232.08 494.13C233.523 495.662 247.159 496.974 246.99 498.709C246.821 500.445 234.42 505.477 229.88 503.896C225.34 502.315 214.729 493.026 214.729 493.026L220.441 487.162Z" fill="#FFB27D"/>
<path d="M219.828 492.753C223.764 489.695 222.664 487.225 222.664 487.225C222.664 487.225 195.784 443.446 193.926 439.343C192.068 435.239 196.051 382.369 196.051 382.369C196.051 382.369 198.496 361.282 188.193 355.027C179.24 349.592 176.287 345.135 169.848 349.106C162.176 353.84 155.582 371.497 157.194 380.367C160.812 400.277 165.486 438.01 169.133 445.661C177.248 462.69 213.318 495.679 213.318 495.679C213.318 495.679 216.737 495.155 219.828 492.753Z" fill="#2A4E96"/>
<path d="M835.099 344.582C835.099 344.582 820.338 356.644 806.083 347.767C806.083 347.767 804.275 339.146 805.334 333.24C805.465 332.512 805.588 331.808 805.702 331.136C806.865 324.479 807.34 320.711 807.34 320.711C807.34 320.711 807.345 320.71 807.357 320.711C808.111 320.55 832.675 315.462 832.51 316.236C828.751 334.126 835.099 344.582 835.099 344.582Z" fill="#FFB27D"/>
<path d="M829.417 320.09C826.452 323.754 817.41 330.315 805.702 331.136C806.865 324.479 807.34 320.711 807.34 320.711C807.34 320.711 807.345 320.71 807.357 320.711C808.02 320.659 830.296 319.011 829.417 320.09Z" fill="#ED975D"/>
<path d="M802.693 319.126C802.693 319.126 827.212 329.965 833.727 314.592C840.243 299.218 847.795 290.264 832.415 282.693C817.036 275.122 811.489 279.691 808.066 284.293C804.643 288.896 796.483 315.91 802.693 319.126Z" fill="#FFB27D"/>
<path d="M832.031 318.795C832.339 319.085 837.54 321.816 851.897 302.953C854.15 299.993 856.594 293.131 853.941 286.166C851.287 279.201 838.647 271.746 827.781 267.496C816.914 263.245 813.02 269.079 809.172 274.953C805.132 281.119 796.056 285.118 796.056 285.118C804.754 292.367 817.912 286.798 821.728 288.835C825.542 290.872 825.777 297.53 825.696 299.635C825.617 301.74 825.765 303.53 831.206 302.657C836.647 301.783 832.156 310.313 831.015 311.892C831.015 311.892 829.458 316.374 832.031 318.795Z" fill="#A9453D"/>
<path d="M869.554 728.279H885.357C888.669 728.279 892.35 724.962 893.272 718.89C894.193 712.813 901.002 709.501 902.477 704.53C903.951 699.559 896.4 692.56 896.4 692.56L895.138 690.938L893.825 689.248L881.308 692.192C881.308 692.192 880.999 695.172 880.805 698.969C880.672 701.71 880.598 704.88 880.754 707.658C881.123 714.288 878.898 721.424 873.01 722.714C867.117 724.003 869.554 728.279 869.554 728.279Z" fill="#2C3A64"/>
<path d="M759.547 728.28H801.435C801.835 728.202 802.14 728.114 802.324 728.022C805.12 726.622 804.245 715.914 803.909 712.607C803.844 711.994 803.798 711.635 803.798 711.635C803.798 711.635 789.069 699.855 787.043 708.875C786.978 709.157 786.904 709.432 786.826 709.704V709.709C784.269 718.149 772.839 721.982 766.237 723.051C761.192 723.871 759.883 726.81 759.547 728.28Z" fill="#2C3A64"/>
<path d="M767.99 486.73C767.99 486.73 770.227 514.639 772.856 548.187C776.429 593.759 780.726 649.737 781.151 660.342C781.886 678.756 784.836 708.211 784.836 708.211C784.836 708.211 791.828 715.209 805.824 712.26C805.824 712.26 818.295 670.212 821.858 625.722C821.913 624.993 821.968 624.258 822.024 623.523C825.338 578.233 830.491 482.863 830.491 482.863L767.99 486.73Z" fill="#FF9E55"/>
<path d="M776.324 484.872C776.324 484.872 774.876 502.284 782.93 534.957C788.839 558.93 821.857 625.722 821.857 625.722C821.913 624.993 821.968 624.258 822.023 623.523C825.337 578.233 830.49 482.863 830.49 482.863L776.324 484.872Z" fill="#ED823A"/>
<path d="M776.324 484.87C776.324 484.87 818.524 591.118 845.036 638.617C871.547 686.117 879.832 699.373 879.832 699.373C879.832 699.373 895.02 693.298 896.401 689.155C896.401 689.155 886.264 597.455 868.509 575.1C858.478 562.469 846.693 524.563 846.14 511.307C845.587 498.051 842.55 471.816 842.55 471.816L776.324 484.87Z" fill="#FF9E55"/>
<path d="M774.202 482.864C780.107 483.221 842.41 480.865 842.424 477.385C842.481 465.283 845.012 445.694 848.169 421.902C848.747 417.469 849.202 413.068 849.539 408.72C850.41 397.395 850.449 386.49 849.606 376.638C848.036 358.336 840.265 343.578 832.335 336.696C831.293 335.826 827.453 338.741 821.01 341.353C815.06 343.762 810.351 342.035 805.002 340.539L798.163 346.556C792.474 351.858 786.381 359.942 783.41 367.224C783.411 367.225 773.675 482.827 774.202 482.864Z" fill="#2A4E96"/>
<path d="M783.411 367.223L800.427 371.18L823.845 434.602C827.208 443.709 835.889 449.758 845.598 449.758L843.546 481.066L767.989 486.728L783.411 367.223Z" fill="#FF9E55"/>
<path d="M716.503 456.256C715.289 451.421 717.678 450.154 717.678 450.154C717.678 450.154 765.829 432.25 769.821 430.164C773.814 428.077 803.266 383.991 803.266 383.991C803.266 383.991 814.338 365.879 826.307 367.305C836.708 368.543 841.939 375.55 844.561 382.646C847.685 391.103 845.228 400.612 838.492 406.603C823.37 420.051 793.037 446.645 785.45 450.422C768.562 458.829 719.826 462.573 719.826 462.573C719.826 462.573 717.457 460.052 716.503 456.256Z" fill="#2A4E96"/>
<path d="M818.062 352.81C822.024 349.129 834.727 339.017 834.727 339.017C834.727 339.017 833.73 337.941 833.365 337.586C833.132 337.361 832.335 336.695 832.335 336.695C830.64 336.336 817.51 346.214 813.138 350.107C807.873 354.796 793.727 369.622 793.727 369.622L800.428 371.18C800.428 371.18 813.398 357.143 818.062 352.81Z" fill="#ED823A"/>
<path d="M723.334 531.009V536.023C723.334 537.778 722.766 539.212 722.073 539.212H539.101C538.408 539.212 537.84 537.778 537.84 536.023V531.009C537.84 529.257 538.408 527.82 539.101 527.82H722.073C722.766 527.82 723.334 529.257 723.334 531.009Z" fill="#9ABFE2"/>
<path d="M723.334 531.009V536.023C723.334 537.778 722.813 539.212 722.176 539.212H576.917C576.281 539.212 575.759 537.778 575.759 536.023V531.009C575.759 529.257 576.281 527.82 576.917 527.82H722.176C722.813 527.82 723.334 529.257 723.334 531.009Z" fill="#BAD4F4"/>
<path d="M677.025 539.213H547.126V728.546H677.025V539.213Z" fill="#C8DBF4"/>
<path d="M713.427 539.213H583.529V728.546H713.427V539.213Z" fill="#DFEBFD"/>
<path d="M706.448 718.092H590.51V544.561H706.449L706.448 718.092ZM591.762 716.839H705.196V545.812H591.762V716.839Z" fill="#B7D3F3"/>
<path d="M705.823 601.967H591.137V603.219H705.823V601.967Z" fill="#B7D3F3"/>
<path d="M705.823 660.49H591.137V661.743H705.823V660.49Z" fill="#B7D3F3"/>
<path d="M660.231 555.754H638.95C637.917 555.754 637.072 554.908 637.072 553.876C637.072 552.843 637.917 551.998 638.95 551.998H660.231C661.264 551.998 662.109 552.843 662.109 553.876C662.109 554.908 661.264 555.754 660.231 555.754Z" fill="#B7D3F3"/>
<path d="M660.231 612.982H638.95C637.917 612.982 637.072 612.137 637.072 611.105C637.072 610.071 637.917 609.227 638.95 609.227H660.231C661.264 609.227 662.109 610.071 662.109 611.105C662.109 612.137 661.264 612.982 660.231 612.982Z" fill="#B7D3F3"/>
<path d="M660.231 672.643H638.95C637.917 672.643 637.072 671.797 637.072 670.765C637.072 669.732 637.917 668.887 638.95 668.887H660.231C661.264 668.887 662.109 669.732 662.109 670.765C662.109 671.797 661.264 672.643 660.231 672.643Z" fill="#B7D3F3"/>
<path d="M939.028 728.541H1102.76V593.534H939.028V728.541Z" fill="#C3DAFC"/>
<path d="M1020.89 728.541H1184.62V593.534H1020.89V728.541Z" fill="#D4E4F8"/>
<path d="M939.123 694.304H965.067L962.782 687.004L965.067 681.787H939.123V694.304Z" fill="#2A4E96"/>
<path d="M1020.89 635.317H1046.84L1044.55 628.016L1046.84 622.799H1020.89V635.317Z" fill="#618DC1"/>
<path d="M1020.89 622.799H994.948L997.234 630.1L994.948 635.317H1020.89V622.799Z" fill="#2A4E96"/>
<path d="M1184.63 695.754H1158.68L1160.97 703.054L1158.68 708.271H1184.63V695.754Z" fill="#618DC1"/>
<path d="M1173.9 602.689H1126.79V621.019H1173.9V602.689Z" fill="white"/>
<path d="M1122.79 515.234H1027.92V593.463H1122.79V515.234Z" fill="#ED823A"/>
<path d="M1075.35 515.234H980.482V593.463H1075.35V515.234Z" fill="#FF9E55"/>
<path d="M1122.74 573.622H1107.7L1109.03 569.393L1107.7 566.369H1122.74V573.622Z" fill="#DD732C"/>
<path d="M1075.35 539.444H1060.32L1061.65 535.214L1060.32 532.191H1075.35V539.444Z" fill="#FFB27D"/>
<path d="M1075.35 532.191H1090.39L1089.06 536.422L1090.39 539.444H1075.35V532.191Z" fill="#DD732C"/>
<path d="M980.48 574.463H995.513L994.189 578.693L995.513 581.716H980.48V574.463Z" fill="#FFB27D"/>
<path d="M1225.23 635.316H1112.17V728.542H1225.23V635.316Z" fill="#ED823A"/>
<path d="M1168.7 635.316H1055.63V728.542H1168.7V635.316Z" fill="#FF9E55"/>
<path d="M1225.16 704.899H1207.24L1208.82 699.858L1207.24 696.256H1225.16V704.899Z" fill="#DD732C"/>
<path d="M1168.7 664.167H1150.78L1152.36 659.125L1150.78 655.523H1168.7V664.167Z" fill="#FFB27D"/>
<path d="M1168.7 655.523H1186.61L1185.03 660.564L1186.61 664.167H1168.7V655.523Z" fill="#DD732C"/>
<path d="M1055.63 705.9H1073.55L1071.97 710.941L1073.55 714.544H1055.63V705.9Z" fill="#FFB27D"/>
<path d="M1386.39 441.473H1480.92V363.531H1386.39V441.473Z" fill="#D8702A"/>
<path d="M1433.65 441.473H1528.18V363.531H1433.65V441.473Z" fill="#FF9E55"/>
<path d="M1386.45 421.707H1401.43L1400.11 417.492L1401.43 414.48H1386.45V421.707Z" fill="#C15E1B"/>
<path d="M1433.65 387.653H1448.63L1447.31 383.438L1448.63 380.426H1433.65V387.653Z" fill="#FFB27D"/>
<path d="M1433.65 380.426H1418.68L1419.99 384.641L1418.68 387.653H1433.65V380.426Z" fill="#C15E1B"/>
<path d="M1528.18 422.543H1513.2L1514.52 426.758L1513.2 429.769H1528.18V422.543Z" fill="#FFB27D"/>
<path d="M1521.99 368.816H1494.79V379.399H1521.99V368.816Z" fill="white"/>
<path d="M1483.59 438.156C1485.88 436.664 1491.08 433.391 1491.31 434.174C1491.48 434.738 1491.18 435.672 1490.53 436.631C1493.64 435.605 1496.78 434.975 1504.08 436.673C1505.54 437.012 1506.85 437.901 1507.61 439.195C1508.31 440.391 1508.54 441.862 1506.61 442.957C1502.77 445.146 1503.91 443.79 1498.56 446.987C1493.21 450.185 1486.79 450.805 1483.07 448.272L1477.98 447.22L1477.67 438.772C1477.67 438.772 1480.6 438.536 1483.59 438.156Z" fill="#FFB27D"/>
<path d="M1351.09 351.162C1351.09 351.162 1365.61 363.026 1379.63 354.295C1379.63 354.295 1381.41 345.816 1380.37 340.007C1380.24 339.292 1380.12 338.598 1380 337.938C1378.86 331.391 1378.39 327.684 1378.39 327.684C1378.39 327.684 1378.39 327.684 1378.38 327.684C1377.63 327.526 1353.47 322.522 1353.64 323.284C1357.33 340.878 1351.09 351.162 1351.09 351.162Z" fill="#FFB27D"/>
<path d="M1356.68 327.074C1359.59 330.679 1368.49 337.132 1380 337.938C1378.86 331.391 1378.39 327.684 1378.39 327.684C1378.39 327.684 1378.39 327.684 1378.38 327.684C1377.72 327.634 1355.81 326.013 1356.68 327.074Z" fill="#ED975D"/>
<path d="M1382.96 326.125C1382.96 326.125 1358.85 336.786 1352.44 321.666C1346.03 306.546 1338.6 297.739 1353.73 290.293C1368.86 282.847 1374.31 287.34 1377.68 291.866C1381.04 296.393 1389.07 322.962 1382.96 326.125Z" fill="#FFB27D"/>
<path d="M1354.11 325.8C1353.81 326.085 1348.69 328.771 1334.57 310.219C1332.35 307.307 1329.95 300.558 1332.56 293.709C1335.17 286.858 1347.6 279.526 1358.29 275.345C1363.31 273.383 1368.08 273.765 1371.74 274.724C1376.25 275.903 1378.9 280.625 1377.62 285.104C1375.6 292.179 1370.59 296.525 1364.24 296.334C1359.99 296.206 1360.26 304.885 1360.34 306.956C1360.42 309.026 1360.27 310.786 1354.92 309.928C1350.33 309.192 1352.92 315.247 1354.46 317.972C1355.22 319.316 1355.64 320.841 1355.55 322.382C1355.48 323.571 1355.12 324.847 1354.11 325.8Z" fill="#2A4E96"/>
<path d="M1317.2 728.542H1301.66C1298.4 728.542 1294.78 725.279 1293.88 719.307C1292.97 713.33 1286.27 710.072 1284.82 705.184C1283.37 700.294 1290.8 693.412 1290.8 693.412L1292.04 691.817L1293.33 690.154L1305.64 693.049C1305.64 693.049 1305.95 695.981 1306.14 699.715C1306.27 702.411 1306.34 705.529 1306.19 708.261C1305.82 714.781 1308.01 721.8 1313.8 723.069C1319.6 724.337 1317.2 728.542 1317.2 728.542Z" fill="#2C3A64"/>
<path d="M1425.4 728.539H1384.2C1383.81 728.462 1383.51 728.376 1383.33 728.285C1380.58 726.908 1381.44 716.378 1381.77 713.124C1381.83 712.522 1381.88 712.168 1381.88 712.168C1381.88 712.168 1396.36 700.582 1398.36 709.454C1398.42 709.731 1398.49 710.002 1398.57 710.269V710.274C1401.08 718.575 1412.33 722.345 1418.82 723.397C1423.78 724.202 1425.07 727.094 1425.4 728.539Z" fill="#2C3A64"/>
<path d="M1417.1 490.968C1417.1 490.968 1414.89 518.417 1412.31 551.413C1408.79 596.235 1404.57 651.29 1404.15 661.72C1403.43 679.831 1400.53 708.801 1400.53 708.801C1400.53 708.801 1393.65 715.685 1379.88 712.783C1379.88 712.783 1367.62 671.428 1364.11 627.671C1364.06 626.954 1364.01 626.231 1363.95 625.509C1360.69 580.964 1355.62 487.166 1355.62 487.166L1417.1 490.968Z" fill="#FF9E55"/>
<path d="M1408.9 489.141C1408.9 489.141 1410.32 506.267 1402.4 538.401C1396.59 561.978 1364.11 627.671 1364.11 627.671C1364.06 626.954 1364 626.231 1363.95 625.509C1360.69 580.964 1355.62 487.166 1355.62 487.166L1408.9 489.141Z" fill="#ED823A"/>
<path d="M1408.9 489.14C1408.9 489.14 1367.39 593.638 1341.32 640.355C1315.24 687.073 1307.09 700.11 1307.09 700.11C1307.09 700.11 1292.16 694.134 1290.8 690.06C1290.8 690.06 1300.77 599.87 1318.23 577.884C1328.1 565.46 1339.69 528.178 1340.23 515.141C1340.77 502.104 1343.76 476.301 1343.76 476.301L1408.9 489.14Z" fill="#FF9E55"/>
<path d="M1410.98 487.166C1405.18 487.517 1343.9 485.2 1343.89 481.777C1343.83 469.875 1341.34 450.608 1338.24 427.209C1337.67 422.848 1337.22 418.52 1336.89 414.244C1336.03 403.105 1335.99 392.38 1336.82 382.69C1338.37 364.689 1346.01 350.174 1353.81 343.406C1354.83 342.551 1358.61 345.417 1364.95 347.987C1370.8 350.356 1375.43 348.657 1380.69 347.186L1387.42 353.104C1393.01 358.319 1399.01 366.27 1401.93 373.432C1401.93 373.432 1411.5 487.13 1410.98 487.166Z" fill="#2A4E96"/>
<path d="M1401.93 373.432L1385.19 377.323L1362.16 439.7C1358.85 448.659 1350.31 454.607 1340.76 454.607L1342.78 485.4L1417.1 490.969L1401.93 373.432Z" fill="#FF9E55"/>
<path d="M1482.19 442.886C1482.72 438.012 1480.22 437.101 1480.22 437.101C1480.22 437.101 1430.89 426.176 1426.71 424.684C1422.54 423.192 1387.88 384.229 1387.88 384.229C1387.88 384.229 1374.65 368.084 1363.18 371.092C1353.22 373.707 1349.07 381.24 1347.47 388.508C1345.58 397.169 1349.26 406.1 1356.63 411.025C1373.18 422.079 1406.33 443.881 1414.23 446.534C1431.82 452.437 1479.81 449.489 1479.81 449.489C1479.81 449.489 1481.77 446.714 1482.19 442.886Z" fill="#2A4E96"/>
<path d="M1367.85 359.255C1363.95 355.636 1351.46 345.69 1351.46 345.69L1353.81 343.406C1355.48 343.053 1368.39 352.767 1372.69 356.597C1377.87 361.209 1392.24 375.684 1392.24 375.684L1385.19 377.323C1385.19 377.323 1372.43 363.517 1367.85 359.255Z" fill="#ED823A"/>
<path d="M431.893 0.0585938V65.4742C431.893 65.8475 431.893 66.2209 431.887 66.5942C431.819 73.4617 431.183 78.8853 430.399 78.8853H430.179C429.457 78.8853 428.851 74.2393 428.71 68.094C428.704 67.5796 428.698 67.0533 428.692 66.5144V66.3983C428.685 66.0923 428.685 65.7802 428.685 65.4742V0.119898C429.756 0.0895106 430.828 0.0710742 431.893 0.0585938Z" fill="#9FC1F4"/>
<path d="M430.289 56.9102C400.175 56.9102 375.764 82.723 375.764 114.565H484.814C484.814 82.7236 460.402 56.9102 430.289 56.9102Z" fill="#FF9843"/>
<path d="M434.632 57.6133C433.066 57.2719 431.468 57.0918 429.844 57.0918C410.224 57.0918 394.319 82.8238 394.319 114.565H403.896C403.896 85.4512 417.278 61.397 434.632 57.6133Z" fill="#FFC48A"/>
<path d="M386.683 491.908L392.293 520.58L380.196 521.597L366.546 493.688L386.683 491.908Z" fill="#2A4E96"/>
<path d="M1572.08 732.387H4.85149C3.91111 732.387 3.14221 731.618 3.14221 730.678V730.252C3.14221 729.312 3.91111 728.543 4.85149 728.543H1572.08C1573.02 728.543 1573.79 729.312 1573.79 730.252V730.678C1573.79 731.619 1573.02 732.387 1572.08 732.387Z" fill="#2E3552"/>
</svg>
