<svg width="461" height="451" viewBox="0 0 461 451" fill="none" xmlns="http://www.w3.org/2000/svg">
<path d="M26.5759 441.807C25.2569 440.676 22.3139 437.091 24.5829 432.922C25.4149 431.393 27.182 430.637 28.782 429.964C30.381 429.29 32.062 428.705 33.386 427.579C35.882 425.455 36.571 421.928 38.227 419.095C40.129 415.843 43.679 413.407 47.43 413.577C51.725 413.772 55.308 417.28 56.931 421.28C58.555 425.28 58.612 429.721 58.645 434.041C58.664 436.43 58.558 439.122 56.804 440.735C55.187 442.222 52.7529 442.24 50.5619 442.173C42.7379 441.933 34.9129 441.692 27.0889 441.452" fill="#F5F5F5"/>
<path d="M71.471 377.258H9.73999L20.86 443.564C21.346 446.46 23.441 448.692 26.13 449.467C26.201 449.489 26.274 449.506 26.346 449.526C26.53 449.573 26.707 449.635 26.896 449.668C27.303 449.752 27.724 449.795 28.151 449.812C28.154 449.833 28.158 449.855 28.161 449.876L28.462 449.828H28.464H55.976C56.494 449.828 56.999 449.775 57.488 449.677C60.737 449.174 63.338 446.567 63.733 443.197L69.094 397.511L69.336 395.695H69.307L71.43 377.602L71.471 377.258ZM59.826 419.553H53.491L54.13 400.31H61.47L59.826 419.553ZM62.085 400.31H68.15L65.892 419.553H60.441L62.085 400.31ZM43.986 440.885L43.601 424.167H52.724L52.169 440.885H43.986ZM34.124 424.168H42.988L43.373 440.886H35.423L34.124 424.168ZM34.809 440.885H27.377C26.671 436.371 25.752 430.505 24.757 424.167H33.51L34.809 440.885ZM33.765 419.553L32.27 400.31H42.439L42.882 419.553H33.765ZM43.495 419.553L43.052 400.31H53.517L52.878 419.553H43.495ZM42.945 395.695L42.535 377.874H54.262L53.67 395.695H42.945ZM42.332 395.695H31.911L30.526 377.874H41.922L42.332 395.695ZM31.296 395.695H20.27C19.88 393.234 19.509 390.904 19.175 388.808C18.025 381.603 17.592 378.894 17.352 377.874H29.911L31.296 395.695ZM31.655 400.31L33.15 419.553H24.031C23.724 417.6 23.414 415.625 23.103 413.649C22.388 409.106 21.672 404.565 21 400.31H31.655ZM23.412 419.553H17.455L14.227 400.31H20.38C21.32 406.257 22.363 412.875 23.412 419.553ZM24.136 424.168C25.044 429.953 25.938 435.657 26.756 440.886H21.033L18.229 424.168H24.136ZM52.782 440.885L53.337 424.167H59.431L58.003 440.885H52.782ZM54.283 395.695L54.875 377.874H63.387L61.865 395.695H54.283ZM16.769 377.874C17.014 379.162 18.14 386.175 19.65 395.695H13.453L10.464 377.874H16.769ZM63.389 440.885H58.618L60.046 424.167H65.35L63.389 440.885ZM68.691 395.695H62.479L64.002 377.874H70.783L68.691 395.695Z" fill="#E0E0E0"/>
<path d="M446.75 95.0117H363.549V169.449H446.75V95.0117Z" fill="#FAFAFA"/>
<path d="M446.751 169.448C446.751 169.448 446.737 168.971 446.73 168.066C446.725 167.153 446.718 165.817 446.708 164.078C446.697 160.583 446.68 155.475 446.659 148.968C446.636 135.962 446.602 117.378 446.562 95.0111L446.751 95.1991C422.79 95.2091 394.194 95.2201 363.557 95.2331H363.55L363.772 95.0111C363.762 122.092 363.753 147.575 363.745 169.448L363.549 169.252C388.37 169.293 409.144 169.327 423.726 169.351C431.022 169.373 436.766 169.391 440.699 169.403C442.658 169.413 444.164 169.421 445.192 169.426C445.695 169.431 446.08 169.435 446.351 169.437C446.612 169.44 446.751 169.448 446.751 169.448C446.751 169.448 446.628 169.455 446.374 169.459C446.108 169.462 445.731 169.465 445.237 169.47C444.217 169.475 442.724 169.483 440.782 169.493C436.859 169.505 431.13 169.523 423.853 169.545C409.24 169.569 388.422 169.603 363.55 169.644H363.354V169.448C363.346 147.576 363.337 122.092 363.327 95.0111V94.7891H363.549H363.556C394.193 94.8011 422.788 94.8131 446.75 94.8231H446.939V95.0121C446.899 117.428 446.865 136.054 446.842 149.088C446.821 155.576 446.804 160.671 446.793 164.155C446.783 165.879 446.776 167.202 446.771 168.107C446.765 168.998 446.751 169.448 446.751 169.448Z" fill="#E0E0E0"/>
<path d="M395.452 108.238C395.452 108.361 391.073 108.46 385.672 108.46C380.269 108.46 375.891 108.36 375.891 108.238C375.891 108.115 380.269 108.016 385.672 108.016C391.072 108.015 395.452 108.115 395.452 108.238Z" fill="#E0E0E0"/>
<path d="M430.705 113.826C430.705 113.949 418.674 114.048 403.836 114.048C388.993 114.048 376.964 113.949 376.964 113.826C376.964 113.703 388.993 113.604 403.836 113.604C418.674 113.603 430.705 113.703 430.705 113.826Z" fill="#E0E0E0"/>
<path d="M379.538 123.293H376.033V126.798H379.538V123.293Z" fill="#E0E0E0"/>
<path d="M388.167 123.293H384.662V126.798H388.167V123.293Z" fill="#E0E0E0"/>
<path d="M396.954 123.135H393.449V126.64H396.954V123.135Z" fill="#E0E0E0"/>
<path d="M405.423 123.293H401.918V126.798H405.423V123.293Z" fill="#E0E0E0"/>
<path d="M414.052 123.293H410.547V126.798H414.052V123.293Z" fill="#E0E0E0"/>
<path d="M422.68 123.293H419.175V126.798H422.68V123.293Z" fill="#E0E0E0"/>
<path d="M431.308 123.293H427.803V126.798H431.308V123.293Z" fill="#EBEBEB"/>
<path d="M379.538 130.744H376.033V134.249H379.538V130.744Z" fill="#EBEBEB"/>
<path d="M388.167 130.744H384.662V134.249H388.167V130.744Z" fill="#E0E0E0"/>
<path d="M396.795 130.744H393.29V134.249H396.795V130.744Z" fill="#EBEBEB"/>
<path d="M405.423 130.744H401.918V134.249H405.423V130.744Z" fill="#E0E0E0"/>
<path d="M414.052 130.744H410.547V134.249H414.052V130.744Z" fill="#E0E0E0"/>
<path d="M422.839 130.586H419.334V134.091H422.839V130.586Z" fill="#E0E0E0"/>
<path d="M431.308 130.744H427.803V134.249H431.308V130.744Z" fill="#E0E0E0"/>
<path d="M379.538 138.197H376.033V141.702H379.538V138.197Z" fill="#E0E0E0"/>
<path d="M388.326 138.037H384.821V141.542H388.326V138.037Z" fill="#E0E0E0"/>
<path d="M396.795 138.197H393.29V141.702H396.795V138.197Z" fill="#E0E0E0"/>
<path d="M405.423 138.197H401.918V141.702H405.423V138.197Z" fill="#EBEBEB"/>
<path d="M414.052 138.197H410.547V141.702H414.052V138.197Z" fill="#E0E0E0"/>
<path d="M422.68 138.197H419.175V141.702H422.68V138.197Z" fill="#E0E0E0"/>
<path d="M431.308 138.197H427.803V141.702H431.308V138.197Z" fill="#E0E0E0"/>
<path d="M379.538 145.648H376.033V149.153H379.538V145.648Z" fill="#E0E0E0"/>
<path d="M388.167 145.648H384.662V149.153H388.167V145.648Z" fill="#E0E0E0"/>
<path d="M396.795 145.648H393.29V149.153H396.795V145.648Z" fill="#E0E0E0"/>
<path d="M405.582 145.49H402.077V148.995H405.582V145.49Z" fill="#E0E0E0"/>
<path d="M414.052 145.648H410.547V149.153H414.052V145.648Z" fill="#E0E0E0"/>
<path d="M422.68 145.648H419.175V149.153H422.68V145.648Z" fill="#EBEBEB"/>
<path d="M431.308 145.648H427.803V149.153H431.308V145.648Z" fill="#E0E0E0"/>
<path d="M379.538 153.102H376.033V156.607H379.538V153.102Z" fill="#E0E0E0"/>
<path d="M388.167 153.102H384.662V156.607H388.167V153.102Z" fill="#EBEBEB"/>
<path d="M396.795 153.102H393.29V156.607H396.795V153.102Z" fill="#E0E0E0"/>
<path d="M405.423 153.102H401.918V156.607H405.423V153.102Z" fill="#E0E0E0"/>
<path d="M414.052 153.102H410.547V156.607H414.052V153.102Z" fill="#E0E0E0"/>
<path d="M422.839 152.941H419.334V156.446H422.839V152.941Z" fill="#E0E0E0"/>
<path d="M431.308 153.102H427.803V156.607H431.308V153.102Z" fill="#E0E0E0"/>
<path d="M430.71 46.8722C433.367 30.3396 422.119 14.783 405.587 12.1255C389.054 9.46805 373.498 20.716 370.84 37.2487C368.183 53.7813 379.431 69.3379 395.963 71.9954C412.496 74.6529 428.053 63.4048 430.71 46.8722Z" fill="#E0E0E0"/>
<path d="M401.087 69.1807C416.241 69.1807 428.526 56.8959 428.526 41.7417C428.526 26.5876 416.241 14.3027 401.087 14.3027C385.933 14.3027 373.648 26.5876 373.648 41.7417C373.648 56.8959 385.933 69.1807 401.087 69.1807Z" fill="white"/>
<path d="M373.37 40.096C373.37 40.096 373.378 40.248 373.379 40.544C373.378 40.849 373.376 41.286 373.374 41.857C373.372 42.146 373.369 42.469 373.367 42.824C373.381 43.179 373.431 43.566 373.465 43.986C373.503 44.406 373.545 44.858 373.589 45.341C373.614 45.827 373.761 46.327 373.849 46.867C374.193 49.027 375.022 51.608 376.416 54.378C377.824 57.137 379.925 60.062 382.882 62.621C383.254 62.938 383.63 63.258 384.01 63.583C384.409 63.883 384.831 64.163 385.247 64.459C385.673 64.74 386.073 65.074 386.534 65.32C386.989 65.576 387.449 65.835 387.913 66.096C388.146 66.226 388.379 66.356 388.615 66.487C388.861 66.595 389.109 66.704 389.357 66.814C389.854 67.033 390.356 67.254 390.863 67.478C391.376 67.686 391.917 67.833 392.45 68.016C392.99 68.176 393.517 68.405 394.084 68.501C395.207 68.736 396.337 69.045 397.524 69.13C398.114 69.189 398.705 69.286 399.306 69.316C399.908 69.324 400.515 69.333 401.126 69.341C401.431 69.34 401.739 69.362 402.045 69.342C402.352 69.315 402.659 69.288 402.968 69.261C403.585 69.2 404.21 69.169 404.831 69.083C406.062 68.833 407.331 68.67 408.555 68.251L409.486 67.977C409.641 67.93 409.799 67.889 409.952 67.836L410.405 67.653C411.01 67.409 411.619 67.162 412.231 66.915C412.83 66.639 413.409 66.31 414.004 66.008C414.296 65.847 414.605 65.713 414.886 65.529L415.732 64.978C416.896 64.287 417.933 63.395 419.013 62.541C419.508 62.063 420.006 61.582 420.506 61.099L420.881 60.736L421.223 60.34L421.905 59.542L422.59 58.741L423.201 57.876L423.811 57.005L424.117 56.568C424.21 56.417 424.294 56.259 424.383 56.104C424.734 55.483 425.086 54.859 425.44 54.233C425.731 53.575 426.023 52.916 426.316 52.253C427.39 49.562 428.063 46.674 428.297 43.704C428.453 40.729 428.165 37.776 427.453 34.967C427.249 34.272 427.046 33.579 426.843 32.889C426.574 32.222 426.306 31.557 426.039 30.896L425.837 30.401L425.59 29.928L425.099 28.984L424.607 28.046L424.032 27.162L423.46 26.281L423.173 25.844L422.848 25.435C422.415 24.891 421.985 24.349 421.556 23.81C420.596 22.822 419.685 21.802 418.621 20.964L417.854 20.307C417.6 20.087 417.311 19.914 417.042 19.716C416.491 19.339 415.961 18.937 415.403 18.585C414.828 18.26 414.257 17.936 413.689 17.614L413.264 17.373C413.118 17.301 412.967 17.24 412.82 17.172L411.933 16.779C410.774 16.203 409.537 15.876 408.349 15.467C407.744 15.3 407.128 15.188 406.525 15.047C406.222 14.98 405.921 14.913 405.62 14.846C405.318 14.786 405.011 14.768 404.708 14.727C404.101 14.656 403.498 14.585 402.9 14.514C402.3 14.466 401.701 14.484 401.109 14.466C399.921 14.395 398.76 14.554 397.616 14.64C397.04 14.661 396.488 14.819 395.932 14.907C395.38 15.019 394.824 15.094 394.288 15.234C393.756 15.389 393.23 15.543 392.708 15.695C392.447 15.771 392.187 15.847 391.929 15.922C391.679 16.021 391.43 16.12 391.182 16.218C390.687 16.417 390.198 16.613 389.714 16.808C389.225 16.993 388.785 17.271 388.326 17.494C387.874 17.733 387.419 17.954 386.985 18.2C386.565 18.472 386.151 18.74 385.741 19.006C382.475 21.157 380.01 23.782 378.253 26.334C376.509 28.897 375.349 31.348 374.726 33.444C374.568 33.967 374.357 34.444 374.269 34.923C374.162 35.396 374.062 35.838 373.969 36.25C373.88 36.662 373.78 37.039 373.72 37.389C373.676 37.741 373.636 38.061 373.601 38.348C373.528 38.914 373.473 39.347 373.434 39.65C373.398 39.946 373.37 40.096 373.37 40.096C373.37 40.096 373.377 39.945 373.406 39.65C373.438 39.346 373.483 38.911 373.543 38.342C373.574 38.054 373.609 37.732 373.648 37.378C373.703 37.026 373.798 36.647 373.883 36.233C373.972 35.819 374.068 35.374 374.17 34.898C374.254 34.417 374.461 33.936 374.616 33.41C375.225 31.299 376.373 28.828 378.115 26.239C379.869 23.662 382.34 21.008 385.624 18.828C386.036 18.559 386.453 18.287 386.875 18.012C387.312 17.762 387.77 17.537 388.225 17.295C388.687 17.069 389.13 16.787 389.623 16.599C390.111 16.401 390.604 16.201 391.102 16C391.352 15.9 391.602 15.8 391.854 15.699C392.114 15.622 392.376 15.545 392.639 15.467C393.165 15.312 393.696 15.156 394.232 14.998C394.772 14.856 395.333 14.778 395.89 14.664C396.451 14.573 397.008 14.413 397.589 14.39C398.743 14.3 399.915 14.137 401.114 14.206C401.712 14.223 402.317 14.203 402.923 14.251C403.527 14.321 404.136 14.391 404.749 14.462C405.055 14.503 405.365 14.521 405.67 14.581C405.974 14.648 406.278 14.714 406.584 14.782C407.194 14.923 407.816 15.036 408.427 15.204C409.628 15.614 410.878 15.944 412.05 16.523L412.947 16.919C413.096 16.987 413.249 17.048 413.396 17.121L413.826 17.364C414.4 17.688 414.978 18.014 415.56 18.342C416.124 18.697 416.662 19.102 417.218 19.483C417.49 19.683 417.782 19.857 418.039 20.079L418.815 20.742C419.891 21.588 420.813 22.617 421.784 23.616C422.218 24.161 422.654 24.708 423.092 25.258L423.421 25.671L423.712 26.113L424.291 27.003L424.872 27.897L425.371 28.845L425.868 29.799L426.117 30.277L426.322 30.777C426.592 31.446 426.863 32.118 427.135 32.792C427.34 33.49 427.546 34.19 427.753 34.893C428.475 37.733 428.766 40.72 428.608 43.728C428.371 46.73 427.69 49.651 426.603 52.372C426.306 53.042 426.01 53.709 425.716 54.373C425.358 55.006 425.002 55.636 424.647 56.264C424.557 56.42 424.472 56.579 424.378 56.732L424.068 57.174L423.45 58.054L422.832 58.928L422.139 59.738L421.449 60.544L421.103 60.944L420.723 61.31C420.217 61.798 419.714 62.283 419.213 62.766C418.121 63.629 417.071 64.528 415.894 65.226L415.038 65.782C414.754 65.968 414.442 66.103 414.146 66.265C413.544 66.57 412.959 66.901 412.353 67.179C411.734 67.428 411.118 67.676 410.507 67.922L410.049 68.106C409.894 68.159 409.734 68.2 409.578 68.248L408.637 68.523C407.4 68.944 406.117 69.108 404.873 69.357C404.245 69.443 403.613 69.474 402.991 69.534C402.679 69.561 402.368 69.587 402.059 69.613C401.749 69.633 401.439 69.61 401.13 69.611C400.513 69.601 399.901 69.591 399.293 69.581C398.687 69.549 398.089 69.451 397.494 69.389C396.296 69.3 395.156 68.987 394.024 68.746C393.451 68.647 392.92 68.416 392.376 68.253C391.839 68.067 391.293 67.916 390.776 67.705C390.265 67.478 389.759 67.254 389.258 67.031C389.007 66.92 388.758 66.809 388.51 66.699C388.273 66.566 388.038 66.434 387.803 66.303C387.336 66.038 386.873 65.776 386.415 65.516C385.951 65.266 385.549 64.928 385.12 64.643C384.701 64.343 384.276 64.06 383.875 63.756C383.493 63.428 383.115 63.103 382.741 62.783C379.77 60.193 377.667 57.238 376.265 54.454C374.876 51.66 374.06 49.06 373.733 46.887C373.648 46.345 373.506 45.841 373.486 45.353C373.447 44.868 373.41 44.414 373.376 43.992C373.346 43.57 373.301 43.182 373.293 42.826C373.301 42.47 373.308 42.147 373.315 41.857C373.33 41.286 373.342 40.848 373.35 40.543C373.358 40.247 373.37 40.096 373.37 40.096Z" fill="#EBEBEB"/>
<path d="M413.585 42.4946C413.585 42.5176 413.24 42.5396 412.61 42.5586C411.92 42.5726 411.019 42.5906 409.927 42.6126C407.651 42.6436 404.479 42.6656 400.899 42.6716H400.722V42.4946C400.722 41.9216 400.721 41.3176 400.721 40.7046C400.721 36.7056 400.741 33.0866 400.773 30.4666C400.796 29.2036 400.815 28.1586 400.83 27.3646C400.851 26.6316 400.875 26.2266 400.899 26.2266C400.924 26.2266 400.947 26.6316 400.969 27.3646C400.983 28.1586 401.003 29.2036 401.026 30.4666C401.058 33.0866 401.079 36.7056 401.079 40.7046C401.078 41.3176 401.078 41.9216 401.078 42.4946L400.901 42.3176C404.481 42.3236 407.653 42.3446 409.929 42.3766C411.021 42.3986 411.921 42.4166 412.612 42.4306C413.239 42.4506 413.585 42.4716 413.585 42.4946Z" fill="#E0E0E0"/>
<path d="M400.983 18.5781C401.082 18.5781 401.162 19.6161 401.162 20.8961C401.162 22.1771 401.082 23.2151 400.983 23.2151C400.885 23.2151 400.805 22.1771 400.805 20.8961C400.805 19.6161 400.885 18.5781 400.983 18.5781Z" fill="#E0E0E0"/>
<path d="M413.56 22.3019C413.63 22.3719 412.963 23.1519 412.07 24.0439C411.177 24.9369 410.397 25.6029 410.328 25.5339C410.258 25.4639 410.925 24.6839 411.818 23.7919C412.71 22.8989 413.49 22.2319 413.56 22.3019Z" fill="#E0E0E0"/>
<path d="M420.913 30.3361C420.958 30.4261 420.083 30.9531 419.011 31.6051C417.938 32.2561 417.067 32.7901 417.008 32.7091C416.951 32.6311 417.738 31.9591 418.825 31.3001C419.912 30.6391 420.871 30.2501 420.913 30.3361Z" fill="#E0E0E0"/>
<path d="M425.223 42.2552C425.223 42.3542 423.807 42.4342 422.062 42.4342C420.316 42.4342 418.9 42.3542 418.9 42.2552C418.9 42.1562 420.315 42.0762 422.062 42.0762C423.807 42.0762 425.223 42.1562 425.223 42.2552Z" fill="#E0E0E0"/>
<path d="M381.381 41.8333C381.381 41.9313 380.044 42.0123 378.395 42.0123C376.746 42.0123 375.409 41.9323 375.409 41.8333C375.409 41.7343 376.746 41.6543 378.395 41.6543C380.044 41.6543 381.381 41.7343 381.381 41.8333Z" fill="#E0E0E0"/>
<path d="M384.482 50.7099C384.547 50.7839 383.537 51.7009 382.226 52.7569C380.915 53.8129 379.804 54.6049 379.746 54.5259C379.687 54.4469 380.697 53.5309 382.002 52.4789C383.307 51.4269 384.417 50.6359 384.482 50.7099Z" fill="#E0E0E0"/>
<path d="M392.131 57.5725C392.213 57.6325 391.464 58.7845 390.595 60.2345C389.723 61.6825 389.057 62.8845 388.965 62.8395C388.879 62.7985 389.406 61.5145 390.288 60.0495C391.168 58.5845 392.055 57.5155 392.131 57.5725Z" fill="#E0E0E0"/>
<path d="M400.983 66.4256C400.885 66.4256 400.805 65.0096 400.805 63.2636C400.805 61.5176 400.885 60.1016 400.983 60.1016C401.082 60.1016 401.162 61.5166 401.162 63.2636C401.162 65.0096 401.082 66.4256 400.983 66.4256Z" fill="#E0E0E0"/>
<path d="M414.612 62.2122C414.562 62.2912 413.325 61.5802 412.005 60.4262C410.681 59.2762 409.808 58.1482 409.88 58.0872C409.957 58.0192 410.937 59.0252 412.24 60.1572C413.538 61.2932 414.669 62.1262 414.612 62.2122Z" fill="#E0E0E0"/>
<path d="M421.008 55.3239C420.938 55.3939 420.001 54.5689 418.914 53.4829C417.827 52.3959 417.003 51.4589 417.073 51.3889C417.143 51.3189 418.08 52.1429 419.167 53.2299C420.253 54.3169 421.077 55.2539 421.008 55.3239Z" fill="#E0E0E0"/>
<path d="M384.192 33.3325C384.122 33.4025 383.295 32.6875 382.345 31.7375C381.394 30.7865 380.68 29.9595 380.75 29.8895C380.82 29.8195 381.647 30.5335 382.598 31.4845C383.547 32.4345 384.261 33.2625 384.192 33.3325Z" fill="#E0E0E0"/>
<path d="M392.085 25.0183C392.015 25.0883 391.202 24.3913 390.269 23.4623C389.335 22.5333 388.635 21.7233 388.705 21.6533C388.774 21.5833 389.587 22.2803 390.521 23.2093C391.454 24.1383 392.154 24.9483 392.085 25.0183Z" fill="#E0E0E0"/>
<path d="M376.518 42.0122C376.518 27.4062 387.932 15.4702 402.326 14.6262C401.786 14.5942 401.243 14.5742 400.695 14.5742C385.541 14.5742 373.256 26.8592 373.256 42.0132C373.256 57.1672 385.541 69.4512 400.695 69.4512C401.243 69.4512 401.786 69.4302 402.326 69.3992C387.931 68.5532 376.518 56.6182 376.518 42.0122Z" fill="#F5F5F5"/>
<path d="M95.391 17.5742H18.144V139.65H95.391V17.5742Z" fill="#E0E0E0"/>
<path d="M93.0461 19.8672H20.2251V137.643H93.0461V19.8672Z" fill="#F5F5F5"/>
<path d="M85.673 26.7285H56.636V71.7865H85.673V26.7285Z" fill="white"/>
<path d="M72.699 30.7129C72.699 31.3119 72.214 31.7969 71.615 31.7969C71.016 31.7969 70.531 31.3119 70.531 30.7129C70.531 30.1139 71.016 29.6289 71.615 29.6289C72.214 29.6289 72.699 30.1139 72.699 30.7129Z" fill="#E0E0E0"/>
<path d="M56.4091 84.3262H27.3721V129.384H56.4091V84.3262Z" fill="white"/>
<path d="M43.4351 88.3086C43.4351 88.9076 42.9501 89.3926 42.3511 89.3926C41.7521 89.3926 41.2671 88.9076 41.2671 88.3086C41.2671 87.7106 41.7521 87.2246 42.3511 87.2246C42.9501 87.2256 43.4351 87.7106 43.4351 88.3086Z" fill="#E0E0E0"/>
<path d="M51.778 26.7285H26.979V61.9135H51.778V26.7285Z" fill="white"/>
<path d="M40.279 29.9254C40.279 30.4224 39.876 30.8254 39.379 30.8254C38.882 30.8254 38.479 30.4224 38.479 29.9254C38.479 29.4284 38.882 29.0254 39.379 29.0254C39.876 29.0254 40.279 29.4284 40.279 29.9254Z" fill="#E0E0E0"/>
<path d="M86.6273 84.9476L60.1064 87.9395L61.7641 102.633L88.2849 99.6415L86.6273 84.9476Z" fill="white"/>
<path d="M74.5991 89.2285C74.5991 89.7355 74.1881 90.1465 73.6811 90.1465C73.1741 90.1465 72.7631 89.7355 72.7631 89.2285C72.7631 88.7215 73.1741 88.3105 73.6811 88.3105C74.1881 88.3095 74.5991 88.7215 74.5991 89.2285Z" fill="#E0E0E0"/>
<path d="M52.5351 94.6027C52.5351 94.7217 47.9751 94.8187 42.3521 94.8187C36.7271 94.8187 32.1681 94.7217 32.1681 94.6027C32.1681 94.4837 36.7271 94.3867 42.3521 94.3867C47.9751 94.3867 52.5351 94.4837 52.5351 94.6027Z" fill="#E0E0E0"/>
<path d="M52.5351 97.8273C52.5351 97.9473 47.9751 98.0443 42.3521 98.0443C36.7271 98.0443 32.1681 97.9473 32.1681 97.8273C32.1681 97.7083 36.7271 97.6113 42.3521 97.6113C47.9751 97.6113 52.5351 97.7073 52.5351 97.8273Z" fill="#E0E0E0"/>
<path d="M52.5351 101.052C52.5351 101.171 47.9751 101.268 42.3521 101.268C36.7271 101.268 32.1681 101.171 32.1681 101.052C32.1681 100.932 36.7271 100.836 42.3521 100.836C47.9751 100.835 52.5351 100.932 52.5351 101.052Z" fill="#E0E0E0"/>
<path d="M52.5351 104.275C52.5351 104.395 47.9751 104.491 42.3521 104.491C36.7271 104.491 32.1681 104.394 32.1681 104.275C32.1681 104.156 36.7271 104.059 42.3521 104.059C47.9751 104.059 52.5351 104.156 52.5351 104.275Z" fill="#E0E0E0"/>
<path d="M52.5351 107.497C52.5351 107.617 47.9751 107.714 42.3521 107.714C36.7271 107.714 32.1681 107.617 32.1681 107.497C32.1681 107.378 36.7271 107.281 42.3521 107.281C47.9751 107.281 52.5351 107.378 52.5351 107.497Z" fill="#E0E0E0"/>
<path d="M52.5351 110.722C52.5351 110.842 47.9751 110.938 42.3521 110.938C36.7271 110.938 32.1681 110.841 32.1681 110.722C32.1681 110.603 36.7271 110.506 42.3521 110.506C47.9751 110.505 52.5351 110.602 52.5351 110.722Z" fill="#E0E0E0"/>
<path d="M52.5351 113.946C52.5351 114.066 47.9751 114.162 42.3521 114.162C36.7271 114.162 32.1681 114.065 32.1681 113.946C32.1681 113.827 36.7271 113.73 42.3521 113.73C47.9751 113.729 52.5351 113.826 52.5351 113.946Z" fill="#E0E0E0"/>
<path d="M84.142 91.1509C84.159 91.2689 79.657 92.0019 74.089 92.7879C68.519 93.5739 63.991 94.1149 63.975 93.9969C63.958 93.8789 68.459 93.1459 74.029 92.3599C79.597 91.5739 84.125 91.0329 84.142 91.1509Z" fill="#E0E0E0"/>
<path d="M84.547 93.1665C84.564 93.2845 80.062 94.0175 74.494 94.8035C68.924 95.5895 64.396 96.1305 64.38 96.0125C64.364 95.8945 68.864 95.1615 74.434 94.3755C80.001 93.5895 84.53 93.0485 84.547 93.1665Z" fill="#E0E0E0"/>
<path d="M84.917 95.0279C84.934 95.1459 80.432 95.8799 74.864 96.6649C69.294 97.4509 64.767 97.9919 64.75 97.8739C64.733 97.7559 69.234 97.0229 74.804 96.2369C80.371 95.4509 84.9 94.9099 84.917 95.0279Z" fill="#E0E0E0"/>
<path d="M83.1201 36.1535C83.1201 36.2735 77.9691 36.3695 71.6161 36.3695C65.2611 36.3695 60.1111 36.2725 60.1111 36.1535C60.1111 36.0345 65.2611 35.9375 71.6161 35.9375C77.9681 35.9375 83.1201 36.0345 83.1201 36.1535Z" fill="#E0E0E0"/>
<path d="M83.1201 38.0715C83.1201 38.1905 77.9691 38.2875 71.6161 38.2875C65.2611 38.2875 60.1111 38.1905 60.1111 38.0715C60.1111 37.9525 65.2611 37.8555 71.6161 37.8555C77.9681 37.8555 83.1201 37.9515 83.1201 38.0715Z" fill="#E0E0E0"/>
<path d="M83.1201 39.9875C83.1201 40.1075 77.9691 40.2035 71.6161 40.2035C65.2611 40.2035 60.1111 40.1065 60.1111 39.9875C60.1111 39.8685 65.2611 39.7715 71.6161 39.7715C77.9681 39.7705 83.1201 39.8675 83.1201 39.9875Z" fill="#E0E0E0"/>
<path d="M83.1201 41.9035C83.1201 42.0225 77.9691 42.1195 71.6161 42.1195C65.2611 42.1195 60.1111 42.0225 60.1111 41.9035C60.1111 41.7845 65.2611 41.6875 71.6161 41.6875C77.9681 41.6875 83.1201 41.7845 83.1201 41.9035Z" fill="#E0E0E0"/>
<path d="M83.1201 43.8215C83.1201 43.9405 77.9691 44.0375 71.6161 44.0375C65.2611 44.0375 60.1111 43.9405 60.1111 43.8215C60.1111 43.7025 65.2611 43.6055 71.6161 43.6055C77.9681 43.6055 83.1201 43.7025 83.1201 43.8215Z" fill="#E0E0E0"/>
<path d="M83.1201 45.7375C83.1201 45.8565 77.9691 45.9535 71.6161 45.9535C65.2611 45.9535 60.1111 45.8565 60.1111 45.7375C60.1111 45.6185 65.2611 45.5215 71.6161 45.5215C77.9681 45.5215 83.1201 45.6185 83.1201 45.7375Z" fill="#E0E0E0"/>
<path d="M83.1201 47.6555C83.1201 47.7745 77.9691 47.8715 71.6161 47.8715C65.2611 47.8715 60.1111 47.7745 60.1111 47.6555C60.1111 47.5365 65.2611 47.4395 71.6161 47.4395C77.9681 47.4395 83.1201 47.5365 83.1201 47.6555Z" fill="#E0E0E0"/>
<path d="M83.1201 53.3429C83.1201 53.4629 77.9691 53.559 71.6161 53.559C65.2611 53.559 60.1111 53.4619 60.1111 53.3429C60.1111 53.2239 65.2611 53.127 71.6161 53.127C77.9681 53.127 83.1201 53.2239 83.1201 53.3429Z" fill="#E0E0E0"/>
<path d="M83.2811 55.3683C83.2811 55.4873 78.1301 55.5844 71.7771 55.5844C65.4221 55.5844 60.2721 55.4873 60.2721 55.3683C60.2721 55.2493 65.4221 55.1524 71.7771 55.1524C78.1301 55.1514 83.2811 55.2483 83.2811 55.3683Z" fill="#E0E0E0"/>
<path d="M83.4431 57.3918C83.4431 57.5118 78.2921 57.6078 71.9391 57.6078C65.5841 57.6078 60.4341 57.5108 60.4341 57.3918C60.4341 57.2728 65.5841 57.1758 71.9391 57.1758C78.2921 57.1758 83.4431 57.2728 83.4431 57.3918Z" fill="#E0E0E0"/>
<path d="M83.6051 59.4172C83.6051 59.5362 78.4541 59.6332 72.1011 59.6332C65.7461 59.6332 60.5961 59.5362 60.5961 59.4172C60.5961 59.2982 65.7461 59.2012 72.1011 59.2012C78.4541 59.2012 83.6051 59.2982 83.6051 59.4172Z" fill="#E0E0E0"/>
<path d="M83.7671 61.4406C83.7671 61.5596 78.6161 61.6566 72.2631 61.6566C65.9081 61.6566 60.7581 61.5596 60.7581 61.4406C60.7581 61.3216 65.9081 61.2246 72.2631 61.2246C78.6161 61.2246 83.7671 61.3216 83.7671 61.4406Z" fill="#E0E0E0"/>
<path d="M83.929 63.466C83.929 63.586 78.778 63.682 72.425 63.682C66.07 63.682 60.92 63.585 60.92 63.466C60.92 63.347 66.07 63.25 72.425 63.25C78.778 63.25 83.929 63.347 83.929 63.466Z" fill="#E0E0E0"/>
<path d="M460.286 449.903C460.286 450.047 357.239 450.163 230.154 450.163C103.025 450.163 0 450.046 0 449.903C0 449.759 103.024 449.643 230.154 449.643C357.239 449.643 460.286 449.76 460.286 449.903Z" fill="#263238"/>
<path d="M336.402 344.041H126.271C121.171 344.041 117.036 339.906 117.036 334.806V28.8092C117.036 23.7082 121.171 19.5742 126.271 19.5742H336.402C341.503 19.5742 345.637 23.7092 345.637 28.8092V334.806C345.637 339.906 341.502 344.041 336.402 344.041Z" fill="#E0E0E0"/>
<path d="M336.402 344.041C336.402 344.041 336.64 344.021 337.11 343.994C337.579 343.962 338.277 343.855 339.168 343.595C340.048 343.306 341.116 342.82 342.189 341.956C343.246 341.091 344.308 339.826 344.961 338.137C345.305 337.301 345.499 336.35 345.561 335.345C345.614 334.337 345.573 333.264 345.583 332.145C345.58 329.904 345.576 327.453 345.573 324.799C345.567 319.489 345.56 313.363 345.553 306.467C345.536 278.878 345.512 238.961 345.483 189.639C345.475 164.977 345.466 137.963 345.456 108.963C345.453 94.4626 345.449 79.4656 345.445 64.0186C345.443 56.2946 345.442 48.4586 345.44 40.5146C345.435 36.5446 345.429 32.5486 345.423 28.5266C345.384 26.5536 344.628 24.6186 343.385 23.0796C342.115 21.5626 340.355 20.4346 338.403 20.0086C337.427 19.7866 336.435 19.7666 335.404 19.7796C334.382 19.7796 333.358 19.7796 332.333 19.7796C330.282 19.7796 328.226 19.7806 326.163 19.7806C322.037 19.7816 317.887 19.7816 313.712 19.7826C305.363 19.7836 296.919 19.7846 288.385 19.7856C271.317 19.7876 253.889 19.7896 236.148 19.7916C200.665 19.7926 163.927 19.7946 126.299 19.7956C123.997 19.7876 121.719 20.6956 120.066 22.2846C118.399 23.8576 117.379 26.0836 117.282 28.3646C117.236 33.0186 117.269 37.6966 117.259 42.3386C117.259 51.6316 117.258 60.8636 117.258 70.0276C117.257 88.3566 117.256 106.417 117.255 124.163C117.251 159.655 117.246 193.889 117.242 226.501C117.235 259.113 117.228 290.103 117.221 319.105C117.22 322.73 117.219 326.325 117.218 329.887C117.226 331.665 117.197 333.45 117.236 335.199C117.294 336.931 117.889 338.623 118.875 340.024C119.863 341.43 121.253 342.527 122.821 343.183C123.61 343.502 124.438 343.708 125.277 343.811C126.114 343.885 126.978 343.868 127.837 343.869C131.269 343.87 134.669 343.871 138.034 343.872C151.496 343.877 164.415 343.882 176.746 343.886C226.069 343.916 265.982 343.94 293.568 343.956C307.357 343.974 318.065 343.988 325.329 343.998C328.957 344.008 331.725 344.015 333.589 344.02C335.448 344.026 336.402 344.041 336.402 344.041C336.402 344.041 335.449 344.056 333.588 344.064C331.724 344.069 328.956 344.076 325.328 344.086C318.064 344.095 307.356 344.109 293.567 344.128C265.981 344.145 226.068 344.168 176.745 344.198C164.414 344.203 151.495 344.207 138.033 344.212C134.668 344.213 131.268 344.214 127.836 344.215C126.979 344.214 126.12 344.233 125.238 344.156C124.366 344.049 123.505 343.836 122.686 343.505C121.056 342.825 119.612 341.686 118.585 340.226C117.559 338.771 116.94 337.011 116.878 335.212C116.837 333.432 116.866 331.67 116.856 329.885C116.855 326.323 116.854 322.728 116.853 319.103C116.847 290.101 116.84 259.111 116.833 226.499C116.829 193.887 116.825 159.652 116.82 124.161C116.819 106.415 116.818 88.3546 116.817 70.0256C116.817 60.8616 116.816 51.6296 116.816 42.3366C116.826 37.6856 116.793 33.0386 116.839 28.3416C116.941 25.9486 118.012 23.6116 119.76 21.9626C121.493 20.2966 123.887 19.3426 126.298 19.3516C163.926 19.3526 200.664 19.3546 236.147 19.3566C253.889 19.3586 271.316 19.3606 288.384 19.3616C296.918 19.3626 305.362 19.3636 313.711 19.3656C317.885 19.3666 322.036 19.3666 326.162 19.3676C328.225 19.3676 330.282 19.3686 332.332 19.3686C333.357 19.3686 334.381 19.3686 335.403 19.3686C336.414 19.3566 337.477 19.3756 338.492 19.6086C340.532 20.0566 342.372 21.2346 343.697 22.8206C344.995 24.4276 345.784 26.4526 345.825 28.5126C345.829 32.5386 345.833 36.5396 345.837 40.5136C345.835 48.4566 345.834 56.2936 345.832 64.0176C345.828 79.4656 345.824 94.4616 345.821 108.962C345.811 137.962 345.802 164.976 345.794 189.638C345.764 238.961 345.74 278.877 345.724 306.466C345.716 313.362 345.71 319.488 345.704 324.798C345.7 327.453 345.697 329.903 345.694 332.144C345.68 333.265 345.718 334.33 345.661 335.349C345.595 336.365 345.395 337.324 345.045 338.168C344.378 339.871 343.301 341.141 342.232 342.007C341.147 342.871 340.069 343.354 339.182 343.636C338.284 343.891 337.582 343.99 337.112 344.015C336.64 344.037 336.402 344.041 336.402 344.041Z" fill="#263238"/>
<g opacity="0.3">
<path d="M136.98 336.71H328.84L326.736 296.803V275.562L136.98 305.212V336.71Z" fill="black"/>
</g>
<g opacity="0.3">
<path d="M289.02 20.2363L293.38 33.1673V39.5023H288.464L289.02 20.2363Z" fill="black"/>
</g>
<path d="M127.231 32.5742V330.629H282.719H335.441V32.5742H127.231Z" fill="white"/>
<path d="M335.441 277.333C335.441 277.333 335.43 276.947 335.425 276.187C335.421 275.423 335.416 274.291 335.409 272.8C335.402 269.808 335.392 265.378 335.379 259.607C335.366 248.055 335.348 231.14 335.324 209.667C335.305 166.711 335.277 105.523 335.244 32.5745L335.44 32.7705C273.923 32.7775 202.734 32.7865 127.229 32.7955L127.45 32.5745C127.45 32.6585 127.45 32.7485 127.45 32.8395C127.429 147.417 127.41 252.052 127.395 330.629L127.229 330.463C175.127 330.494 213.998 330.519 240.898 330.536C254.344 330.555 264.798 330.57 271.894 330.581C275.438 330.591 278.142 330.599 279.965 330.605C281.784 330.613 282.717 330.63 282.717 330.63C282.717 330.63 281.784 330.646 279.965 330.655C278.142 330.66 275.437 330.668 271.894 330.679C264.798 330.689 254.344 330.704 240.898 330.724C213.997 330.741 175.127 330.767 127.229 330.797H127.063V330.631C127.048 252.054 127.029 147.419 127.008 32.8415C127.008 32.7505 127.008 32.6595 127.008 32.5765V32.3555H127.229C202.734 32.3645 273.923 32.3735 335.44 32.3805H335.636V32.5765C335.603 105.525 335.576 166.713 335.556 209.669C335.533 231.143 335.514 248.058 335.501 259.609C335.488 265.38 335.478 269.81 335.471 272.802C335.464 274.293 335.459 275.425 335.455 276.189C335.452 276.947 335.441 277.333 335.441 277.333Z" fill="#263238"/>
<path d="M289.02 42.0462H183.671V17.8162C183.671 14.3232 186.503 11.4902 189.997 11.4902H282.694C286.187 11.4902 289.02 14.3222 289.02 17.8162V42.0462Z" fill="#263238"/>
<path d="M249.752 0H222.939L226.073 22.983H246.27L249.752 0Z" fill="#263238"/>
<path d="M282.252 11.4905C282.252 11.6125 261.697 11.7115 236.347 11.7115C210.988 11.7115 190.438 11.6125 190.438 11.4905C190.438 11.3685 210.988 11.2695 236.347 11.2695C261.697 11.2695 282.252 11.3685 282.252 11.4905Z" fill="#455A64"/>
<path d="M186.029 37.1175C185.907 37.1175 185.808 32.7955 185.808 27.4645C185.808 22.1315 185.907 17.8105 186.029 17.8105C186.151 17.8105 186.25 22.1315 186.25 27.4645C186.25 32.7955 186.151 37.1175 186.029 37.1175Z" fill="#455A64"/>
<path d="M285.609 34.8307C285.487 34.8307 285.388 30.9067 285.388 26.0667C285.388 21.2257 285.487 17.3027 285.609 17.3027C285.731 17.3027 285.83 21.2257 285.83 26.0667C285.83 30.9067 285.731 34.8307 285.609 34.8307Z" fill="#455A64"/>
<path d="M280.529 38.8968C280.529 39.0188 259.43 39.1178 233.408 39.1178C207.377 39.1178 186.283 39.0188 186.283 38.8968C186.283 38.7748 207.378 38.6758 233.408 38.6758C259.429 38.6758 280.529 38.7748 280.529 38.8968Z" fill="#455A64"/>
<path d="M309.08 89.7754H194.094V96.8434H309.08V89.7754Z" fill="#E0E0E0"/>
<path d="M246.26 104.213H194.094V111.232H246.26V104.213Z" fill="#E0E0E0"/>
<path d="M178.53 113.342H159.67C157.537 113.342 155.807 111.613 155.807 109.479V90.6189C155.807 88.4859 157.536 86.7559 159.67 86.7559H178.53C180.663 86.7559 182.393 88.4849 182.393 90.6189V109.479C182.393 111.613 180.664 113.342 178.53 113.342Z" fill="#FF725E"/>
<path d="M168.719 106.384L161.272 100.629L163.28 98.0298L168.274 101.889L175.376 93.7168L177.855 95.8718L168.719 106.384Z" fill="white"/>
<path d="M309.08 133.537H194.094V140.605H309.08V133.537Z" fill="#E0E0E0"/>
<path d="M246.26 147.975H194.094V154.994H246.26V147.975Z" fill="#E0E0E0"/>
<path d="M178.53 157.104H159.67C157.537 157.104 155.807 155.375 155.807 153.241V134.381C155.807 132.248 157.536 130.518 159.67 130.518H178.53C180.663 130.518 182.393 132.247 182.393 134.381V153.241C182.393 155.375 180.664 157.104 178.53 157.104Z" fill="#FF725E"/>
<path d="M168.719 150.146L161.272 144.391L163.28 141.792L168.274 145.651L175.376 137.479L177.855 139.634L168.719 150.146Z" fill="white"/>
<path d="M309.08 180.426H194.094V187.494H309.08V180.426Z" fill="#E0E0E0"/>
<path d="M246.26 194.863H194.094V201.882H246.26V194.863Z" fill="#E0E0E0"/>
<path d="M309.08 223.773H194.094V230.841H309.08V223.773Z" fill="#E0E0E0"/>
<path d="M246.26 238.211H194.094V245.23H246.26V238.211Z" fill="#E0E0E0"/>
<path d="M178.53 203.992H159.67C157.537 203.992 155.807 202.263 155.807 200.129V181.269C155.807 179.136 157.536 177.406 159.67 177.406H178.53C180.663 177.406 182.393 179.135 182.393 181.269V200.129C182.393 202.262 180.664 203.992 178.53 203.992Z" fill="#FF725E"/>
<path d="M168.719 197.034L161.272 191.279L163.28 188.68L168.274 192.539L175.376 184.367L177.855 186.521L168.719 197.034Z" fill="white"/>
<path d="M178.91 249.023H159.29C157.121 249.023 155.357 247.259 155.357 245.089V225.47C155.357 223.301 157.122 221.537 159.29 221.537H178.91C181.079 221.537 182.844 223.301 182.844 225.47V245.089C182.844 247.259 181.08 249.023 178.91 249.023ZM159.291 222.438C157.619 222.438 156.259 223.798 156.259 225.47V245.089C156.259 246.761 157.619 248.122 159.291 248.122H178.911C180.583 248.122 181.943 246.762 181.943 245.089V225.47C181.943 223.799 180.583 222.438 178.911 222.438H159.291Z" fill="#FF725E"/>
<path d="M309.08 273.357H194.094V280.425H309.08V273.357Z" fill="#E0E0E0"/>
<path d="M246.26 287.797H194.094V294.816H246.26V287.797Z" fill="#E0E0E0"/>
<path d="M178.91 298.609H159.29C157.121 298.609 155.357 296.845 155.357 294.675V275.056C155.357 272.887 157.122 271.123 159.29 271.123H178.91C181.079 271.123 182.844 272.887 182.844 275.056V294.675C182.844 296.845 181.08 298.609 178.91 298.609ZM159.291 272.024C157.619 272.024 156.259 273.384 156.259 275.056V294.675C156.259 296.347 157.619 297.708 159.291 297.708H178.911C180.583 297.708 181.943 296.348 181.943 294.675V275.056C181.943 273.385 180.583 272.024 178.911 272.024H159.291Z" fill="#FF725E"/>
<path d="M294.897 62.4062H180.254V72.2213H294.897V62.4062Z" fill="#FF725E"/>
<path d="M200.037 426.316C200.037 426.316 196.586 402.59 196.874 388.785C197.162 374.981 196.857 359.451 196.857 359.451H198.447C198.447 359.451 197.37 386.851 198.542 403.377C199.713 419.89 202.799 426.316 202.799 426.316H200.037Z" fill="#263238"/>
<path d="M210.317 332.755C209.997 331.944 209.604 331.1 208.868 330.634C207.859 329.995 206.537 330.261 205.41 330.659C200.605 332.358 196.346 341.317 194.403 346.029L200.782 367.523C212.297 356.841 214.291 342.828 210.317 332.755Z" fill="#455A64"/>
<path d="M208.495 331.504C208.503 331.508 208.471 331.604 208.402 331.784C208.32 331.99 208.216 332.249 208.09 332.567C207.81 333.243 207.418 334.227 206.949 335.448C206.009 337.889 204.813 341.301 203.743 345.145C202.678 348.992 201.944 352.533 201.491 355.109C201.264 356.397 201.093 357.442 200.984 358.166C200.929 358.504 200.884 358.779 200.848 358.998C200.814 359.188 200.792 359.287 200.783 359.286C200.774 359.285 200.778 359.183 200.796 358.991C200.819 358.771 200.848 358.493 200.883 358.152C200.961 357.424 201.104 356.373 201.308 355.078C201.714 352.489 202.422 348.932 203.49 345.074C204.563 341.219 205.79 337.806 206.776 335.379C207.268 334.165 207.687 333.19 207.996 332.526C208.141 332.215 208.26 331.963 208.354 331.762C208.439 331.589 208.487 331.5 208.495 331.504Z" fill="#263238"/>
<path d="M197.948 372.676C191.969 369.372 188.445 363.156 188.116 356.333C187.886 351.563 189.352 346.883 191.012 342.405C191.156 342.017 191.327 341.598 191.687 341.394C192.189 341.11 192.816 341.363 193.317 341.648C197.662 344.122 200.294 348.839 201.695 353.639C202.627 356.833 203.11 360.2 202.679 363.499C202.248 366.799 200.362 370.388 197.948 372.676Z" fill="#455A64"/>
<path d="M197.948 372.676C197.939 372.676 197.931 372.577 197.925 372.388C197.921 372.17 197.916 371.897 197.909 371.563C197.907 370.847 197.878 369.811 197.819 368.533C197.704 365.977 197.369 362.453 196.709 358.603C196.046 354.753 195.241 351.306 194.648 348.814C194.356 347.595 194.116 346.596 193.94 345.863C193.865 345.537 193.804 345.271 193.756 345.058C193.717 344.873 193.7 344.775 193.709 344.773C193.718 344.771 193.751 344.864 193.807 345.045C193.868 345.254 193.945 345.516 194.039 345.837C194.236 346.526 194.507 347.527 194.828 348.769C195.468 351.251 196.303 354.698 196.968 358.559C197.63 362.419 197.937 365.96 198.004 368.525C198.039 369.808 198.04 370.846 198.01 371.563C197.996 371.898 197.985 372.171 197.976 372.388C197.967 372.578 197.957 372.677 197.948 372.676Z" fill="#263238"/>
<g opacity="0.3">
<path d="M197.948 372.676C191.969 369.372 188.445 363.156 188.116 356.333C187.886 351.563 189.352 346.883 191.012 342.405C191.156 342.017 191.327 341.598 191.687 341.394C192.189 341.11 192.816 341.363 193.317 341.648C197.662 344.122 200.294 348.839 201.695 353.639C202.627 356.833 203.11 360.2 202.679 363.499C202.248 366.799 200.362 370.388 197.948 372.676Z" fill="black"/>
</g>
<path d="M204.694 408.979C210.579 410.272 215.424 414.423 221.102 416.441C224.858 417.776 229.106 418.249 232.105 420.875C231.385 419.058 229.679 417.848 228.022 416.813C223.353 413.897 218.354 411.51 213.151 409.714C210.48 408.792 207.582 408.021 204.86 408.781" fill="#455A64"/>
<path d="M196.185 414.223C188.815 414.104 181.055 407.83 173.72 407.455C181.397 404.976 192.388 407.001 196.185 414.223Z" fill="#455A64"/>
<path d="M199.065 396.542C202.807 395.193 206.916 395.129 210.847 395.74C214.778 396.351 218.574 397.611 222.349 398.866C221.971 396.309 219.9 394.386 217.955 392.684C216.491 391.403 215.016 390.115 213.336 389.134C211.656 388.153 209.74 387.489 207.797 387.571C205.453 387.67 203.221 388.88 201.683 390.652C200.146 392.425 199.319 394.209 199.065 396.542Z" fill="#455A64"/>
<path d="M183.939 388.406C179.3 384.445 172.273 384.832 166.174 384.97C175.549 389.452 185.651 395.597 193.725 402.139C193.973 397.828 189.8 393.41 183.939 388.406Z" fill="#455A64"/>
<g opacity="0.3">
<path d="M183.939 388.406C179.3 384.445 172.273 384.832 166.174 384.97C175.549 389.452 185.651 395.597 193.725 402.139C193.973 397.828 189.8 393.41 183.939 388.406Z" fill="black"/>
</g>
<path d="M201.151 382.938C203.484 381.383 205.844 379.9 208.286 378.791C210.728 377.682 213.006 375.914 215.364 374.637C218.422 372.981 221.071 370.679 223.878 368.627C226.685 366.574 229.768 364.721 233.203 364.177C230.402 363.599 227.476 363.914 224.717 364.668C221.958 365.421 219.337 366.601 216.73 367.776C213.111 369.406 209.429 371.077 206.471 373.723C203.513 376.369 200.839 378.981 201.151 382.938Z" fill="#455A64"/>
<path d="M220.966 414.221C220.962 414.229 220.881 414.194 220.733 414.12C220.559 414.03 220.347 413.92 220.09 413.787C219.535 413.492 218.738 413.054 217.735 412.55C217.238 412.288 216.688 412.014 216.091 411.734C215.5 411.44 214.858 411.151 214.177 410.856C212.816 410.275 211.297 409.668 209.639 409.274C207.987 408.869 206.34 408.779 204.912 409.155C204.191 409.329 203.513 409.501 202.909 409.753C202.303 409.999 201.763 410.286 201.292 410.583C200.348 411.177 199.688 411.808 199.26 412.262C198.833 412.719 198.625 412.999 198.606 412.985C198.599 412.98 198.644 412.905 198.738 412.768C198.83 412.63 198.979 412.435 199.183 412.193C199.592 411.713 200.241 411.052 201.19 410.427C201.663 410.114 202.209 409.811 202.825 409.551C203.44 409.284 204.134 409.1 204.855 408.919C206.315 408.52 208.026 408.605 209.699 409.018C211.382 409.418 212.91 410.037 214.273 410.634C214.955 410.936 215.596 411.234 216.185 411.537C216.781 411.827 217.328 412.111 217.82 412.384C218.815 412.911 219.599 413.374 220.139 413.697C220.386 413.847 220.591 413.972 220.758 414.073C220.9 414.163 220.971 414.213 220.966 414.221Z" fill="#263238"/>
<path d="M190.688 410.57C190.695 410.553 190.858 410.602 191.15 410.705C191.443 410.804 191.855 410.981 192.351 411.227C193.343 411.717 194.647 412.551 195.872 413.724C197.094 414.901 197.979 416.172 198.508 417.143C198.774 417.628 198.967 418.033 199.078 418.322C199.193 418.609 199.248 418.771 199.231 418.778C199.189 418.797 198.913 418.173 198.347 417.237C197.783 416.301 196.89 415.072 195.689 413.914C194.485 412.761 193.221 411.918 192.263 411.392C191.306 410.863 190.671 410.613 190.688 410.57Z" fill="#263238"/>
<path d="M174.382 388.035C174.385 388.026 174.493 388.059 174.696 388.128C174.924 388.209 175.217 388.314 175.581 388.443C175.974 388.588 176.44 388.76 176.976 388.957C177.52 389.159 178.11 389.457 178.778 389.751C181.431 390.956 184.962 392.983 188.373 395.864C190.055 397.328 191.575 398.816 192.847 400.27C194.114 401.727 195.187 403.098 196.023 404.293C196.864 405.485 197.503 406.478 197.94 407.165C198.147 407.489 198.314 407.751 198.444 407.955C198.558 408.136 198.615 408.234 198.607 408.24C198.6 408.245 198.529 408.158 198.4 407.986C198.271 407.814 198.084 407.558 197.854 407.222C197.39 406.552 196.729 405.576 195.872 404.402C195.019 403.224 193.936 401.871 192.666 400.431C191.391 398.993 189.874 397.52 188.202 396.065C184.813 393.202 181.321 391.163 178.699 389.92C178.039 389.616 177.456 389.307 176.92 389.093C176.392 388.88 175.933 388.695 175.545 388.539C175.19 388.391 174.902 388.271 174.679 388.178C174.481 388.093 174.379 388.044 174.382 388.035Z" fill="#263238"/>
<path d="M210.123 392.401C210.118 392.419 209.909 392.391 209.535 392.325C209.332 392.288 209.108 392.246 208.858 392.2C208.595 392.149 208.287 392.148 207.953 392.113C206.628 392.017 204.697 392.126 202.888 393.112C201.975 393.574 201.21 394.197 200.583 394.822C199.947 395.442 199.465 396.089 199.101 396.654C198.362 397.786 198.133 398.603 198.088 398.588C198.074 398.584 198.115 398.376 198.238 398.013C198.373 397.656 198.582 397.139 198.943 396.556C199.293 395.968 199.769 395.297 200.41 394.652C201.041 394.003 201.824 393.356 202.764 392.88C204.63 391.863 206.627 391.781 207.968 391.928C208.307 391.975 208.618 391.99 208.882 392.055C209.131 392.118 209.355 392.174 209.557 392.225C209.927 392.322 210.128 392.384 210.123 392.401Z" fill="#263238"/>
<path d="M217.53 369.421C217.534 369.429 217.438 369.488 217.251 369.593C217.039 369.708 216.766 369.856 216.429 370.04C215.714 370.425 214.685 370.993 213.435 371.73C212.191 372.476 210.725 373.393 209.166 374.508C207.611 375.625 205.941 376.924 204.399 378.502C203.639 379.296 202.938 380.125 202.449 381.026C201.966 381.953 201.505 382.849 201.081 383.709C200.229 385.428 199.535 387.011 199.033 388.37C198.533 389.73 198.222 390.863 198.037 391.652C197.848 392.441 197.78 392.886 197.754 392.881C197.745 392.88 197.755 392.768 197.783 392.555C197.81 392.342 197.855 392.029 197.936 391.63C198.091 390.831 198.377 389.683 198.857 388.307C199.339 386.931 200.019 385.332 200.862 383.602C201.282 382.736 201.739 381.836 202.219 380.907C202.726 379.964 203.438 379.124 204.208 378.319C205.769 376.722 207.453 375.423 209.024 374.31C210.599 373.201 212.08 372.297 213.34 371.569C214.606 370.851 215.65 370.306 216.381 369.948C216.728 369.783 217.008 369.649 217.227 369.545C217.422 369.456 217.526 369.412 217.53 369.421Z" fill="#263238"/>
<path d="M196.865 391.735C196.847 391.738 196.796 391.516 196.719 391.114C196.633 390.659 196.525 390.089 196.397 389.411C196.116 387.976 195.687 386.001 195.003 383.881C194.325 381.758 193.501 379.911 192.898 378.579C192.612 377.951 192.371 377.423 192.179 377.001C192.011 376.627 191.927 376.416 191.943 376.408C191.959 376.4 192.075 376.595 192.271 376.955C192.467 377.315 192.742 377.841 193.066 378.499C193.713 379.813 194.57 381.66 195.253 383.8C195.942 385.936 196.345 387.931 196.579 389.378C196.694 390.103 196.777 390.69 196.82 391.098C196.866 391.506 196.883 391.732 196.865 391.735Z" fill="#263238"/>
<path d="M196.331 374.968C196.146 372.184 195.239 369.478 193.934 367.012C190.357 360.249 183.634 355.235 176.131 353.736C181.625 361.924 187.119 370.113 192.613 378.301L194.741 382.685C196.194 380.302 196.516 377.752 196.331 374.968Z" fill="#455A64"/>
<path d="M219.973 423.381H181.649V430.174H219.973V423.381Z" fill="#FF725E"/>
<path d="M184.511 428.826L187.774 449.902H213.217L217.111 428.826H184.511Z" fill="#FF725E"/>
<path d="M219.952 430.182C219.952 430.256 211.307 430.317 200.646 430.317C189.981 430.317 181.338 430.257 181.338 430.182C181.338 430.108 189.981 430.047 200.646 430.047C211.307 430.047 219.952 430.107 219.952 430.182Z" fill="#263238"/>
<path d="M361.713 187.147L359.681 182.324C360.889 178.557 360.994 174.38 359.704 170.266C356.662 160.561 346.544 154.657 336.594 156.761C325.097 159.193 318.152 170.973 321.701 182.268C324.713 191.857 334.629 197.747 344.494 195.822C349.389 194.866 353.475 192.22 356.314 188.633L356.31 188.643L361.713 187.147Z" fill="white"/>
<path d="M361.713 187.147C361.72 187.151 361.609 187.187 361.384 187.256C361.132 187.331 360.795 187.432 360.365 187.561C359.422 187.836 358.072 188.228 356.335 188.734C356.285 188.749 356.232 188.72 356.218 188.67C356.212 188.648 356.214 188.624 356.222 188.605L356.226 188.595L356.389 188.692C354.863 190.643 352.426 193.025 348.79 194.637C346.984 195.445 344.898 196.024 342.619 196.27C340.34 196.496 337.867 196.327 335.388 195.651C332.914 194.965 330.446 193.758 328.236 192.023C326.035 190.29 324.058 188.039 322.722 185.328C321.367 182.635 320.593 179.544 320.556 176.359C320.498 173.17 321.305 169.907 322.838 166.966C324.377 163.983 326.634 161.441 329.312 159.648C331.972 157.827 334.999 156.729 338.011 156.305C341.032 155.864 344.035 156.241 346.729 157.093C349.429 157.955 351.83 159.339 353.796 161.018C355.758 162.706 357.289 164.675 358.382 166.701C358.63 167.22 358.875 167.73 359.115 168.232C359.343 168.739 359.502 169.265 359.694 169.765C360.061 170.774 360.291 171.785 360.467 172.759C361.151 176.684 360.532 180.026 359.77 182.353L359.767 182.289C360.398 183.846 360.89 185.062 361.236 185.916C361.39 186.305 361.512 186.612 361.603 186.842C361.683 187.047 361.72 187.15 361.713 187.147C361.706 187.143 361.653 187.033 361.557 186.822C361.454 186.591 361.316 186.283 361.142 185.892C360.778 185.061 360.259 183.877 359.595 182.36C359.586 182.34 359.586 182.315 359.592 182.295C360.307 179.976 360.878 176.67 360.17 172.81C359.988 171.852 359.753 170.858 359.385 169.868C359.193 169.377 359.033 168.861 358.805 168.365C358.566 167.873 358.322 167.373 358.074 166.865C356.988 164.882 355.474 162.959 353.541 161.312C351.605 159.675 349.246 158.329 346.599 157.495C343.959 156.67 341.021 156.31 338.07 156.748C335.126 157.17 332.17 158.249 329.574 160.029C326.961 161.782 324.758 164.266 323.254 167.181C321.757 170.053 320.966 173.24 321.02 176.354C321.053 179.465 321.804 182.489 323.122 185.123C324.421 187.776 326.348 189.982 328.497 191.687C330.655 193.393 333.069 194.587 335.491 195.271C337.919 195.945 340.344 196.125 342.583 195.918C344.823 195.691 346.88 195.137 348.665 194.357C352.259 192.802 354.693 190.48 356.237 188.573C356.269 188.531 356.329 188.524 356.371 188.556C356.406 188.583 356.416 188.631 356.4 188.67L356.396 188.68L356.283 188.55C358.008 188.097 359.349 187.746 360.285 187.5C360.73 187.387 361.078 187.298 361.338 187.231C361.579 187.172 361.705 187.143 361.713 187.147Z" fill="#263238"/>
<path d="M333.889 178.971C335.092 178.971 336.068 177.996 336.068 176.792C336.068 175.589 335.092 174.613 333.889 174.613C332.685 174.613 331.71 175.589 331.71 176.792C331.71 177.996 332.685 178.971 333.889 178.971Z" fill="#263238"/>
<path d="M343.41 176.792C343.41 177.996 342.434 178.971 341.231 178.971C340.027 178.971 339.051 177.995 339.051 176.792C339.051 175.588 340.027 174.613 341.231 174.613C342.434 174.613 343.41 175.589 343.41 176.792Z" fill="#263238"/>
<path d="M348.378 178.971C349.581 178.971 350.557 177.996 350.557 176.792C350.557 175.589 349.581 174.613 348.378 174.613C347.174 174.613 346.199 175.589 346.199 176.792C346.199 177.996 347.174 178.971 348.378 178.971Z" fill="#263238"/>
<path d="M97.051 146.046L97.999 140.483C96.321 137.544 95.408 134.12 95.529 130.489C95.877 120.048 104.623 111.866 115.064 112.214C125.505 112.562 133.687 121.308 133.339 131.749C132.991 142.19 124.245 150.372 113.804 150.024C109.444 149.879 105.482 148.265 102.366 145.68L102.372 145.689L97.051 146.046Z" fill="white"/>
<path d="M97.051 146.046C97.046 146.051 97.157 146.048 97.383 146.038C97.629 146.026 97.964 146.009 98.395 145.988C99.321 145.937 100.657 145.863 102.379 145.767C102.422 145.765 102.456 145.727 102.453 145.684C102.452 145.669 102.446 145.654 102.438 145.642L102.432 145.633L102.317 145.74C104.127 147.26 106.88 148.985 110.592 149.771C111.516 149.962 112.493 150.093 113.511 150.145C114.02 150.179 114.54 150.142 115.068 150.144C115.332 150.135 115.599 150.148 115.867 150.121C116.134 150.09 116.403 150.059 116.674 150.028C118.841 149.784 121.118 149.144 123.29 148.007C125.46 146.875 127.521 145.249 129.217 143.173C130.914 141.102 132.239 138.578 132.954 135.788C133.678 133.002 133.721 129.954 133.073 126.987C132.785 125.491 132.208 124.053 131.563 122.642C130.832 121.274 130.02 119.916 128.961 118.734C127.966 117.516 126.771 116.501 125.544 115.574C124.267 114.716 122.952 113.921 121.535 113.398C118.738 112.28 115.747 111.832 112.902 112.087C110.055 112.324 107.363 113.199 105.053 114.514C102.737 115.827 100.8 117.572 99.322 119.504C96.345 123.393 95.274 127.911 95.402 131.654C95.521 135.438 96.731 138.463 97.93 140.525L97.92 140.471C97.633 142.278 97.412 143.676 97.258 144.643C97.189 145.095 97.136 145.445 97.097 145.701C97.061 145.934 97.046 146.051 97.051 146.046C97.051 146.046 97.082 145.915 97.129 145.672C97.178 145.413 97.245 145.058 97.331 144.6C97.504 143.649 97.755 142.274 98.079 140.497C98.083 140.478 98.078 140.458 98.069 140.443C96.909 138.381 95.744 135.38 95.655 131.646C95.556 127.951 96.638 123.512 99.579 119.703C101.04 117.81 102.949 116.104 105.225 114.822C107.497 113.538 110.137 112.686 112.929 112.46C115.719 112.214 118.65 112.659 121.388 113.756C122.776 114.268 124.063 115.05 125.314 115.89C126.515 116.799 127.687 117.793 128.661 118.987C129.699 120.145 130.494 121.476 131.211 122.815C131.842 124.197 132.41 125.605 132.693 127.07C133.33 129.975 133.293 132.964 132.589 135.696C131.894 138.432 130.6 140.91 128.941 142.948C127.283 144.991 125.265 146.596 123.136 147.717C121.006 148.844 118.771 149.485 116.638 149.737C116.371 149.77 116.106 149.802 115.843 149.834C115.58 149.862 115.316 149.851 115.057 149.861C114.537 149.862 114.024 149.903 113.522 149.872C112.517 149.827 111.553 149.705 110.64 149.524C106.973 148.777 104.233 147.1 102.416 145.619C102.382 145.591 102.333 145.595 102.304 145.629C102.28 145.657 102.28 145.698 102.3 145.726L102.306 145.734L102.365 145.609C100.668 145.744 99.352 145.848 98.439 145.921C98 145.958 97.659 145.987 97.409 146.008C97.179 146.029 97.051 146.046 97.051 146.046Z" fill="#263238"/>
<path d="M106.259 132.419L108.347 130.331L112.374 133.911L120.278 126.305L122.217 128.393L112.076 137.937L106.259 132.419Z" fill="#FF725E"/>
<path d="M441.56 350.479C441.585 350.244 441.607 350.01 441.617 349.776C441.818 345.276 439.99 340.964 438.231 336.815C433.514 325.694 428.951 313.895 430.277 301.893C432.03 286.022 443.7 272.896 447.866 257.546C448.356 255.739 450.015 254.496 451.892 254.496C454.709 254.496 456.754 257.226 455.89 259.9C451.25 274.255 440.664 286.839 439.002 301.893C437.677 313.895 442.24 325.694 446.956 336.815C448.715 340.963 450.543 345.276 450.342 349.776C450.142 354.276 447.247 359.005 442.788 359.726H442.356H434.064H376.468C374.157 359.726 372.284 357.858 372.284 355.555V354.651C372.284 352.347 374.157 350.479 376.468 350.479H441.56Z" fill="#455A64"/>
<path d="M454.896 449.903H358.657C357.313 449.903 356.062 449.243 355.226 448.09C354.267 446.768 354.004 445.03 354.523 443.44L381.918 359.492L383.347 359.959L355.952 443.907C355.582 445.041 355.765 446.275 356.442 447.207C356.992 447.965 357.799 448.4 358.657 448.4H454.896C455.741 448.4 456.514 447.996 457.07 447.263C457.744 446.374 457.959 445.175 457.647 444.056L434.103 359.928L435.55 359.523L459.093 443.651C459.532 445.221 459.223 446.911 458.266 448.172C457.433 449.272 456.204 449.903 454.896 449.903Z" fill="#E0E0E0"/>
<path d="M319.916 297.526C319.916 297.526 323.421 289.009 326.883 287.207C330.345 285.406 334.754 284.254 334.754 284.254H350.168L350.321 294.233C350.321 294.233 348.095 296.465 345.044 296.043C341.993 295.621 334.376 293.738 334.376 293.738L330.616 293.944L327.151 298.388C327.151 298.388 324.338 299.243 325.328 296.581C326.318 293.919 326.76 292.746 326.76 292.746C326.76 292.746 323.432 297.925 322.155 298.163C320.878 298.401 319.916 297.526 319.916 297.526Z" fill="#6F4439"/>
<path d="M383.622 265.406L371.356 283.049L350.169 284.255L349.88 293.934L365.844 297.077C374.136 298.709 382.701 296.167 388.758 290.274L391.094 268.935L383.622 265.406Z" fill="#AE7461"/>
<path d="M374.109 411.733L388.366 425.675C388.366 425.675 378.073 445.548 380.441 448.393L410.203 420.388L388.937 397.709L374.109 411.733Z" fill="#263238"/>
<path d="M396.416 415.8C397.133 415.407 398.11 415.643 398.497 416.318C398.884 416.993 398.596 417.996 397.885 418.402C397.175 418.808 395.991 418.56 395.685 417.842C395.379 417.125 395.781 415.961 396.56 415.731" fill="#E0E0E0"/>
<path d="M410.203 420.389L407.965 418.191L380.267 445.864C380.267 445.864 379.457 447.655 380.441 448.394L410.203 420.389Z" fill="#455A64"/>
<path d="M387.749 425.987C387.884 426.12 388.67 425.498 389.802 425.266C390.931 425.005 391.862 425.252 391.944 425.072C392.053 424.92 391.059 424.304 389.691 424.609C388.322 424.9 387.598 425.891 387.749 425.987Z" fill="white"/>
<path d="M385.781 430.141C385.874 430.305 386.724 429.946 387.767 430.061C388.815 430.146 389.534 430.656 389.673 430.513C389.83 430.406 389.17 429.509 387.868 429.39C386.57 429.26 385.661 430.007 385.781 430.141Z" fill="white"/>
<path d="M387.349 435.336C387.509 435.241 387.062 434.366 385.977 433.966C384.895 433.558 383.929 433.907 383.976 434.079C384.001 434.269 384.824 434.257 385.709 434.599C386.603 434.919 387.192 435.458 387.349 435.336Z" fill="white"/>
<path d="M384.875 422.432C385.055 422.5 385.542 421.683 386.413 420.963C387.271 420.226 388.156 419.884 388.12 419.695C388.11 419.517 387.005 419.597 385.99 420.459C384.969 421.314 384.701 422.392 384.875 422.432Z" fill="white"/>
<path d="M375.785 312.359C373.178 312.359 309.67 330.859 302.798 337.112C295.926 343.366 290.785 420.752 290.785 420.752L317.414 429.882C317.414 429.882 323.026 392.088 326.428 379.881C329.132 370.178 328.51 361.117 328.51 361.117L381.236 338.155L375.785 312.359Z" fill="#263238"/>
<path d="M377.386 316.45C376.201 316.971 330.059 336.672 325.722 349.871C322.188 360.627 326.297 370.097 331.233 377.499C336.806 385.855 377.675 423.148 377.675 423.148L400.741 406.655L361.195 365.815C361.195 365.815 381.944 353.006 382.655 353.006C383.366 353.006 404.935 351.58 411.772 350.806C418.157 350.083 421.65 340.928 421.65 340.928L427.345 314.679L384.551 304.803L377.386 316.45Z" fill="#263238"/>
<path d="M377.386 316.45C377.386 316.45 377.534 316.187 377.837 315.683C378.145 315.175 378.597 314.428 379.193 313.445C380.397 311.472 382.176 308.559 384.492 304.765L384.519 304.721L384.569 304.733C394.113 306.92 408.817 310.29 427.378 314.544L427.51 314.574L427.481 314.707C425.776 322.598 423.861 331.463 421.809 340.961L421.806 340.975L421.802 340.985C420.826 343.333 419.509 345.593 417.739 347.565C416.852 348.545 415.806 349.415 414.61 350.055C414.314 350.222 414.012 350.379 413.684 350.481C413.359 350.585 413.051 350.751 412.707 350.794C412.37 350.857 412.031 350.937 411.693 350.985L410.682 351.092C405.28 351.626 399.692 352.025 393.945 352.444C391.071 352.64 388.157 352.839 385.206 353.04C384.467 353.085 383.726 353.13 382.982 353.175L382.696 353.187C382.634 353.184 382.642 353.207 382.614 353.209C382.597 353.211 382.54 353.241 382.505 353.256C382.346 353.325 382.18 353.418 382.017 353.501L381.04 354.041C379.742 354.78 378.446 355.547 377.146 356.322C371.949 359.429 366.668 362.667 361.296 365.976L361.333 365.681C371.182 375.85 381.557 386.563 392.216 397.568C395.128 400.576 398.019 403.561 400.882 406.518L401.04 406.681L400.856 406.813C392.989 412.436 385.284 417.944 377.787 423.303L377.661 423.393L377.547 423.288C369.288 415.718 361.356 408.311 353.827 401.112C350.063 397.513 346.402 393.963 342.881 390.441C339.361 386.92 335.943 383.461 332.864 379.858C332.461 379.424 332.129 378.928 331.763 378.465C331.405 377.995 331.038 377.533 330.737 377.032C330.099 376.054 329.491 375.065 328.93 374.059C327.799 372.053 326.825 369.993 326.064 367.89C325.305 365.787 324.753 363.642 324.474 361.493C324.201 359.343 324.196 357.2 324.43 355.124C324.655 353.044 325.136 351.038 325.868 349.154C326.678 347.285 327.962 345.743 329.272 344.337C331.961 341.566 334.909 339.329 337.783 337.327C343.556 333.345 349.069 330.258 353.929 327.654C358.797 325.057 363.046 322.98 366.526 321.328C370.007 319.677 372.724 318.46 374.567 317.649C375.487 317.251 376.188 316.948 376.666 316.741C377.141 316.543 377.386 316.45 377.386 316.45C377.386 316.45 377.149 316.566 376.68 316.776C376.205 316.99 375.508 317.304 374.595 317.715C372.761 318.546 370.054 319.783 366.584 321.452C363.114 323.122 358.876 325.216 354.021 327.828C349.174 330.447 343.674 333.547 337.925 337.534C335.063 339.536 332.129 341.775 329.469 344.528C328.175 345.922 326.911 347.453 326.13 349.267C325.42 351.105 324.94 353.11 324.724 355.161C324.496 357.214 324.504 359.332 324.778 361.457C325.057 363.582 325.607 365.704 326.362 367.786C327.119 369.869 328.088 371.911 329.214 373.903C329.772 374.902 330.378 375.884 331.014 376.856C331.316 377.355 331.678 377.809 332.031 378.271C332.393 378.728 332.717 379.214 333.121 379.647C336.189 383.227 339.61 386.683 343.13 390.197C346.651 393.713 350.314 397.257 354.08 400.852C361.612 408.042 369.547 415.444 377.806 423.008L377.566 422.994C385.061 417.633 392.765 412.123 400.63 406.498L400.603 406.793C397.74 403.836 394.849 400.851 391.936 397.843C381.28 386.835 370.907 376.12 361.06 365.949L360.895 365.778L361.097 365.654C366.472 362.346 371.755 359.111 376.957 356.006C378.259 355.231 379.555 354.464 380.859 353.724L381.845 353.18C382.015 353.094 382.174 353.004 382.357 352.924C382.408 352.903 382.432 352.884 382.505 352.862C382.567 352.844 382.661 352.819 382.694 352.823L382.965 352.811C383.707 352.767 384.446 352.722 385.183 352.678C388.133 352.479 391.046 352.283 393.92 352.089C399.665 351.676 405.256 351.281 410.648 350.755C412.011 350.668 413.296 350.395 414.453 349.76C415.606 349.145 416.626 348.302 417.496 347.343C419.231 345.418 420.545 343.171 421.503 340.872L421.496 340.895C423.564 331.401 425.494 322.539 427.213 314.651L427.317 314.814C408.769 310.504 394.075 307.089 384.538 304.873L384.614 304.841C382.268 308.624 380.466 311.53 379.247 313.497C378.639 314.47 378.178 315.209 377.863 315.712C377.551 316.205 377.386 316.45 377.386 316.45Z" fill="#455A64"/>
<path d="M381.584 190.233C379.506 190.656 377.219 189.302 376.589 187.278C375.959 185.253 377.076 182.842 379.027 182.011C377.605 180.788 377.086 178.622 377.8 176.887C378.513 175.152 380.405 173.978 382.276 174.108C382.192 172.258 383.139 170.393 384.684 169.371C386.228 168.348 388.314 168.204 389.985 169.004C391.87 167.078 395.15 166.726 397.402 168.206C399.165 167.718 401.203 168.502 402.185 170.045C403.167 171.588 403.014 173.766 401.826 175.156" fill="#263238"/>
<path d="M398.701 172.379L397.754 172.463C388.223 173.305 380.937 181.324 381.011 190.892C381.08 199.791 381.27 209.621 381.747 214.356C382.736 224.16 392.688 224.818 392.688 224.818L392.901 236.683L416.656 233.839L414.982 190.887C414.959 180.619 408.965 172.073 398.701 172.379Z" fill="#AE7461"/>
<path d="M392.675 224.817C392.675 224.817 398.907 224.634 405.133 219.91C405.133 219.91 402.606 227.419 392.734 227.401L392.675 224.817Z" fill="#6F4439"/>
<path d="M384.553 199.992C384.592 200.734 385.253 201.314 386.03 201.287C386.805 201.26 387.402 200.638 387.363 199.896C387.324 199.154 386.663 198.574 385.888 198.6C385.111 198.627 384.513 199.25 384.553 199.992Z" fill="#263238"/>
<path d="M383.546 195.507C383.736 195.675 384.728 194.795 386.237 194.665C387.742 194.514 388.918 195.192 389.065 194.993C389.138 194.904 388.932 194.589 388.419 194.281C387.914 193.973 387.074 193.705 386.135 193.792C385.196 193.88 384.436 194.296 384.013 194.69C383.58 195.089 383.453 195.433 383.546 195.507Z" fill="#263238"/>
<path d="M398.114 199.211C398.153 199.953 398.815 200.532 399.591 200.505C400.366 200.479 400.963 199.856 400.924 199.114C400.885 198.372 400.223 197.792 399.449 197.819C398.673 197.845 398.075 198.469 398.114 199.211Z" fill="#263238"/>
<path d="M398.396 194.478C398.586 194.645 399.58 193.766 401.087 193.637C402.592 193.486 403.767 194.164 403.915 193.965C403.988 193.876 403.784 193.561 403.269 193.254C402.764 192.947 401.925 192.678 400.986 192.765C400.047 192.853 399.287 193.269 398.864 193.663C398.432 194.059 398.303 194.404 398.396 194.478Z" fill="#263238"/>
<path d="M393.911 206.147C393.911 206.06 392.959 205.981 391.422 205.921C391.033 205.915 390.662 205.871 390.574 205.614C390.459 205.344 390.583 204.914 390.73 204.45C391.01 203.486 391.302 202.476 391.609 201.417C392.822 197.102 393.663 193.567 393.489 193.52C393.315 193.473 392.191 196.932 390.978 201.247C390.688 202.31 390.411 203.324 390.148 204.293C390.041 204.744 389.834 205.262 390.082 205.822C390.211 206.101 390.512 206.285 390.765 206.329C391.019 206.382 391.236 206.368 391.427 206.362C392.964 206.31 393.913 206.233 393.911 206.147Z" fill="#263238"/>
<path d="M396.575 188.789C396.808 189.154 398.064 188.625 399.651 188.433C401.233 188.205 402.601 188.386 402.711 187.976C402.757 187.781 402.444 187.463 401.843 187.207C401.247 186.951 400.361 186.791 399.411 186.916C398.461 187.043 397.661 187.426 397.169 187.826C396.672 188.228 396.47 188.615 396.575 188.789Z" fill="#263238"/>
<path d="M382.923 189.293C383.271 189.607 384.484 189.142 385.98 188.993C387.471 188.8 388.765 188.979 389.025 188.595C389.138 188.41 388.908 188.084 388.325 187.809C387.751 187.534 386.814 187.351 385.788 187.468C384.762 187.586 383.898 187.975 383.408 188.372C382.91 188.771 382.767 189.139 382.923 189.293Z" fill="#263238"/>
<path d="M381.557 186.306C381.557 186.306 383.602 179.931 386.439 178.234C389.873 176.181 391.766 179.982 395.101 178.724C398.436 177.466 401.714 175.497 405.442 177.831C409.523 180.386 407.91 182.574 408.531 186.908C411.05 204.479 414.716 209.187 414.898 200.789C414.918 199.869 417.382 198.921 417.417 195.038C417.461 190.003 417.118 183.926 415.69 180.482C414.487 177.579 412.602 175.667 409.348 173.662C404.212 170.498 397.586 171.006 393.131 171.856C388.676 172.707 380.467 178.646 381.557 186.306Z" fill="#263238"/>
<path d="M414.249 200.58C414.177 199.06 415.376 197.748 416.898 197.758C418.744 197.77 420.873 198.629 421.086 202.423C421.465 209.152 414.631 208.144 414.609 207.952C414.594 207.821 414.383 203.397 414.249 200.58Z" fill="#AE7461"/>
<path d="M415.931 205.336C415.959 205.313 416.053 205.412 416.256 205.491C416.454 205.569 416.79 205.611 417.133 205.46C417.829 205.159 418.364 203.997 418.329 202.782C418.312 202.169 418.151 201.593 417.906 201.122C417.673 200.641 417.335 200.315 416.974 200.272C416.613 200.209 416.372 200.438 416.3 200.632C416.22 200.825 416.27 200.957 416.236 200.971C416.218 200.989 416.085 200.866 416.124 200.585C416.144 200.45 416.214 200.287 416.365 200.149C416.519 200.009 416.753 199.928 417.003 199.941C417.524 199.948 418.018 200.399 418.286 200.915C418.583 201.432 418.779 202.079 418.798 202.767C418.831 204.126 418.209 205.434 417.252 205.769C416.785 205.919 416.383 205.799 416.17 205.652C415.952 205.498 415.908 205.35 415.931 205.336Z" fill="#6F4439"/>
<path d="M412.968 187.591C412.149 188.263 411.283 188.958 410.242 189.155C409.201 189.352 407.947 188.855 407.678 187.83C407.557 187.37 407.623 186.818 407.284 186.484C406.88 186.086 406.215 186.28 405.659 186.39C403.726 186.769 401.257 184.816 400.592 182.962C400.16 183.751 399.091 184.073 398.294 183.654C397.498 183.235 397.199 182.983 396.55 182.36C395.901 181.737 395.021 181.207 394.145 181.411C393.655 181.525 393.217 181.862 392.714 181.862C391.826 181.862 391.304 180.868 391.094 180.005C390.883 179.142 390.689 178.131 389.901 177.722C389.171 177.342 388.297 177.676 387.496 177.868C386.696 178.059 385.631 177.961 385.354 177.186C385.208 176.78 385.348 176.326 385.547 175.943C386.446 174.206 388.66 173.274 390.531 173.844C390.991 171.569 392.912 169.66 395.191 169.214C397.469 168.768 399.968 169.812 401.252 171.745C402.557 170.333 404.569 169.611 406.474 169.872C408.379 170.133 410.123 171.369 411 173.08C412.594 172.506 414.511 172.973 415.663 174.215C416.815 175.458 417.135 177.404 416.443 178.95C417.71 179.532 418.849 180.64 418.996 182.026C419.144 183.413 417.913 184.916 416.541 184.669C417.178 185.702 416.867 187.209 415.873 187.906C414.878 188.603 413.356 188.381 412.602 187.429" fill="#263238"/>
<path d="M390.207 175.86C390.201 175.861 390.206 175.902 390.219 175.983C390.235 176.063 390.25 176.184 390.293 176.338C390.382 176.642 390.547 177.09 390.895 177.588C391.244 178.078 391.766 178.632 392.523 179.043C393.266 179.46 394.26 179.739 395.341 179.584L395.214 179.446C395.056 180.038 395.174 180.722 395.512 181.287C395.836 181.863 396.309 182.357 396.806 182.836C397.059 183.064 397.286 183.339 397.625 183.54C397.955 183.732 398.338 183.826 398.723 183.841C399.488 183.871 400.322 183.561 400.814 182.876L400.557 182.827C400.846 184.146 401.722 185.413 403 186.121C403.678 186.526 404.493 186.738 405.267 186.648C406.043 186.572 406.745 186.28 407.396 185.979L407.21 185.916C407.644 186.718 408.261 187.381 408.981 187.847C409.688 188.313 410.596 188.543 411.375 188.277C412.929 187.802 413.863 186.392 413.965 185.133L413.819 185.217C414.643 185.576 415.49 185.542 416.155 185.352C416.83 185.166 417.342 184.82 417.699 184.493C418.058 184.159 418.258 183.832 418.376 183.607C418.482 183.375 418.523 183.248 418.515 183.245C418.479 183.22 418.338 183.775 417.623 184.409C417.265 184.713 416.763 185.032 416.112 185.195C415.471 185.364 414.667 185.376 413.905 185.03L413.773 184.97L413.759 185.114C413.648 186.29 412.745 187.608 411.303 188.032C410.596 188.265 409.798 188.059 409.128 187.618C408.455 187.178 407.866 186.539 407.462 185.785L407.398 185.665L407.275 185.721C406.633 186.015 405.956 186.29 405.238 186.358C404.521 186.437 403.791 186.249 403.144 185.866C401.937 185.197 401.115 184.011 400.835 182.763L400.765 182.449L400.578 182.713C400.163 183.299 399.419 183.59 398.731 183.565C398.386 183.554 398.046 183.472 397.758 183.307C397.478 183.149 397.243 182.878 396.986 182.648C396.49 182.179 396.03 181.704 395.723 181.168C395.402 180.64 395.297 180.04 395.429 179.504L395.47 179.339L395.302 179.365C394.285 179.525 393.33 179.276 392.605 178.888C391.867 178.507 391.348 177.982 390.994 177.518C390.297 176.553 390.254 175.84 390.207 175.86Z" fill="#455A64"/>
<path d="M394.04 210.978C394.055 210.725 395.737 210.923 397.103 209.628C398.473 208.336 398.5 206.521 398.736 206.537C398.844 206.526 399.015 206.975 398.944 207.734C398.88 208.479 398.511 209.534 397.676 210.326C396.839 211.115 395.817 211.375 395.121 211.35C394.41 211.33 394.016 211.092 394.04 210.978Z" fill="#263238"/>
<path d="M296.839 410.793L293.738 432.321C293.738 432.321 269.614 436.048 268.633 439.964L312.448 448.146L318.731 414.824L296.839 410.793Z" fill="#263238"/>
<path d="M307.616 433.052C308.424 433.43 308.844 434.442 308.499 435.217C308.154 435.992 307.085 436.384 306.27 436.019C305.456 435.655 304.912 434.453 305.347 433.722C305.782 432.991 307.065 432.596 307.769 433.134" fill="#E0E0E0"/>
<path d="M312.448 448.146L312.942 444.76L270.748 438.182C270.748 438.182 268.65 438.622 268.633 439.964L312.448 448.146Z" fill="#455A64"/>
<path d="M293.067 431.978C293.037 432.182 294.09 432.474 295.023 433.322C295.979 434.148 296.362 435.127 296.573 435.083C296.777 435.08 296.68 433.809 295.531 432.801C294.393 431.783 293.055 431.783 293.067 431.978Z" fill="white"/>
<path d="M288.142 432.919C288.057 433.106 288.921 433.624 289.491 434.617C290.091 435.595 290.105 436.556 290.32 436.586C290.515 436.656 290.88 435.496 290.147 434.274C289.425 433.046 288.182 432.726 288.142 432.919Z" fill="white"/>
<path d="M284.579 437.641C284.766 437.72 285.248 436.764 284.902 435.551C284.565 434.336 283.636 433.71 283.514 433.862C283.363 434.006 283.903 434.723 284.172 435.722C284.465 436.715 284.37 437.581 284.579 437.641Z" fill="white"/>
<path d="M294.348 427.157C294.404 427.359 295.437 427.262 296.632 427.566C297.833 427.847 298.704 428.407 298.847 428.254C298.998 428.13 298.216 427.209 296.804 426.87C295.394 426.521 294.272 426.979 294.348 427.157Z" fill="white"/>
<path d="M391.824 238.211L392.724 234.138L416.656 222.254L418.743 225.511C418.743 225.511 427.699 232.799 431.128 239.124C434.557 245.449 430.49 297.243 429.918 304.802C428.765 320.034 423.073 339.97 423.073 339.97C423.073 339.97 415.394 334.624 392.802 325.348C370.21 316.072 368.999 311.873 368.999 311.873L382.312 294.99L391.824 238.211Z" fill="#FF725E"/>
<path d="M392.185 239.637C392.051 240.388 381.235 266.363 381.235 266.363C381.235 266.363 386.855 269.498 387.639 269.655C388.422 269.812 392.185 239.637 392.185 239.637Z" fill="#FF725E"/>
<path d="M391.095 243.895C391.202 243.912 390.242 250.512 388.952 258.636C387.661 266.762 386.529 273.333 386.422 273.316C386.315 273.299 387.275 266.7 388.565 258.574C389.856 250.451 390.988 243.878 391.095 243.895Z" fill="#263238"/>
<path d="M315.176 295.859C315.176 295.859 321.622 286.348 325.464 284.678C329.305 283.008 334.112 282.104 334.112 282.104L350.321 284.271L350.033 293.95C350.033 293.95 347.483 296.173 344.248 295.493C341.013 294.813 332.998 292.228 332.998 292.228L328.957 292.167L324.915 296.666C324.915 296.666 321.839 297.371 323.098 294.595C324.357 291.819 324.918 290.596 324.918 290.596C324.918 290.596 320.968 295.892 319.583 296.052C318.198 296.213 315.176 295.859 315.176 295.859Z" fill="#AE7461"/>
<path d="M399.881 257.766L388.643 283.881L350.168 284.256L349.879 293.935C349.879 293.935 386.981 307.017 396.861 304.476C406.741 301.935 423.126 266.998 423.126 266.998L399.881 257.766Z" fill="#AE7461"/>
<path d="M408.98 235.731C407.929 236.684 404.453 240.768 400.742 249.645C397.031 258.523 391.824 268.897 391.824 268.897L418.349 279.47C418.349 279.47 424.396 265.558 427.202 259.368C429.339 254.655 430.835 245.385 428.888 240.899C426.941 236.413 418.218 227.355 408.98 235.731Z" fill="#FF725E"/>
<path d="M408.98 235.731C408.98 235.731 409.058 235.647 409.223 235.498C409.392 235.353 409.629 235.12 409.972 234.853C410.651 234.315 411.704 233.551 413.242 232.92C414.774 232.323 416.873 231.922 419.193 232.479C421.506 233 423.915 234.422 425.99 236.543C427.025 237.606 427.999 238.84 428.76 240.284C429.507 241.75 429.827 243.456 429.915 245.195C430.081 248.686 429.585 252.419 428.534 256.194C428.025 258.094 427.153 259.929 426.34 261.791C425.518 263.661 424.679 265.57 423.825 267.514C422.115 271.401 420.343 275.426 418.529 279.55L418.452 279.724L418.276 279.654C418.155 279.606 418.023 279.553 417.892 279.501C408.498 275.749 399.601 272.196 391.758 269.063L391.58 268.992L391.666 268.82C394.144 263.855 396.338 259.229 398.217 255.083C400.112 250.948 401.54 247.209 403.108 244.295C404.629 241.364 406.065 239.176 407.154 237.766C407.696 237.059 408.148 236.544 408.467 236.21C408.788 235.876 408.98 235.731 408.98 235.731C408.983 235.735 408.943 235.779 408.862 235.864C408.772 235.961 408.656 236.087 408.508 236.247C408.204 236.592 407.768 237.117 407.243 237.832C406.187 239.257 404.785 241.455 403.296 244.39C401.762 247.304 400.362 251.046 398.485 255.201C396.626 259.362 394.45 263.997 391.982 268.976L391.89 268.733C399.737 271.855 408.638 275.396 418.038 279.135C418.17 279.188 418.301 279.24 418.422 279.288L418.17 279.392C419.988 275.268 421.762 271.243 423.475 267.356C424.333 265.413 425.175 263.505 426 261.636C426.823 259.76 427.68 257.969 428.189 256.092C429.239 252.361 429.744 248.652 429.593 245.211C429.513 243.494 429.206 241.835 428.493 240.42C427.759 239.01 426.806 237.786 425.793 236.734C423.761 234.632 421.404 233.22 419.144 232.69C416.877 232.125 414.818 232.494 413.297 233.061C411.771 233.662 410.711 234.399 410.02 234.915C409.671 235.17 409.426 235.394 409.249 235.528C409.076 235.667 408.98 235.731 408.98 235.731Z" fill="#263238"/>
<path d="M332.183 286.993C332.193 287.118 330.19 286.941 328.081 288.031C325.952 289.083 324.907 290.801 324.812 290.718C324.774 290.696 324.972 290.239 325.474 289.616C325.972 288.994 326.81 288.237 327.905 287.681C329.002 287.129 330.108 286.904 330.904 286.872C331.703 286.838 332.188 286.949 332.183 286.993Z" fill="#6F4439"/>
<path d="M394.613 270.008C394.622 270.012 394.593 270.104 394.528 270.278C394.449 270.481 394.35 270.732 394.23 271.04C393.941 271.741 393.546 272.701 393.054 273.898C392.004 276.384 390.539 279.849 388.806 283.949L388.762 284.054L388.646 284.055C385.146 284.095 381.168 284.141 376.96 284.189C369.581 284.239 362.902 284.283 358.016 284.316C355.625 284.313 353.675 284.311 352.275 284.31C351.628 284.301 351.109 284.294 350.714 284.288C350.357 284.279 350.169 284.267 350.169 284.254C350.169 284.24 350.356 284.225 350.713 284.209C351.108 284.196 351.627 284.179 352.273 284.157C353.673 284.128 355.622 284.088 358.013 284.039C362.899 283.977 369.577 283.891 376.956 283.797C381.164 283.763 385.143 283.731 388.642 283.703L388.482 283.809C390.268 279.732 391.777 276.286 392.86 273.814C393.391 272.633 393.816 271.687 394.127 270.995C394.268 270.696 394.382 270.452 394.475 270.255C394.557 270.088 394.604 270.004 394.613 270.008Z" fill="#6F4439"/>
<path d="M54.178 304.803H46.772V449.714H54.178V304.803Z" fill="#455A64"/>
<path d="M358.174 305.822H350.768V449.728H358.174V305.822Z" fill="#455A64"/>
<path d="M365.511 303.373H28.2689V312.117H365.511V303.373Z" fill="#455A64"/>
<path d="M362.264 312.118C362.264 312.226 322.91 312.314 274.376 312.314C225.825 312.314 186.48 312.226 186.48 312.118C186.48 312.01 225.825 311.922 274.376 311.922C322.911 311.923 362.264 312.01 362.264 312.118Z" fill="#263238"/>
<path d="M265.193 252.224C266.08 252.057 266.935 252.64 267.103 253.527L276.229 301.889H320.607C321.271 301.889 321.808 302.427 321.808 303.09C321.808 303.753 321.27 304.291 320.607 304.291H273.541V304.098L273.326 304.139L263.89 254.133C263.722 253.246 264.306 252.391 265.193 252.224Z" fill="#263238"/>
<path d="M42.787 139.378C47.01 133.163 53.078 129.26 60.55 128.469C64.766 128.023 66.591 128.744 69.705 129.294C72.819 129.843 75.708 131.23 77.751 133.643C80.178 136.509 82.293 139.772 83.032 143.454C83.791 147.236 83.832 150.999 83.381 154.143C82.832 157.961 80.775 163.907 78.796 167.219L72.386 168.584C67.018 169.247 61.575 169.91 56.22 169.15C50.865 168.389 45.517 166.021 42.298 161.675C37.826 155.636 38.564 145.594 42.787 139.378Z" fill="#263238"/>
<path d="M51.456 138.542L63.992 132.217L67.422 132.309C75.064 131.655 81.084 139.611 81.686 145.794C82.354 152.663 82.9 161.076 82.259 166.241C80.971 176.625 72.351 178.248 72.351 178.248C72.351 178.248 73.796 190.359 74.166 193.774L53.357 187.414L48.331 142.337C48.23 140.453 49.587 138.804 51.456 138.542Z" fill="#FFBF9D"/>
<path d="M66.7639 165.218C66.7869 164.675 67.0429 164.173 67.3949 163.813C68.0979 163.093 69.2049 162.93 70.0699 163.42C70.9349 163.91 71.5039 165.021 71.4459 166.107C71.0449 166.776 70.3829 167.263 69.6139 167.399C69.4949 167.42 69.3739 167.435 69.2519 167.443C68.6629 167.48 68.0479 167.335 67.5609 166.942C67.0749 166.55 66.7359 165.889 66.7639 165.218Z" fill="#FF9A6C"/>
<path d="M79.696 155.069C79.745 155.768 79.193 156.385 78.464 156.449C77.737 156.513 77.106 156 77.058 155.302C77.009 154.603 77.561 153.985 78.288 153.921C79.017 153.857 79.647 154.371 79.696 155.069Z" fill="#263238"/>
<path d="M79.664 149.437C79.506 149.615 78.477 148.907 77.051 148.959C75.627 148.991 74.605 149.76 74.445 149.59C74.366 149.515 74.523 149.198 74.967 148.851C75.404 148.506 76.158 148.159 77.046 148.132C77.934 148.107 78.692 148.408 79.133 148.728C79.583 149.05 79.743 149.357 79.664 149.437Z" fill="#263238"/>
<path d="M71.541 161.373C71.532 161.292 72.412 161.109 73.842 160.877C74.205 160.827 74.547 160.744 74.6 160.493C74.677 160.227 74.511 159.839 74.32 159.422C73.948 158.553 73.558 157.642 73.149 156.687C71.52 152.792 70.327 149.585 70.485 149.521C70.643 149.457 72.091 152.561 73.72 156.456C74.113 157.417 74.489 158.333 74.846 159.209C74.998 159.618 75.251 160.079 75.084 160.631C74.995 160.906 74.735 161.113 74.504 161.184C74.273 161.263 74.069 161.274 73.889 161.291C72.445 161.417 71.549 161.454 71.541 161.373Z" fill="#263238"/>
<path d="M72.3669 178.234C72.3669 178.234 65.4339 178.919 58.4089 175.016C58.4089 175.016 62.3379 182.05 72.6419 180.731L72.3669 178.234Z" fill="#FF9A6C"/>
<path d="M79.67 145.072C79.442 145.428 78.343 145.233 77.071 145.382C75.795 145.491 74.754 145.903 74.463 145.599C74.333 145.45 74.461 145.106 74.891 144.741C75.315 144.378 76.056 144.029 76.932 143.94C77.807 143.852 78.601 144.044 79.086 144.316C79.578 144.588 79.768 144.9 79.67 145.072Z" fill="#263238"/>
<path d="M65.064 156.14C65.089 156.84 65.703 157.396 66.434 157.382C67.164 157.369 67.737 156.793 67.711 156.093C67.685 155.393 67.072 154.837 66.342 154.85C65.611 154.863 65.039 155.44 65.064 156.14Z" fill="#263238"/>
<path d="M60.419 150.6C60.595 150.76 61.544 149.948 62.967 149.849C64.387 149.731 65.483 150.388 65.625 150.202C65.695 150.12 65.506 149.82 65.028 149.522C64.557 149.225 63.77 148.959 62.885 149.026C61.999 149.095 61.277 149.474 60.873 149.839C60.459 150.206 60.333 150.528 60.419 150.6Z" fill="#263238"/>
<path d="M62.2959 145.573C62.5939 145.881 63.6749 145.485 64.9949 145.397C66.3119 145.268 67.4469 145.481 67.6859 145.129C67.7899 144.959 67.5959 144.645 67.0899 144.365C66.5919 144.086 65.7729 143.881 64.8659 143.955C63.9599 144.031 63.1889 144.366 62.7479 144.723C62.2989 145.08 62.1639 145.422 62.2959 145.573Z" fill="#263238"/>
<path d="M51.6369 159.452C51.6089 158.683 50.6579 156.9 49.8939 156.807C47.8549 156.56 44.2039 156.847 44.3459 162C44.5399 169.044 51.5719 167.396 51.5789 167.194C51.5829 167.036 51.7339 162.108 51.6369 159.452Z" fill="#FFBF9D"/>
<path d="M49.564 164.673C49.532 164.651 49.444 164.762 49.239 164.863C49.039 164.961 48.693 165.035 48.322 164.907C47.57 164.654 46.912 163.49 46.843 162.222C46.807 161.581 46.925 160.967 47.138 160.455C47.339 159.934 47.662 159.565 48.035 159.488C48.405 159.392 48.677 159.609 48.768 159.804C48.868 159.999 48.827 160.141 48.864 160.152C48.884 160.169 49.012 160.03 48.948 159.741C48.915 159.602 48.828 159.438 48.658 159.307C48.485 159.174 48.235 159.111 47.975 159.146C47.433 159.199 46.958 159.712 46.723 160.273C46.459 160.838 46.312 161.528 46.352 162.248C46.436 163.666 47.199 164.974 48.225 165.241C48.724 165.356 49.133 165.196 49.342 165.023C49.556 164.843 49.589 164.684 49.564 164.673Z" fill="#FF9A6C"/>
<path d="M49.6099 156.852L51.5549 158.54C62.7669 151.165 74.1679 131.09 71.2229 131.911C71.2229 131.911 65.7649 130.215 60.1359 131.698C54.5079 133.181 43.9229 137.008 44.6899 143.734C45.4569 150.458 49.6099 156.852 49.6099 156.852Z" fill="#263238"/>
<path d="M46.316 128.694C49.045 130.289 51.477 134.94 50.361 137.898C50.865 140.991 49.672 144.308 47.313 146.371C44.954 148.434 41.508 149.175 38.51 148.263C36.439 147.633 34.596 146.242 33.483 144.386C32.162 142.185 31.914 139.457 32.386 136.934C32.966 133.826 34.671 130.861 37.32 129.137C39.969 127.413 43.587 127.098 46.316 128.694Z" fill="#263238"/>
<path d="M45.6979 156.868C45.7139 156.899 46.1729 156.706 46.9809 156.313C47.7899 155.921 48.9449 155.322 50.3419 154.523C53.1259 152.927 56.8989 150.49 60.4439 147.054C63.9929 143.619 66.4579 139.802 67.7529 136.848C68.4109 135.373 68.8269 134.132 69.0579 133.261C69.2909 132.39 69.3729 131.898 69.3419 131.891C69.2409 131.861 68.8019 133.814 67.4109 136.689C66.0449 139.565 63.5729 143.283 60.0719 146.673C56.5739 150.065 52.8719 152.529 50.1499 154.2C48.7849 155.036 47.6609 155.683 46.8839 156.131C46.1059 156.577 45.6799 156.833 45.6979 156.868Z" fill="#455A64"/>
<path d="M39.552 151.581C39.649 151.585 39.69 150.269 40.083 148.201C40.47 146.135 41.307 143.326 42.83 140.501C44.365 137.681 46.261 135.445 47.78 133.992C49.298 132.532 50.377 131.779 50.321 131.701C50.3 131.671 50.016 131.836 49.517 132.164C49.013 132.483 48.326 133.011 47.523 133.716C45.915 135.119 43.927 137.367 42.361 140.247C40.805 143.132 40.008 146.024 39.711 148.138C39.559 149.195 39.492 150.059 39.5 150.656C39.499 151.252 39.515 151.58 39.552 151.581Z" fill="#455A64"/>
<path d="M47.033 167.919C47.033 169.376 48.214 170.557 49.671 170.557C51.128 170.557 52.309 169.376 52.309 167.919C52.309 166.462 51.128 165.281 49.671 165.281C48.214 165.281 47.033 166.462 47.033 167.919Z" fill="#263238"/>
<path d="M71.8719 166.334C71.8429 166.085 70.1959 166.372 68.7789 165.169C67.3579 163.969 67.2339 162.181 67.0019 162.209C66.8949 162.204 66.7509 162.657 66.8619 163.401C66.9649 164.132 67.3849 165.152 68.2519 165.889C69.1209 166.622 70.1419 166.823 70.8269 166.76C71.5259 166.7 71.9019 166.445 71.8719 166.334Z" fill="#263238"/>
<path d="M34.289 256.016C34.289 256.016 26.423 283.769 31.096 298.836C33.899 307.875 73.242 357.668 75.137 359.81C76.456 361.301 58.315 408.339 54.996 418.137L75.854 428.247C75.854 428.247 101.955 372.748 103.55 363.022C105.599 350.531 76.237 297.098 77.316 296.381L87.87 274.368L79.111 251.697C79.111 251.697 42.196 252.097 34.658 252.7L34.289 256.016Z" fill="#263238"/>
<path d="M79.919 272.383C79.919 272.383 130.805 290.437 136.542 293.493C142.797 296.824 147.521 308.511 142.306 318.445C137.091 328.379 91.343 356.821 91.343 356.821L79.919 339.437L113.026 313.36L77.187 304.916L65.515 291.084L79.919 272.383Z" fill="#263238"/>
<path d="M103.552 362.705C103.481 362.698 103.787 361.44 103.527 359.168C103.292 356.897 102.409 353.69 100.951 349.871C100.226 347.958 99.357 345.892 98.441 343.661C97.976 342.552 97.536 341.372 97.077 340.178C96.624 338.989 96.087 337.778 95.554 336.536C93.384 331.575 90.913 326.154 88.315 320.468C84.117 311.344 80.238 302.916 77.126 296.154L77.095 296.087L77.112 296.017C78.436 290.534 79.602 286.049 80.486 282.946C80.932 281.396 81.309 280.192 81.602 279.385C81.76 278.984 81.872 278.676 81.984 278.481C82.098 278.287 82.159 278.193 82.168 278.2C82.176 278.207 82.132 278.314 82.041 278.51C81.951 278.706 81.857 279.023 81.72 279.425C81.466 280.241 81.127 281.452 80.716 283.009C79.902 286.125 78.797 290.624 77.52 296.113L77.506 295.976C80.674 302.692 84.602 311.109 88.788 320.251C91.386 325.94 93.845 331.367 95.994 336.346C96.523 337.596 97.051 338.804 97.505 340.018C97.96 341.223 98.383 342.382 98.841 343.499C99.737 345.733 100.589 347.814 101.295 349.742C102.715 353.593 103.552 356.845 103.728 359.148C103.929 361.454 103.552 362.705 103.552 362.705Z" fill="#455A64"/>
<path opacity="0.3" d="M80.641 282.832C80.541 283.198 80.641 296.201 80.641 296.201L87.17 307.267L81.956 306.039L77.317 296.381L80.641 282.832Z" fill="black"/>
<path d="M109.515 280.845C108.046 279.404 103.739 275.359 100.712 272.525C99.5539 271.441 100.301 269.501 101.887 269.468L136.735 268.756C137.252 268.745 137.748 268.962 138.092 269.348L145.376 277.53C146.377 278.654 145.606 280.435 144.101 280.474L110.796 281.347C110.318 281.359 109.857 281.18 109.515 280.845Z" fill="#455A64"/>
<path d="M99.651 274.582C99.651 274.582 103.701 272.785 107.75 272.382C111.8 271.979 113.825 273.684 115.994 273.482C118.163 273.28 124.093 273.859 124.093 275.45C124.093 277.041 115.849 277.619 115.849 277.619L123.08 279.933C123.08 279.933 131.324 278.921 131.469 279.933C131.614 280.945 124.093 281.958 120.622 282.392C117.151 282.826 97.047 283.115 94.155 282.392C91.262 281.669 70.725 269.231 70.725 269.231L80.56 259.107L99.651 274.582Z" fill="#FFBF9D"/>
<path d="M49.004 184.054C49.004 184.054 39.545 185.499 36.31 195.799C33.62 204.362 38.751 239.553 40.932 245.906C43.113 252.259 66.597 272.708 68.661 270.969C70.725 269.23 82.169 259.106 82.169 259.106L63.796 237.392C63.796 237.392 64.769 211.609 63.553 206.744C62.337 201.88 54.112 183.567 49.004 184.054Z" fill="#FF725E"/>
<path d="M37.519 226.975C38.863 239.196 36.239 244.45 36.239 244.45C34.114 246.058 33.048 248.718 32.819 250.712C32.694 251.799 33.566 252.738 34.659 252.7L79.112 251.697C79.112 251.697 85.333 252.29 85.201 246.392C85.053 239.808 86.867 216.675 84.477 207.581C83.652 204.443 73.501 189.141 73.501 189.141L52.31 177.125L50.068 182.9C50.068 182.9 43.345 185.354 40.274 189.312C37.846 192.441 36.993 194.6 36.02 197.952C34.181 204.285 36.798 220.42 37.519 226.975Z" fill="#FF725E"/>
<path d="M149.286 206.577C149.286 206.577 148.898 206.229 147.55 206.664C146.202 207.099 142.37 208.98 140.632 209.428C138.894 209.876 135.126 211.327 135.126 211.327C135.126 211.327 133.028 211.085 130.364 212.927C127.699 214.769 120.18 219.736 120.18 219.736L122.763 227.049C122.763 227.049 125.668 226.562 126.494 226.807C127.32 227.052 129.779 227.203 131.823 226.589C133.867 225.975 136.634 224.869 136.634 224.869C136.634 224.869 139.329 225.09 140.036 224.112C140.743 223.134 139.983 221.368 139.983 221.368C139.983 221.368 142.628 218.942 141.491 217.578C140.355 216.214 138.941 214.704 138.941 214.704C138.941 214.704 146.786 210.546 148.268 209.444C149.748 208.343 150.04 207.459 149.286 206.577Z" fill="#FFBF9D"/>
<path d="M120.18 219.736L95.782 227.947L85.924 232.928L99.762 240.388L122.763 227.049L120.18 219.736Z" fill="#FFBF9D"/>
<path d="M134.959 213.708C135.081 213.665 135.619 216.568 134.659 219.995C134.621 220.127 134.583 220.258 134.547 220.381L134.344 220.05C135.962 220.341 137.403 220.626 138.44 220.858C139.506 221.071 140.069 221.52 140.016 221.575C139.977 221.629 139.42 221.325 138.375 221.209C137.327 221.069 135.871 220.843 134.253 220.56L133.969 220.511L134.05 220.23C134.084 220.111 134.121 219.984 134.157 219.856C135.088 216.549 134.797 213.711 134.959 213.708Z" fill="#FF9A6C"/>
<path d="M134.842 217.177C134.86 217.134 135.06 217.155 135.345 217.341C135.623 217.523 135.985 217.896 136.14 218.478L135.878 218.296C136.287 218.222 136.759 218.171 137.259 218.161C139.049 218.122 140.419 218.671 140.37 218.799C140.33 218.945 138.964 218.642 137.269 218.682C136.792 218.692 136.34 218.722 135.944 218.761L135.722 218.783L135.682 218.579C135.495 217.632 134.772 217.266 134.842 217.177Z" fill="#FF9A6C"/>
<path d="M138.517 215.306C138.601 215.431 137.944 215.987 137.353 216.833C136.751 217.672 136.445 218.475 136.299 218.438C136.164 218.416 136.262 217.465 136.928 216.532C137.587 215.595 138.451 215.186 138.517 215.306Z" fill="#FF9A6C"/>
<path d="M73.0391 183.775L75.4891 190.357C78.1561 192.886 84.7971 199.992 86.0581 204.883C87.7071 211.279 95.1411 227.357 95.1411 227.357C95.1411 227.357 111.999 220.17 113.162 221.35C114.325 222.53 120.231 236.384 118.288 239.291C116.345 242.198 99.1291 249.819 92.1651 248.107C85.2011 246.394 78.5971 236.313 78.5971 236.313L73.0391 183.775Z" fill="#FF725E"/>
<path d="M84.108 204.947C84.142 204.935 84.336 205.469 84.659 206.448C84.831 206.935 85.016 207.538 85.166 208.256C85.329 208.97 85.546 209.778 85.665 210.694C86 212.511 86.162 214.706 86.245 217.141C86.285 219.577 86.201 222.254 86.026 225.053C85.642 230.65 85.245 235.699 85.29 239.364C85.271 240.281 85.326 241.107 85.345 241.834C85.357 242.562 85.404 243.187 85.448 243.697C85.524 244.719 85.549 245.288 85.514 245.293C85.479 245.298 85.385 244.738 85.246 243.717C85.17 243.207 85.094 242.582 85.054 241.851C85.007 241.122 84.926 240.29 84.922 239.37C84.783 235.685 85.123 230.604 85.506 225.021C85.681 222.228 85.779 219.568 85.765 217.149C85.709 214.733 85.587 212.555 85.301 210.75C84.783 207.128 83.994 204.981 84.108 204.947Z" fill="#263238"/>
<path d="M94.886 236.886C94.742 236.884 94.657 234.695 94.696 231.997C94.735 229.298 94.883 227.113 95.027 227.115C95.171 227.117 95.256 229.306 95.217 232.005C95.178 234.702 95.03 236.888 94.886 236.886Z" fill="#263238"/>
<path d="M63.433 203.803C63.451 203.804 63.464 204.007 63.472 204.394C63.477 204.837 63.483 205.397 63.491 206.085C63.512 207.623 63.54 209.731 63.575 212.304C63.637 217.552 63.911 224.817 63.695 232.831C63.675 234.809 63.851 236.778 64.721 238.401C65.592 240.02 66.899 241.329 68.025 242.646C70.302 245.247 72.358 247.597 74.102 249.589C75.783 251.538 77.16 253.134 78.165 254.3C78.606 254.828 78.965 255.258 79.25 255.598C79.494 255.899 79.615 256.062 79.601 256.074C79.587 256.086 79.44 255.945 79.17 255.667C78.866 255.343 78.483 254.935 78.011 254.433C76.975 253.294 75.556 251.735 73.823 249.831C72.055 247.859 69.969 245.534 67.661 242.961C66.53 241.655 65.207 240.361 64.268 238.64C63.329 236.9 63.152 234.83 63.172 232.828C63.388 224.815 63.172 217.564 63.204 212.307C63.204 209.679 63.235 207.552 63.286 206.083C63.308 205.348 63.339 204.778 63.365 204.392C63.392 204.004 63.415 203.802 63.433 203.803Z" fill="#263238"/>
<path d="M48.168 184.053C48.19 184.112 47.16 184.402 45.483 185.309C43.829 186.221 41.502 187.829 39.482 190.575C38.472 191.935 37.551 193.572 36.912 195.458C36.575 196.394 36.344 197.4 36.175 198.444C36.029 199.488 35.944 200.595 35.871 201.717C35.734 203.967 35.729 206.338 35.883 208.786C36.046 211.229 36.385 213.765 36.644 216.364C37.193 221.561 37.717 226.509 38.193 231.019C38.658 235.524 39.023 239.59 39.955 242.873C40.85 246.163 42.233 248.603 43.408 250.094C43.991 250.847 44.503 251.383 44.86 251.737C45.22 252.087 45.414 252.268 45.401 252.284C45.395 252.291 45.34 252.254 45.236 252.176C45.134 252.096 44.978 251.982 44.788 251.814C44.405 251.483 43.864 250.964 43.249 250.221C42.01 248.75 40.553 246.296 39.6 242.974C38.611 239.659 38.206 235.564 37.716 231.071C37.227 226.562 36.69 221.615 36.126 216.42C35.867 213.819 35.532 211.294 35.373 208.818C35.224 206.347 35.239 203.955 35.391 201.686C35.472 200.549 35.563 199.453 35.722 198.374C35.903 197.302 36.15 196.272 36.504 195.316C37.177 193.389 38.138 191.728 39.187 190.355C41.286 187.585 43.685 185.999 45.388 185.131C46.247 184.697 46.943 184.416 47.427 184.268C47.908 184.11 48.163 184.036 48.168 184.053Z" fill="#263238"/>
<path d="M73.359 190.577C73.338 190.606 72.974 190.387 72.33 189.963C71.604 189.47 70.698 188.854 69.619 188.122L69.907 187.978C69.894 189.362 69.879 190.983 69.863 192.767L69.86 193.147L69.518 192.975C67.796 192.109 65.899 191.155 63.903 190.152C60.074 188.21 56.621 186.426 54.134 185.111C52.97 184.484 51.988 183.955 51.2 183.53C50.513 183.146 50.14 182.919 50.156 182.887C50.172 182.855 50.576 183.021 51.291 183.349C52.099 183.734 53.105 184.213 54.299 184.782C56.829 186.012 60.308 187.745 64.138 189.687C66.127 190.705 68.017 191.672 69.733 192.55L69.387 192.757C69.445 190.975 69.498 189.354 69.543 187.971L69.555 187.617L69.832 187.826C70.873 188.612 71.746 189.272 72.447 189.801C73.055 190.275 73.38 190.549 73.359 190.577Z" fill="#263238"/>
<path d="M81.236 412.878L73.016 430.089C73.016 430.089 88.796 444.553 87.605 447.887L51.665 432.521L63.307 405.158L81.236 412.878Z" fill="#263238"/>
<path d="M62.5381 423.865C61.7651 423.747 60.9651 424.281 60.8401 425.014C60.7151 425.747 61.3031 426.554 62.0751 426.684C62.8461 426.815 63.8281 426.203 63.8671 425.458C63.9061 424.713 63.1621 423.8 62.3871 423.85" fill="#E0E0E0"/>
<path d="M51.665 432.521L52.953 429.811L86.93 445.557C86.93 445.557 88.246 446.899 87.605 447.887L51.665 432.521Z" fill="#455A64"/>
<path d="M73.673 430.165C73.596 430.328 72.685 430.028 71.592 430.192C70.493 430.329 69.737 430.857 69.604 430.722C69.456 430.621 70.146 429.741 71.475 429.565C72.801 429.377 73.777 430.029 73.673 430.165Z" fill="white"/>
<path d="M76.806 433.25C76.776 433.428 75.895 433.385 74.996 433.832C74.083 434.253 73.604 434.947 73.433 434.865C73.257 434.821 73.555 433.798 74.684 433.263C75.808 432.718 76.871 433.09 76.806 433.25Z" fill="white"/>
<path d="M77.1061 438.429C76.9311 438.396 77.0451 437.463 77.8881 436.748C78.7261 436.026 79.7081 436.021 79.7221 436.192C79.7621 436.371 79.0191 436.63 78.3371 437.228C77.6391 437.809 77.2871 438.487 77.1061 438.429Z" fill="white"/>
</svg>
