<svg width="500" height="373" viewBox="0 0 500 373" fill="none" xmlns="http://www.w3.org/2000/svg">
<path d="M449.901 343.543H416.779V343.793H449.901V343.543Z" fill="#EBEBEB"/>
<path d="M331.22 346.256H322.527V346.506H331.22V346.256Z" fill="#EBEBEB"/>
<path d="M415.778 334.256H396.586V334.506H415.778V334.256Z" fill="#EBEBEB"/>
<path d="M95.652 335.936H52.459V336.186H95.652V335.936Z" fill="#EBEBEB"/>
<path d="M110.889 335.936H104.556V336.186H110.889V335.936Z" fill="#EBEBEB"/>
<path d="M225.147 340.158H131.471V340.408H225.147V340.158Z" fill="#EBEBEB"/>
<path d="M237.014 282.848H43.915C40.768 282.848 38.207 280.287 38.207 277.14V5.708C38.207 2.561 40.768 0 43.915 0H237.014C240.16 0 242.721 2.561 242.721 5.708V277.14C242.721 280.287 240.16 282.848 237.014 282.848ZM43.915 0.250999C40.905 0.250999 38.457 2.699 38.457 5.709V277.141C38.457 280.151 40.905 282.599 43.915 282.599H237.014C240.023 282.599 242.471 280.151 242.471 277.141V5.708C242.471 2.699 240.023 0.25 237.014 0.25L43.915 0.250999Z" fill="#EBEBEB"/>
<path d="M453.31 282.848H260.212C257.065 282.848 254.505 280.287 254.505 277.14V5.708C254.505 2.561 257.066 0 260.212 0H453.31C456.458 0 459.018 2.561 459.018 5.708V277.14C459.019 280.287 456.458 282.848 453.31 282.848ZM260.212 0.250999C257.203 0.250999 254.755 2.699 254.755 5.709V277.141C254.755 280.151 257.203 282.599 260.212 282.599H453.31C456.32 282.599 458.768 280.151 458.768 277.141V5.708C458.768 2.699 456.32 0.25 453.31 0.25L260.212 0.250999Z" fill="#EBEBEB"/>
<path d="M500 327.445H0V327.695H500V327.445Z" fill="#EBEBEB"/>
<path d="M455.66 16.4219H384.406V258.133H455.66V16.4219Z" fill="#FAFAFA"/>
<path d="M457.476 101.98H368.394V256.017H457.476V101.98Z" fill="#E0E0E0"/>
<path d="M385.501 80.4551V119.088H392.526H433.344H440.368V80.4551H385.501Z" fill="#E0E0E0"/>
<path d="M385.501 107.684H374.096V119.089H385.501V107.684Z" fill="#FAFAFA"/>
<path d="M407.592 107.684H396.187V119.089H407.592V107.684Z" fill="#FAFAFA"/>
<path d="M429.683 107.684H418.278V119.089H429.683V107.684Z" fill="#FAFAFA"/>
<path d="M451.773 107.684H440.368V119.089H451.773V107.684Z" fill="#F0F0F0"/>
<path d="M385.501 128.406H374.096V139.811H385.501V128.406Z" fill="#F0F0F0"/>
<path d="M407.592 128.406H396.187V139.811H407.592V128.406Z" fill="#F0F0F0"/>
<path d="M429.683 128.406H418.278V139.811H429.683V128.406Z" fill="#FAFAFA"/>
<path d="M451.773 128.406H440.368V139.811H451.773V128.406Z" fill="#FAFAFA"/>
<path d="M385.501 149.129H374.096V160.534H385.501V149.129Z" fill="#F0F0F0"/>
<path d="M407.592 149.129H396.187V160.534H407.592V149.129Z" fill="#FAFAFA"/>
<path d="M429.683 149.129H418.278V160.534H429.683V149.129Z" fill="#FAFAFA"/>
<path d="M407.592 89.7715H396.187V101.176H407.592V89.7715Z" fill="#FAFAFA"/>
<path d="M429.683 89.7715H418.278V101.176H429.683V89.7715Z" fill="#F0F0F0"/>
<path d="M451.773 149.129H440.368V160.534H451.773V149.129Z" fill="#F0F0F0"/>
<path d="M385.501 169.852H374.096V181.257H385.501V169.852Z" fill="#FAFAFA"/>
<path d="M407.592 169.852H396.187V181.257H407.592V169.852Z" fill="#F0F0F0"/>
<path d="M429.683 169.852H418.278V181.257H429.683V169.852Z" fill="#F0F0F0"/>
<path d="M451.773 169.852H440.368V181.257H451.773V169.852Z" fill="#FAFAFA"/>
<path d="M385.501 190.572H374.096V201.977H385.501V190.572Z" fill="#F0F0F0"/>
<path d="M407.592 190.572H396.187V201.977H407.592V190.572Z" fill="#FAFAFA"/>
<path d="M429.683 190.572H418.278V201.977H429.683V190.572Z" fill="#FAFAFA"/>
<path d="M451.773 190.572H440.368V201.977H451.773V190.572Z" fill="#F0F0F0"/>
<path d="M385.501 211.297H374.096V222.702H385.501V211.297Z" fill="#F0F0F0"/>
<path d="M407.592 211.297H396.187V222.702H407.592V211.297Z" fill="#FAFAFA"/>
<path d="M429.683 211.297H418.278V222.702H429.683V211.297Z" fill="#F0F0F0"/>
<path d="M451.773 211.297H440.368V222.702H451.773V211.297Z" fill="#FAFAFA"/>
<path d="M385.501 232.018H374.096V243.423H385.501V232.018Z" fill="#FAFAFA"/>
<path d="M407.592 232.018H396.187V243.423H407.592V232.018Z" fill="#FAFAFA"/>
<path d="M429.683 232.018H418.278V243.423H429.683V232.018Z" fill="#F0F0F0"/>
<path d="M451.773 232.018H440.368V243.423H451.773V232.018Z" fill="#F0F0F0"/>
<path opacity="0.1" d="M455.519 16.4219H384.265V258.133H455.519V16.4219Z" fill="white"/>
<g opacity="0.3">
<path d="M448.548 16.4219H425.831L400.978 258.133H423.695L448.548 16.4219Z" fill="white"/>
</g>
<path d="M456.257 13.3555H383.81V19.4855H456.257V13.3555Z" fill="#E0E0E0"/>
<path d="M456.257 256.018H383.81V262.148H456.257V256.018Z" fill="#EBEBEB"/>
<path d="M459.073 267.373H380.531V7.36914H459.073V267.373ZM386.519 261.386H453.086V13.3561H386.519V261.386Z" fill="#EBEBEB"/>
<path d="M377.945 16.4219H306.691V258.133H377.945V16.4219Z" fill="#FAFAFA"/>
<path d="M372.551 182.086H311.622V256.853H372.551V182.086Z" fill="#E6E6E6"/>
<path d="M367.247 190.379H353.074H349.173H345.273V198.18H349.173H353.074H367.247V190.379Z" fill="#E6E6E6"/>
<path d="M367.247 205.488H353.074H349.173H345.273V213.288H349.173H353.074H367.247V205.488Z" fill="#FAFAFA"/>
<path d="M367.247 220.598H353.074H349.173H345.273V228.398H349.173H353.074H367.247V220.598Z" fill="#E6E6E6"/>
<path d="M367.247 235.705H353.074H347.046H345.273V243.506H347.046H353.074H367.247V235.705Z" fill="#FAFAFA"/>
<path d="M338.9 190.379H324.727H320.827H316.926V198.18H320.827H324.727H338.9V190.379Z" fill="#FAFAFA"/>
<path d="M338.9 205.488H324.727H319.227H316.926V213.288H319.227H324.727H338.9V205.488Z" fill="#FAFAFA"/>
<path d="M338.9 220.598H324.727H320.827H316.926V228.398H320.827H324.727H338.9V220.598Z" fill="#E6E6E6"/>
<path d="M338.9 235.705H324.727H320.827H316.926V243.506H320.827H324.727H338.9V235.705Z" fill="#FAFAFA"/>
<path opacity="0.1" d="M377.714 16.4219H306.46V258.133H377.714V16.4219Z" fill="white"/>
<g opacity="0.3">
<path d="M370.832 16.4219H348.115L323.263 258.133H345.98L370.832 16.4219Z" fill="white"/>
</g>
<path d="M378.541 13.3555H306.094V19.4855H378.541V13.3555Z" fill="#E0E0E0"/>
<path d="M378.541 256.018H306.094V262.148H378.541V256.018Z" fill="#EBEBEB"/>
<path d="M381.357 267.373H302.815V7.36914H381.357V267.373ZM308.803 261.386H375.37V13.3561H308.803V261.386Z" fill="#EBEBEB"/>
<path d="M191.259 16.4219H120.005V258.133H191.259V16.4219Z" fill="#FAFAFA"/>
<path opacity="0.1" d="M191.118 16.4219H119.864V258.133H191.118V16.4219Z" fill="white"/>
<g opacity="0.3">
<path d="M184.146 16.4219H161.429L136.577 258.133H159.294L184.146 16.4219Z" fill="white"/>
</g>
<path d="M191.855 13.3555H119.408V19.4855H191.855V13.3555Z" fill="#E0E0E0"/>
<path d="M191.855 256.018H119.408V262.148H191.855V256.018Z" fill="#EBEBEB"/>
<path d="M194.671 267.373H116.13V7.36914H194.672L194.671 267.373ZM122.117 261.386H188.684V13.3561H122.117V261.386Z" fill="#EBEBEB"/>
<path d="M113.648 16.4219H42.394V258.133H113.648V16.4219Z" fill="#FAFAFA"/>
<path d="M102.901 118.777H47.7542V165.055H102.901V118.777Z" fill="#E6E6E6"/>
<path d="M58.3452 124.545H51.2842V131.606H58.3452V124.545Z" fill="#FAFAFA"/>
<path d="M72.0202 124.545H64.9602V131.606H72.0202V124.545Z" fill="#FAFAFA"/>
<path d="M85.6951 124.545H78.6351V131.606H85.6951V124.545Z" fill="#FAFAFA"/>
<path d="M99.3722 124.545H92.3112V131.606H99.3722V124.545Z" fill="#FAFAFA"/>
<path d="M58.3452 137.373H51.2842V144.434H58.3452V137.373Z" fill="#FAFAFA"/>
<path d="M72.0202 137.373H64.9602V144.434H72.0202V137.373Z" fill="#FAFAFA"/>
<path d="M85.6951 137.373H78.6351V144.434H85.6951V137.373Z" fill="#FAFAFA"/>
<path d="M99.3722 137.373H92.3112V144.434H99.3722V137.373Z" fill="#E6E6E6"/>
<path d="M58.3452 150.203H51.2842V157.263H58.3452V150.203Z" fill="#E6E6E6"/>
<path d="M72.0202 150.203H64.9602V157.263H72.0202V150.203Z" fill="#E6E6E6"/>
<path d="M85.6951 150.203H78.6351V157.263H85.6951V150.203Z" fill="#FAFAFA"/>
<path d="M99.3722 150.203H92.3112V157.263H99.3722V150.203Z" fill="#E6E6E6"/>
<path d="M102.901 164.475H47.7542V210.753H102.901V164.475Z" fill="#E6E6E6"/>
<path d="M58.3452 170.242H51.2842V177.303H58.3452V170.242Z" fill="#FAFAFA"/>
<path d="M72.0202 170.242H64.9602V177.303H72.0202V170.242Z" fill="#FAFAFA"/>
<path d="M85.6951 170.242H78.6351V177.303H85.6951V170.242Z" fill="#FAFAFA"/>
<path d="M99.3722 170.242H92.3112V177.303H99.3722V170.242Z" fill="#FAFAFA"/>
<path d="M58.3452 183.07H51.2842V190.131H58.3452V183.07Z" fill="#FAFAFA"/>
<path d="M72.0202 183.07H64.9602V190.131H72.0202V183.07Z" fill="#FAFAFA"/>
<path d="M85.6951 183.07H78.6351V190.131H85.6951V183.07Z" fill="#FAFAFA"/>
<path d="M99.3722 183.07H92.3112V190.131H99.3722V183.07Z" fill="#E6E6E6"/>
<path d="M58.3452 195.898H51.2842V202.959H58.3452V195.898Z" fill="#E6E6E6"/>
<path d="M72.0202 195.898H64.9602V202.959H72.0202V195.898Z" fill="#E6E6E6"/>
<path d="M85.6951 195.898H78.6351V202.959H85.6951V195.898Z" fill="#FAFAFA"/>
<path d="M99.3722 195.898H92.3112V202.959H99.3722V195.898Z" fill="#E6E6E6"/>
<path d="M102.901 210.172H47.7542V256.45H102.901V210.172Z" fill="#E6E6E6"/>
<path d="M58.3452 215.939H51.2842V223H58.3452V215.939Z" fill="#FAFAFA"/>
<path d="M72.0202 215.939H64.9602V223H72.0202V215.939Z" fill="#FAFAFA"/>
<path d="M85.6951 215.939H78.6351V223H85.6951V215.939Z" fill="#FAFAFA"/>
<path d="M99.3722 215.939H92.3112V223H99.3722V215.939Z" fill="#FAFAFA"/>
<path d="M58.3452 228.768H51.2842V235.829H58.3452V228.768Z" fill="#FAFAFA"/>
<path d="M72.0202 228.768H64.9602V235.829H72.0202V228.768Z" fill="#FAFAFA"/>
<path d="M85.6951 228.768H78.6351V235.829H85.6951V228.768Z" fill="#FAFAFA"/>
<path d="M99.3722 228.768H92.3112V235.829H99.3722V228.768Z" fill="#E6E6E6"/>
<path d="M58.3452 241.596H51.2842V248.657H58.3452V241.596Z" fill="#E6E6E6"/>
<path d="M72.0202 241.596H64.9602V248.657H72.0202V241.596Z" fill="#E6E6E6"/>
<path d="M85.6951 241.596H78.6351V248.657H85.6951V241.596Z" fill="#FAFAFA"/>
<path d="M99.3722 241.596H92.3112V248.657H99.3722V241.596Z" fill="#E6E6E6"/>
<path opacity="0.1" d="M112.701 16.4219H41.447V258.133H112.701V16.4219Z" fill="white"/>
<g opacity="0.3">
<path d="M106.535 16.4219H83.8181L58.9661 258.133H81.6831L106.535 16.4219Z" fill="white"/>
</g>
<path d="M114.244 13.3555H41.7971V19.4855H114.244V13.3555Z" fill="#E0E0E0"/>
<path d="M114.244 256.018H41.7971V262.148H114.244V256.018Z" fill="#EBEBEB"/>
<path d="M117.06 267.373H38.519V7.36914H117.061L117.06 267.373ZM44.506 261.386H111.073V13.3561H44.506V261.386Z" fill="#EBEBEB"/>
<path d="M243.522 299.66L242.721 299.759C242.671 299.352 237.81 258.671 247.838 225.427C257.805 192.386 250.942 171.332 250.871 171.124L251.636 170.865C251.707 171.077 258.651 192.375 248.61 225.661C238.632 258.738 243.472 299.254 243.522 299.66Z" fill="#E0E0E0"/>
<path d="M252.299 175.654C250.569 173.584 248.17 172.105 245.543 171.489L245.727 170.703C248.523 171.358 251.077 172.933 252.919 175.137L252.299 175.654Z" fill="#E0E0E0"/>
<path d="M255.714 179.037L253.404 180.342L253.801 181.044L256.111 179.739L255.714 179.037Z" fill="#E0E0E0"/>
<path d="M251.432 197.776C249.447 193.222 245.662 189.551 241.051 187.704L241.351 186.955C246.158 188.881 250.102 192.707 252.173 197.454L251.432 197.776Z" fill="#E0E0E0"/>
<path d="M249.266 223.191L248.459 223.201C248.419 219.918 246.858 216.743 244.282 214.707L244.783 214.074C247.548 216.259 249.224 219.667 249.266 223.191Z" fill="#E0E0E0"/>
<path d="M247.466 229.688L246.714 229.392C247.523 227.337 249.24 225.643 251.305 224.861L251.591 225.616C249.736 226.319 248.193 227.841 247.466 229.688Z" fill="#E0E0E0"/>
<path d="M242.235 270.921L241.614 270.406C242.596 269.221 243.339 264.712 243.738 262.289C243.833 261.71 243.915 261.216 243.982 260.859L244.775 261.009C244.708 261.361 244.628 261.848 244.534 262.419C243.938 266.037 243.269 269.673 242.235 270.921Z" fill="#E0E0E0"/>
<path d="M241.768 283.869C240.726 280.68 237.413 278.393 234.062 278.549L234.024 277.743C237.725 277.57 241.384 280.096 242.535 283.618L241.768 283.869Z" fill="#E0E0E0"/>
<path d="M247.915 292.294L242.226 298.66L242.828 299.198L248.517 292.832L247.915 292.294Z" fill="#E0E0E0"/>
<path d="M251.959 250.797C253.248 254.97 244.256 262.914 244.256 262.914C244.256 262.914 232.35 261.425 231.061 257.253C229.772 253.08 232.787 246.252 238.558 244.47C244.329 242.686 250.67 246.624 251.959 250.797Z" fill="#F0F0F0"/>
<path d="M261.938 200.156C260.797 204.588 252.281 207.735 252.281 207.735C252.281 207.735 246.344 200.866 247.485 196.435C248.626 192.003 253.333 187.12 257.324 188.148C261.315 189.175 263.078 195.724 261.938 200.156Z" fill="#EBEBEB"/>
<path d="M227.766 266.38C233.113 268.462 236.391 277.919 236.391 277.919C236.391 277.919 227.581 282.67 222.234 280.588C216.887 278.506 211.227 272.639 212.755 268.716C214.282 264.793 222.419 264.298 227.766 266.38Z" fill="#F5F5F5"/>
<path d="M239.49 214.349C240.62 215.188 241.786 216.044 243.144 216.413C244.502 216.782 246.118 216.556 247.041 215.494C248.185 214.177 247.878 212.136 247.158 210.547C245.73 207.399 240.46 202.056 236.413 203.589C230.57 205.801 236.884 212.416 239.49 214.349Z" fill="#E6E6E6"/>
<path d="M251.448 222.373C250.681 223.323 249.868 224.52 250.287 225.667C250.659 226.684 251.908 227.15 252.979 226.988C254.05 226.826 254.981 226.191 255.87 225.574C257.933 224.142 262.161 221.137 259.462 218.326C256.657 215.405 253.064 220.371 251.448 222.373Z" fill="#EBEBEB"/>
<path d="M234.192 182.374C233.309 182.471 232.415 183.062 232.265 183.937C232.089 184.96 232.938 185.855 233.76 186.489C235.808 188.067 241.964 192.327 243.338 188.218C244.636 184.335 236.913 182.073 234.192 182.374Z" fill="#E0E0E0"/>
<path d="M245.539 168.855C244.269 168.976 243.002 168.515 241.729 168.596C240.456 168.677 239.043 169.701 239.326 170.945C239.587 172.095 241.017 172.48 242.193 172.554C244.201 172.68 246.225 172.54 248.196 172.139C248.654 172.046 249.152 171.91 249.414 171.524C249.929 170.766 249.11 169.75 248.234 169.481C247.358 169.212 246.369 169.302 245.574 168.847L245.539 168.855Z" fill="#E6E6E6"/>
<path d="M257.951 177.594C259.226 177.631 260.46 177.087 261.736 177.084C263.012 177.08 264.489 178.009 264.289 179.269C264.104 180.433 262.703 180.912 261.534 181.063C259.539 181.321 257.51 181.316 255.516 181.045C255.053 180.982 254.547 180.88 254.26 180.512C253.697 179.789 254.447 178.722 255.303 178.396C256.159 178.07 257.152 178.094 257.916 177.588L257.951 177.594Z" fill="#F0F0F0"/>
<path d="M256.695 271.556C257.01 271.29 257.367 271.017 257.779 271.02C258.326 271.024 258.761 271.54 258.862 272.077C258.964 272.614 258.813 273.164 258.657 273.687C257.794 276.579 248.088 297.525 245.855 293.764C244.535 291.54 247.779 284.175 248.736 282.091C250.586 278.061 253.303 274.421 256.695 271.556Z" fill="#F0F0F0"/>
<path d="M250.89 169.652C251.66 167.923 252.494 166.114 254.024 165.001C255.555 163.888 258.007 163.804 259.122 165.334C260.368 167.044 259.122 169.643 257.212 170.555C255.302 171.467 253.065 171.192 250.969 170.898C250.952 170.587 250.935 170.276 250.918 169.964L250.89 169.652Z" fill="#E6E6E6"/>
<path d="M257.672 327.603C247.349 329.363 236.593 329.363 226.271 327.603L214.056 291.561H269.886L257.672 327.603Z" fill="#F0F0F0"/>
<path d="M250.586 58.0305C262.037 58.0305 271.32 48.7476 271.32 37.2965C271.32 25.8454 262.037 16.5625 250.586 16.5625C239.135 16.5625 229.852 25.8454 229.852 37.2965C229.852 48.7476 239.135 58.0305 250.586 58.0305Z" fill="#E0E0E0"/>
<path d="M269.666 39.7509C271.5 28.4475 263.824 17.7972 252.521 15.9627C241.217 14.1283 230.567 21.8043 228.733 33.1077C226.898 44.411 234.574 55.0613 245.878 56.8958C257.181 58.7303 267.831 51.0542 269.666 39.7509Z" fill="#EBEBEB"/>
<path opacity="0.8" d="M265.833 36.5677C265.833 45.7577 258.383 53.2067 249.193 53.2067C240.003 53.2067 232.554 45.7567 232.554 36.5677C232.554 27.3777 240.004 19.9277 249.193 19.9277C258.383 19.9287 265.833 27.3777 265.833 36.5677Z" fill="white"/>
<path d="M248.294 38.1381C247.635 37.4791 247.635 36.4111 248.294 35.7521C248.953 35.0931 250.021 35.0931 250.68 35.7521C251.339 36.4111 251.339 37.4791 250.68 38.1381C250.021 38.7971 248.953 38.7971 248.294 38.1381Z" fill="#E0E0E0"/>
<path d="M249.185 36.3683L259.012 36.0703L259.043 37.0843L250.14 37.3543L249.182 52.8383L248.17 52.7753L249.185 36.3683Z" fill="#E0E0E0"/>
<path d="M250 372.064C357.082 372.064 443.889 366.994 443.889 360.741C443.889 354.487 357.082 349.418 250 349.418C142.918 349.418 56.111 354.487 56.111 360.741C56.111 366.994 142.918 372.064 250 372.064Z" fill="#F5F5F5"/>
<path d="M430.351 307.954L435.429 227.097C437.315 197.064 413.466 171.67 383.374 171.67C355.709 171.67 332.857 193.27 331.299 220.891L325.974 315.33H422.496C426.651 315.331 430.091 312.101 430.351 307.954Z" fill="#407BFF"/>
<path opacity="0.1" d="M430.535 305.027L435.429 227.099C437.315 197.066 413.466 171.672 383.374 171.672C355.709 171.672 332.857 193.272 331.299 220.893L325.974 315.332H419.562C425.366 315.332 430.171 310.82 430.535 305.027Z" fill="black"/>
<path d="M414.685 315.331L420.226 227.097C422.112 197.064 398.263 171.67 368.171 171.67C340.506 171.67 317.654 193.27 316.096 220.891L310.771 315.33H414.685V315.331Z" fill="#407BFF"/>
<path d="M416.347 330.52H417.68C418.359 330.52 418.992 329.945 419.103 329.165L421.07 315.334H412.957L414.924 329.165C415.035 329.946 415.667 330.52 416.347 330.52Z" fill="#407BFF"/>
<path opacity="0.7" d="M416.347 330.52H417.68C418.359 330.52 418.992 329.945 419.103 329.165L421.07 315.334H412.957L414.924 329.165C415.035 329.946 415.667 330.52 416.347 330.52Z" fill="white"/>
<path d="M285.696 330.52H286.905C287.521 330.52 288.094 329.945 288.195 329.165L289.978 315.334H282.623L284.406 329.165C284.507 329.946 285.08 330.52 285.696 330.52Z" fill="#407BFF"/>
<path opacity="0.5" d="M285.696 330.52H286.905C287.521 330.52 288.094 329.945 288.195 329.165L289.978 315.334H282.623L284.406 329.165C284.507 329.946 285.08 330.52 285.696 330.52Z" fill="white"/>
<path d="M323.312 330.52H324.521C325.137 330.52 325.71 329.945 325.811 329.165L327.594 315.334H320.239L322.022 329.165C322.123 329.946 322.696 330.52 323.312 330.52Z" fill="#407BFF"/>
<path opacity="0.7" d="M323.312 330.52H324.521C325.137 330.52 325.71 329.945 325.811 329.165L327.594 315.334H320.239L322.022 329.165C322.123 329.946 322.696 330.52 323.312 330.52Z" fill="white"/>
<path d="M375.849 330.52H377.183C377.862 330.52 378.495 329.945 378.606 329.165L380.573 315.334H372.46L374.427 329.165C374.537 329.946 375.169 330.52 375.849 330.52Z" fill="#407BFF"/>
<path opacity="0.5" d="M375.849 330.52H377.183C377.862 330.52 378.495 329.945 378.606 329.165L380.573 315.334H372.46L374.427 329.165C374.537 329.946 375.169 330.52 375.849 330.52Z" fill="white"/>
<path d="M331.819 282.008H296.261L293.905 247.725L293.403 240.366V240.355L293.171 236.968C293.103 236.063 292.987 235.179 292.823 234.316C292.784 234.124 292.736 233.922 292.698 233.73C292.679 233.581 292.64 233.442 292.592 233.304C291.578 229.704 289.686 226.531 287.176 224.102C284.174 221.194 280.321 219.352 276.073 219.096H309.517C309.884 219.075 310.251 219.064 310.618 219.064C315.262 219.064 319.5 220.97 322.734 224.102C325.244 226.53 327.137 229.704 328.15 233.304C328.198 233.442 328.237 233.581 328.256 233.73C328.488 234.774 328.652 235.849 328.729 236.968L328.961 240.355V240.366L331.819 282.008Z" fill="#407BFF"/>
<path opacity="0.1" d="M331.819 282.008H296.261L293.905 247.725L293.403 240.366V240.355L293.171 236.968C293.103 236.063 292.987 235.179 292.823 234.316C292.784 234.124 292.736 233.922 292.698 233.73C292.679 233.581 292.64 233.442 292.592 233.304C291.578 229.704 289.686 226.531 287.176 224.102C284.174 221.194 280.321 219.352 276.073 219.096H309.517C309.884 219.075 310.251 219.064 310.618 219.064C315.262 219.064 319.5 220.97 322.734 224.102C325.244 226.53 327.137 229.704 328.15 233.304C328.198 233.442 328.237 233.581 328.256 233.73C328.488 234.774 328.652 235.849 328.729 236.968L328.961 240.355V240.366L331.819 282.008Z" fill="black"/>
<g opacity="0.1">
<path d="M360 263.746H374.285C377.757 263.746 380.572 265.944 380.572 268.655V277.103C380.572 279.814 377.757 282.012 374.285 282.012H360V263.746Z" fill="black"/>
</g>
<path d="M301.689 282.012H364.578C367.574 282.012 370.003 279.583 370.003 276.587V269.171C370.003 266.175 367.574 263.746 364.578 263.746H301.689C298.693 263.746 296.264 266.175 296.264 269.171V276.587C296.264 279.583 298.693 282.012 301.689 282.012Z" fill="#407BFF"/>
<path d="M450.028 239.322C450.028 249.333 442.764 257.662 433.222 259.291L429.537 308.016C429.218 312.159 426.214 315.333 422.615 315.333H383.39C386.99 315.333 389.993 312.159 390.313 308.016L392.283 282.008L393.998 259.291C400.346 258.205 405.682 254.168 408.536 248.63C408.728 248.279 408.898 247.906 409.058 247.533C410.187 245.02 410.805 242.25 410.805 239.322C410.805 237.905 410.656 236.521 410.379 235.19C410.272 234.647 410.134 234.104 409.985 233.582C409.261 231.164 408.11 228.939 406.619 226.99L406.608 226.979C404.744 224.551 402.348 222.58 399.6 221.207C396.873 219.833 393.795 219.066 390.547 219.066H429.772C431.849 219.066 433.862 219.386 435.757 219.971C436.822 220.301 437.845 220.716 438.824 221.206C441.572 222.58 443.968 224.55 445.832 226.978L445.843 226.989C448.462 230.408 450.028 234.678 450.028 239.322Z" fill="#407BFF"/>
<path opacity="0.1" d="M450.028 239.322C450.028 249.333 442.764 257.662 433.222 259.291L429.537 308.016C429.218 312.159 426.214 315.333 422.615 315.333H383.39C386.99 315.333 389.993 312.159 390.313 308.016L392.283 282.008L393.998 259.291C400.346 258.205 405.682 254.168 408.536 248.63C408.728 248.279 408.898 247.906 409.058 247.533C410.187 245.02 410.805 242.25 410.805 239.322C410.805 237.905 410.656 236.521 410.379 235.19C410.272 234.647 410.134 234.104 409.985 233.582C409.261 231.164 408.11 228.939 406.619 226.99L406.608 226.979C404.744 224.551 402.348 222.58 399.6 221.207C396.873 219.833 393.795 219.066 390.547 219.066H429.772C431.849 219.066 433.862 219.386 435.757 219.971C436.822 220.301 437.845 220.716 438.824 221.206C441.572 222.58 443.968 224.55 445.832 226.978L445.843 226.989C448.462 230.408 450.028 234.678 450.028 239.322Z" fill="black"/>
<path d="M410.806 239.325C410.806 249.332 404.221 257.664 395.568 259.29L392.228 308.014C391.94 312.161 389.219 315.336 385.948 315.336H281.212C277.95 315.336 275.229 312.161 274.932 308.014L271.583 259.213C263.105 257.433 256.694 249.206 256.694 239.325C256.694 234.957 257.95 230.916 260.078 227.615C261.814 224.911 264.151 222.698 266.855 221.207C269.323 219.831 272.114 219.061 275.063 219.061C279.703 219.061 283.942 220.976 287.178 224.103C289.69 226.528 291.583 229.703 292.594 233.301C292.638 233.445 292.681 233.58 292.699 233.734C292.935 234.773 293.091 235.851 293.17 236.967L293.406 240.354V240.364L296.258 282.007H370.903L373.99 236.968C374.435 230.608 377.531 225.307 381.831 222.795C384.544 220.659 387.815 219.331 391.338 219.11C391.704 219.072 392.071 219.062 392.437 219.062C395.298 219.062 398.01 219.784 400.418 221.092C400.497 221.121 400.566 221.169 400.645 221.208C403.14 222.584 405.312 224.556 407.004 226.981L407.013 226.991C409.385 230.406 410.806 234.678 410.806 239.325Z" fill="#407BFF"/>
<path opacity="0.1" d="M369.175 315.336H281.212C277.95 315.336 275.229 312.161 274.932 308.014L271.583 259.213C263.105 257.433 256.694 249.206 256.694 239.325C256.694 234.957 257.95 230.916 260.078 227.615C261.814 224.911 264.151 222.698 266.855 221.207C269.323 219.831 272.114 219.061 275.063 219.061C279.703 219.061 283.942 220.976 287.178 224.103C289.69 226.528 291.583 229.703 292.594 233.301C292.638 233.445 292.681 233.58 292.699 233.734C292.935 234.773 293.091 235.851 293.17 236.967L293.406 240.354V240.364L296.258 282.007H370.903L369.175 315.336Z" fill="white"/>
<path d="M357.761 176.77C356.023 177.733 354.428 178.6 352.787 179.443C351.145 180.287 349.478 181.079 347.813 181.853C344.453 183.388 341.051 184.842 337.545 186.123C334.019 187.441 330.427 188.577 326.785 189.528C322.999 190.548 319.132 191.24 315.227 191.597L314.403 191.673L314.005 191.644C310.477 191.237 307.347 190.596 304.208 189.944C301.069 189.293 297.955 188.555 294.875 187.772C291.794 186.988 288.736 186.167 285.682 185.288C282.628 184.409 279.586 183.502 276.562 182.469L277.953 175.525C284.239 175.931 290.519 176.562 296.741 177.178L306.03 178.109C309.088 178.403 312.218 178.664 314.958 178.77L313.747 178.797C316.885 178.24 319.978 177.459 323.005 176.46C326.142 175.435 329.275 174.321 332.396 172.973C335.518 171.625 338.631 170.257 341.712 168.789C343.286 168.067 344.824 167.304 346.322 166.557C347.82 165.81 349.419 165.012 350.788 164.295L357.761 176.77Z" fill="#263238"/>
<path opacity="0.1" d="M357.761 176.77C356.023 177.733 354.428 178.6 352.787 179.443C351.145 180.287 349.478 181.079 347.813 181.853C344.453 183.388 341.051 184.842 337.545 186.123C334.019 187.441 330.427 188.577 326.785 189.528C322.999 190.548 319.132 191.24 315.227 191.597L314.403 191.673L314.005 191.644C310.477 191.237 307.347 190.596 304.208 189.944C301.069 189.293 297.955 188.555 294.875 187.772C291.794 186.988 288.736 186.167 285.682 185.288C282.628 184.409 279.586 183.502 276.562 182.469L277.953 175.525C284.239 175.931 290.519 176.562 296.741 177.178L306.03 178.109C309.088 178.403 312.218 178.664 314.958 178.77L313.747 178.797C316.885 178.24 319.978 177.459 323.005 176.46C326.142 175.435 329.275 174.321 332.396 172.973C335.518 171.625 338.631 170.257 341.712 168.789C343.286 168.067 344.824 167.304 346.322 166.557C347.82 165.81 349.419 165.012 350.788 164.295L357.761 176.77Z" fill="black"/>
<path d="M276.626 171.754C274.283 170.072 271.789 169.389 271.789 169.389L269.202 179.498L276.957 182.76L277.837 181.682C280.328 178.63 279.827 174.051 276.626 171.754Z" fill="#FFC3BD"/>
<path d="M269.202 179.496L271.79 169.388L264.549 165.441L262.365 172.559L269.202 179.496Z" fill="#FFC3BD"/>
<path opacity="0.2" d="M333.409 186.999L333.689 186.986L333.813 187.011C337.634 186.596 348.857 184.709 356.984 176.7C355.766 174.364 354.108 172.545 352.078 172.139C346.483 171.117 339.622 175.127 333.409 186.999Z" fill="black"/>
<path d="M339.98 239.314C349.559 213.447 343.257 189.658 344.462 176.491C345.079 169.828 350.025 164.374 356.597 163.11C363.144 161.844 371.226 160.427 378.944 159.386C379.683 159.286 380.429 159.241 381.175 159.251C389.523 159.364 396.198 166.222 396.085 174.57C395.41 213.595 382.908 239.314 382.908 239.314L362.714 239.227L339.98 239.314Z" fill="#407BFF"/>
<path opacity="0.8" d="M339.98 239.314C349.559 213.447 343.257 189.658 344.462 176.491C345.079 169.828 350.025 164.374 356.597 163.11C363.144 161.844 371.226 160.427 378.944 159.386C379.683 159.286 380.429 159.241 381.175 159.251C389.523 159.364 396.198 166.222 396.085 174.57C395.41 213.595 382.908 239.314 382.908 239.314L362.714 239.227L339.98 239.314Z" fill="white"/>
<path d="M263.36 327.588L260.796 344.421H268.934L274.275 327.588H263.36Z" fill="#FFC3BD"/>
<path d="M259.76 340.666L270.632 340.411C271.012 340.391 271.315 340.656 271.314 341.007L271.338 348.988C271.288 349.86 270.488 350.588 269.548 350.618C265.767 350.646 263.969 350.478 259.185 350.591C254.068 350.571 248.985 350.236 243.971 349.589C240.099 348.927 241.145 345.292 242.897 345.233C250.804 344.944 255.22 343.297 258.056 341.257C258.55 340.89 259.152 340.681 259.76 340.666Z" fill="#263238"/>
<path opacity="0.2" d="M262.332 334.339L263.36 327.588H274.275L271.647 336.005L262.332 334.339Z" fill="black"/>
<path d="M334.966 233.258C334.966 233.258 268.821 233.916 267.791 254.867C266.327 284.988 261.238 330.911 261.238 330.911L273.713 334.34C273.713 334.34 291.506 288.806 292.2 265.283C310.804 261.575 358.643 265.283 364.262 253.063C367.016 246.707 367.745 239.899 366.383 233.258H334.966Z" fill="#407BFF"/>
<path opacity="0.6" d="M334.966 233.258C334.966 233.258 268.821 233.916 267.791 254.867C266.327 284.988 261.238 330.911 261.238 330.911L273.713 334.34C273.713 334.34 291.506 288.806 292.2 265.283C310.804 261.575 358.643 265.283 364.262 253.063C367.016 246.707 367.745 239.899 366.383 233.258H334.966Z" fill="black"/>
<path d="M321.558 334.095L325.974 345.517H334.89L331.819 333.504L321.558 334.095Z" fill="#FFC3BD"/>
<path opacity="0.2" d="M332.648 336.748L330.918 327.961L319.655 329.361L322.535 337L332.648 336.748Z" fill="black"/>
<path d="M323.555 341.733H334.936C335.331 341.715 335.668 342.004 335.687 342.379C335.687 342.383 335.687 342.387 335.688 342.391L336.246 350.922C336.246 351.857 335.457 352.619 334.471 352.637C330.511 352.572 328.61 352.346 323.603 352.346C320.53 352.346 314.316 352.648 310.06 352.648C305.804 352.648 305.929 348.668 307.727 348.334C315.819 346.716 318.948 344.484 321.805 342.348C322.3 341.967 322.916 341.752 323.555 341.733Z" fill="#263238"/>
<path d="M352.789 233.258C352.789 233.258 292.796 237.325 294.271 258.266C295.883 281.191 319.908 334.34 319.908 334.34H332.038C332.038 334.34 323.976 286.104 320.317 262.751C337.235 262.751 376.453 265.303 382.084 253.053C384.838 246.697 385.563 239.888 384.192 233.248L352.789 233.258Z" fill="#407BFF"/>
<path opacity="0.5" d="M352.789 233.258C352.789 233.258 292.796 237.325 294.271 258.266C295.883 281.191 319.908 334.34 319.908 334.34H332.038C332.038 334.34 323.976 286.104 320.317 262.751C337.235 262.751 376.453 265.303 382.084 253.053C384.838 246.697 385.563 239.888 384.192 233.248L352.789 233.258Z" fill="black"/>
<path d="M361.875 148.472C363.259 153.81 363.692 160.455 356.231 163.219C354.163 166.518 353.147 169.994 361.124 168.755C367.468 167.936 373.242 164.669 377.212 159.653C372.437 155.479 373.312 142.662 374.519 135.43L361.875 148.472Z" fill="#FFC3BD"/>
<path d="M361.027 158.186C354.183 159.363 348.546 164.656 345.527 170.909C342.508 177.162 341.781 184.28 341.838 191.224C341.895 198.168 342.687 205.1 342.504 212.041C342.293 220.063 340.358 225.712 337.599 233.248C337.599 235.04 340.31 236.051 342.61 236.516C347.386 226.084 350.527 216.113 350.195 204.644C349.954 196.324 349.836 186.849 351.192 178.636C352.528 170.546 362.362 159.724 361.892 158.249L361.027 158.186Z" fill="#263238"/>
<path opacity="0.3" d="M367.703 152.385C366.086 153.448 364.165 154.017 362.645 153.611C362.658 152.313 362.564 151.016 362.363 149.733L370.64 142.932C370.824 143.815 370.941 144.71 370.99 145.609C371.136 148.284 369.941 150.914 367.703 152.385Z" fill="black"/>
<path d="M355.325 116.892C346.568 121.835 346.479 135.83 349.177 143.917C349.945 146.304 351.434 148.394 353.44 149.899C358.795 153.917 366.393 152.834 370.411 147.48C374.688 142.067 374.073 136.606 373.863 127.214C373.637 117.831 364.081 111.948 355.325 116.892Z" fill="#FFC3BD"/>
<path opacity="0.2" d="M358.141 142.032C355.32 143.239 352.227 144.811 349.379 144.471C350.19 146.625 351.592 148.511 353.439 149.897C358.794 153.915 366.392 152.832 370.411 147.478C373.91 143.05 375.016 140.048 373.986 131.967C368.525 138.386 364.174 139.451 358.141 142.032Z" fill="black"/>
<path d="M366.604 120.005C364.719 122.902 365.106 127.075 367.493 129.575C368.283 130.403 369.251 131.05 370.014 131.902C371.189 133.214 371.82 134.999 371.731 136.759C372.029 134.468 374.168 132.563 376.478 132.532C375.291 136.199 374.103 139.867 372.916 143.534C377.624 141.406 381.051 136.674 381.603 131.537C382.362 124.473 373.601 109.253 366.604 120.005Z" fill="#263238"/>
<path d="M346.184 120.541C345.558 121.316 344.965 122.166 344.79 123.146C344.614 124.126 344.965 125.263 345.843 125.733C346.556 126.114 347.422 125.986 348.218 125.848C350.879 125.385 353.541 124.922 356.202 124.46C360.781 123.664 365.364 122.867 369.884 121.785C371.912 121.299 374.193 120.535 374.991 118.609C377.583 112.36 366.515 111.547 362.824 111.725C356.486 112.028 350.12 115.668 346.184 120.541Z" fill="#263238"/>
<path d="M375.283 130.971C372.655 131.564 371.539 135.333 371.614 137.752C371.63 140.495 373.646 142.285 375.928 140.63C377.652 139.35 378.825 137.463 379.21 135.351C379.677 132.755 377.911 130.378 375.283 130.971Z" fill="#FFC3BD"/>
<path d="M356.766 140.516C356.766 140.516 355.269 141.5 354.043 140.929C355.056 138.673 354.921 139.182 355.228 135.334L356.766 140.516Z" fill="#ED847E"/>
<path d="M361.378 128.002C360.625 127.163 358.581 126.84 357.465 127.003C357.457 127.005 357.448 127.006 357.439 127.008C357.206 127.044 356.987 126.883 356.952 126.65C356.92 126.402 357.085 126.171 357.33 126.122C358.729 125.91 361.062 126.332 362.009 127.383C362.012 127.386 362.015 127.39 362.018 127.393C362.182 127.578 362.164 127.861 361.979 128.024C361.922 128.077 361.855 128.12 361.782 128.149C361.631 128.173 361.478 128.118 361.378 128.002Z" fill="#263238"/>
<path d="M348.436 129.921C348.427 129.916 348.418 129.91 348.409 129.904C348.212 129.773 348.159 129.507 348.291 129.311C349.006 128.034 350.275 127.163 351.724 126.956C351.734 126.955 351.745 126.955 351.756 126.955C351.987 126.955 352.174 127.142 352.174 127.373C352.183 127.623 351.992 127.836 351.743 127.854C350.598 128.035 349.602 128.736 349.045 129.753C348.968 129.882 348.834 129.967 348.684 129.982C348.596 129.99 348.509 129.968 348.436 129.921Z" fill="#263238"/>
<path d="M355.983 144.584C357.077 145.868 358.63 148.431 358.63 148.431C358.84 148.348 359.051 148.264 359.255 148.168C362.07 146.949 362.872 145.252 362.906 143.74C362.922 142.912 362.699 142.133 362.451 141.527C362.171 140.823 361.838 140.369 361.838 140.369C360.83 142.1 358.314 143.482 356.935 144.151C356.36 144.438 355.983 144.584 355.983 144.584Z" fill="#2E353A"/>
<path d="M356.934 144.15L357.335 144.707C357.569 145.032 358.006 145.151 358.369 144.98C360.45 144 361.829 142.957 362.33 141.849C362.426 141.636 362.398 141.385 362.298 141.174C362.062 140.674 361.838 140.369 361.838 140.369C360.829 142.1 358.314 143.482 356.934 144.15Z" fill="white"/>
<path d="M359.255 148.166C362.07 146.947 362.872 145.25 362.906 143.738C361.967 144.198 360.896 144.881 360.116 145.845C359.516 146.579 359.302 147.404 359.255 148.166Z" fill="#DE5753"/>
<path d="M351.653 133.092C351.164 133.182 350.886 133.877 351.032 134.628C351.178 135.379 351.702 135.919 352.187 135.82C352.672 135.721 352.954 135.035 352.808 134.284C352.678 133.549 352.142 133.002 351.653 133.092Z" fill="#263238"/>
<path d="M360.233 131.668C359.744 131.758 359.466 132.453 359.612 133.204C359.758 133.955 360.282 134.495 360.767 134.396C361.252 134.297 361.534 133.611 361.388 132.86C361.259 132.125 360.722 131.578 360.233 131.668Z" fill="#263238"/>
<path opacity="0.9" d="M347.867 137.109L354.178 135.691L354.285 138.37L348.421 139.773L347.867 137.109Z" fill="white"/>
<g opacity="0.8">
<path opacity="0.9" d="M356.1 135.271L356.854 137.733L364.947 135.991L364.467 133.145L356.1 135.271Z" fill="white"/>
</g>
<path d="M354.217 136.678L354.178 135.692L356.1 135.271L356.385 136.203L354.217 136.678Z" fill="#263238"/>
<path d="M351.92 238.165C351.92 238.165 363.309 242.576 365.909 243.443C368.975 244.465 372.085 245.496 375.284 245.593C378.483 245.69 381.837 244.745 384.152 242.279C386.874 239.38 387.717 234.974 388.427 230.851C390.515 218.722 392.604 206.594 394.692 194.465C395.722 188.484 398.32 179.498 398.099 176.074C397.692 169.777 393.68 162.342 383.468 158.245C379.502 156.654 375.584 157.265 372.24 161.265C370.245 163.652 364.424 169.388 362.994 179.497C361.848 187.599 360.074 198.091 360.182 206.32C360.324 217.117 356.024 230.761 351.92 238.165Z" fill="#263238"/>
<path d="M397.548 172.748C398.709 183.291 392.883 209.861 391.757 211.453C386.981 226.869 373.852 218.561 371.949 217.85C368.639 216.627 365.27 214.242 362.121 212.649C356.008 209.614 350.224 207.172 344.54 203.394L347.742 197.075C353.966 199.202 371.6 203.754 374.505 204.464C375.768 204.794 380.676 207.371 380.625 203.973C381.322 202.844 382.283 180.838 384.392 173.058C384.629 172.182 385.053 171.374 385.619 170.665L385.811 170.425C389.219 166.158 396.022 167.504 397.548 172.748Z" fill="#263238"/>
<path opacity="0.1" d="M397.548 172.748C398.709 183.291 392.883 209.861 391.757 211.453C386.981 226.869 373.852 218.561 371.949 217.85C368.639 216.627 365.27 214.242 362.121 212.649C356.008 209.614 350.224 207.172 344.54 203.394L347.742 197.075C353.966 199.202 371.6 203.754 374.505 204.464C375.768 204.794 380.676 207.371 380.625 203.973C381.322 202.844 382.283 180.838 384.392 173.058C384.629 172.182 385.053 171.374 385.619 170.665L385.811 170.425C389.219 166.158 396.022 167.504 397.548 172.748Z" fill="white"/>
<path d="M345.235 212.552H315.637L312.258 173.93H341.856L345.235 212.552Z" fill="#263238"/>
<path opacity="0.5" d="M345.235 212.552H315.637L312.258 173.93H341.856L345.235 212.552Z" fill="white"/>
<path d="M344.19 212.356H314.592L311.213 173.734H340.811L344.19 212.356Z" fill="#407BFF"/>
<path opacity="0.8" d="M344.19 212.356H314.592L311.213 173.734H340.811L344.19 212.356Z" fill="white"/>
<path d="M332.447 176.148H319.999L319.576 171.322H332.025L332.447 176.148Z" fill="#407BFF"/>
<path d="M319.576 171.322L320.804 170.898H333.693L333.867 172.953L332.909 174.064L332.845 175.743L332.447 176.148L332.025 171.322H319.576Z" fill="#407BFF"/>
<path opacity="0.5" d="M319.576 171.322L320.804 170.898H333.693L333.867 172.953L332.909 174.064L332.845 175.743L332.447 176.148L332.025 171.322H319.576Z" fill="black"/>
<path d="M350.096 199.172L350.772 202.781C349.173 206.945 339.995 205.845 339.995 205.845L339.979 195.178L348.071 197.058C349.104 197.303 349.897 198.13 350.096 199.172Z" fill="#FFC3BD"/>
<path d="M339.98 195.178L340.025 205.869L331.904 206.071L330.04 196.664L339.98 195.178Z" fill="#FFC3BD"/>
<path d="M370.902 282.008L373.989 236.969C374.434 230.609 377.53 225.308 381.83 222.796C384.543 220.66 387.814 219.332 391.337 219.111C391.703 219.073 392.07 219.062 392.436 219.062C395.297 219.062 398.009 219.784 400.417 221.092C400.496 221.121 400.565 221.169 400.644 221.208C403.139 222.584 405.311 224.557 407.003 226.982L407.012 226.991C409.384 230.407 410.806 234.68 410.806 239.327C410.806 249.334 404.221 257.666 395.568 259.292L392.228 308.016C391.94 312.163 389.219 315.337 385.948 315.337H369.175L370.902 282.008Z" fill="#407BFF"/>
<path opacity="0.1" d="M370.902 282.008L373.989 236.969C374.434 230.609 377.53 225.308 381.83 222.796C384.543 220.66 387.814 219.332 391.337 219.111C391.703 219.073 392.07 219.062 392.436 219.062C395.297 219.062 398.009 219.784 400.417 221.092C400.496 221.121 400.565 221.169 400.644 221.208C403.139 222.584 405.311 224.557 407.003 226.982L407.012 226.991C409.384 230.407 410.806 234.68 410.806 239.327C410.806 249.334 404.221 257.666 395.568 259.292L392.228 308.016C391.94 312.163 389.219 315.337 385.948 315.337H369.175L370.902 282.008Z" fill="white"/>
<path d="M218.3 72.6488V114.459C218.3 116.639 216.53 118.409 214.35 118.409H171.48L156.18 130.239C155.68 130.619 155.06 130.829 154.43 130.829C152.81 130.829 151.5 129.519 151.5 127.899V118.409H149.11C146.93 118.409 145.16 116.639 145.16 114.459V72.6388C145.17 70.4688 146.94 68.7088 149.11 68.7188H214.37C216.54 68.7188 218.3 70.4788 218.3 72.6488Z" stroke="#407BFF" stroke-miterlimit="10"/>
<path d="M178.204 62.834H170.034V63.834H178.204V62.834Z" fill="#407BFF"/>
<path d="M139.984 74.6142H138.984V69.6842C138.99 65.8942 142.064 62.8242 145.854 62.8242H164.084V63.8242H145.854C142.616 63.8242 139.989 66.4462 139.984 69.6842V74.6142Z" fill="#407BFF"/>
<path d="M197.772 99.3493C195.936 99.3493 194.452 97.7943 194.608 95.9653C194.609 95.9513 194.61 95.9363 194.612 95.9223C195.679 83.7293 205.339 82.6133 206.553 68.7453C206.902 64.7603 205.441 63.2463 202.651 63.2463C199.861 63.2463 198.135 64.7603 197.786 68.7453L197.586 71.0333C197.399 73.1663 195.614 74.8024 193.473 74.8024C191.051 74.8024 189.149 72.7273 189.36 70.3143L189.448 69.3033C190.229 60.3773 195.058 55.2773 203.587 55.2773C212.114 55.2773 216.051 60.3783 215.27 69.3033C214.001 83.8083 203.445 86.0403 202.553 96.2413C202.549 96.2913 202.545 96.3414 202.541 96.3904C202.408 98.0534 201.049 99.3493 199.38 99.3493H197.772ZM202.098 107.829L202.095 107.861C201.905 110.034 200.085 111.702 197.903 111.702C195.434 111.702 193.496 109.587 193.711 107.127L193.714 107.095C193.904 104.922 195.724 103.254 197.906 103.254C200.375 103.255 202.313 105.37 202.098 107.829Z" fill="#407BFF"/>
<path d="M186.502 89.5625H163.543C162.439 89.5625 161.543 88.6665 161.543 87.5625C161.543 86.4575 162.439 85.5625 163.543 85.5625H186.502C187.606 85.5625 188.502 86.4575 188.502 87.5625C188.502 88.6665 187.606 89.5625 186.502 89.5625Z" fill="#407BFF"/>
<path d="M183.32 97.4746H163.543C162.439 97.4746 161.543 96.5786 161.543 95.4746C161.543 94.3696 162.439 93.4746 163.543 93.4746H183.32C184.425 93.4746 185.32 94.3696 185.32 95.4746C185.32 96.5786 184.424 97.4746 183.32 97.4746Z" fill="#407BFF"/>
<path d="M180.138 105.387H163.543C162.439 105.387 161.543 104.491 161.543 103.387C161.543 102.282 162.439 101.387 163.543 101.387H180.138C181.243 101.387 182.138 102.282 182.138 103.387C182.138 104.492 181.243 105.387 180.138 105.387Z" fill="#407BFF"/>
<path d="M133.081 268.562H118.465C114.912 268.562 112.032 270.811 112.032 273.585V282.229C112.032 285.003 114.912 287.252 118.465 287.252H133.081V268.562Z" fill="#407BFF"/>
<path d="M65.177 309.247L60.099 228.39C58.213 198.357 82.062 172.963 112.154 172.963C139.819 172.963 162.671 194.563 164.229 222.184L169.554 316.623H73.032C68.877 316.624 65.437 313.394 65.177 309.247Z" fill="#407BFF"/>
<path opacity="0.1" d="M64.993 306.318L60.099 228.39C58.213 198.357 82.062 172.963 112.154 172.963C139.819 172.963 162.671 194.563 164.229 222.184L169.554 316.623H75.966C70.161 316.624 65.357 312.111 64.993 306.318Z" fill="black"/>
<path d="M80.8421 316.624L75.3011 228.39C73.4151 198.357 97.2641 172.963 127.356 172.963C155.021 172.963 177.873 194.563 179.431 222.184L184.756 316.623L80.8421 316.624Z" fill="#407BFF"/>
<path d="M79.181 331.815H77.847C77.168 331.815 76.535 331.24 76.424 330.46L74.457 316.629H82.57L80.603 330.46C80.493 331.24 79.86 331.815 79.181 331.815Z" fill="#407BFF"/>
<path opacity="0.7" d="M79.181 331.815H77.847C77.168 331.815 76.535 331.24 76.424 330.46L74.457 316.629H82.57L80.603 330.46C80.493 331.24 79.86 331.815 79.181 331.815Z" fill="white"/>
<path d="M209.831 331.815H208.622C208.006 331.815 207.433 331.24 207.332 330.46L205.549 316.629H212.904L211.121 330.46C211.021 331.24 210.447 331.815 209.831 331.815Z" fill="#407BFF"/>
<path opacity="0.5" d="M209.831 331.815H208.622C208.006 331.815 207.433 331.24 207.332 330.46L205.549 316.629H212.904L211.121 330.46C211.021 331.24 210.447 331.815 209.831 331.815Z" fill="white"/>
<path d="M172.215 331.815H171.006C170.39 331.815 169.817 331.24 169.716 330.46L167.933 316.629H175.288L173.505 330.46C173.405 331.24 172.831 331.815 172.215 331.815Z" fill="#407BFF"/>
<path opacity="0.7" d="M172.215 331.815H171.006C170.39 331.815 169.817 331.24 169.716 330.46L167.933 316.629H175.288L173.505 330.46C173.405 331.24 172.831 331.815 172.215 331.815Z" fill="white"/>
<path d="M119.679 331.815H118.345C117.666 331.815 117.033 331.24 116.922 330.46L114.955 316.629H123.068L121.101 330.46C120.991 331.24 120.358 331.815 119.679 331.815Z" fill="#407BFF"/>
<path opacity="0.5" d="M119.679 331.815H118.345C117.666 331.815 117.033 331.24 116.922 330.46L114.955 316.629H123.068L121.101 330.46C120.991 331.24 120.358 331.815 119.679 331.815Z" fill="white"/>
<path d="M163.708 283.3H199.266L201.622 249.017L202.124 241.658V241.647L202.356 238.26C202.424 237.355 202.54 236.471 202.704 235.608C202.743 235.416 202.791 235.214 202.829 235.022C202.848 234.873 202.887 234.734 202.935 234.596C203.949 230.996 205.841 227.823 208.351 225.394C211.353 222.486 215.206 220.644 219.454 220.389H186.01C185.643 220.368 185.276 220.357 184.909 220.357C180.265 220.357 176.027 222.263 172.793 225.395C170.283 227.823 168.39 230.997 167.377 234.597C167.329 234.735 167.29 234.874 167.271 235.023C167.039 236.067 166.875 237.142 166.798 238.261L166.566 241.648V241.659L163.708 283.3Z" fill="#407BFF"/>
<path opacity="0.1" d="M163.708 283.3H199.266L201.622 249.017L202.124 241.658V241.647L202.356 238.26C202.424 237.355 202.54 236.471 202.704 235.608C202.743 235.416 202.791 235.214 202.829 235.022C202.848 234.873 202.887 234.734 202.935 234.596C203.949 230.996 205.841 227.823 208.351 225.394C211.353 222.486 215.206 220.644 219.454 220.389H186.01C185.643 220.368 185.276 220.357 184.909 220.357C180.265 220.357 176.027 222.263 172.793 225.395C170.283 227.823 168.39 230.997 167.377 234.597C167.329 234.735 167.29 234.874 167.271 235.023C167.039 236.067 166.875 237.142 166.798 238.261L166.566 241.648V241.659L163.708 283.3Z" fill="black"/>
<g opacity="0.1">
<path d="M135.527 265.039H121.242C117.77 265.039 114.955 267.237 114.955 269.948V278.396C114.955 281.107 117.77 283.305 121.242 283.305H135.527V265.039Z" fill="black"/>
</g>
<path d="M193.839 283.305H130.95C127.954 283.305 125.525 280.876 125.525 277.88V270.464C125.525 267.468 127.954 265.039 130.95 265.039H193.839C196.835 265.039 199.264 267.468 199.264 270.464V277.88C199.264 280.876 196.835 283.305 193.839 283.305Z" fill="#407BFF"/>
<path d="M45.5 240.615C45.5 250.626 52.764 258.955 62.306 260.584L65.991 309.309C66.31 313.452 69.314 316.626 72.914 316.626H112.139C108.539 316.626 105.536 313.452 105.216 309.309L103.246 283.301L101.531 260.584C95.183 259.498 89.847 255.461 86.993 249.923C86.801 249.571 86.631 249.199 86.471 248.826C85.342 246.313 84.724 243.543 84.724 240.615C84.724 239.198 84.873 237.814 85.15 236.483C85.257 235.94 85.395 235.397 85.544 234.875C86.268 232.457 87.419 230.232 88.91 228.283L88.921 228.272C90.785 225.844 93.181 223.873 95.929 222.5C98.656 221.126 101.734 220.359 104.982 220.359H65.757C63.68 220.359 61.667 220.679 59.772 221.264C58.707 221.594 57.684 222.009 56.705 222.499C53.957 223.873 51.561 225.843 49.697 228.271L49.686 228.282C47.065 231.701 45.5 235.972 45.5 240.615Z" fill="#407BFF"/>
<path opacity="0.1" d="M45.5 240.615C45.5 250.626 52.764 258.955 62.306 260.584L65.991 309.309C66.31 313.452 69.314 316.626 72.914 316.626H112.139C108.539 316.626 105.536 313.452 105.216 309.309L103.246 283.301L101.531 260.584C95.183 259.498 89.847 255.461 86.993 249.923C86.801 249.571 86.631 249.199 86.471 248.826C85.342 246.313 84.724 243.543 84.724 240.615C84.724 239.198 84.873 237.814 85.15 236.483C85.257 235.94 85.395 235.397 85.544 234.875C86.268 232.457 87.419 230.232 88.91 228.283L88.921 228.272C90.785 225.844 93.181 223.873 95.929 222.5C98.656 221.126 101.734 220.359 104.982 220.359H65.757C63.68 220.359 61.667 220.679 59.772 221.264C58.707 221.594 57.684 222.009 56.705 222.499C53.957 223.873 51.561 225.843 49.697 228.271L49.686 228.282C47.065 231.701 45.5 235.972 45.5 240.615Z" fill="black"/>
<path d="M84.7209 240.618C84.7209 250.625 91.3059 258.957 99.9589 260.583L103.299 309.307C103.587 313.454 106.308 316.629 109.579 316.629H214.315C217.577 316.629 220.298 313.454 220.595 309.307L223.944 260.506C232.422 258.726 238.833 250.499 238.833 240.618C238.833 236.25 237.577 232.209 235.449 228.908C233.713 226.204 231.376 223.991 228.672 222.5C226.204 221.124 223.413 220.354 220.464 220.354C215.824 220.354 211.585 222.269 208.349 225.396C205.837 227.821 203.944 230.996 202.933 234.594C202.889 234.738 202.846 234.873 202.828 235.027C202.593 236.066 202.436 237.144 202.357 238.26L202.121 241.647V241.657L199.269 283.3H124.624L121.537 238.261C121.092 231.901 117.996 226.6 113.696 224.088C110.983 221.952 107.712 220.624 104.189 220.403C103.823 220.364 103.456 220.355 103.09 220.355C100.229 220.355 97.5169 221.077 95.1089 222.385C95.0299 222.414 94.961 222.462 94.882 222.501C92.387 223.877 90.2159 225.849 88.5229 228.274L88.5139 228.284C86.1429 231.699 84.7209 235.971 84.7209 240.618Z" fill="#407BFF"/>
<path opacity="0.1" d="M126.353 316.629H214.316C217.578 316.629 220.299 313.454 220.596 309.307L223.945 260.506C232.423 258.726 238.834 250.499 238.834 240.618C238.834 236.25 237.578 232.209 235.45 228.908C233.714 226.204 231.377 223.991 228.673 222.5C226.205 221.124 223.414 220.354 220.465 220.354C215.825 220.354 211.586 222.269 208.35 225.396C205.838 227.821 203.945 230.996 202.934 234.594C202.89 234.738 202.847 234.873 202.829 235.027C202.594 236.066 202.437 237.144 202.358 238.26L202.122 241.647V241.657L199.27 283.3H124.625L126.353 316.629Z" fill="white"/>
<path d="M153.13 333.837L161.663 336.2L169.316 316.147L160.791 313.783L153.13 333.837Z" fill="#FFC3BD"/>
<path d="M165.483 333.539C164.821 332.659 163.829 332.088 162.749 331.878L153.96 330.17C153.552 330.074 153.14 330.309 153.015 330.708L150.297 338.721C149.975 339.636 150.456 340.638 151.37 340.959C151.389 340.966 151.408 340.972 151.428 340.978C154.666 342.254 156.857 341.814 161.925 342.794C165.046 343.402 171.602 345.479 175.983 345.299C180.363 345.12 180.351 340.785 178.509 340.466C171.971 339.442 166.969 335.515 165.483 333.539Z" fill="#263238"/>
<g opacity="0.2">
<path d="M169.317 316.156L165.37 326.495L156.836 324.123L160.783 313.785L169.317 316.156Z" fill="black"/>
</g>
<path d="M140.854 240.089C140.854 240.089 192.211 239.808 190.609 257.011C189.527 268.623 183.949 280.842 179.598 292.632C173.292 309.719 167.824 324.607 167.824 324.607L156.12 320.559C156.12 320.559 166.63 271.136 173.714 266.08H130.289C115.919 266.08 109.706 250.297 123.696 231.902C132.249 231.909 140.854 240.089 140.854 240.089Z" fill="#407BFF"/>
<path opacity="0.6" d="M140.854 240.089C140.854 240.089 192.211 239.808 190.609 257.011C191.405 267.696 167.824 324.607 167.824 324.607L156.12 320.559C156.12 320.559 166.63 271.136 173.714 266.08H130.289C115.919 266.08 109.706 250.297 123.696 231.902C132.249 231.909 140.854 240.089 140.854 240.089Z" fill="black"/>
<path d="M177.071 208.818C170.754 214.593 158.339 200.933 156.344 199.306C152.061 195.813 139.478 184.064 140.144 179.986C142.105 167.979 161.82 184.989 167.506 196.706L177.071 208.818Z" fill="#263238"/>
<path d="M121.76 172.708C118.593 173.382 115.163 172.236 112.935 174.585C110.707 176.935 109.774 180.239 109.45 183.461C108.999 187.941 109.575 192.454 110.15 196.919C110.847 202.334 111.545 207.748 112.242 213.163C112.719 216.865 112.489 222.883 111.733 226.538L111.727 226.566C111.541 227.496 112.081 228.52 112.953 228.894C112.953 228.894 137.543 229.742 144.692 229.47C148.494 229.326 145.886 219.331 147.05 213.503C147.308 212.21 149.855 206.866 150.229 205.497C151.995 199.043 150.825 194.61 149.187 188.123C147.999 183.416 147.51 176.623 145.109 176.102C140.833 175.174 130.585 170.83 121.76 172.708Z" fill="#407BFF"/>
<path opacity="0.8" d="M121.76 172.708C118.593 173.382 115.163 172.236 112.935 174.585C110.707 176.935 109.774 180.239 109.45 183.461C108.999 187.941 109.575 192.454 110.15 196.919C110.847 202.334 111.545 207.748 112.242 213.163C112.719 216.865 112.489 222.883 111.733 226.538L111.727 226.566C111.541 227.496 112.081 228.52 112.953 228.894C112.953 228.894 137.543 229.742 144.692 229.47C148.494 229.326 145.886 219.331 147.05 213.503C147.308 212.21 149.855 206.866 150.229 205.497C151.995 199.043 150.825 194.61 149.187 188.123C147.999 183.416 147.51 176.623 145.109 176.102C140.833 175.174 130.585 170.83 121.76 172.708Z" fill="white"/>
<path d="M118.246 177.323C117.92 176.825 109.273 169.544 107.699 177.957C105.507 189.666 110.04 201.189 110.04 201.189C110.04 201.189 111.081 213.861 114.758 215.125C118.434 216.388 121.943 216.704 123.182 214.538C124.421 212.372 124.421 209.124 124.421 209.124C124.421 209.124 123.978 186.072 118.246 177.323Z" fill="#263238"/>
<path d="M124.236 156.637C125.132 162.03 125.884 171.88 122.026 175.351C122.026 175.351 131.444 180.28 137.619 188.878C141.186 186.054 141.21 182.475 140.479 179.782C139.912 177.695 138.407 176.037 136.513 174.994C132.857 172.982 133.207 169.217 134.209 165.675L124.236 156.637Z" fill="#E8BFBF"/>
<path opacity="0.2" d="M125.466 165.791L128.977 167.138C130.481 167.715 132.087 167.975 133.696 167.903C133.603 168.679 133.295 170.316 133.696 171.237C131.521 172.027 128.084 170.983 126.72 168.999C126.15 168.22 125.726 166.72 125.466 165.791Z" fill="black"/>
<path d="M212.604 316.595H222.157L212.148 292.625L205.67 303.63L212.604 316.595Z" fill="#FFC3BD"/>
<path d="M221.374 314.329L210.16 311.782C209.764 311.677 209.353 311.895 209.219 312.283L206.092 320.907C205.827 321.82 206.352 322.775 207.265 323.04C207.283 323.045 207.3 323.05 207.318 323.055C211.249 323.876 213.182 324.074 218.112 325.193C221.148 325.882 228.829 327.898 233.015 328.849C237.201 329.799 238.305 325.696 236.637 324.918C229.16 321.456 225.106 318.147 222.934 315.327C222.548 314.82 221.996 314.467 221.374 314.329Z" fill="#263238"/>
<g opacity="0.2">
<path d="M212.148 292.631L216.409 302.839L207.814 307.64L205.67 303.637L212.148 292.631Z" fill="black"/>
</g>
<path d="M111.537 228.978L110.504 232.236C110.367 232.487 110.656 232.753 111.081 232.768L148.122 233.892C148.456 233.892 148.73 233.748 148.76 233.535L149.185 230.262C149.185 230.034 148.934 229.837 148.578 229.822L112.183 228.721C111.937 228.682 111.689 228.781 111.537 228.978Z" fill="#263238"/>
<path d="M157.823 255.731C145.652 260.917 132.446 266.103 125.269 266.103C110.892 266.103 98.1209 255.722 111.735 232.115C120.287 232.085 135.158 232.358 135.158 232.358C135.158 232.358 163.201 224.402 183.539 226.721C193.46 227.852 201.48 235.298 203.427 245.092C208.59 271.07 216.539 299.209 216.539 299.209L206.309 306.174C206.309 306.174 190.359 272.634 181.177 246.022C176.322 247.576 167.393 251.653 157.823 255.731Z" fill="#407BFF"/>
<path opacity="0.5" d="M203.426 245.094C201.479 235.3 193.459 227.854 183.538 226.723C163.199 224.404 135.157 232.36 135.157 232.36C135.157 232.36 120.286 232.087 111.734 232.117C97.898 255.642 110.891 266.105 125.268 266.105C132.445 266.105 145.652 260.918 157.822 255.733C167.392 251.656 176.32 247.579 181.174 246.024C190.356 272.637 206.306 306.176 206.306 306.176L216.536 299.211C216.538 299.211 208.589 271.072 203.426 245.094Z" fill="black"/>
<path d="M190.612 257.014C190.316 260.219 189.792 263.553 189.108 266.963C189.062 266.857 189.017 266.758 188.979 266.652C188.964 266.622 188.956 266.599 188.941 266.568C188.895 266.462 188.865 266.348 188.812 266.249C186.085 259.489 183.427 252.555 181.179 246.031C181.194 246.031 181.217 246.046 181.247 246.054V246.046C187.111 248.53 191.075 252.039 190.612 257.014Z" fill="#407BFF"/>
<path opacity="0.6" d="M190.612 257.014C190.316 260.219 189.792 263.553 189.108 266.963C189.062 266.857 189.017 266.758 188.979 266.652C188.964 266.622 188.956 266.599 188.941 266.568C188.895 266.462 188.865 266.348 188.812 266.249C186.085 259.489 183.427 252.555 181.179 246.031C181.194 246.031 181.217 246.046 181.247 246.054V246.046C187.111 248.53 191.075 252.039 190.612 257.014Z" fill="black"/>
<path d="M117.683 151.458C120.685 159.912 121.775 163.551 127.398 166.717C135.868 171.499 145.569 165.94 145.15 156.76C144.773 148.504 139.924 136.064 130.521 135.065C123.805 134.315 117.753 139.152 117.003 145.867C116.792 147.758 117.025 149.672 117.683 151.458Z" fill="#E8BFBF"/>
<path d="M132.87 150.356C133.082 151.091 133.605 151.522 134.068 151.385C134.531 151.248 134.708 150.589 134.532 149.879C134.355 149.169 133.798 148.721 133.334 148.85C132.87 148.979 132.672 149.657 132.87 150.356Z" fill="#263238"/>
<path d="M140.725 147.883C140.929 148.619 141.46 149.049 141.915 148.913C142.37 148.778 142.555 148.117 142.379 147.407C142.202 146.697 141.645 146.249 141.188 146.377C140.732 146.504 140.519 147.185 140.725 147.883Z" fill="#263238"/>
<path d="M140.982 146.479L142.525 145.506C142.525 145.506 142.054 147.067 140.982 146.479Z" fill="#263238"/>
<path d="M137.906 149.479C138.989 150.897 140.261 152.161 141.685 153.236C141.013 154.361 139.318 154.39 139.318 154.39L137.906 149.479Z" fill="#ED847E"/>
<path d="M112.156 157.087C112.625 158.66 113.399 160.162 113.546 161.797C113.835 165.021 111.22 168.23 108.004 168.597C110.765 169.416 114.018 167.946 115.227 165.332C114.463 167.342 112.896 169.034 110.951 169.95C113.732 170.002 116.506 168.667 118.201 166.462C117.726 167.678 117.252 168.894 116.777 170.109C119.142 168.686 121.115 166.619 122.426 164.191C122.963 163.197 123.363 161.892 122.662 161.007C122.028 160.207 120.847 160.191 119.826 160.17C118.805 160.149 117.584 159.913 117.209 158.963C116.848 158.049 117.52 157.058 118.257 156.408C118.994 155.758 119.886 155.159 120.156 154.214C120.348 153.544 120.182 152.83 120.017 152.153C119.566 150.31 119.114 148.467 118.663 146.624C118.505 145.979 118.341 145.319 117.97 144.768C115.958 141.774 113.743 146.166 113.005 147.662C111.576 150.553 111.232 153.988 112.156 157.087Z" fill="#263238"/>
<path d="M117.087 159.734C118.218 161.212 119.888 162.18 121.733 162.427C124.183 162.73 125.044 160.451 124.062 158.333C123.175 156.422 120.831 153.971 118.52 154.615C116.207 155.26 115.711 157.895 117.087 159.734Z" fill="#E8BFBF"/>
<path d="M133.003 144.319C132.973 144.51 132.824 144.661 132.633 144.693C130.601 145.078 129.472 147.491 129.465 147.511C129.363 147.736 129.099 147.835 128.875 147.734C128.65 147.632 128.551 147.368 128.652 147.144C128.738 147.057 129.984 144.284 132.461 143.81C132.702 143.767 132.934 143.925 132.982 144.166C133 144.215 133.008 144.267 133.003 144.319Z" fill="#263238"/>
<path d="M138.335 142.32C138.178 142.304 138.035 142.341 137.957 142.419C137.845 142.541 137.483 142.749 137.691 142.854C138.912 143.483 140.6 144.498 141.899 144.292C142.116 144.247 142.638 144.057 142.526 143.903C142.414 143.748 142.147 143.659 141.93 143.704C140.895 143.853 139.525 142.882 138.563 142.382C138.492 142.35 138.414 142.329 138.335 142.32Z" fill="#263238"/>
<path d="M133.142 148.95L134.686 147.984C134.686 147.984 134.2 149.54 133.142 148.95Z" fill="#263238"/>
<path d="M133.004 131.33C129.587 130.709 129.153 130.483 125.687 130.698C122.221 130.913 118.723 131.913 115.996 134.062C113.337 136.157 111.555 139.245 110.707 142.523C109.859 145.8 109.901 149.262 110.45 152.602C110.707 154.164 111.147 155.831 112.386 156.816C112.567 155.025 112.751 153.219 113.302 151.505C113.853 149.791 114.806 148.155 116.262 147.097C116.846 146.673 117.531 146.315 117.864 145.675C118.151 145.125 118.12 144.471 118.223 143.859C118.458 142.461 119.415 141.27 120.558 140.432C121.701 139.593 123.029 139.053 124.33 138.491C128.537 136.673 133.131 135.637 137.013 133.202C136.056 132.375 133.004 131.33 133.004 131.33Z" fill="#263238"/>
<path d="M115.551 144.713C116.461 145.811 117.73 146.614 119.12 146.933C120.779 147.315 124.928 147.222 125.177 146.786C125.474 146.265 123.953 141.694 122.274 141.415C123.504 142.446 124.785 143.505 126.331 143.937C127.877 144.368 130.489 144.159 131.535 143.913C132.406 143.708 130.444 140.072 129.014 139.029C133.325 139.929 137.879 140.954 141.055 144.004C144.322 147.141 145.527 151.94 145.366 156.467C146.842 155.306 147.725 153.428 147.678 151.55C149.215 156.214 148.743 161.504 146.406 165.823C150.992 162.063 152.705 155.491 151.499 149.684C150.292 143.878 146.518 138.84 141.89 135.132C137.932 131.961 133.13 129.592 128.06 129.473C121.373 129.316 109.052 136.878 115.551 144.713Z" fill="#263238"/>
<path d="M120.939 171.444C120.978 171.114 121.017 170.682 121.057 170.213C121.242 168.027 119.741 166.055 117.584 165.659C117.566 165.656 117.548 165.652 117.53 165.649C116.901 165.534 116.383 165.091 116.173 164.486C115.397 162.246 115.099 161.567 114.357 159.365C112.335 158.879 109.954 159.624 107.859 159.849C107.28 162.348 107.24 164.97 107.744 167.486C107.856 168.045 108.007 168.623 108.384 169.051C108.761 169.479 112.841 172.362 114.621 172.892C116.474 173.445 119.014 171.623 120.939 171.444Z" fill="#E8BFBF"/>
<path d="M114.881 172.949C114.881 172.949 109.372 208.495 115.046 213.913C118.382 217.098 121.261 215.341 123.067 213.351C124.411 211.871 125.012 209.86 124.806 207.871L120.939 171.442C120.939 171.442 117.116 169.224 114.881 172.949Z" fill="#E8BFBF"/>
<path d="M174.077 205.025C176.291 203.327 178.247 199.799 178.74 197.553C178.896 196.833 178.959 195.753 178.943 194.447C178.888 188.008 177.073 176.202 177.073 176.202L171.839 174.473C171.839 174.473 170.212 183.455 169.852 188.392C169.782 189.362 169.672 190.504 169.555 191.709C169.32 193.908 169.039 196.333 168.788 198.336L174.077 205.025Z" fill="#E8BFBF"/>
<path d="M177.073 208.819C178.677 207.348 178.951 205.572 179.78 201.777C180.57 198.194 179.678 193.82 178.943 194.446C178.873 194.501 178.802 194.61 178.74 194.759C177.473 197.755 172.528 195.127 171.127 193.632C170.579 193.045 169.922 192.388 169.554 191.707C169.21 191.097 169.108 190.479 169.515 189.884C167.997 189.258 166.777 195.236 167.504 196.707L167.874 197.814C168.477 199.616 169.41 201.291 170.623 202.753L173.372 206.064L177.073 208.819Z" fill="#263238"/>
<path d="M171.704 175.237L171.079 166.104C171.079 166.104 172.153 166.698 176.127 168.049C178.673 168.914 182.098 167.387 181.335 169.038C180.091 171.728 177.075 176.202 177.075 176.202L171.704 175.237Z" fill="#E8BFBF"/>
<path d="M171.078 166.103L174.973 156.951L180.088 160.083C181.498 163.141 181.332 169.037 181.332 169.037C181.332 169.037 174.243 169.358 171.078 166.103Z" fill="#E8BFBF"/>
<path d="M137.311 159.056C137.444 159.711 137.909 160.166 138.336 160.071C138.763 159.976 138.991 159.378 138.848 158.724C138.706 158.069 138.25 157.623 137.823 157.718C137.397 157.813 137.169 158.439 137.311 159.056Z" fill="#263238"/>
<path d="M124.625 283.299L121.538 238.26C121.093 231.9 117.997 226.599 113.697 224.087C110.984 221.951 107.713 220.623 104.19 220.402C103.824 220.363 103.457 220.354 103.091 220.354C100.23 220.354 97.5179 221.076 95.1099 222.384C95.0309 222.413 94.9619 222.461 94.8829 222.5C92.3879 223.876 90.2169 225.848 88.5239 228.273L88.5149 228.283C86.1429 231.699 84.7209 235.971 84.7209 240.618C84.7209 250.625 91.3059 258.957 99.9589 260.583L103.299 309.307C103.587 313.454 106.308 316.629 109.579 316.629H126.352L124.625 283.299Z" fill="#407BFF"/>
<path opacity="0.1" d="M124.625 283.299L121.538 238.26C121.093 231.9 117.997 226.599 113.697 224.087C110.984 221.951 107.713 220.623 104.19 220.402C103.824 220.363 103.457 220.354 103.091 220.354C100.23 220.354 97.5179 221.076 95.1099 222.384C95.0309 222.413 94.9619 222.461 94.8829 222.5C92.3879 223.876 90.2169 225.848 88.5239 228.273L88.5149 228.283C86.1429 231.699 84.7209 235.971 84.7209 240.618C84.7209 250.625 91.3059 258.957 99.9589 260.583L103.299 309.307C103.587 313.454 106.308 316.629 109.579 316.629H126.352L124.625 283.299Z" fill="white"/>
<path d="M244.161 365.515C262.686 365.515 277.703 361.675 277.703 356.937C277.703 352.2 262.686 348.359 244.161 348.359C225.636 348.359 210.619 352.2 210.619 356.937C210.619 361.675 225.636 365.515 244.161 365.515Z" fill="#263238"/>
<path opacity="0.3" d="M244.161 362.663C262.686 362.663 277.703 359.461 277.703 355.51C277.703 351.56 262.686 348.357 244.161 348.357C225.636 348.357 210.619 351.56 210.619 355.51C210.619 359.461 225.636 362.663 244.161 362.663Z" fill="white"/>
<path d="M246.929 355.502H241.394L234.989 286.48H253.333L246.929 355.502Z" fill="#263238"/>
<path d="M253.333 286.48C253.333 288.49 249.227 290.12 244.161 290.12C239.095 290.12 234.989 288.49 234.989 286.48C234.989 284.47 239.096 282.84 244.161 282.84C249.227 282.84 253.333 284.469 253.333 286.48Z" fill="#263238"/>
<path opacity="0.7" d="M253.333 286.48C253.333 288.49 249.227 290.12 244.161 290.12C239.095 290.12 234.989 288.49 234.989 286.48C234.989 284.47 239.096 282.84 244.161 282.84C249.227 282.84 253.333 284.469 253.333 286.48Z" fill="white"/>
<path opacity="0.7" d="M132.04 287.558C132.04 286.828 132.4 286.108 133.11 285.398C140.86 293.198 190.03 299.208 249.53 299.208C309.03 299.208 358.2 293.198 365.96 285.398C366.67 286.108 367.03 286.828 367.03 287.558C367.03 296.368 314.42 303.518 249.53 303.518C184.64 303.518 132.04 296.368 132.04 287.558Z" fill="white"/>
<path opacity="0.7" d="M133.11 289.55C140.86 281.75 190.03 275.75 249.53 275.75C309.03 275.75 358.2 281.75 365.96 289.55C358.2 297.35 309.03 303.36 249.53 303.36C190.03 303.36 140.86 297.35 133.11 289.55Z" fill="white"/>
<path opacity="0.7" d="M132.04 287.249C132.04 278.429 184.64 271.289 249.53 271.289C314.42 271.289 367.03 278.429 367.03 287.249C367.03 287.979 366.67 288.699 365.96 289.399C358.2 281.599 309.03 275.599 249.53 275.599C190.03 275.599 140.86 281.599 133.11 289.399C132.4 288.699 132.04 287.979 132.04 287.249Z" fill="white"/>
<path d="M294.849 279.478L245.693 278.551C245.185 278.541 244.781 278.039 244.795 277.434C244.809 276.829 245.236 276.342 245.744 276.352L294.9 277.279C295.408 277.289 295.812 277.791 295.798 278.396C295.784 279.001 295.357 279.488 294.849 279.478Z" fill="#263238"/>
<path opacity="0.2" d="M294.849 279.478L245.693 278.551C245.185 278.541 244.781 278.039 244.795 277.434C244.809 276.829 245.236 276.342 245.744 276.352L294.9 277.279C295.408 277.289 295.812 277.791 295.798 278.396C295.784 279.001 295.357 279.488 294.849 279.478Z" fill="white"/>
<path d="M318.725 275.891L295.223 279.443C294.718 279.519 294.257 279.091 294.2 278.49C294.142 277.89 294.508 277.337 295.012 277.261L318.515 273.708C319.02 273.632 319.48 274.06 319.538 274.66C319.595 275.261 319.23 275.814 318.725 275.891Z" fill="#263238"/>
<path d="M318.515 273.707H268.829L245.744 276.35L293.561 277.252L318.515 273.707Z" fill="#263238"/>
<path opacity="0.6" d="M318.515 273.707H268.829L245.744 276.35L293.561 277.252L318.515 273.707Z" fill="white"/>
<path opacity="0.5" d="M318.725 275.891L295.223 279.443C294.718 279.519 294.257 279.091 294.2 278.49C294.142 277.89 294.508 277.337 295.012 277.261L318.515 273.708C319.02 273.632 319.48 274.06 319.538 274.66C319.595 275.261 319.23 275.814 318.725 275.891Z" fill="white"/>
<path d="M293.561 277.253L247.725 276.388C246.107 276.358 244.705 274.755 244.609 272.826L243.227 245.153C243.131 243.224 244.375 241.671 245.993 241.702L291.829 242.567C293.447 242.598 294.849 244.201 294.945 246.129L296.326 273.802C296.423 275.73 295.178 277.283 293.561 277.253Z" fill="#407BFF"/>
<path opacity="0.2" d="M293.561 277.253L247.725 276.388C246.107 276.358 244.705 274.755 244.609 272.826L243.227 245.153C243.131 243.224 244.375 241.671 245.993 241.702L291.829 242.567C293.447 242.598 294.849 244.201 294.945 246.129L296.326 273.802C296.423 275.73 295.178 277.283 293.561 277.253Z" fill="white"/>
<path d="M292.215 277.108L246.379 276.243C244.761 276.213 243.359 274.61 243.263 272.681L241.882 245.008C241.786 243.079 243.03 241.526 244.648 241.557L290.484 242.422C292.102 242.452 293.504 244.055 293.6 245.984L294.982 273.657C295.077 275.585 293.833 277.138 292.215 277.108Z" fill="#407BFF"/>
<path opacity="0.6" d="M292.215 277.108L246.379 276.243C244.761 276.213 243.359 274.61 243.263 272.681L241.882 245.008C241.786 243.079 243.03 241.526 244.648 241.557L290.484 242.422C292.102 242.452 293.504 244.055 293.6 245.984L294.982 273.657C295.077 275.585 293.833 277.138 292.215 277.108Z" fill="white"/>
<path d="M262.356 258.875C262.591 261.562 264.96 263.74 267.646 263.74C270.333 263.74 272.32 261.562 272.085 258.875C271.85 256.188 269.481 254.01 266.795 254.01C264.109 254.011 262.121 256.189 262.356 258.875Z" fill="white"/>
</svg>
