<svg width="1176" height="608" viewBox="0 0 1176 608" fill="none" xmlns="http://www.w3.org/2000/svg">
<path d="M89.6287 607.197C89.6287 607.197 -45.1104 462.53 66.8421 305.907C166.174 166.941 281.985 176.44 366.954 232.834C403.143 256.853 507.481 235.794 596.286 94.3908C717.391 -98.4448 1137.19 18.5103 1060.64 315.193C1023.6 458.767 1173.37 463.985 1097.06 607.501L89.6287 607.197Z" fill="#EBF3FA"/>
<path d="M348.383 327.521C348.383 327.521 281.726 232.64 255.677 244.94C229.627 257.24 348.383 327.521 348.383 327.521Z" fill="#A8D29F"/>
<path d="M344.144 302.025C344.144 302.025 333.962 230.684 317.911 233.483C301.86 236.282 344.144 302.025 344.144 302.025Z" fill="#A8D29F"/>
<path d="M287.789 524.385C287.789 524.385 294.196 492.64 269.314 488.651C269.314 488.651 252.438 488.062 242.502 494.427C242.502 494.427 270.722 510.719 267.366 515.783C264.01 520.847 237.229 495.361 237.229 495.361C237.229 495.361 206.977 508.612 200.225 518.208C200.225 518.208 235.974 524.578 231.475 528.659C226.976 532.741 189.468 527.84 189.468 527.84C189.468 527.84 165.297 547.308 175.825 562.806C186.352 578.304 198.366 578.194 202.169 575.501C205.972 572.808 224.588 550.555 226.955 553.582C229.322 556.608 221.13 575.397 211.439 581.476C211.439 581.476 241.872 591.723 251.039 578.737C260.205 565.752 255.966 555.655 261.777 547.732C267.587 539.811 274.252 536.099 273.061 541.533C271.871 546.966 259.725 558.386 259.672 568.77C259.62 579.155 258.59 586.714 270.45 577.531C282.31 568.349 298.064 547.116 292.926 535.75C287.789 524.385 287.789 524.385 287.789 524.385Z" fill="#82B378"/>
<path d="M189.194 555.912C189.194 555.912 260.178 512.587 287.789 524.383C287.789 524.383 297.261 533.015 313.562 536.587L317.849 540.269C317.849 540.269 297.873 534.038 292.927 535.749C292.927 535.749 285.601 506.115 189.194 555.912Z" fill="#82B378"/>
<path d="M313.562 536.586C313.562 536.586 335.567 539.402 348.144 559.374L345.46 561.206C345.46 561.206 328.6 542.709 314.963 539.411C301.326 536.113 313.562 536.586 313.562 536.586Z" fill="#82B378"/>
<path d="M309.517 431.758C309.517 431.758 361.062 402.893 337.008 363.719C337.008 363.719 317.764 339.664 297.146 333.479C297.146 333.479 308.143 391.896 297.146 393.271C286.15 394.645 289.587 327.293 289.587 327.293C289.587 327.293 235.293 301.177 213.988 303.239C213.988 303.239 247.664 360.282 236.668 358.907C225.671 357.532 187.872 299.802 187.872 299.802C187.872 299.802 132.204 289.493 123.269 322.482C114.335 355.471 128.767 371.965 137.014 374.027C145.262 376.088 198.181 375.401 196.806 382.274C195.431 389.147 159.694 400.143 139.763 393.957C139.763 393.957 161.756 448.251 190.621 445.502C219.486 442.753 228.42 424.884 246.289 423.509C264.158 422.135 277.216 426.946 268.282 431.757C259.347 436.568 229.107 433.333 214.675 445.603C200.242 457.873 188.559 465.433 215.362 470.931C242.165 476.429 290.274 472.992 299.896 452.375C309.517 431.758 309.517 431.758 309.517 431.758Z" fill="#A8D29F"/>
<path d="M148.698 332.791C148.698 332.791 293.023 379.525 309.517 431.757C309.517 431.757 308.83 455.124 323.263 481.927V492.236C323.263 492.236 308.143 457.185 299.896 452.374C299.896 452.374 332.197 407.016 148.698 332.791Z" fill="#82B378"/>
<path d="M323.262 481.927C323.262 481.927 345.52 515.726 332.831 556.869L327.105 555.331C327.105 555.331 332.663 510.015 321.018 487.224C309.374 464.432 323.262 481.927 323.262 481.927Z" fill="#82B378"/>
<path d="M361.904 190.254L284.784 588.959C283.215 597.068 289.427 604.597 297.687 604.597H338.361L361.904 190.254Z" fill="#ED7D2B"/>
<path d="M874.548 304.387C874.548 304.387 839.858 282.257 858.148 255.977C858.148 255.977 872.49 240.019 887.073 236.541C887.073 236.541 877.096 276.723 884.687 278.118C892.278 279.513 892.578 232.542 892.578 232.542C892.578 232.542 931.374 216.549 946.107 218.833C946.107 218.833 920.413 257.154 928.114 256.638C935.815 256.121 964.404 217.486 964.404 217.486C964.404 217.486 1003.53 212.54 1008.42 235.836C1013.32 259.132 1002.62 270.025 996.806 271.13C990.988 272.234 954.218 269.644 954.899 274.478C955.581 279.312 979.992 288.385 994.099 284.879C994.099 284.879 976.638 321.756 956.676 318.692C936.715 315.628 931.215 302.845 918.844 301.176C906.474 299.507 897.202 302.331 903.223 306.033C909.243 309.735 930.4 308.693 939.946 317.802C949.492 326.909 957.315 332.633 938.457 335.386C919.599 338.139 886.284 333.83 880.416 319.108C874.548 304.387 874.548 304.387 874.548 304.387Z" fill="#C7DCFB"/>
<path d="M990.327 241.99C990.327 241.99 888.103 268.726 874.548 304.388C874.548 304.388 874.093 320.664 862.987 338.726L862.576 345.894C862.576 345.894 874.489 322.124 880.416 319.109C880.416 319.109 859.765 286.278 990.327 241.99Z" fill="#C7DCFB"/>
<path d="M862.987 338.725C862.987 338.725 846.161 361.339 853.342 390.455L857.385 389.614C857.385 389.614 855.329 357.881 864.336 342.497C873.343 327.113 862.987 338.725 862.987 338.725Z" fill="#C7DCFB"/>
<path d="M781.146 208.334C781.146 208.334 727.847 196.63 738.614 155.556C738.614 155.556 749.179 129.136 765.747 118.143C765.747 118.143 771.68 172.729 781.769 170.998C791.858 169.266 770.773 110.649 770.773 110.649C770.773 110.649 811.769 73.0149 831.155 69.1284C831.155 69.1284 816.671 128.577 826.023 124.415C835.375 120.254 853.32 59.0927 853.32 59.0927C853.32 59.0927 899.767 35.0625 916.505 61.83C933.242 88.5975 924.904 107.045 918.166 111.078C911.428 115.11 864.465 128.683 867.521 134.39C870.578 140.097 905.116 140.241 921.077 129.433C921.077 129.433 916.184 183.321 889.931 188.625C863.679 193.93 850.992 180.528 834.828 184.101C818.665 187.674 808.411 195.426 817.598 197.285C826.785 199.144 852.649 188.181 868.696 195.16C884.741 202.139 897.095 205.691 874.874 217.734C852.655 229.776 809.207 239.63 795.176 223.982C781.146 208.334 781.146 208.334 781.146 208.334Z" fill="#DFEBFD"/>
<path d="M896.789 77.7578C896.789 77.7578 781.731 157.744 781.147 208.335C781.147 208.335 788.016 228.807 782.44 256.368L785.203 265.48C785.203 265.48 789.176 230.445 795.178 223.982C795.177 223.983 754.468 192.542 896.789 77.7578Z" fill="#DFEBFD"/>
<path d="M782.44 256.368C782.44 256.368 771.822 292.209 794.063 325.179L798.713 322.285C798.713 322.285 781.656 283.716 785.843 260.448C790.029 237.18 782.44 256.368 782.44 256.368Z" fill="#DFEBFD"/>
<path d="M362.831 188.64L311.714 580.106C310.019 593.087 320.124 604.598 333.215 604.598H408.204L365.924 187.227L362.831 188.64Z" fill="#78ACEA"/>
<path d="M362.831 188.641L339.948 577.61C339.087 592.251 350.728 604.597 365.395 604.597H477.234L362.831 188.641Z" fill="#699DEE"/>
<path d="M361.973 191.816L373.099 577.611C372.237 592.252 383.879 604.598 398.545 604.598H510.384L361.973 191.816Z" fill="#5288D8"/>
<path d="M897.439 604.598H456.462C445.452 604.598 436.014 596.729 434.034 585.899L366.933 218.946C363.886 202.286 376.683 186.938 393.619 186.938H829.404C840.414 186.938 849.852 194.805 851.832 205.636L919.867 577.696C922.427 591.699 911.673 604.598 897.439 604.598Z" fill="#D7E9FF"/>
<path d="M375.662 266.602H863.287L850.784 197.32C849.699 191.309 844.467 186.938 838.359 186.938H366.039C363.458 186.938 361.508 189.277 361.973 191.816L375.662 266.602Z" fill="#F99746"/>
<path d="M387.064 166.086C375.405 166.086 365.923 175.564 365.923 187.222H369.984C369.984 177.804 377.645 170.143 387.064 170.143C396.483 170.143 404.149 177.804 404.149 187.222C404.149 189.114 403.841 190.931 403.27 192.629C401.592 197.649 397.644 201.636 392.65 203.364C391.19 203.87 389.646 204.188 388.037 204.278V208.339C389.914 208.255 391.721 207.927 393.439 207.381C400.296 205.211 405.653 199.625 407.505 192.629C407.962 190.902 408.205 189.089 408.205 187.222C408.205 175.564 398.721 166.086 387.064 166.086Z" fill="#78ACEA"/>
<path d="M393.602 206.16C393.602 206.582 393.543 206.994 393.439 207.381C392.902 209.318 391.13 210.737 389.025 210.737C386.498 210.737 384.447 208.687 384.447 206.16C384.447 203.632 386.498 201.582 389.025 201.582C390.499 201.582 391.81 202.282 392.65 203.365C393.25 204.139 393.602 205.107 393.602 206.16Z" fill="#78ACEA"/>
<path d="M462.861 166.086C451.203 166.086 441.719 175.564 441.719 187.222H445.776C445.776 177.804 453.442 170.143 462.861 170.143C472.279 170.143 479.94 177.804 479.94 187.222C479.94 189.114 479.633 190.931 479.061 192.629C477.383 197.649 473.436 201.636 468.446 203.364C466.986 203.87 465.438 204.188 463.829 204.278V208.339C465.705 208.255 467.513 207.927 469.23 207.381C476.092 205.211 481.449 199.625 483.301 192.629C483.758 190.902 484.001 189.089 484.001 187.222C484.002 175.564 474.519 166.086 462.861 166.086Z" fill="#78ACEA"/>
<path d="M469.394 206.16C469.394 206.582 469.335 206.994 469.231 207.381C468.694 209.318 466.927 210.737 464.817 210.737C462.29 210.737 460.239 208.687 460.239 206.16C460.239 203.632 462.29 201.582 464.817 201.582C466.296 201.582 467.607 202.282 468.446 203.365C469.042 204.139 469.394 205.107 469.394 206.16Z" fill="#78ACEA"/>
<path d="M538.658 166.086C526.999 166.086 517.516 175.564 517.516 187.222H521.573C521.573 177.804 529.234 170.143 538.658 170.143C548.077 170.143 555.738 177.804 555.738 187.222C555.738 189.114 555.43 190.931 554.859 192.629C553.181 197.649 549.233 201.636 544.243 203.364C542.783 203.87 541.234 204.188 539.625 204.278V208.339C541.498 208.255 543.31 207.927 545.027 207.381C551.889 205.206 557.241 199.625 559.094 192.629C559.55 190.902 559.793 189.089 559.793 187.222C559.794 175.564 550.311 166.086 538.658 166.086Z" fill="#78ACEA"/>
<path d="M545.191 206.16C545.191 206.582 545.132 206.994 545.028 207.381C544.492 209.318 542.719 210.737 540.614 210.737C538.087 210.737 536.036 208.687 536.036 206.16C536.036 203.632 538.087 201.582 540.614 201.582C542.089 201.582 543.399 202.282 544.243 203.365C544.839 204.139 545.191 205.107 545.191 206.16Z" fill="#78ACEA"/>
<path d="M614.45 166.086C602.792 166.086 593.313 175.564 593.313 187.222H597.37C597.37 177.804 605.03 170.143 614.45 170.143C623.868 170.143 631.534 177.804 631.534 187.222C631.534 189.114 631.226 190.931 630.655 192.629C628.977 197.649 625.03 201.636 620.035 203.364C618.575 203.87 617.031 204.188 615.423 204.278V208.339C617.294 208.255 619.107 207.927 620.825 207.381C627.686 205.206 633.039 199.625 634.891 192.629C635.348 190.902 635.591 189.089 635.591 187.222C635.591 175.564 626.108 166.086 614.45 166.086Z" fill="#78ACEA"/>
<path d="M620.989 206.16C620.989 206.582 620.929 206.994 620.825 207.381C620.289 209.318 618.516 210.737 616.411 210.737C613.883 210.737 611.833 208.687 611.833 206.16C611.833 203.632 613.884 201.582 616.411 201.582C617.885 201.582 619.196 202.282 620.036 203.365C620.636 204.139 620.989 205.107 620.989 206.16Z" fill="#78ACEA"/>
<path d="M690.247 166.086C678.589 166.086 669.105 175.564 669.105 187.222H673.162C673.162 177.804 680.828 170.143 690.246 170.143C699.665 170.143 707.326 177.804 707.326 187.222C707.326 189.114 707.018 190.931 706.447 192.629C704.769 197.649 700.822 201.636 695.827 203.364C694.372 203.87 692.823 204.188 691.215 204.278V208.339C693.091 208.255 694.899 207.927 696.617 207.381C703.478 205.211 708.836 199.625 710.688 192.629C711.145 190.902 711.388 189.089 711.388 187.222C711.388 175.564 701.905 166.086 690.247 166.086Z" fill="#78ACEA"/>
<path d="M696.781 206.16C696.781 206.582 696.721 206.994 696.617 207.381C696.081 209.318 694.313 210.737 692.203 210.737C689.676 210.737 687.625 208.687 687.625 206.16C687.625 203.632 689.676 201.582 692.203 201.582C693.683 201.582 694.993 202.282 695.828 203.365C696.428 204.139 696.781 205.107 696.781 206.16Z" fill="#78ACEA"/>
<path d="M766.044 166.086C754.386 166.086 744.902 175.564 744.902 187.222H748.959C748.959 177.804 756.62 170.143 766.043 170.143C775.462 170.143 783.124 177.804 783.124 187.222C783.124 189.114 782.816 190.931 782.244 192.629C780.567 197.649 776.619 201.636 771.624 203.364C770.17 203.87 768.621 204.188 767.012 204.278V208.339C768.888 208.255 770.696 207.927 772.414 207.381C779.271 205.211 784.628 199.625 786.48 192.629C786.937 190.902 787.179 189.089 787.179 187.222C787.18 175.564 777.697 166.086 766.044 166.086Z" fill="#78ACEA"/>
<path d="M772.578 206.16C772.578 206.582 772.518 206.994 772.414 207.381C771.878 209.318 770.105 210.737 768 210.737C765.473 210.737 763.423 208.687 763.423 206.16C763.423 203.632 765.473 201.582 768 201.582C769.475 201.582 770.785 202.282 771.624 203.365C772.226 204.139 772.578 205.107 772.578 206.16Z" fill="#78ACEA"/>
<path d="M841.836 166.086C830.178 166.086 820.699 175.564 820.699 187.222H824.756C824.756 177.804 832.417 170.143 841.836 170.143C851.255 170.143 858.921 177.804 858.921 187.222C858.921 189.114 858.613 190.931 858.041 192.629C856.364 197.649 852.416 201.636 847.421 203.364C845.962 203.87 844.418 204.188 842.809 204.278V208.339C844.686 208.255 846.493 207.927 848.211 207.381C855.068 205.211 860.425 199.625 862.277 192.629C862.734 190.902 862.977 189.089 862.977 187.222C862.977 175.564 853.494 166.086 841.836 166.086Z" fill="#78ACEA"/>
<path d="M848.375 206.16C848.375 206.582 848.315 206.994 848.211 207.381C847.675 209.318 845.902 210.737 843.797 210.737C841.27 210.737 839.22 208.687 839.22 206.16C839.22 203.632 841.27 201.582 843.797 201.582C845.272 201.582 846.583 202.282 847.422 203.365C848.022 204.139 848.375 205.107 848.375 206.16Z" fill="#78ACEA"/>
<path d="M657.651 396.758H633.001C630.151 396.758 627.37 394.427 626.82 391.577L622.065 366.927C621.515 364.078 623.397 361.746 626.247 361.746H650.897C653.747 361.746 656.528 364.078 657.077 366.927L661.833 391.577C662.382 394.427 660.501 396.758 657.651 396.758Z" fill="#AFCDFB"/>
<path d="M719.853 396.758H695.203C692.353 396.758 689.572 394.427 689.022 391.577L684.267 366.927C683.717 364.078 685.599 361.746 688.449 361.746H713.099C715.949 361.746 718.73 364.078 719.28 366.927L724.034 391.577C724.584 394.427 722.703 396.758 719.853 396.758Z" fill="#AFCDFB"/>
<path d="M782.055 396.758H757.405C754.555 396.758 751.774 394.427 751.225 391.577L746.469 366.927C745.92 364.078 747.802 361.746 750.651 361.746H775.301C778.151 361.746 780.932 364.078 781.481 366.927L786.237 391.577C786.786 394.427 784.905 396.758 782.055 396.758Z" fill="#78ACEA"/>
<path d="M471.044 396.758H446.394C443.545 396.758 440.763 394.427 440.214 391.577L435.458 366.927C434.909 364.078 436.791 361.746 439.64 361.746H464.29C467.14 361.746 469.921 364.078 470.471 366.927L475.226 391.577C475.776 394.427 473.894 396.758 471.044 396.758Z" fill="#AFCDFB"/>
<path d="M444.028 322.753H433.435C432.211 322.753 431.015 321.752 430.779 320.527L428.736 309.934C428.499 308.709 429.308 307.707 430.532 307.707H441.125C442.35 307.707 443.545 308.709 443.781 309.934L445.825 320.527C446.061 321.752 445.252 322.753 444.028 322.753Z" fill="#F99746"/>
<path d="M533.246 396.758H508.596C505.747 396.758 502.966 394.427 502.416 391.577L497.661 366.927C497.111 364.078 498.993 361.746 501.843 361.746H526.493C529.342 361.746 532.123 364.078 532.673 366.927L537.428 391.577C537.978 394.427 536.096 396.758 533.246 396.758Z" fill="#AFCDFB"/>
<path d="M595.449 396.758H570.799C567.949 396.758 565.168 394.427 564.618 391.577L559.863 366.927C559.313 364.078 561.195 361.746 564.045 361.746H588.695C591.545 361.746 594.326 364.078 594.875 366.927L599.631 391.577C600.18 394.427 598.298 396.758 595.449 396.758Z" fill="#AFCDFB"/>
<path d="M844.257 396.758H819.607C816.757 396.758 813.977 394.427 813.427 391.577L808.672 366.927C808.122 364.078 810.004 361.746 812.853 361.746H837.503C840.353 361.746 843.134 364.078 843.684 366.927L848.439 391.577C848.989 394.427 847.107 396.758 844.257 396.758Z" fill="#78ACEA"/>
<path d="M647.323 343.221H622.673C619.824 343.221 617.043 340.89 616.493 338.04L611.738 313.39C611.188 310.54 613.07 308.209 615.919 308.209H640.57C643.419 308.209 646.2 310.54 646.75 313.39L651.505 338.04C652.055 340.89 650.173 343.221 647.323 343.221Z" fill="#AFCDFB"/>
<path d="M709.526 343.221H684.876C682.026 343.221 679.245 340.89 678.695 338.04L673.94 313.39C673.39 310.54 675.272 308.209 678.121 308.209H702.771C705.621 308.209 708.402 310.54 708.952 313.39L713.707 338.04C714.257 340.89 712.375 343.221 709.526 343.221Z" fill="#AFCDFB"/>
<path d="M771.728 343.221H747.078C744.228 343.221 741.447 340.89 740.897 338.04L736.142 313.39C735.592 310.54 737.475 308.209 740.324 308.209H764.974C767.823 308.209 770.604 310.54 771.154 313.39L775.909 338.04C776.459 340.89 774.577 343.221 771.728 343.221Z" fill="#78ACEA"/>
<path d="M833.93 343.221H809.28C806.43 343.221 803.649 340.89 803.099 338.04L798.344 313.39C797.794 310.54 799.676 308.209 802.526 308.209H827.176C830.025 308.209 832.807 310.54 833.356 313.39L838.112 338.04C838.661 340.89 836.78 343.221 833.93 343.221Z" fill="#78ACEA"/>
<path d="M668.597 453.503H643.946C641.097 453.503 638.316 451.171 637.766 448.322L633.011 423.671C632.461 420.822 634.343 418.49 637.192 418.49H661.842C664.692 418.49 667.473 420.822 668.023 423.671L672.778 448.322C673.328 451.171 671.446 453.503 668.597 453.503Z" fill="#AFCDFB"/>
<path d="M730.799 453.503H706.149C703.299 453.503 700.518 451.171 699.968 448.322L695.213 423.671C694.663 420.822 696.545 418.49 699.395 418.49H724.045C726.895 418.49 729.676 420.822 730.225 423.671L734.98 448.322C735.53 451.171 733.649 453.503 730.799 453.503Z" fill="#AFCDFB"/>
<path d="M793.001 453.503H768.351C765.501 453.503 762.72 451.171 762.17 448.322L757.415 423.671C756.865 420.822 758.747 418.49 761.597 418.49H786.247C789.096 418.49 791.878 420.822 792.427 423.671L797.183 448.322C797.732 451.171 795.851 453.503 793.001 453.503Z" fill="#78ACEA"/>
<path d="M481.99 453.503H457.34C454.491 453.503 451.709 451.171 451.16 448.322L446.405 423.671C445.855 420.822 447.737 418.49 450.586 418.49H475.236C478.086 418.49 480.867 420.822 481.417 423.671L486.172 448.322C486.721 451.171 484.84 453.503 481.99 453.503Z" fill="#AFCDFB"/>
<path d="M544.192 453.503H519.542C516.693 453.503 513.911 451.171 513.362 448.322L508.606 423.671C508.057 420.822 509.939 418.49 512.788 418.49H537.438C540.288 418.49 543.069 420.822 543.619 423.671L548.374 448.322C548.924 451.171 547.042 453.503 544.192 453.503Z" fill="#AFCDFB"/>
<path d="M606.395 453.503H581.745C578.895 453.503 576.114 451.171 575.564 448.322L570.809 423.671C570.259 420.822 572.141 418.49 574.99 418.49H599.641C602.49 418.49 605.271 420.822 605.821 423.671L610.576 448.322C611.126 451.171 609.245 453.503 606.395 453.503Z" fill="#AFCDFB"/>
<path d="M855.203 453.503H830.553C827.703 453.503 824.922 451.171 824.373 448.322L819.617 423.671C819.068 420.822 820.95 418.49 823.799 418.49H848.449C851.299 418.49 854.08 420.822 854.63 423.671L859.385 448.322C859.934 451.171 858.053 453.503 855.203 453.503Z" fill="#78ACEA"/>
<path d="M679.543 510.246H654.892C652.043 510.246 649.262 507.915 648.712 505.065L643.957 480.415C643.407 477.566 645.289 475.234 648.138 475.234H672.789C675.638 475.234 678.419 477.566 678.969 480.415L683.724 505.065C684.274 507.915 682.392 510.246 679.543 510.246Z" fill="#AFCDFB"/>
<path d="M741.745 510.246H717.095C714.245 510.246 711.463 507.915 710.914 505.065L706.159 480.415C705.609 477.566 707.491 475.234 710.34 475.234H734.99C737.84 475.234 740.621 477.566 741.171 480.415L745.926 505.065C746.476 507.915 744.594 510.246 741.745 510.246Z" fill="#AFCDFB"/>
<path d="M803.947 510.246H779.297C776.447 510.246 773.666 507.915 773.116 505.065L768.361 480.415C767.811 477.566 769.693 475.234 772.543 475.234H797.193C800.043 475.234 802.823 477.566 803.373 480.415L808.128 505.065C808.678 507.915 806.797 510.246 803.947 510.246Z" fill="#78ACEA"/>
<path d="M492.936 510.246H468.286C465.437 510.246 462.655 507.915 462.105 505.065L457.35 480.415C456.801 477.566 458.683 475.234 461.532 475.234H486.182C489.032 475.234 491.813 477.566 492.362 480.415L497.118 505.065C497.667 507.915 495.786 510.246 492.936 510.246Z" fill="#AFCDFB"/>
<path d="M555.138 510.246H530.488C527.639 510.246 524.858 507.915 524.308 505.065L519.553 480.415C519.003 477.566 520.885 475.234 523.734 475.234H548.384C551.234 475.234 554.015 477.566 554.565 480.415L559.32 505.065C559.869 507.915 557.988 510.246 555.138 510.246Z" fill="#F99746"/>
<path d="M617.34 510.246H592.69C589.84 510.246 587.059 507.915 586.51 505.065L581.754 480.415C581.205 477.566 583.087 475.234 585.936 475.234H610.586C613.436 475.234 616.217 477.566 616.767 480.415L621.522 505.065C622.072 507.915 620.19 510.246 617.34 510.246Z" fill="#AFCDFB"/>
<path d="M866.149 510.246H841.499C838.649 510.246 835.868 507.915 835.318 505.065L830.563 480.415C830.013 477.566 831.895 475.234 834.744 475.234H859.395C862.245 475.234 865.026 477.566 865.575 480.415L870.331 505.065C870.88 507.915 868.999 510.246 866.149 510.246Z" fill="#78ACEA"/>
<path d="M689.87 563.786H665.22C662.37 563.786 659.589 561.454 659.04 558.605L654.284 533.954C653.735 531.105 655.617 528.773 658.466 528.773H683.116C685.966 528.773 688.747 531.105 689.297 533.954L694.052 558.605C694.601 561.454 692.72 563.786 689.87 563.786Z" fill="#AFCDFB"/>
<path d="M752.072 563.786H727.422C724.572 563.786 721.792 561.454 721.242 558.605L716.487 533.954C715.937 531.105 717.819 528.773 720.668 528.773H745.318C748.168 528.773 750.949 531.105 751.499 533.954L756.254 558.605C756.804 561.454 754.922 563.786 752.072 563.786Z" fill="#AFCDFB"/>
<path d="M814.274 563.786H789.624C786.774 563.786 783.993 561.454 783.444 558.605L778.688 533.954C778.139 531.105 780.021 528.773 782.87 528.773H807.52C810.37 528.773 813.151 531.105 813.701 533.954L818.456 558.605C819.005 561.454 817.124 563.786 814.274 563.786Z" fill="#78ACEA"/>
<path d="M503.264 563.786H478.614C475.764 563.786 472.983 561.454 472.433 558.605L467.678 533.954C467.128 531.105 469.01 528.773 471.859 528.773H496.509C499.359 528.773 502.14 531.105 502.69 533.954L507.445 558.605C507.995 561.454 506.113 563.786 503.264 563.786Z" fill="#AFCDFB"/>
<path d="M565.466 563.786H540.816C537.966 563.786 535.185 561.454 534.635 558.605L529.88 533.954C529.33 531.105 531.212 528.773 534.062 528.773H558.712C561.562 528.773 564.343 531.105 564.893 533.954L569.648 558.605C570.197 561.454 568.315 563.786 565.466 563.786Z" fill="#AFCDFB"/>
<path d="M627.668 563.786H603.018C600.168 563.786 597.387 561.454 596.837 558.605L592.082 533.954C591.532 531.105 593.414 528.773 596.264 528.773H620.914C623.763 528.773 626.545 531.105 627.094 533.954L631.85 558.605C632.399 561.454 630.517 563.786 627.668 563.786Z" fill="#AFCDFB"/>
<path d="M518.74 313.027H453.436C452.474 313.027 451.686 312.239 451.686 311.277C451.686 310.315 452.474 309.527 453.436 309.527H518.74C519.702 309.527 520.49 310.315 520.49 311.277C520.49 312.239 519.703 313.027 518.74 313.027Z" fill="#AFCDFB"/>
<path d="M520.726 320.935H455.422C454.459 320.935 453.672 320.147 453.672 319.185C453.672 318.223 454.459 317.436 455.422 317.436H520.726C521.688 317.436 522.476 318.223 522.476 319.185C522.476 320.148 521.689 320.935 520.726 320.935Z" fill="#AFCDFB"/>
<path d="M448.701 254.132H426.291C424.455 254.132 422.953 252.63 422.953 250.795C422.953 248.959 424.455 247.457 426.291 247.457H448.701C450.536 247.457 452.038 248.959 452.038 250.795C452.038 252.63 450.536 254.132 448.701 254.132Z" fill="white"/>
<path d="M510.192 254.132H487.782C485.946 254.132 484.445 252.63 484.445 250.795C484.445 248.959 485.947 247.457 487.782 247.457H510.192C512.028 247.457 513.53 248.959 513.53 250.795C513.53 252.63 512.028 254.132 510.192 254.132Z" fill="white"/>
<path d="M571.684 254.132H549.274C547.438 254.132 545.936 252.63 545.936 250.795C545.936 248.959 547.438 247.457 549.274 247.457H571.684C573.519 247.457 575.021 248.959 575.021 250.795C575.021 252.63 573.519 254.132 571.684 254.132Z" fill="white"/>
<path d="M633.175 254.132H610.765C608.929 254.132 607.427 252.63 607.427 250.795C607.427 248.959 608.929 247.457 610.765 247.457H633.175C635.01 247.457 636.512 248.959 636.512 250.795C636.512 252.63 635.01 254.132 633.175 254.132Z" fill="white"/>
<path d="M694.666 254.132H672.256C670.42 254.132 668.919 252.63 668.919 250.795C668.919 248.959 670.42 247.457 672.256 247.457H694.666C696.502 247.457 698.004 248.959 698.004 250.795C698.004 252.63 696.502 254.132 694.666 254.132Z" fill="white"/>
<path d="M756.157 254.132H733.747C731.912 254.132 730.41 252.63 730.41 250.795C730.41 248.959 731.912 247.457 733.747 247.457H756.157C757.993 247.457 759.495 248.959 759.495 250.795C759.495 252.63 757.993 254.132 756.157 254.132Z" fill="white"/>
<path d="M817.649 254.132H795.239C793.403 254.132 791.901 252.63 791.901 250.795C791.901 248.959 793.403 247.457 795.239 247.457H817.649C819.484 247.457 820.986 248.959 820.986 250.795C820.986 252.63 819.484 254.132 817.649 254.132Z" fill="white"/>
<path d="M675.916 343.705C670.967 343.705 667.364 342.134 665.4 339.086C661.634 333.241 664.541 325.047 674.04 314.731C680.978 307.199 689.079 301.229 689.161 301.17C689.478 300.936 689.927 301.005 690.16 301.324C690.394 301.642 690.325 302.09 690.006 302.323C689.69 302.556 658.462 325.677 666.602 338.311C669.181 342.314 674.701 342.579 678.883 342.095C686.619 341.2 696.708 337.033 705.868 330.949C715.35 324.651 722.029 317.554 724.193 311.476C725.613 307.489 725.174 304.665 722.886 303.083C719.932 301.038 713.761 301.037 706.378 303.077C699.307 305.032 692.191 308.551 687.805 312.262C687.505 312.517 687.053 312.479 686.797 312.178C686.542 311.877 686.58 311.426 686.881 311.17C691.415 307.335 698.74 303.705 705.997 301.699C713.9 299.515 720.352 299.59 723.701 301.907C725.684 303.279 727.613 306.137 725.54 311.957C723.274 318.319 716.393 325.677 706.66 332.141C697.319 338.344 686.997 342.596 679.047 343.516C677.951 343.642 676.906 343.705 675.916 343.705Z" fill="#C65447"/>
<path d="M805.31 303.07L802.766 298.27C802.766 298.27 804.028 289.718 793.312 284.308C793.312 284.308 789.396 282.714 787.185 285.908C785.148 288.85 791.066 288.318 790.749 293.352C790.432 298.385 792.82 301.338 796.145 302.978L798.893 306.162L805.31 303.07Z" fill="#FFB27D"/>
<path d="M906.582 291.595C906.582 291.595 897.38 336.764 846.738 351.521C830.929 356.128 795.015 304.083 795.015 304.083C795.015 304.083 796.277 299.285 804.188 300.387C804.188 300.387 839.157 323.537 843.559 326.052C847.465 328.284 873.155 297.366 884.867 292.379C896.577 287.392 906.582 291.595 906.582 291.595Z" fill="#233862"/>
<path d="M758.527 290.772L760.557 301.73L815.681 291.522L813.651 280.564L758.527 290.772Z" fill="#C65447"/>
<path d="M746.703 298.637L760.533 301.743L758.504 290.785L746.703 298.637Z" fill="#FFB27D"/>
<path d="M820.707 283.026L821.349 286.49C821.744 288.621 820.336 290.669 818.205 291.064L815.656 291.536L813.626 280.578L816.399 280.065C818.406 279.692 820.335 281.018 820.707 283.026Z" fill="#FFB27D"/>
<path d="M967.043 575.534C967.043 575.534 973.325 581.268 972.099 585.341C970.873 589.415 965.204 592.131 964.438 597.11C963.672 602.089 960.607 604.805 957.849 604.805C955.091 604.805 944.7 604.805 944.7 604.805C944.7 604.805 942.669 601.301 947.573 600.245C952.476 599.189 954.325 593.338 954.018 587.906C953.711 582.475 954.478 575.232 954.478 575.232L964.898 572.818L967.043 575.534Z" fill="#233862"/>
<path d="M889.968 590.364C889.968 590.364 891.096 603.412 888.337 604.77L853.039 604.698C853.039 604.698 853.039 600.624 858.709 599.719C864.378 598.814 874.338 595.494 876.024 588.101C877.709 580.708 889.968 590.364 889.968 590.364Z" fill="#233862"/>
<path d="M860.166 406.05C860.166 406.05 862.028 428.922 864.216 456.415C867.191 493.762 870.767 539.637 871.121 548.328C871.732 563.419 874.187 587.558 874.187 587.558C874.187 587.558 880.007 593.293 891.655 590.876C891.655 590.876 902.035 556.416 905 519.956C905.046 519.359 905.093 518.757 905.138 518.155C907.896 481.038 912.185 402.881 912.185 402.881L860.166 406.05Z" fill="#F99746"/>
<path d="M860.166 406.05C860.166 406.05 862.028 428.922 864.216 456.415L905 519.956C905.046 519.359 905.093 518.757 905.138 518.155C907.896 481.038 912.185 402.881 912.185 402.881L860.166 406.05Z" fill="#ED7D2B"/>
<path d="M868.669 408.765C868.669 408.765 902.226 491.598 924.291 530.525C946.357 569.452 953.252 580.315 953.252 580.315C953.252 580.315 965.893 575.336 967.043 571.942C967.043 571.942 958.605 496.791 943.828 478.471C935.479 468.12 925.67 437.055 925.211 426.192C924.751 415.328 922.223 393.828 922.223 393.828L868.669 408.765Z" fill="#F99746"/>
<path d="M912.821 281.112C912.821 281.112 890.115 292.067 877.025 288.003C877.025 288.003 880.247 283.938 885.886 280.913C885.433 278.286 885.08 276.006 884.879 274.073C884.326 269.611 884.326 267.083 884.326 267.083L893.086 260.193L901.393 253.6C900.738 272.139 912.821 281.112 912.821 281.112Z" fill="#FFB27D"/>
<path d="M858.733 407.937C859.134 408.286 859.588 408.48 860.096 408.48C865.028 408.38 879.376 411.105 891.506 409.867C901.777 408.875 910.839 405.902 920.555 401.643C921.866 401.047 924.839 399.459 924.786 398.073C924.733 396.486 924.585 394.256 924.385 391.377C923.977 385.713 923.405 377.672 923.222 368.138C923.087 361.07 923.163 353.182 923.677 344.828C923.706 344.268 923.736 343.701 923.759 343.135C923.907 340.073 923.977 336.987 923.977 333.973C924.03 324.256 923.328 314.988 921.918 306.71C919.446 292.333 914.815 281.082 907.972 276.073C907.063 275.377 901.423 278.103 896.19 280.633C891.405 282.964 886.626 283.212 882.095 282.321L877.565 286.285C872.072 291.288 866.03 298.179 863.364 308.592C861.152 317.418 859.842 333.376 859.134 349.937C858.786 357.47 858.532 365.005 858.432 372.19V372.438C858.379 373.181 858.379 373.931 858.379 374.674C858.131 393.064 858.379 407.689 858.733 407.937Z" fill="#2B478B"/>
<path d="M901.543 260.689C901.543 260.689 895.804 271.148 884.879 274.073C884.325 269.611 884.325 267.083 884.325 267.083L893.086 260.193L901.543 260.689Z" fill="#ED985F"/>
<path d="M880.331 266.782C880.331 266.782 901.991 270.326 904.025 257.01C906.058 243.694 910.223 235.183 896.48 232.358C882.736 229.533 879.267 234.215 877.49 238.497C875.714 242.779 874.749 265.517 880.331 266.782Z" fill="#FFB27D"/>
<path d="M911.897 230.763C912.094 230.538 912.547 230.356 913.556 230.301C913.556 230.301 912.75 229.796 911.671 229.77C911.46 228.366 910.713 225.882 908.298 225.278C908.298 225.278 909.596 225.97 909.765 227.463C906.967 224.589 900.973 222.498 884.373 223.808C862.496 225.535 869.706 239.542 872.538 241.212C875.37 242.881 882.499 238.304 887.776 238.722C893.053 239.141 894.057 246.766 895.847 247.812C897.637 248.859 896.934 247.009 899.355 245.914C901.777 244.819 902.008 248.832 901.308 251.442C900.609 254.051 903.937 257.494 903.937 257.494C903.937 257.494 903.937 257.494 907.299 253.872C910.662 250.25 913.832 234.908 912.303 231.638C912.169 231.35 912.035 231.058 911.897 230.763Z" fill="#2C3A64"/>
<path d="M802.72 298.042C802.72 298.042 803.466 295.098 801.423 293.775C799.381 292.451 797.503 288.852 796.642 289.34C794.858 290.35 797.618 293.49 797.113 297.407C796.936 298.779 800.129 302.372 802.72 298.042Z" fill="#FFB27D"/>
<path d="M923.222 368.139C923.087 361.071 923.163 353.183 923.677 344.829C923.706 344.269 923.736 343.702 923.759 343.136C921.7 332.935 918.585 323.885 914.001 323.59C914.001 323.59 900.344 345.053 923.222 368.139Z" fill="#233862"/>
<path d="M941.288 405.151C941.288 405.151 940.15 416.219 938.901 418.313C937.652 420.406 932.333 427.096 930.068 428.408C927.802 429.722 931.451 419.594 930.99 417.623C930.528 415.652 929.125 421.219 928.127 421.35C927.128 421.481 927.385 416.47 927.349 414.647C927.313 412.824 932.208 408.322 933.933 404.439C935.658 400.557 941.288 405.151 941.288 405.151Z" fill="#FFB27D"/>
<path d="M907.961 275.963C907.961 275.963 921.666 282.452 928.237 292.429C938.429 307.905 950.244 364.306 950.462 369.529C950.68 374.751 941.839 411.624 941.839 411.624C941.839 411.624 932.872 411.033 930.559 406.507C930.559 406.507 932.35 368.621 931.215 366.186C930.08 363.75 893.831 315.366 897.907 305.042C901.983 294.717 907.961 275.963 907.961 275.963Z" fill="#2B478B"/>
<path d="M753.789 293.924L754.511 300.393L746.703 298.639L753.789 293.924Z" fill="#C65447"/>
<path d="M1050.34 604.597H1010.85C1008.73 602.802 1012.31 598.725 1016.06 598.45C1017.68 598.328 1019.74 598.668 1022.08 599.164C1022.63 591.945 1025.73 559.494 1037.43 560.798C1050.58 562.257 1037.43 575.089 1033.71 582.685C1030.96 588.312 1028.05 596.381 1026.72 600.189C1027.79 600.42 1028.9 600.647 1030.03 600.855C1031.77 595.502 1038.25 577.498 1046.5 578.547C1056.19 579.775 1052.3 586.994 1045.43 591.279C1040.39 594.43 1034.21 598.908 1031.27 601.072C1033.76 601.479 1036.36 601.753 1039 601.691C1045.76 601.531 1049.06 603.524 1050.34 604.597Z" fill="#82B378"/>
<path d="M148.773 602.721C146.68 599.433 140.381 590.9 131.991 592.029C122.85 593.26 142.086 599.287 147.976 602.747C146.668 602.765 145.543 602.66 144.717 602.365C140.78 600.962 134.037 603.654 131.881 604.598H169.365C169.106 603.701 168.431 602.237 166.685 601.17C166.07 600.794 164.832 600.742 163.235 600.863C165.464 598.236 167.012 589.842 160.807 592.002C156.274 593.58 156.286 598.708 156.731 601.743C155.767 601.894 154.789 602.046 153.823 602.185C151.957 592.674 145.356 564.798 131.977 564.055C118.413 563.302 143.478 592.965 151.824 602.452C150.756 602.58 149.726 602.677 148.773 602.721Z" fill="#82B378"/>
<path d="M1174.67 607.322H1.33233C0.599397 607.322 0 606.723 0 605.99V605.535C0 604.803 0.599397 604.203 1.33233 604.203H1174.67C1175.4 604.203 1176 604.803 1176 605.535V605.99C1176 606.723 1175.4 607.322 1174.67 607.322Z" fill="#2E3552"/>
</svg>
