<svg width="994" height="647" viewBox="0 0 994 647" fill="none" xmlns="http://www.w3.org/2000/svg">
<path d="M456.023 541.119C426.914 541.203 397.805 541.881 368.747 545.011C357.791 546.191 347.064 548.787 336.083 549.834C314.149 551.926 292.607 555.827 270.595 557.627C252.869 559.076 235.069 559.932 217.394 561.77C200.823 563.494 182.478 563.096 166.035 560.248C153.862 558.139 141.633 556.952 129.664 553.566C116.275 549.777 101.73 547.068 87.7803 547.166C67.8883 547.305 48.5152 547.321 29.4792 554.011C22.7962 556.359 14.6163 560.22 9.54125 565.148C-2.07575 576.43 -3.64775 604.58 7.95125 616.281C27.4872 635.974 69.1842 643.701 96.5682 644.066C126.576 644.466 155.727 642.308 185.779 641.04C213.704 639.861 241.558 638.184 269.529 638.243C326.656 638.364 383.791 638.243 440.815 634.547C494.39 631.075 548.1 632.267 601.793 632.267C656.853 632.267 711.54 632.686 766.203 639.773C790.02 642.861 814.284 643.942 838.221 646.105C859.658 648.043 880.259 646.067 901.611 644.276C919.54 642.772 937.352 638.312 953.64 630.773C966.533 624.805 989.519 606.266 993.473 592.021C1004.56 552.086 837.254 553.046 811.566 553.136C782.83 553.237 753.865 554.152 725.152 553.091C713.074 552.645 701.173 550.358 689.385 547.853C677.643 545.358 665.813 545.992 653.906 544.943C604.251 540.569 554.485 541.209 504.671 541.209C488.46 541.21 472.242 541.072 456.023 541.119Z" fill="#F1F2F2"/>
<path d="M268.078 116.387L274.147 112.301L281.086 115.388L284.551 121.849L282.103 126.769L275.89 129.511L278.042 130.347L277.437 132.11L267.805 135.278C265.853 132.737 258.612 130.153 257.566 128.792L264.282 124.197L268.078 116.387Z" fill="#AA6755"/>
<path d="M139.839 353.562L72.5703 328.824L86.4363 446.667L78.4023 548.335L78.1853 549.012L78.3473 549.03L78.3293 549.251L91.5993 550.517L91.6023 550.504L92.0953 550.559L121.724 459.978L137.407 363.491L139.839 353.562Z" fill="#1A3151"/>
<path d="M90.9088 555.149L77.1468 554.801L73.6328 566.413L73.9798 566.517L73.8918 566.526L96.6438 580.008L107.462 581.211L108.837 568.847L105.915 566.706L90.9088 555.149Z" fill="#162A42"/>
<path d="M185.661 355.584L165.472 557.353L152.157 557.958L138.779 449.011L115.59 340.508L185.661 355.584Z" fill="#1A3151"/>
<path d="M165.437 562.039L183.073 572.039L181.421 580.361L149.908 575.611L151.762 563.621L165.437 562.039Z" fill="#162A42"/>
<path d="M217.199 406.257C221.456 403.301 221.547 398.155 221.539 393.001C221.525 383.323 219.784 373.429 217.566 364.024C213.342 346.38 208.553 325.129 206.447 302.265C201.004 243.175 182.344 203.522 182.344 203.522L176.323 187.465C175.126 185.377 173.885 183.313 172.588 181.278C165.068 169.477 152.01 149.423 138.045 146.14C137.753 146.071 137.46 146.005 137.165 145.94C122.483 142.718 103.669 144.213 90.3991 151.351C87.8821 152.706 85.6421 154.51 83.4201 156.303C76.9321 161.537 71.6401 164.371 68.8431 172.346C66.4141 179.271 65.8501 186.827 64.5111 194.003C61.7901 208.583 60.1671 223.338 57.9951 238.002C53.9211 265.502 50.4621 293.091 46.1041 320.549C43.8611 334.68 41.6021 348.837 40.5431 363.117C39.6061 375.742 28.2161 388.562 21.8161 399.876C19.5891 403.813 51.5761 414.016 54.4421 414.683C67.7111 417.772 81.8251 416.983 95.5031 417.045C125.478 417.181 155.457 416.256 185.367 414.274C195.306 413.615 207.554 411.718 216.373 406.769C216.666 406.609 216.94 406.437 217.199 406.257Z" fill="#EAEDEF"/>
<path d="M120.703 144.326C120.703 144.326 103.818 139.768 101.486 177.865C99.1528 215.963 95.2658 312.373 89.8228 338.808C84.3808 365.243 76.2168 417.094 76.2168 417.094L127.921 418.891L187.011 414.226C187.011 414.226 166.796 376.906 163.686 350.471C160.576 324.036 166.018 224.515 152.801 187.195C139.583 149.875 136.81 144.996 120.703 144.326Z" fill="#3ABABA"/>
<path d="M156.027 188.858L193.705 209.341L216.415 201.566L274.525 137.679L259.088 123.723L197.415 171.934L148.869 150.754L156.027 188.858Z" fill="#EAEDEF"/>
<path d="M144.253 114.144C146.808 121.815 143.11 129.994 139.865 136.985C136.987 143.184 135.986 147.264 143.293 148.937C147.41 149.88 154.716 151.638 158.327 148.486C161.061 146.098 159.524 138.723 158.194 135.794C157.178 133.557 154.489 132.421 153.533 130.157C153.139 129.224 153.082 128.187 153.068 127.175C153.011 123.039 153.583 118.895 154.759 114.93C155.558 112.237 156.639 109.592 156.88 106.794C157.23 102.737 154.36 98.0082 152.853 94.2802C150.048 87.3442 140.284 78.0402 132.109 83.4852C130.247 84.7252 129.164 86.8202 128.257 88.8652C127.716 90.0862 127.201 91.3602 127.186 92.6962C127.123 98.0212 131.985 98.9202 135.343 101.454C139.483 104.579 142.622 109.248 144.253 114.144Z" fill="#1A3151"/>
<path d="M128.703 144.075C135.794 142.405 141.338 136.45 144.003 129.67C146.667 122.89 146.806 115.37 146.069 108.123C143.617 84.0044 113.614 85.5524 103.454 104.038C94.5997 120.147 108.084 148.931 128.703 144.075Z" fill="#AA6755"/>
<path d="M128.696 141.477C128.577 144.224 128.458 146.972 128.339 149.719C128.322 150.121 128.288 150.563 128.007 150.851C127.687 151.179 127.17 151.185 126.712 151.169C124.473 151.092 122.234 151.014 119.995 150.937C118.886 150.899 117.731 150.849 116.753 150.324C114.611 149.175 114.169 146.272 114.51 143.865C114.852 141.459 115.715 139.033 115.205 136.657C119.828 138.935 124.219 133.787 128.843 136.065L128.696 141.477Z" fill="#AA6755"/>
<path d="M119.02 66.3078C111.142 68.9838 106.09 76.9518 98.4017 80.1338C93.9927 81.9588 88.7757 82.1908 85.1777 85.3258C77.1157 92.3518 83.5958 107.095 76.9728 115.491C75.5958 117.237 73.7388 118.557 72.3558 120.298C69.3738 124.054 68.9837 129.18 68.7167 133.968C68.6567 135.045 68.6457 136.219 68.8327 137.303C69.8687 148.361 85.9217 147.658 92.2987 146.949C99.2957 146.172 96.9638 142.284 96.9638 142.284L96.7098 141.974C96.0388 137.484 97.8848 132.696 101.412 129.836C102.721 128.775 104.269 127.93 105.192 126.52C107.264 123.355 105.286 119.163 105.59 115.393C106.816 100.209 132.3 103.463 139.492 92.6528C148.312 79.3948 133.898 61.2538 119.02 66.3078Z" fill="#1A3151"/>
<path d="M720.371 151.218L711.509 146.26L709.21 137.606L707.129 137.162L706.478 139.702L702.514 133.066L696.6 130.969L689.755 135.75L687.213 143.993L692.681 150.287L702.056 153.513L713.892 160.823L720.371 151.218Z" fill="#EAC1A4"/>
<path d="M721.209 145.584L707.924 161.318L757.116 209.043L770.378 213.321L826.869 168.272L811.76 137.426L769.628 173.233L721.209 145.584Z" fill="#EAEDEF"/>
<path d="M914.027 564.147L915.999 573.196L900.367 586.083L889.592 578.952L896.422 567.984L912.054 555.098L914.027 564.147Z" fill="#1A3151"/>
<path d="M859.357 285.902L876.801 326.126L878.446 439.298L914.312 561.029L897.635 568.425L824.444 427.077L816.114 382.308L812.803 288.019L859.357 285.902Z" fill="#145566"/>
<path d="M774.903 294.917L773.531 413.521L795.881 566.443H813.067L823.921 425.34L847.438 284.238L774.903 294.917Z" fill="#145566"/>
<path d="M812.969 564.398V573.69L794.385 582.982L785.092 573.69L794.385 564.398H812.969Z" fill="#1A3151"/>
<path d="M808.744 134.316L854.394 132.625C854.394 132.625 881.704 156.587 895.817 218.853C910.188 282.256 893.163 373.53 893.163 373.53C893.163 373.53 770.689 357.207 750.607 354.685L781.244 229.501L808.744 134.316Z" fill="#EAEDEF"/>
<path d="M825.105 138.983C830.436 138.462 835.767 137.94 841.098 137.419C841.155 133.148 840.871 128.872 840.249 124.646C844.694 123.09 849.831 120.754 850.611 116.11C850.857 114.647 850.606 113.152 850.355 111.69C849.319 105.646 848.283 99.6021 847.247 93.5581C846.889 91.4681 846.507 89.3161 845.373 87.5241C843.383 84.3791 839.514 83.0001 835.849 82.3581C826.494 80.7211 816.295 82.7341 809.032 88.8531C807.099 90.4811 805.35 92.4401 804.496 94.8181C803.179 98.4861 804.155 102.534 805.139 106.305C806.048 109.785 806.957 113.266 807.866 116.746C808.911 120.749 810.422 125.3 814.276 126.806C816.322 127.605 818.739 127.376 820.591 128.557C823.856 130.64 823.409 135.5 825.105 138.983Z" fill="#EAC1A4"/>
<path d="M773.022 78.5753C772.918 74.4323 773.501 70.2393 774.329 66.4613C775.751 59.9683 783.411 57.0513 790.041 56.5913C804.361 55.5973 818.181 49.1053 832.166 54.1163C840.16 56.9803 850.895 57.6683 858.129 61.7063C861.15 63.3923 863.558 66.0253 865.435 68.9313C871.936 79.0013 871.953 92.8743 865.477 102.96C864.024 105.223 862.287 107.29 860.461 109.265C856.682 113.352 852.162 118.4 846.97 119.909C846.853 115.266 851.102 100.63 847.541 96.8203C841.89 90.7733 829.092 92.8633 822.07 94.3403C814.41 95.9513 807.578 101.365 799.985 102.513C794.521 103.339 787.553 100.651 782.911 97.8213C775.638 93.3883 773.21 86.0613 773.022 78.5753Z" fill="#1A3151"/>
<path d="M821.335 139.962L773.344 331.926L769.41 357.102L829.202 364.969C829.202 364.969 826.842 273.044 827.629 260.788C828.416 248.532 837.283 222.022 838.643 193.46C839.43 176.939 844.677 147.263 841.003 137.602L821.335 139.962Z" fill="#C8D6A1"/>
<path d="M428.659 352.793L428.654 404.772C428.896 403.729 429.053 402.646 429.053 401.503V319.16H428.662L428.659 352.793Z" fill="#D9A3A3"/>
<path d="M428.683 282.895L428.678 231.973C428.43 233.029 428.271 234.128 428.271 235.285V316.784H428.661V282.894H428.683V282.895Z" fill="#D9A3A3"/>
<path d="M413.383 467.039C411.501 467.235 409.607 467.814 407.796 468.847C402.222 472.027 396.683 475.042 391.045 476.962C396.6 475.115 402.1 472.127 407.872 468.995C409.719 467.993 411.576 467.358 413.383 467.039Z" fill="#D9A3A3"/>
<path d="M466.28 231.065C460.641 229.145 455.102 226.13 449.529 222.95C447.719 221.917 445.825 221.338 443.945 221.141C445.751 221.46 447.606 222.095 449.454 223.097C455.224 226.23 460.725 229.218 466.28 231.065Z" fill="#D9A3A3"/>
<path d="M428.647 477.871L428.639 585.436C428.776 585.435 428.916 585.435 429.054 585.434V481.186C429.054 480.028 428.895 478.928 428.647 477.871Z" fill="#D9A3A3"/>
<path d="M277.576 297.42C279.124 299.905 279.775 302.579 279.722 305.174C280.025 302.225 279.404 299.117 277.625 296.263C271.888 287.062 268.223 276.844 268.267 267.203C267.904 277.179 271.614 287.848 277.576 297.42Z" fill="#D9A3A3"/>
<path d="M343.093 269.789C342.637 279.047 337.988 287.849 332.914 296.738C331.599 299.042 331.02 301.481 331.037 303.856C331.194 301.861 331.767 299.844 332.866 297.921C338.16 288.656 342.993 279.483 343.093 269.789Z" fill="#D9A3A3"/>
<path d="M428.67 158.872L428.665 106.893L428.662 48.2031C428.532 48.2091 428.401 48.2071 428.271 48.2131V155.602C428.271 156.746 428.428 157.829 428.67 158.872Z" fill="#D9A3A3"/>
<path d="M413.382 467.041C411.575 467.36 409.719 467.994 407.87 468.998C402.099 472.13 396.599 475.118 391.043 476.965C382.677 479.814 374.09 480.252 364.848 475.227C346.029 464.997 339.06 439.676 349.916 421.23C363.303 398.482 387.64 401.286 407.323 413.56C415.818 418.858 426.539 413.904 428.654 404.773L428.659 352.794L428.662 319.161H428.66V316.786H428.27V318.701H341.492C334.831 316.933 330.509 310.521 331.036 303.857C331.019 301.483 331.598 299.043 332.913 296.739C337.987 287.85 342.636 279.048 343.092 269.79C343.141 265.006 342.043 260.094 339.266 254.98C329.047 236.155 303.73 229.173 285.278 240.017C273.584 246.889 268.649 256.659 268.265 267.203C268.221 276.844 271.886 287.062 277.623 296.263C279.403 299.117 280.023 302.225 279.72 305.174C279.592 311.384 275.334 317.132 268.987 318.701H216.657H193.528C193.278 319.082 193.018 319.452 192.777 319.845C186.264 330.487 187.607 338.4 197.324 345.098C203.551 349.39 210.121 353.076 215.572 358.641C223.894 367.137 224.432 372.15 218.079 382.659C210.928 394.488 210.966 394.972 221.954 403.375C224.903 405.631 228.026 407.328 223.882 411.596C217.787 417.876 219.967 424.005 225.217 428.581C232.585 435.005 233.693 443.245 232.309 452.459C231.102 460.498 229.321 468.435 227.818 476.422C223.761 497.97 229.412 507.973 248.882 513.635C269.203 519.544 289.427 514.426 309.693 512.47C323.276 511.159 336.65 506.434 350.548 509.872C359.57 512.105 364.552 517.622 365.711 527.726C367.401 542.461 371.787 556.543 374.293 571.042C376.337 582.867 381.486 586.56 392.136 586.082C401.06 585.682 413.824 585.493 428.637 585.437L428.645 477.872C427 470.879 420.298 466.321 413.382 467.041Z" fill="#1A3151"/>
<path d="M502.128 116.029C506.305 124.42 517.883 126.748 524.916 119.623C541.211 103.114 564.232 94.7352 582.535 113.754C597.376 129.175 596.478 155.422 580.548 169.742C572.724 176.775 564.272 178.343 555.472 177.514C549.639 177.008 543.595 175.379 537.256 173.672C535.226 173.125 533.274 172.939 531.443 173.048C524.546 173.952 519.083 179.944 519.107 187.13L530.935 236.659L530.914 236.664L538.783 269.628L538.786 269.627L539.07 270.817L539.337 271.937L539.717 271.846L625.156 251.451C633.515 252.391 639.75 260.75 637.172 269.556C632.694 284.852 629.151 299.708 640.916 312.811C655.227 328.749 681.473 329.662 696.903 314.83C715.932 296.538 707.567 273.512 691.068 257.207C684.337 250.555 686.059 239.85 693.353 235.171L745.587 222.702C748.328 203.434 748.083 184.465 745.019 166.721C735.984 120.998 718.245 85.6432 690.211 59.9642C632.698 7.2832 566.344 -7.12881 495.884 4.06919C489.266 5.12119 482.783 6.5762 476.424 8.3852L490.054 65.4702L502.128 116.029Z" fill="#145566"/>
<path d="M428.662 316.785H428.66V319.16H428.662V318.008V316.785Z" fill="#B5D6CA"/>
<path d="M589.665 586.122C602.381 585.432 596.21 577.496 590.347 565.172C542.779 465.186 599.438 384.591 608.715 373.314C622.619 356.411 633.275 338.003 640.707 319.16H587.005C578.824 322.018 574.664 332.031 579.666 340.064C591.929 359.754 594.719 384.093 571.963 397.467C553.511 408.311 528.194 401.329 517.975 382.504C509.574 367.027 516.469 353.4 524.377 339.561C528.93 331.594 524.806 322.015 516.893 319.16H429.053V401.503C429.053 402.646 428.895 403.73 428.654 404.772V405.123C426.429 414.121 415.805 418.961 407.372 413.708C387.683 401.443 363.344 398.651 349.969 421.406C339.123 439.857 347.148 464.746 365.972 474.967C375.072 479.908 383.114 479.6 391.043 476.964C396.681 475.044 402.221 472.029 407.794 468.849C409.605 467.816 411.499 467.236 413.381 467.041C420.615 465.763 427.022 469.772 428.646 477.628V477.873C428.894 478.929 429.053 480.029 429.053 481.187V585.436C486.374 585.225 574.039 586.97 589.665 586.122Z" fill="#D1E7F5"/>
<path d="M428.648 477.871V477.626C427.023 469.77 420.616 465.762 413.383 467.039C420.299 466.32 427.001 470.878 428.648 477.871Z" fill="#1A3151"/>
<path d="M407.324 413.562C387.641 401.288 363.304 398.484 349.917 421.232C339.062 439.678 346.03 464.999 364.849 475.229C374.091 480.254 382.677 479.816 391.044 476.967C383.114 479.603 375.073 479.911 365.973 474.97C347.149 464.749 339.124 439.86 349.97 421.409C363.345 398.654 387.685 401.446 407.373 413.711C415.806 418.964 426.43 414.124 428.655 405.126V404.775C426.54 413.906 415.819 418.859 407.324 413.562Z" fill="#1A3151"/>
<path d="M507.407 175.33C494.02 152.581 469.683 155.385 450 167.66C441.505 172.958 430.784 168.004 428.669 158.873C428.427 157.83 428.269 156.747 428.269 155.603V48.2148C398.943 49.5378 370.412 58.3729 343.033 71.7959C335.67 75.4059 328.43 79.3499 321.257 83.4118C270.913 111.923 242.906 155.696 245.281 219.832C246.614 255.827 230.587 282.026 206.913 304.044C202.632 308.025 198.378 311.985 194.873 316.762C194.411 317.392 193.964 318.04 193.529 318.701H216.658H268.988C275.334 317.132 279.592 311.384 279.721 305.174C279.774 302.579 279.123 299.906 277.575 297.42C271.613 287.848 267.903 277.179 268.266 267.203C268.65 256.659 273.585 246.889 285.279 240.017C303.731 229.173 329.048 236.155 339.267 254.98C342.043 260.094 343.141 265.006 343.093 269.79C342.993 279.485 338.16 288.657 332.866 297.923C331.767 299.846 331.194 301.863 331.037 303.858C330.51 310.522 334.832 316.933 341.493 318.702H428.271V316.787V235.288C428.271 234.131 428.43 233.031 428.678 231.976C430.324 224.981 437.029 220.42 443.947 221.143C445.827 221.339 447.721 221.919 449.531 222.952C455.104 226.132 460.643 229.147 466.282 231.067C474.649 233.916 483.234 234.354 492.477 229.329C511.294 219.097 518.262 193.776 507.407 175.33Z" fill="#B5D6CA"/>
<path d="M861.593 169.172L803.182 224.326L716.532 198.495L710.332 217.986L805.566 261.555H830.627L883.582 216.506L861.593 169.172Z" fill="#EAEDEF"/>
<path d="M710.892 216.228L695.809 216.505L686.6 203.507L710.011 190.492L716.533 198.494L710.892 216.228Z" fill="#EAC1A4"/>
<path d="M226.17 249.219L225.887 258.009L241.403 263.657L250.344 256.882L250.351 246.649L241.718 246.167L241.447 243.917L238.62 242.098L226.17 249.219Z" fill="#AA6755"/>
<path d="M96.6791 183.457L160.659 237.94L228.618 239.26C228.618 239.26 225.86 268.459 225.887 266.032C225.913 263.605 150.625 273.312 150.625 273.312L83.8301 226.102L96.6791 183.457Z" fill="#EAEDEF"/>
</svg>
