<svg width="3113" height="1609" viewBox="0 0 3113 1609" fill="none" xmlns="http://www.w3.org/2000/svg">
<path d="M183.536 1598.81C-78.4645 1234.17 -80.7855 682.041 312.767 369.434C668.707 86.7025 1261.51 281.464 1563.91 111.1C1930.22 -95.2715 2865.54 -56.2715 3065.97 592.379C3214.96 1074.53 2975.54 1525.68 2791.54 1598.82C1315.54 1598.81 183.536 1598.81 183.536 1598.81Z" fill="#D6E6FD"/>
<path d="M2590.67 1388.43H2598.01C2600.43 1363.71 2605.19 1336.4 2613.65 1307.83C2645.66 1199.79 2631.66 1185.81 2685.68 1118.27C2739.7 1050.73 2743.7 910.674 2743.7 910.674C2743.7 910.674 2769.71 751.611 2743.7 681.584C2717.69 611.557 2715.69 541.529 2652.67 467.5C2652.67 467.5 2640.66 566.539 2625.65 611.557C2610.65 656.575 2596.4 699.591 2607.53 807.634C2618.65 915.676 2625.56 924.679 2628.11 952.691C2630.66 980.703 2626.66 1098.77 2632.66 1118.27C2638.66 1137.76 2597.64 1272.82 2594.64 1330.84C2593.74 1348.27 2592.12 1368.15 2590.67 1388.43Z" fill="#215E4B"/>
<path d="M2613.68 1388.43C2624.1 1364.38 2642.45 1340.49 2674.57 1326.15C2758.6 1288.63 2815.29 1289.46 2854.31 1199.43C2893.32 1109.39 2893.32 986.346 2906.83 960.835C2906.83 960.835 2870.81 954.833 2834.8 1019.36C2798.79 1083.88 2774.36 1131.9 2753.56 1169.42C2732.76 1206.93 2702.75 1196.43 2677.24 1224.94C2655.86 1248.83 2636.12 1304.42 2628.62 1332.63C2626.18 1341.79 2622.64 1350.62 2617.97 1358.86C2613.72 1366.37 2608.71 1375.5 2605.71 1382C2605.04 1383.45 2604.38 1385.65 2603.73 1388.42L2613.68 1388.43Z" fill="#3C8F7C"/>
<path d="M2376.56 961.695C2370.56 1038.72 2419.58 1032.72 2421.58 1081.74C2423.58 1130.76 2487.6 1213.79 2517.26 1272.82C2532.69 1303.51 2538.39 1350.45 2540.3 1388.43H2564.14C2554.92 1292.3 2515.92 1225.4 2492.61 1171.78C2462.59 1102.75 2458.09 1071.24 2483.6 1017.22C2509.11 963.194 2471.6 823.64 2507.91 761.424C2544.23 699.207 2525.62 601.553 2517.27 564.039C2508.91 526.524 2518.12 501.014 2525.62 461.464C2533.12 421.914 2517.27 364.461 2517.27 364.461C2515.91 413.48 2478.6 480.506 2451.59 523.523C2424.58 566.54 2373.56 683.586 2379.56 736.606C2385.56 789.627 2382.56 793.628 2382.56 793.628C2363.55 864.657 2382.56 884.665 2376.56 961.695Z" fill="#215E4B"/>
<path d="M2519.55 1325.83C2522.61 1335.03 2532.44 1358.51 2541.43 1388.43H2556.05C2549.4 1350.34 2537.92 1306.15 2518.55 1280.82C2479.53 1229.8 2401.5 1207.79 2392.5 1170.77C2383.5 1133.76 2393.5 1022.72 2336.48 960.691C2336.48 960.691 2344.48 1029.74 2336.48 1048.24C2328.47 1066.73 2260.45 1152.77 2300.46 1224.8C2340.48 1296.82 2430.51 1287.82 2458.53 1303.83C2486.54 1319.83 2514.55 1310.83 2519.55 1325.83Z" fill="#3C8F7C"/>
<path d="M2483.53 993.64C2482.53 1067.67 2540.56 1095.68 2539.56 1136.7C2538.55 1177.71 2551.56 1221.73 2562.56 1254.74C2569.53 1275.64 2565.67 1333.82 2564.44 1388.43H2580.54C2584.6 1348.3 2589.04 1290.41 2587.57 1264.75C2585.57 1229.73 2601.58 1201.72 2603.58 1140.7C2605.58 1079.67 2618.59 1024.65 2591.58 947.623C2564.56 870.593 2569.57 778.557 2456.52 693.523C2456.52 693.523 2436.51 783.558 2451.52 832.578C2466.53 881.596 2484.53 919.61 2483.53 993.64Z" fill="#3C8F7C"/>
<path d="M2483.53 993.639C2482.53 1067.67 2540.56 1095.68 2539.56 1136.7C2538.55 1177.71 2551.56 1221.73 2562.56 1254.74C2569.53 1275.64 2565.67 1333.82 2564.44 1388.43H2571.12C2572.03 1377.02 2572.9 1369.86 2572.9 1369.86L2576.24 1231.8C2576.24 1231.8 2569.57 1123.76 2557.56 1035.72C2545.56 947.689 2456.52 693.523 2456.52 693.523C2456.52 693.523 2436.51 783.558 2451.52 832.578C2466.53 881.595 2484.53 919.609 2483.53 993.639Z" fill="#327F6B"/>
<path d="M2598.06 1325.25H2587.26H2443.11C2432.52 1325.25 2424.7 1335.17 2427.15 1345.49L2483.63 1583.68C2485.39 1591.08 2491.99 1596.31 2499.59 1596.31H2587.26H2598.06H2685.72C2693.32 1596.31 2699.93 1591.09 2701.69 1583.68L2758.17 1345.49C2760.62 1335.17 2752.8 1325.25 2742.21 1325.25H2598.06Z" fill="#9BC1F9"/>
<path d="M14.076 1588.77H2986.37C2994.14 1588.77 3000.44 1593.27 3000.44 1598.82C3000.44 1604.37 2994.14 1608.86 2986.37 1608.86H14.076C6.30399 1608.86 0 1604.37 0 1598.82C0 1593.27 6.30299 1588.77 14.076 1588.77Z" fill="#F7CC7F"/>
<path d="M264.344 1598.67H241.627L290.05 1177.81H312.766L264.344 1598.67Z" fill="#0E2E35"/>
<path d="M520.806 1598.67H543.522L495.1 1177.81H472.383L520.806 1598.67Z" fill="#0E2E35"/>
<path d="M661.934 1598.67H639.217L687.639 1177.81H710.356L661.934 1598.67Z" fill="#0E2E35"/>
<path d="M918.393 1598.67H941.11L892.688 1177.81H869.971L918.393 1598.67Z" fill="#0E2E35"/>
<path d="M644.745 1223.55H334.882C298.565 1223.55 266.11 1194.11 262.391 1157.79L211.185 657.621C207.467 621.304 233.894 591.863 270.211 591.863H580.074C616.391 591.863 648.846 621.304 652.564 657.621L703.771 1157.79C707.489 1194.11 681.062 1223.55 644.745 1223.55Z" fill="#E25A44"/>
<path d="M730.79 1223.55H420.927C384.61 1223.55 352.155 1194.11 348.436 1157.79L297.23 657.621C293.512 621.304 319.939 591.863 356.256 591.863H666.119C702.436 591.863 734.891 621.304 738.609 657.621L789.815 1157.79C793.534 1194.11 767.107 1223.55 730.79 1223.55Z" fill="#F47458"/>
<path d="M772.311 1246.61H333.108C299.075 1246.61 268.661 1219.02 265.176 1184.99C261.692 1150.96 286.457 1123.37 320.491 1123.37H759.692C793.725 1123.37 824.14 1150.96 827.625 1184.99C831.109 1219.02 806.345 1246.61 772.311 1246.61Z" fill="#E25A44"/>
<path d="M881.954 1246.61H442.753C408.719 1246.61 378.305 1219.02 374.821 1184.99C371.337 1150.96 396.101 1123.37 430.134 1123.37H869.336C903.37 1123.37 933.784 1150.96 937.268 1184.99C940.753 1219.02 915.987 1246.61 881.954 1246.61Z" fill="#F47458"/>
<path d="M718.37 766.906L747.256 846.943C747.256 846.943 675.645 864.996 673.839 865.597C672.033 866.199 656.387 786.765 656.387 786.765L718.37 766.906Z" fill="#AD5A3B"/>
<path d="M806.593 1429.91C806.593 1429.91 753.781 1493.23 753.432 1498.74C753.082 1504.25 755.53 1564.39 761.811 1569.9C768.091 1575.41 786.542 1579.32 780.611 1585.52C776.128 1590.2 741.637 1589.2 718.779 1587.94C712.106 1587.57 703.737 1534.33 701.094 1526.51C697.256 1515.14 687.921 1489.54 691.411 1481.62C693.111 1477.76 701.245 1469.83 712.708 1462.43C724.764 1454.64 770.879 1390.48 770.879 1390.48L806.593 1429.91Z" fill="#AD5A3B"/>
<path d="M713.456 1462.06C713.456 1462.06 748.919 1561.91 762.799 1566.73C766.485 1568.01 784.172 1571.25 787.509 1579.08C788.513 1581.43 787.509 1589.3 787.509 1589.3H713.592C713.592 1589.3 704.242 1545.31 700.548 1525.98C700.548 1525.98 680.982 1478.75 683.155 1474.46C685.33 1470.17 713.456 1462.06 713.456 1462.06Z" fill="#14424D"/>
<path d="M1122.51 1459.32C1122.51 1459.32 1165.64 1520.04 1161.85 1539.25C1159.81 1549.53 1150.77 1562.99 1155.96 1572.67C1161.15 1582.36 1167.08 1584.77 1167.08 1584.77L1301.61 1586.94C1308.94 1587.06 1304.1 1582.35 1298.19 1578.01C1288.52 1570.92 1280.71 1566.22 1249.82 1551.31C1247.81 1550.34 1240.47 1545.68 1237.82 1544.07C1231.12 1539.98 1224.38 1533.55 1218.58 1527.1C1208.92 1516.37 1166.44 1428.91 1166.44 1428.91L1122.51 1459.32Z" fill="#AD5A3B"/>
<path d="M966.514 1084.75C966.514 1084.75 913.112 1145.7 899.491 1155.35C885.872 1165.01 755.158 1405.71 755.158 1405.71L801.724 1439.71C801.724 1439.71 918.547 1294.04 973.412 1216.13C1019.8 1150.25 1002.71 1154.43 1029.99 1114.33C1045.01 1092.25 1041.61 1062.4 1021.8 1044.49C1019.34 1042.26 1016.66 1039.93 1013.75 1037.51C973.373 1003.85 696.584 965.977 696.584 965.977L519.545 983.315C519.545 983.315 664.191 1084.75 669.59 1087.45C674.989 1090.15 869.34 1118.49 873.389 1118.49C877.437 1118.49 966.514 1084.75 966.514 1084.75Z" fill="#6292DE"/>
<path d="M501.556 984.872C501.556 984.872 471.189 1075.97 516.74 1118.49C562.29 1161 832.898 1156.28 921.976 1156.28C921.976 1156.28 958.417 1256.15 962.465 1272.35C966.514 1288.55 1143.32 1497.74 1143.32 1497.74L1191.91 1466.7C1191.91 1466.7 1001.61 1096.89 986.759 1080.7C971.913 1064.5 760.016 999.718 707.379 984.872C654.743 970.025 501.556 984.872 501.556 984.872Z" fill="#86B1F2"/>
<path d="M704.282 449.527C703.622 382.57 651.1 326.963 584.55 349.868C569.584 355.019 548.629 366.822 537.226 377.801C506.404 407.483 493.829 447.801 462.289 476.387C471.091 485.294 481.914 494.863 495.056 504.451L515.002 484.523L505.242 511.559C544.006 537.441 600.427 562.296 680.883 573.353C697.51 529.288 704.634 485.244 704.282 449.527Z" fill="#133742"/>
<path d="M703.681 688.758C670.506 588.119 633.404 592.405 633.404 592.405L662.095 803.987C682.582 798.385 709.257 785.918 729.722 780.136C722.937 748.323 711.852 713.542 703.681 688.758Z" fill="#D9D9D9"/>
<path d="M548.501 574.34C548.501 574.34 487.376 570.437 463.193 596.854C439.012 623.272 516.835 832.249 521.233 865.871C525.629 899.492 498.818 988.892 498.818 988.892C498.818 988.892 642.407 1017.85 683.446 990.632C683.446 990.632 687.844 748.86 683.446 724.842C679.049 700.826 642.407 603.156 633.614 593.55C624.82 583.944 548.501 574.34 548.501 574.34Z" fill="white"/>
<path d="M566.306 936.148C551.535 927.727 515.865 920.613 515.865 920.613C467.536 1035.73 483.545 1135.36 542.54 1149.54C601.536 1163.73 658.536 1169.74 862.869 1161.73C917.536 1035.73 976.061 1020.47 976.061 1020.47C880.203 971.06 566.306 936.148 566.306 936.148Z" fill="white"/>
<path d="M568.85 492.475C568.85 492.475 568.534 494.28 567.966 497.35C565.241 512.079 554.746 560.94 547.655 574.373C539.088 590.605 576.989 642.379 613.468 636.061C624.326 634.179 604.288 588.491 605.252 583.65C607.095 574.385 609.594 561.746 612.152 548.788C613.595 541.477 615.057 534.064 616.429 527.099C620.329 507.3 623.514 491.109 623.514 491.109L568.85 492.475Z" fill="#AD5A3B"/>
<path d="M567.966 497.35C568.534 494.28 568.85 492.475 568.85 492.475L623.515 491.109C623.515 491.109 620.331 507.3 616.43 527.099C615.065 534.026 613.612 541.395 612.176 548.666C603.738 547.42 594.918 543.309 586.077 535.552C576.438 527.095 570.12 516.932 566.307 506.081C566.981 502.619 567.544 499.634 567.966 497.35Z" fill="#8C4326"/>
<path d="M625.82 378.555C625.82 378.555 600.739 371.946 581.782 390.378C562.824 408.81 536.407 470.428 571.127 510.963C605.846 551.498 650.739 517.682 662.551 476.698C674.362 435.716 683.892 385.338 625.82 378.555Z" fill="#AD5A3B"/>
<path d="M674.389 477.763C668.326 486.319 659.636 490.292 654.981 486.637C650.325 482.983 651.468 473.083 657.531 464.527C663.595 455.97 672.286 451.997 676.941 455.651C681.596 459.307 680.453 469.206 674.389 477.763Z" fill="#AD5A3B"/>
<path d="M629.654 372.112C629.654 372.112 586.846 428.173 562.067 427.494C537.289 426.817 529.445 458.741 529.445 458.741C529.445 458.741 548.857 385.371 575.05 374.439C601.244 363.509 629.654 372.112 629.654 372.112Z" fill="#133742"/>
<path d="M934.643 702.328H738.086C733.113 702.328 727.802 706.359 726.224 711.331L643.341 972.538C641.763 977.511 644.515 981.543 649.488 981.543H846.044C851.017 981.543 856.329 977.511 857.906 972.538L940.791 711.331C942.369 706.359 939.616 702.328 934.643 702.328Z" fill="#14424D"/>
<path d="M566.265 443.724C566.696 454.831 561.287 464.185 554.182 464.616C547.078 465.048 540.971 456.393 540.54 445.286C540.108 434.179 545.518 424.825 552.622 424.394C559.725 423.963 565.834 432.617 566.265 443.724Z" fill="#AD5A3B"/>
<path d="M720.734 893.293C719.44 892.104 719.67 891.324 719.67 891.324C721.701 889.131 721.972 880.42 719.247 878.293C716.521 876.167 701.809 873.736 700.518 872.777C699.229 871.818 697.035 869.786 694.911 869.409C692.789 869.033 677.924 861.283 674.917 860.748C671.909 860.215 661.528 864.211 655.376 864.943C649.225 865.675 639.476 871.244 636.685 872.572C634.603 873.564 594.191 867.062 583.753 865.516C572.424 863.833 563.736 861.849 563.736 861.849C563.736 861.849 497.96 844.695 428.847 831.957L447.533 775.954L382.666 761.18C374.669 793.232 357.46 842.453 355.257 857.759C350.922 887.866 454.322 896.04 545.996 901.784H546.001C556.083 902.415 565.595 902.958 574.279 903.425C586.055 904.509 605.615 907.911 614.643 909.425C620.256 910.861 627.947 912.9 628.865 913.52C630.333 914.51 640.55 917.602 641.434 917.759C642.318 917.916 645.718 920.345 647.185 921.335C648.652 922.326 669.476 925.294 672.836 925.891C676.197 926.488 683.891 925.298 683.891 925.298L697.877 926.689C708.15 927.708 705.861 916.929 705.861 916.929C710.707 917.378 713.317 915.788 714.341 913.097C715.367 910.405 714.715 907.142 714.942 906.634C715.169 906.126 716.7 905.988 716.7 905.988C719.775 906.398 722.292 903.013 722.826 900.781C723.359 898.549 722.029 894.48 720.734 893.293Z" fill="#AD5A3B"/>
<path d="M376.254 761.169C376.254 761.169 407.374 638.18 431.85 607.033C456.327 575.884 515.099 567.989 536.091 596.076C557.084 624.165 458.938 780.546 458.938 780.546L376.254 761.169Z" fill="white"/>
<path d="M807.089 786.156C805.05 793.938 808.549 801.594 814.902 803.26C821.254 804.923 828.056 799.963 830.094 792.181C832.132 784.4 828.634 776.743 822.282 775.079C815.929 773.415 809.127 778.374 807.089 786.156Z" fill="white"/>
<path d="M1246.8 1547.51C1205.93 1557.97 1175.72 1550.86 1158.82 1544.06C1154.46 1556.39 1148.68 1571.85 1151.74 1580.77C1155.5 1591.69 1160.84 1594.16 1165.56 1594.28C1202.89 1595.26 1302.31 1596.59 1330.78 1596.96C1334.75 1597.02 1336.94 1592.38 1334.39 1589.33C1327.33 1580.92 1249.85 1549.37 1246.8 1547.51Z" fill="#14424D"/>
<path d="M620.79 499.744L589.813 488.746C589.813 488.746 586.351 500.764 599.834 505.995C616.271 512.372 620.79 499.744 620.79 499.744Z" fill="white"/>
<path d="M881.182 924.767C883.634 919.907 885.552 907.398 886.869 903.153C887.531 901.023 888.368 898.132 888.962 895.447C889.719 892.023 887.855 888.561 884.597 887.263C880.102 885.469 873.971 882.947 871.836 883.062C868.526 883.239 863.959 890.241 864.354 893.081C864.354 893.081 864.107 893.82 862.437 894.047C860.766 894.27 857.488 896.74 856.683 898.789C855.878 900.838 856 904.882 858.644 906.246C858.644 906.246 859.771 907.195 859.671 907.719C859.572 908.243 857.268 910.451 856.597 913.133C855.928 915.813 857.108 918.494 861.167 920.801C861.167 920.801 853.453 928.026 862.094 932.859L866.058 935.077C870.173 937.378 875.377 935.847 877.582 931.681C878.917 929.156 880.269 926.578 881.182 924.767Z" fill="#AD5A3B"/>
<path d="M1196.2 250.465C1055.36 250.651 941.211 321.124 941.236 407.871C941.248 451.245 969.802 490.475 1015.96 518.838L953.472 595.023L1079.09 547.228C1114.19 558.385 1154.04 564.661 1196.29 564.605C1337.13 564.42 1451.28 493.946 1451.25 407.199C1451.23 320.453 1337.04 250.28 1196.2 250.465Z" fill="#9BC1F9"/>
<path d="M2495.98 1598.67H2518.7L2470.28 1177.82H2447.56L2495.98 1598.67Z" fill="#0E2E35"/>
<path d="M2239.52 1598.67H2216.81L2265.23 1177.82H2287.95L2239.52 1598.67Z" fill="#0E2E35"/>
<path d="M2098.4 1598.67H2121.11L2072.69 1177.82H2049.97L2098.4 1598.67Z" fill="#0E2E35"/>
<path d="M1841.93 1598.67H1819.22L1867.64 1177.82H1890.36L1841.93 1598.67Z" fill="#0E2E35"/>
<path d="M2115.58 1223.55H2425.45C2461.76 1223.55 2494.22 1194.11 2497.94 1157.79L2549.14 657.621C2552.86 621.304 2526.43 591.863 2490.12 591.863H2180.26C2143.94 591.863 2111.48 621.304 2107.76 657.621L2056.56 1157.79C2052.84 1194.11 2079.27 1223.55 2115.58 1223.55Z" fill="#E25A44"/>
<path d="M2029.54 1223.55H2339.4C2375.72 1223.55 2408.17 1194.11 2411.89 1157.79L2463.1 657.621C2466.82 621.304 2440.39 591.863 2404.07 591.863H2094.21C2057.89 591.863 2025.44 621.304 2021.72 657.621L1970.51 1157.79C1966.8 1194.11 1993.22 1223.55 2029.54 1223.55Z" fill="#F47458"/>
<path d="M1988.02 1246.61H2427.22C2461.25 1246.61 2491.67 1219.02 2495.15 1184.99C2498.63 1150.96 2473.87 1123.37 2439.84 1123.37H2000.64C1966.6 1123.37 1936.19 1150.96 1932.7 1184.99C1929.22 1219.02 1953.98 1246.61 1988.02 1246.61Z" fill="#E25A44"/>
<path d="M1878.37 1246.61H2317.57C2351.61 1246.61 2382.02 1219.02 2385.51 1184.99C2388.99 1150.96 2364.23 1123.37 2330.19 1123.37H1890.99C1856.96 1123.37 1826.55 1150.96 1823.06 1184.99C1819.57 1219.02 1844.34 1246.61 1878.37 1246.61Z" fill="#F47458"/>
<path d="M1794.38 740.811C1792.34 734.898 1821.08 730.23 1822.63 724.263C1824.18 718.294 1786.39 717.698 1785.06 712.446C1782.6 702.771 1826.48 710.555 1825.63 706.032C1824.78 701.509 1779.92 691.252 1784.8 683.511C1789.68 675.771 1830.21 698.999 1831.46 693.74C1832.7 688.48 1791.83 675.529 1792.6 663.992C1793.01 657.826 1859.66 694.986 1867.41 691.659C1875.17 688.333 1859.2 659.287 1865.38 655.008C1871.56 650.728 1889.03 714.009 1893.28 716.134C1897.51 718.252 1987.55 770.055 2019.62 778.353C2023.55 767.616 2051.76 710.715 2055.23 700.561C2073.2 713.44 2094.08 716.311 2112.62 728.06C2099.04 761.76 2052.49 844.682 2043.09 848.887C2014.48 861.694 1904.32 769.68 1882.32 753.923C1860.31 738.15 1847.66 743.195 1832.75 738.185C1817.84 733.175 1796.42 746.724 1794.38 740.811Z" fill="#F48C7F"/>
<path d="M2073.98 472.441C2072.65 440.31 2077.38 408.579 2091.75 378.664C2104.12 352.926 2134.73 338.321 2162.64 338.285C2251.26 338.171 2262.53 455.264 2318.94 500.431C2336.18 514.232 2355.45 525.472 2371.76 540.356C2431.99 595.314 2404.86 697.046 2349.56 745.227C2311.18 778.661 2250.86 797.658 2203.56 771.522C2178.87 757.878 2160.12 735.199 2146.77 710.35C2127.82 675.083 2115.6 634.393 2102.12 596.806C2087.77 556.799 2075.75 515.152 2073.98 472.441Z" fill="#13375B"/>
<path d="M2107.12 768.187C2107.12 768.187 2173.31 700.322 2190.34 670.837C2207.37 641.352 2178.74 660.547 2149.5 652.789C2138.42 649.851 2141.23 584.955 2120.29 606.05C2085.95 640.658 2042.77 701.175 2042.77 701.175L2107.12 768.187Z" fill="#96D9C9"/>
<path d="M2201.22 576.277C2201.22 576.277 2260.62 564.551 2287.73 587.197C2314.84 609.843 2281.92 811.186 2281.95 844.563C2281.98 877.942 2300.56 972.245 2300.56 972.245C2300.56 972.245 2120.53 1003.76 2091.93 953.65C2091.93 953.65 2083.8 762.751 2085.01 738.745C2086.22 714.739 2112.91 616.561 2120.29 606.049C2127.67 595.535 2201.22 576.277 2201.22 576.277Z" fill="#50BFA5"/>
<path d="M2201.6 484.399C2201.6 484.399 2201.91 486.175 2202.47 489.197C2205.17 503.695 2215.54 551.788 2222.55 565.01C2231.02 580.988 2193.55 631.949 2157.49 625.729C2146.76 623.877 2166.57 578.905 2165.62 574.142C2163.79 565.023 2161.32 552.582 2158.79 539.827C2157.37 532.631 2155.92 525.336 2154.56 518.479C2150.71 498.993 2147.56 483.055 2147.56 483.055L2201.6 484.399Z" fill="#F7A491"/>
<path d="M2202.47 489.197C2201.91 486.175 2201.6 484.399 2201.6 484.399L2147.56 483.055C2147.56 483.055 2150.71 498.993 2154.57 518.479C2155.92 525.298 2157.35 532.551 2158.77 539.708C2167.11 538.482 2175.83 534.435 2184.57 526.799C2194.1 518.475 2200.34 508.472 2204.11 497.792C2203.45 494.383 2202.89 491.445 2202.47 489.197Z" fill="#F47458"/>
<path d="M2165.23 361.82C2165.23 361.82 2190.7 358.884 2206.67 379.49C2222.63 400.097 2239.84 463.823 2200.18 498.469C2160.52 533.116 2121.33 493.898 2115.52 452.317C2109.71 410.735 2107.46 360.319 2165.23 361.82Z" fill="#F7A491"/>
<path d="M2103.79 451.703C2108.53 460.887 2116.47 465.972 2121.54 463.061C2126.61 460.15 2126.88 450.346 2122.14 441.162C2117.41 431.978 2109.46 426.893 2104.4 429.804C2099.33 432.715 2099.06 442.52 2103.79 451.703Z" fill="#F7A491"/>
<path d="M2162.38 355.006C2162.38 355.006 2196.41 415.606 2220.75 418.406C2245.09 421.206 2248.29 453.407 2248.29 453.407C2248.29 453.407 2239.59 379.208 2215.49 364.899C2191.39 350.591 2162.38 355.006 2162.38 355.006Z" fill="#13375B"/>
<path d="M2214.37 433.634C2212.39 444.396 2216.37 454.265 2223.26 455.677C2230.15 457.09 2237.34 449.511 2239.32 438.748C2241.3 427.987 2237.32 418.118 2230.43 416.705C2223.54 415.292 2216.35 422.873 2214.37 433.634Z" fill="#F7A491"/>
<path d="M1985.37 1431.71C1985.37 1431.71 2040.01 1497.23 2040.37 1502.93C2040.73 1508.63 2038.2 1570.86 2031.7 1576.56C2025.2 1582.26 2006.11 1586.3 2012.25 1592.72C2016.89 1597.57 2052.58 1596.53 2076.23 1595.23C2083.13 1594.85 2091.79 1539.76 2094.53 1531.66C2098.5 1519.9 2108.16 1493.42 2104.55 1485.22C2102.79 1481.23 2094.37 1473.02 2082.51 1465.36C2070.03 1457.3 2022.32 1390.91 2022.32 1390.91L1985.37 1431.71Z" fill="#F48C7F"/>
<path d="M2081.74 1464.97C2081.74 1464.97 2045.04 1568.28 2030.68 1573.27C2026.87 1574.6 2008.56 1577.96 2005.11 1586.05C2004.07 1588.49 2005.11 1596.63 2005.11 1596.63H2081.6C2081.6 1596.63 2091.27 1551.11 2095.09 1531.11C2095.09 1531.11 2115.34 1482.24 2113.09 1477.8C2110.84 1473.36 2081.74 1464.97 2081.74 1464.97Z" fill="#50BFA5"/>
<path d="M1658.04 1463.18C1658.04 1463.18 1613.42 1526 1617.34 1545.88C1619.45 1556.52 1628.8 1570.45 1623.43 1580.47C1618.06 1590.48 1611.92 1592.99 1611.92 1592.99L1472.72 1595.22C1465.14 1595.34 1470.15 1590.48 1476.26 1585.99C1486.27 1578.65 1494.34 1573.79 1526.31 1558.36C1528.4 1557.35 1535.99 1552.54 1538.72 1550.87C1545.67 1546.64 1552.64 1539.98 1558.64 1533.31C1568.63 1522.21 1612.58 1431.71 1612.58 1431.71L1658.04 1463.18Z" fill="#F7A491"/>
<path d="M1538.74 1550.85C1575.56 1560.28 1602.77 1553.87 1618 1547.75C1621.92 1558.85 1627.13 1572.78 1624.37 1580.81C1620.99 1590.65 1616.17 1592.87 1611.92 1592.98C1578.3 1593.87 1488.75 1595.06 1463.11 1595.4C1459.53 1595.45 1457.55 1591.27 1459.85 1588.53C1466.21 1580.95 1536 1552.53 1538.74 1550.85Z" fill="#50BFA5"/>
<path d="M1819.46 1075.59C1819.46 1075.59 1874.71 1138.66 1888.81 1148.65C1902.9 1158.64 2038.15 1407.7 2038.15 1407.7L1989.97 1442.88C1989.97 1442.88 1869.09 1292.16 1812.32 1211.54C1764.32 1143.37 1782 1147.69 1753.77 1106.2C1738.23 1083.36 1741.76 1052.47 1762.25 1033.93C1764.8 1031.63 1767.57 1029.22 1770.58 1026.71C1812.36 991.888 2098.77 952.695 2098.77 952.695L2281.95 970.635C2281.95 970.635 2132.28 1075.59 2126.7 1078.38C2121.11 1081.18 1920.01 1110.5 1915.82 1110.5C1911.63 1110.5 1819.46 1075.59 1819.46 1075.59Z" fill="#13375B"/>
<path d="M2300.56 972.248C2300.56 972.248 2331.99 1066.51 2284.85 1110.51C2237.72 1154.5 1957.71 1149.61 1865.54 1149.61C1865.54 1149.61 1827.84 1252.95 1823.65 1269.71C1819.46 1286.47 1636.51 1502.94 1636.51 1502.94L1586.23 1470.81C1586.23 1470.81 1783.15 1088.16 1798.51 1071.4C1813.87 1054.65 2033.13 987.611 2087.59 972.25C2142.06 956.887 2300.56 972.248 2300.56 972.248Z" fill="#355389"/>
<path d="M2149.9 475.575L2187.27 473.641C2187.27 473.641 2187.14 487.877 2170.73 489.202C2150.73 490.818 2149.9 475.575 2149.9 475.575Z" fill="white"/>
<path d="M2149.9 475.575L2187.27 473.641C2187.27 473.641 2187.14 487.877 2170.73 489.202C2150.73 490.818 2149.9 475.575 2149.9 475.575Z" fill="white"/>
<path d="M1938.5 769.511C1936.45 763.597 1965.19 758.929 1966.74 752.962C1968.29 746.994 1930.5 746.398 1929.17 741.145C1926.71 731.471 1970.59 739.254 1969.74 734.731C1968.89 730.208 1924.04 719.951 1928.92 712.211C1933.79 704.471 1974.32 727.699 1975.57 722.44C1976.81 717.18 1935.94 704.229 1936.71 692.692C1937.13 686.526 2003.77 723.686 2011.52 720.359C2019.28 717.033 2003.31 687.987 2009.49 683.708C2015.67 679.428 2033.14 742.71 2037.39 744.834C2041.62 746.952 2131.66 798.755 2163.73 807.053C2167.66 796.317 2195.87 739.415 2199.35 729.262C2217.31 742.141 2238.19 745.012 2256.74 756.761C2243.15 790.461 2196.6 873.382 2187.2 877.588C2158.59 890.395 2048.43 798.381 2026.44 782.623C2004.42 766.851 1991.77 771.895 1976.86 766.885C1961.96 761.875 1940.54 775.423 1938.5 769.511Z" fill="#F7A491"/>
<path d="M2265.34 765.813C2265.34 765.813 2304.32 679.401 2310.24 645.869C2316.16 612.336 2287.39 570.24 2257.26 572.953C2227.12 575.667 2181.95 724.858 2181.95 724.858L2265.34 765.813Z" fill="#96D9C9"/>
<path d="M1608.88 94.2309C1777.15 94.4519 1913.53 178.652 1913.5 282.296C1913.49 334.118 1879.37 380.989 1824.23 414.877L1898.88 505.901L1748.79 448.797C1706.87 462.126 1659.25 469.626 1608.77 469.559C1440.5 469.338 1304.12 385.138 1304.15 281.494C1304.18 177.851 1440.61 94.0099 1608.88 94.2309Z" fill="#F7CC7F"/>
</svg>
