<svg width="494" height="423" viewBox="0 0 494 423" fill="none" xmlns="http://www.w3.org/2000/svg">
<path d="M438.492 386.15C438.492 386.15 460.185 320.656 440.355 293.421C420.525 266.187 404.806 254.168 414.741 232.208C424.676 210.248 420.253 174.351 393.997 163.571C367.74 152.792 379.93 112.206 350.86 88.9022C321.79 65.5988 298.088 76.1387 284.151 47.3936C271.91 22.1479 246.516 -1.64948 221.103 22.8164C215.531 28.1796 211.792 35.1732 209.85 42.7392C207.817 50.6521 200.719 64.3534 176.747 78.0548C139.866 99.1346 154.489 112.72 139.677 137.067C124.863 161.414 77.375 149.163 59.5569 195.871C41.7399 242.578 80.194 258.256 77.074 286.178C73.954 314.1 55.4816 329.326 66.7347 385.38" stroke="#E5C2A5" stroke-miterlimit="10"/>
<path d="M448.975 386.859C448.975 386.859 474.351 314.399 452.956 286.878C431.561 259.358 414.601 247.212 425.32 225.021C436.039 202.831 431.267 166.557 402.938 155.664C374.608 144.771 387.761 103.759 356.396 80.2106C325.032 56.6629 304.038 58.9138 289.001 29.8677C275.793 4.35704 243.817 -11.2909 216.398 13.4313C210.387 18.8512 206.352 25.9178 204.256 33.5635C202.063 41.5592 194.405 55.4045 168.54 69.2498C128.749 90.551 144.526 104.28 128.543 128.882C112.561 153.484 68.3801 145.047 48.622 186.254C26.5891 232.206 60.8119 250.678 57.4465 278.893C54.0801 307.108 45.6209 329.507 57.7628 386.15" stroke="#E5C2A5" stroke-miterlimit="10"/>
<path d="M224.578 37.4251C219.137 42.7883 215.485 49.7818 213.587 57.3479C211.602 65.2608 204.669 78.9621 181.255 92.6634C145.233 113.743 159.516 127.329 145.048 151.676C130.579 176.023 89.3621 157.346 71.9596 204.053C54.557 250.76 94.6806 271.843 91.6337 299.765C88.5868 327.687 64.6323 329.325 75.6237 385.379H438.731C438.731 385.379 458.1 335.265 438.731 308.03C419.362 280.795 404.009 268.777 413.713 246.817C423.417 224.857 419.097 188.96 393.452 178.18C367.806 167.4 379.712 126.814 351.319 103.511C322.925 80.2075 299.776 90.7474 286.162 62.0023C274.204 36.7577 249.401 12.9603 224.578 37.4251Z" fill="#F7E4D2"/>
<path d="M226.011 50.5571C220.806 55.6869 217.313 62.3773 215.497 69.6129C213.599 77.1812 206.967 90.2871 184.571 103.392C150.116 123.555 163.778 136.549 149.938 159.837C136.099 183.126 96.675 165.261 80.0303 209.935C63.3845 254.609 101.762 274.775 98.8484 301.483C95.9334 328.19 73.0215 329.757 83.5352 383.372H430.844C430.844 383.372 449.37 335.438 430.844 309.389C412.318 283.339 397.633 271.843 406.915 250.838C416.196 229.834 412.065 195.499 387.535 185.188C363.005 174.877 374.394 136.057 347.236 113.767C320.078 91.4779 297.936 101.559 284.915 74.0644C273.477 49.9191 249.753 27.1566 226.011 50.5571Z" stroke="white" stroke-miterlimit="10"/>
<path d="M360.028 182.92C357.885 181.676 355.072 182.577 354.615 181.879C354.158 181.182 356.922 179.028 357.811 176.769C358.699 174.509 357.699 168.653 354.059 171.411C350.418 174.169 350.253 178.869 350.253 178.869C350.253 178.869 350.194 179.128 350.146 179.558C348.911 176.652 349.575 172.64 349.581 172.595C349.618 172.377 349.473 172.17 349.255 172.132C349.027 172.094 348.829 172.241 348.793 172.459C348.762 172.63 348.232 175.845 349.02 178.742C347.106 176.534 344.315 175.192 344.162 175.12C343.963 175.026 343.723 175.11 343.628 175.311C343.533 175.51 343.618 175.75 343.819 175.844C343.862 175.865 347.832 177.775 349.384 180.648C348.905 180.301 348.571 180.122 348.571 180.122C348.571 180.122 344.907 177.177 340.442 178.134C335.976 179.092 339.755 183.674 342.045 184.477C344.335 185.279 347.769 184.591 347.998 185.394C348.227 186.195 345.708 187.738 345.25 190.176C344.792 192.612 347.654 195.14 349.258 195.251C350.71 195.352 352.905 190.476 352.881 186.831C355.692 189.048 360.417 190.388 361.25 189.274C362.212 187.985 362.17 184.165 360.028 182.92Z" fill="#DBA291"/>
<path d="M123.004 220.666C122.603 218.669 120.519 217.428 120.698 216.766C120.878 216.105 123.706 216.634 125.579 215.953C127.451 215.27 130.508 211.467 126.83 210.727C123.153 209.986 120.174 212.442 120.174 212.442C120.174 212.442 119.983 212.547 119.692 212.751C120.806 210.408 123.634 208.634 123.666 208.613C123.821 208.517 123.869 208.315 123.773 208.16C123.672 208 123.474 207.957 123.32 208.053C123.198 208.128 120.933 209.55 119.581 211.611C119.896 209.232 119.202 206.784 119.163 206.649C119.113 206.476 118.93 206.375 118.755 206.425C118.581 206.475 118.48 206.658 118.532 206.833C118.543 206.87 119.528 210.354 118.607 212.873C118.559 212.389 118.487 212.086 118.487 212.086C118.487 212.086 118.304 208.227 115.285 205.998C112.267 203.77 111.505 208.591 112.259 210.437C113.012 212.283 115.304 214.024 114.935 214.602C114.566 215.18 112.247 214.467 110.5 215.512C108.753 216.556 108.757 219.694 109.561 220.741C110.289 221.69 114.481 220.389 116.709 218.39C116.876 221.327 118.623 224.965 119.763 224.872C121.08 224.766 123.405 222.663 123.004 220.666Z" fill="#DBA291"/>
<path d="M245.611 80.5164C245.21 78.5196 243.126 77.2786 243.306 76.6167C243.486 75.9558 246.314 76.4847 248.186 75.8032C250.058 75.1216 253.115 71.3178 249.438 70.5773C245.761 69.8369 242.781 72.2938 242.781 72.2938C242.781 72.2938 242.591 72.3985 242.299 72.6025C243.414 70.26 246.242 68.4857 246.273 68.465C246.428 68.369 246.476 68.1662 246.38 68.0113C246.28 67.851 246.081 67.8085 245.928 67.9045C245.805 67.9797 243.54 69.4018 242.188 71.4629C242.503 69.0833 241.81 66.634 241.77 66.501C241.72 66.3276 241.537 66.2262 241.363 66.2763C241.188 66.3265 241.088 66.5097 241.139 66.6842C241.15 66.7213 242.136 70.2055 241.214 72.7246C241.166 72.2415 241.094 71.9372 241.094 71.9372C241.094 71.9372 240.911 68.079 237.893 65.8499C234.874 63.622 234.113 68.4421 234.866 70.2884C235.62 72.1346 237.911 73.8751 237.542 74.4531C237.174 75.03 234.854 74.3189 233.107 75.3637C231.36 76.4073 231.365 79.5447 232.168 80.5927C232.897 81.5415 237.089 80.2405 239.317 78.2416C239.484 81.1783 241.231 84.8163 242.37 84.7236C243.688 84.6178 246.013 82.5131 245.611 80.5164Z" fill="#DBA291"/>
<path d="M189.954 134.665C189.568 135.185 188.834 135.294 188.314 134.908C187.794 134.522 187.685 133.787 188.071 133.267C188.457 132.747 189.191 132.638 189.711 133.024C190.231 133.409 190.34 134.144 189.954 134.665Z" fill="white"/>
<path d="M192.98 129.665C192.594 130.185 191.86 130.294 191.339 129.908C190.819 129.522 190.71 128.787 191.096 128.267C191.482 127.747 192.216 127.638 192.736 128.024C193.257 128.41 193.366 129.145 192.98 129.665Z" fill="white"/>
<path d="M196.495 137.552C196.109 138.072 195.375 138.181 194.855 137.795C194.335 137.409 194.226 136.674 194.612 136.154C194.998 135.634 195.732 135.525 196.252 135.911C196.773 136.297 196.881 137.032 196.495 137.552Z" fill="white"/>
<path d="M347.778 148.411C347.392 148.931 346.658 149.041 346.138 148.654C345.618 148.268 345.509 147.533 345.895 147.013C346.281 146.493 347.015 146.384 347.535 146.77C348.055 147.156 348.164 147.89 347.778 148.411Z" fill="white"/>
<path d="M350.804 143.411C350.418 143.931 349.684 144.041 349.164 143.654C348.643 143.268 348.534 142.533 348.92 142.013C349.307 141.493 350.04 141.384 350.561 141.77C351.081 142.156 351.19 142.891 350.804 143.411Z" fill="white"/>
<path d="M354.321 151.298C353.935 151.818 353.201 151.927 352.681 151.541C352.161 151.155 352.052 150.42 352.438 149.9C352.824 149.38 353.558 149.271 354.078 149.657C354.598 150.043 354.707 150.778 354.321 151.298Z" fill="white"/>
<path d="M292.112 100.821C291.726 101.342 290.992 101.451 290.472 101.065C289.952 100.679 289.843 99.9436 290.229 99.4234C290.615 98.9032 291.349 98.7942 291.869 99.1802C292.389 99.5652 292.498 100.3 292.112 100.821Z" fill="white"/>
<path d="M295.138 95.8215C294.752 96.3416 294.018 96.4507 293.498 96.0646C292.977 95.6786 292.868 94.9436 293.254 94.4234C293.64 93.9032 294.374 93.7942 294.895 94.1802C295.415 94.5663 295.524 95.3013 295.138 95.8215Z" fill="white"/>
<path d="M298.653 103.708C298.267 104.228 297.533 104.337 297.013 103.951C296.493 103.565 296.384 102.83 296.77 102.31C297.156 101.79 297.89 101.681 298.41 102.067C298.93 102.452 299.039 103.187 298.653 103.708Z" fill="white"/>
<path d="M307.279 169.121C306.78 168.708 306.71 167.969 307.122 167.469C307.534 166.97 308.274 166.899 308.773 167.312C309.273 167.724 309.342 168.465 308.93 168.964C308.518 169.463 307.779 169.533 307.279 169.121Z" fill="white"/>
<path d="M312.109 172.406C311.61 171.994 311.54 171.254 311.952 170.754C312.364 170.255 313.104 170.184 313.603 170.597C314.103 171.009 314.173 171.75 313.76 172.249C313.347 172.749 312.609 172.819 312.109 172.406Z" fill="white"/>
<path d="M304.058 175.508C303.559 175.096 303.489 174.355 303.901 173.856C304.314 173.356 305.053 173.285 305.552 173.699C306.052 174.111 306.122 174.851 305.71 175.351C305.296 175.85 304.558 175.921 304.058 175.508Z" fill="white"/>
<path d="M138.444 193.761C138.444 194.586 137.777 195.253 136.954 195.253C136.13 195.253 135.463 194.586 135.463 193.761C135.463 192.938 136.13 192.27 136.954 192.27C137.777 192.27 138.444 192.937 138.444 193.761Z" fill="white"/>
<path d="M338.227 116.861C338.227 117.884 337.398 118.713 336.375 118.713C335.352 118.713 334.523 117.884 334.523 116.861C334.523 115.838 335.352 115.008 336.375 115.008C337.398 115.008 338.227 115.838 338.227 116.861Z" fill="white"/>
<path d="M210.284 174.603C210.284 175.626 209.456 176.456 208.434 176.456C207.411 176.456 206.582 175.626 206.582 174.603C206.582 173.58 207.411 172.75 208.434 172.75C209.456 172.75 210.284 173.58 210.284 174.603Z" fill="white"/>
<path d="M245.674 53.6142C245.674 54.2379 245.168 54.7439 244.544 54.7439C243.92 54.7439 243.414 54.2379 243.414 53.6142C243.414 52.9904 243.92 52.4844 244.544 52.4844C245.168 52.4844 245.674 52.9904 245.674 53.6142Z" fill="white"/>
<path d="M332.083 219.61C332.083 220.538 331.332 221.291 330.404 221.291C329.477 221.291 328.725 220.538 328.725 219.61C328.725 218.682 329.476 217.93 330.404 217.93C331.332 217.93 332.083 218.682 332.083 219.61Z" fill="white"/>
<path d="M221.947 91.8055C221.947 92.7335 221.195 93.486 220.267 93.486C219.34 93.486 218.588 92.7335 218.588 91.8055C218.588 90.8775 219.339 90.125 220.267 90.125C221.195 90.125 221.947 90.8775 221.947 91.8055Z" fill="white"/>
<path d="M36.8396 373.199H485.127C488.428 373.199 489.335 377.746 486.282 379.001C456.298 391.318 376.783 419.224 265.345 422.41C161.718 425.373 75.1378 398.404 35.0087 383.181C29.6455 381.147 31.1046 373.199 36.8396 373.199Z" fill="#F7E4D2"/>
<path d="M186.258 279.295C185.267 261.587 166.709 258.027 164.853 253.621C162.998 249.214 160.002 240.201 146.639 235.95C133.277 231.699 124.963 239.556 117.476 234.745C109.988 229.933 103.325 225.955 94.4001 232.006C85.4752 238.058 79.1513 235.833 66.2667 234.374C53.3822 232.915 43.1498 245.341 43.1498 245.341C38.1105 249.964 42.972 255.818 54.8522 258.689C71.6278 262.744 66.8371 273.639 75.7794 278.055C84.7217 282.47 95.3488 278.095 102.088 283.439C108.827 288.782 108.318 298.473 116.659 300.748C124.999 303.022 134.838 297.484 139.61 300.762C144.382 304.04 146.982 313.753 152.677 317.108C158.372 320.462 174.49 321.292 174.49 321.292L178.384 320.351C178.384 320.351 187.249 297.003 186.258 279.295Z" fill="#B9BC7E"/>
<path d="M175.739 314.781C175.739 314.781 171.533 278.635 146.675 262.17C121.816 245.705 81.0479 245.313 68.689 244.63C56.3301 243.947 56.3301 243.947 56.3301 243.947C56.3301 243.947 106.22 240.774 130.958 250.835C164.932 264.652 174.612 287.224 175.739 314.781Z" fill="#FFFBF4"/>
<path d="M157.497 276.729C157.497 276.729 136.711 258.159 133.58 242.703C130.449 227.249 139.637 221.475 133.451 213.651C127.266 205.826 130.03 191.785 136.689 188.221C143.348 184.658 146.075 176.881 146.727 166.129C147.379 155.378 155.575 151.378 158.113 154.36C165.104 162.573 161.628 170.971 172.321 176.195C183.013 181.419 186.805 192.238 184.122 201.097C181.44 209.956 193.23 212.783 201.039 226.306C208.847 239.83 203.19 251.136 199.878 259.619C196.565 268.101 205.746 278.32 202.413 288.098C199.08 297.875 176.076 313.971 176.076 313.971C176.076 313.971 164.947 309.859 157.497 276.729Z" fill="#CFC293"/>
<path d="M157.289 169.328C157.289 169.328 164.153 195.795 172.419 229.915C180.684 264.036 182.076 306.118 182.076 306.118C182.076 306.118 186.861 275.578 180.661 246.918C174.462 218.259 157.813 173.739 157.289 169.328Z" fill="#FFFBF4"/>
<path d="M160.288 290.542C157.453 276 171.747 269.306 172.344 265.357C172.941 261.409 173.517 253.495 183.462 247.308C193.408 241.122 201.754 245.775 206.828 240.342C211.902 234.908 216.48 230.318 224.949 233.384C233.418 236.451 238.081 233.35 248.214 229.522C258.346 225.694 269.184 233.654 269.184 233.654C274.214 236.361 271.481 242.1 262.451 246.865C249.702 253.594 255.819 261.431 249.485 266.844C243.152 272.256 233.648 270.896 229.289 276.607C224.931 282.317 227.333 290.06 221.048 293.615C214.763 297.17 205.659 294.707 202.469 298.34C199.279 301.974 199.169 310.373 195.246 314.26C191.324 318.145 178.444 322.128 178.444 322.128L175.098 322.166C175.098 322.166 163.123 305.083 160.288 290.542Z" fill="#B9BC7E"/>
<path d="M176.094 317.112C176.094 317.112 172.074 286.981 188.819 268.544C205.564 250.106 238.493 241.414 248.359 238.322C258.225 235.23 258.225 235.23 258.225 235.23C258.225 235.23 217.177 242.91 199.215 256.137C174.547 274.304 171.346 294.568 176.094 317.112Z" fill="#FFFBF4"/>
<path d="M166.265 317.061C166.265 317.061 138.877 309.562 124.498 316.139C110.118 322.716 107.465 331.755 107.465 331.755C107.465 331.755 113.623 333.908 125.334 332.268C137.046 330.627 138.801 323.689 146.967 326.989C155.133 330.289 157.813 333.468 164.688 331.498C171.563 329.529 175.096 322.168 175.096 322.168L166.265 317.061Z" fill="#9A9B82"/>
<path d="M179.749 318.045C179.749 318.045 187.113 309.556 197.795 310.121C208.476 310.686 210.353 314.41 215.587 314.648C220.82 314.885 223.711 313.234 230.855 315.674C237.925 318.088 242.105 321.396 242.105 321.396C242.105 321.396 234.842 331.908 223.534 329.186C212.227 326.464 203.672 324.709 199.973 328.498C196.274 332.288 173.041 325.382 173.041 325.382L179.749 318.045Z" fill="#9A9B82"/>
<path d="M338.273 284.335C338.273 284.335 353.669 294.212 385.333 299.731C416.996 305.25 430.359 296.244 432.102 292.033C433.845 287.82 428.616 285.497 407.992 281.721C387.367 277.944 381.847 273.296 392.014 272.135C402.181 270.974 416.416 279.978 428.617 279.978C440.818 279.978 449.242 273.491 449.532 269.036C449.822 264.582 412.93 263.42 408.282 257.029C403.634 250.639 432.199 257.319 444.497 259.063C456.795 260.806 461.733 251.22 460.861 248.025C459.99 244.829 430.069 243.793 427.164 239.372C424.259 234.952 439.655 236.53 453.018 239.372C466.381 242.214 473.062 232.337 471.32 230.014C469.577 227.69 444.885 225.947 442.27 221.589C439.655 217.231 455.632 218.394 463.767 220.137C471.901 221.879 480.615 214.036 477.71 211.422C474.805 208.808 456.504 207.936 455.924 204.159C455.342 200.383 480.305 202.417 478.281 196.898C476.257 191.378 469.286 186.214 458.538 186.036C447.789 185.859 437.912 197.188 432.103 193.702C426.293 190.216 446.337 181.792 441.109 178.596C435.88 175.401 424.26 177.144 420.194 182.663C416.127 188.182 415.836 197.478 411.479 197.188C407.121 196.898 414.674 183.825 410.898 180.92C407.121 178.015 397.245 184.116 395.212 189.926C393.178 195.735 395.502 207.356 391.435 207.936C387.369 208.517 392.414 189.345 388.874 187.602C385.335 185.859 374.006 197.188 373.715 204.16C373.425 211.132 377.202 222.115 371.101 223.886C365.001 225.657 366.164 203.869 361.516 201.837C356.868 199.803 347.572 213.128 349.025 224.04C350.477 234.952 353.673 243.881 349.315 243.919C344.957 243.957 341.762 230.013 338.277 227.69C334.79 225.366 331.651 231.176 330.752 245.991C329.849 260.806 336.838 280.703 338.273 284.335Z" fill="#D1C795"/>
<path d="M333.304 308.198C333.304 308.198 349.621 266.34 368.603 243.145C387.585 219.951 424.216 205.964 441.866 204.965C441.866 204.965 400.111 212.727 373.265 245.925C346.42 279.123 336.301 324.516 336.301 324.516L328.975 323.075L333.304 308.198Z" fill="#FFFBF4"/>
<path d="M37.6514 369.679C37.6514 369.679 39.9818 360.995 51.4193 356.97C62.8567 352.946 64.5513 363.748 71.7532 363.325C78.955 362.901 82.2996 376.881 82.2996 376.881H35.1094L37.6514 369.679Z" fill="#9A9B82"/>
<path d="M65.3047 376.379C64.6416 373.085 63.6252 369.373 62.3613 365.405C64.4322 361.383 70.2949 348.611 70.1542 333.151C69.983 314.388 56.9785 294.709 56.9785 294.709C56.9785 294.709 53.563 326.814 59.2228 356.347C55.3067 345.777 50.286 334.313 45.6349 324.293C47.6142 320.149 51.1736 311.231 51.1464 300.655C51.1082 286.027 41.0699 270.621 41.0699 270.621C41.0699 270.621 38.3753 294.446 42.2095 317.021C38.782 309.85 35.8245 303.955 34.035 300.442C33.7198 295.49 32.4962 286.808 27.9956 278.29C21.1613 265.357 5.11208 256.383 5.11208 256.383C5.11208 256.383 15.2169 282.367 31.0469 301.122C32.4788 303.933 34.8845 308.72 37.7656 314.678C35.5671 311.453 32.758 308.022 29.2225 304.908C18.2474 295.237 0.0585938 292.535 0.0585938 292.535C0.0585938 292.535 20.7306 315.479 43.5716 326.972C45.9435 332.12 48.3895 337.6 50.7211 343.112C48.0831 339.528 44.8486 335.821 40.9369 332.42C26.7786 320.105 3.42504 316.791 3.42504 316.791C3.42504 316.791 28.7143 344.499 57.1595 359.4C59.5129 365.903 61.3875 371.964 62.3951 376.965L65.3047 376.379Z" fill="#B9BC7E"/>
<path d="M438.513 367.518H452.879C452.879 367.518 459.379 355.546 475.113 347.336C490.847 339.127 492.557 329.225 493.242 324.599C493.925 319.973 487.085 322.367 476.823 328.524C466.561 334.681 463.825 349.257 459.378 348.981C454.932 348.705 457.668 331.949 467.245 326.474C476.822 320.999 484.347 307.659 486.741 299.108C489.136 290.557 469.638 296.713 460.403 306.975C451.167 317.237 452.536 342.297 445.695 345.501C438.854 348.705 450.826 327.669 436.973 319.087C431.418 315.647 429.959 325.487 431.67 337.951C433.383 350.415 441.934 356.23 438.513 367.518Z" fill="#9A9B82"/>
<path d="M414.316 374.959C414.316 374.959 439.542 377.706 459.024 377.706C478.505 377.706 485.998 375.958 485.998 375.958C485.998 375.958 481.752 367.965 469.264 364.968C456.776 361.972 455.527 369.464 450.032 364.968C444.537 360.473 434.547 357.226 425.806 359.723C417.063 362.22 414.316 374.959 414.316 374.959Z" fill="#D7CA8C"/>
<path d="M253.701 397.917C337.004 397.917 404.535 392.384 404.535 385.558C404.535 378.732 337.004 373.199 253.701 373.199C170.398 373.199 102.867 378.732 102.867 385.558C102.867 392.384 170.398 397.917 253.701 397.917Z" fill="#E2C9B5"/>
<path d="M394.04 317.361L382.583 329.44C382.583 329.44 382.583 329.452 382.571 329.476L380.417 331.739C380.405 331.751 380.393 331.751 380.393 331.751L380.261 331.895C380.249 331.883 380.225 331.871 380.213 331.859C355.478 316.559 331.619 293.765 325.609 287.887C322.521 285.11 319.623 281.781 317.372 277.807C312.093 268.457 304.958 251.002 299.989 238.217L299.331 240.995L290.375 278.933C294.206 284.811 299.449 293.814 303.939 304.923C306.214 310.562 308.297 316.751 309.901 323.336L258.435 353.612L258.447 354.379L257.752 354.008L257.07 354.403L257.058 353.636L204.465 325.359C206.165 317.026 208.643 309.304 211.325 302.492C211.373 302.385 211.409 302.266 211.457 302.158C215.12 292.964 219.179 285.433 222.28 280.237L211.709 242.071L210.285 236.935L209.518 234.169C204.49 246.656 195.224 268.911 188.759 279.853C186.436 283.78 183.492 287.049 180.33 289.766C174.225 295.524 149.886 317.887 124.865 332.733L122.578 330.231L111.361 317.937L168.395 264.314L187.67 209.208C198.768 185.396 207.088 185.061 207.088 185.061V185.072C208.62 183.779 210.368 182.69 212.331 181.924C212.965 181.672 213.612 181.421 214.27 181.146L214.282 181.134C218.041 179.589 222.255 177.614 226.469 175.136C231.438 172.202 236.418 168.551 240.68 164.037C241.303 159.8 241.53 153.766 241.614 149.851C241.662 147.516 241.662 145.924 241.662 145.924L253.789 147.169L265.857 145.457C265.857 145.457 265.965 148.605 266.252 152.556C266.528 156.111 266.922 160.326 267.521 163.523C269.496 165.462 271.615 167.234 273.806 168.814C281.408 174.405 289.883 177.996 296.54 180.307C298.264 180.906 299.832 181.743 301.256 182.75C302.993 183.18 310.511 186.198 319.813 207.208L338.034 262.661L394.04 317.361Z" fill="#5E4453"/>
<path d="M273.808 168.816C271.857 171.007 265.884 175.711 248.955 179.602C226.065 184.857 214.273 181.146 214.273 181.146L214.285 181.134C218.044 179.59 222.258 177.615 226.473 175.136C231.442 172.203 236.422 168.552 240.684 164.038C241.306 159.8 241.533 153.767 241.617 149.852L266.255 152.557C266.531 156.112 266.926 160.327 267.525 163.523C269.499 165.464 271.618 167.236 273.808 168.816Z" fill="#3F2935"/>
<path d="M286.696 250.661C278.664 254.216 264.625 247.326 252.701 251.169C240.778 255.024 234.876 266.05 232.565 280.165C230.254 294.268 236.156 314.775 236.156 314.775C236.156 314.775 225.502 317.732 211.458 302.156C215.121 292.962 219.18 285.432 222.28 280.236L210.284 236.934L209.518 234.169C209.518 234.169 206.656 219.359 213.839 208.07C213.839 208.07 211.601 220.138 215.804 231.164C219.993 242.191 229.882 242.191 240.202 241.939C250.521 241.687 250.377 238.147 262.038 240.657C281.489 244.846 289.09 242.965 293.627 236.577C296.619 232.364 294.717 247.105 286.696 250.661Z" fill="#3F2935"/>
<path d="M231.344 132.826C231.344 132.826 228.582 127.191 224.946 127.413C221.31 127.634 220.094 135.393 225.215 141.437C230.336 147.482 234.988 144.889 234.988 144.889L231.344 132.826Z" fill="#EA8D78"/>
<path d="M276.941 131.948C276.941 131.948 279.485 126.212 283.126 126.294C286.767 126.376 288.281 134.082 283.395 140.318C278.51 146.555 273.762 144.144 273.762 144.144L276.941 131.948Z" fill="#EA8D78"/>
<path d="M278.577 120.312C279.008 142.827 265.593 162.954 254.905 163.159C241.941 163.408 229.402 142.263 228.999 121.264C228.701 105.732 238.019 92.9564 253.551 92.6576C269.084 92.3599 278.278 104.78 278.577 120.312Z" fill="#FFA488"/>
<path d="M234.557 122.393C234.557 122.393 238.203 121.353 242.149 121.065C247.094 120.703 248.918 121.219 248.918 121.219C248.918 121.219 247.966 118.446 243.803 118.525C239.642 118.606 234.557 122.393 234.557 122.393Z" fill="#2F2A00"/>
<path d="M248.665 128.472C248.665 128.472 245.746 124.546 241.991 124.504C238.237 124.463 234.906 128.735 234.906 128.735C234.906 128.735 235.931 129.862 241.265 130.092C246.729 130.329 248.665 128.472 248.665 128.472Z" fill="#EA8D78"/>
<path d="M241.891 129.774C238.352 129.808 235.474 128.918 234.988 128.759L234.936 128.732C234.932 128.734 234.928 128.736 234.924 128.738C234.918 128.736 234.906 128.733 234.906 128.733C234.909 128.735 234.915 128.739 234.918 128.741C234.297 129.142 233.02 129.248 233.02 129.248C234.336 129.659 235.379 129.522 235.846 129.42C236.867 130.113 238.675 131.023 241.913 130.987C246.563 130.936 248.664 128.469 248.664 128.469C248.664 128.469 245.775 129.737 241.891 129.774Z" fill="#2F2A00"/>
<path d="M272.825 121.656C272.825 121.656 269.141 120.757 265.188 120.62C260.231 120.449 258.43 121.034 258.43 121.034C258.43 121.034 259.275 118.225 263.436 118.146C267.598 118.065 272.825 121.656 272.825 121.656Z" fill="#2F2A00"/>
<path d="M258.959 128.273C258.959 128.273 261.726 124.238 265.476 124.053C269.226 123.867 272.718 128.009 272.718 128.009C272.718 128.009 271.737 129.174 266.416 129.609C260.964 130.054 258.959 128.273 258.959 128.273Z" fill="#EA8D78"/>
<path d="M274.622 128.451C274.622 128.451 273.342 128.393 272.706 128.017C272.709 128.014 272.714 128.01 272.718 128.008C272.718 128.008 272.707 128.012 272.702 128.014C272.698 128.012 272.693 128.011 272.69 128.009L272.638 128.038C272.158 128.216 269.316 129.215 265.779 129.318C261.896 129.43 258.959 128.273 258.959 128.273C258.959 128.273 261.154 130.658 265.803 130.53C269.04 130.442 270.812 129.463 271.805 128.731C272.274 128.815 273.322 128.912 274.622 128.451Z" fill="#2F2A00"/>
<path d="M250.592 141.971C250.592 141.971 252.586 143.184 254.219 143.267C255.851 143.35 257.794 141.833 257.794 141.833C257.794 141.833 256.273 141.674 254.453 141.632C252.632 141.591 250.592 141.971 250.592 141.971Z" fill="#EA8D78"/>
<path d="M255.088 148.952C259.119 148.709 261.678 147.441 261.678 147.441C261.678 147.441 257.365 146.978 256.261 147.194C255.575 147.328 255.096 147.984 254.832 148.461C254.55 147.994 254.047 147.357 253.357 147.25C252.244 147.076 247.953 147.705 247.953 147.705C247.953 147.705 250.561 148.874 254.597 148.962C254.596 148.965 254.589 148.98 254.589 148.98C254.675 148.977 254.757 148.971 254.842 148.966C254.927 148.967 255.009 148.971 255.095 148.971C255.095 148.971 255.091 148.955 255.088 148.952Z" fill="#743F3D"/>
<path d="M249.189 149.418C249.189 149.418 250.038 150.624 253.181 151.389C256.324 152.153 258.602 150.857 260.485 149.656C260.485 149.656 258.784 152.902 255.237 153.339C251.691 153.778 249.313 149.899 249.189 149.418Z" fill="#EA8D78"/>
<path d="M263.516 106.001C263.516 106.001 258.115 103.148 250.842 103.515C243.569 103.883 237.919 109.564 235.814 113.586C233.708 117.608 231.569 118.755 231.569 118.755C231.569 118.755 232.236 128.507 230.37 132.663C230.37 132.663 227.851 128.451 224.949 127.407C224.949 127.407 222.465 118.507 223.989 109.035C225.514 99.5641 235.555 89.3611 249.066 87.9642C262.575 86.5672 269.414 93.1475 269.414 93.1475C269.414 93.1475 278.383 98.2075 281.051 106.802C283.718 115.396 281.43 126.551 281.43 126.551C281.43 126.551 279.122 127.72 277.634 131.754C277.634 131.754 273.312 125.233 274.424 117.932C274.421 117.932 272.653 106.319 263.516 106.001Z" fill="#743F3D"/>
<path d="M271.548 97.9983C268.84 98.8555 251.362 89.3963 251.362 89.3963C251.362 89.3963 251.271 87.8652 251.762 85.8891C252.448 83.1585 254.23 79.5608 258.879 77.8814C259.679 77.5957 260.467 77.3907 261.233 77.2533C268.235 76.0657 274.049 80.8629 275.718 85.7528C277.568 91.1793 274.266 97.1532 271.548 97.9983Z" fill="#743F3D"/>
<path d="M248.918 121.217C248.918 121.217 250.612 124.391 251.565 129.209C252.519 134.028 251.725 137.484 251.725 137.484C251.725 137.484 250.792 123.854 243.855 120.965C243.855 120.965 247.659 120.884 248.918 121.217Z" fill="#EA8D78"/>
<path d="M263.514 106.007C263.514 106.007 254.885 103.119 247.54 106.313C240.194 109.508 240.37 114.17 235.267 114.564L234.609 113.344C234.609 113.344 235.969 113.605 239.077 111.155C242.184 108.705 248.739 99.8913 263.514 106.007Z" fill="#743F3D"/>
<path d="M228.42 363.566C228.42 363.566 221.363 364.466 218.903 364.944C218.903 364.944 209.047 363.532 204.906 363.707C200.764 363.883 198.5 368.812 196.161 374.161C193.822 379.51 184.757 385.209 181.555 388.541C178.353 391.871 178.267 396.758 178.336 397.791C178.406 398.825 176.32 401.77 177.417 404.187C178.514 406.605 179.706 405.798 180.726 405.522C181.745 405.246 182.461 403.536 182.461 403.536C182.461 403.536 185.066 403.673 186.175 403.182C187.284 402.692 186.333 402.445 188.814 402.277C191.295 402.11 192.624 401.812 194.14 401.191C195.656 400.569 206.04 389.797 211.662 386.927C217.283 384.055 225.95 384.718 225.95 384.718L228.42 363.566Z" fill="#FFA488"/>
<path d="M387.767 370.887C371.006 380.261 343.244 383.948 311.111 385.899C307.196 386.139 303.223 386.353 299.188 386.545L299.738 400.48C299.738 400.48 297.296 400.456 292.974 400.396C279.721 400.24 248.822 399.845 216.605 399.199C164.505 398.169 123.058 385.24 111.086 373.711C105.316 368.144 101.892 359.272 103.114 350.989C104.083 344.428 107.974 338.238 115.911 334.325C117.803 333.391 121.106 332.206 125.572 330.936C139.578 326.925 164.923 322.077 192.877 321.814C193.32 321.778 193.738 321.754 194.146 321.718C197.833 316.187 211.457 302.156 211.457 302.156C211.457 302.156 221.034 310.213 234.131 315.002C241.051 317.527 248.965 319.155 256.961 318.186C280.091 315.396 303.328 302.503 303.328 302.503C308.033 307.185 312.535 318.174 312.535 318.174C335.689 318.39 374.034 325.417 382.282 329.547C382.342 329.583 382.39 329.619 382.438 329.643C388.041 331.151 392.71 334.407 395.906 338.55C403.317 348.139 402.827 362.482 387.767 370.887Z" fill="#E9835B"/>
<path d="M111.356 317.933C111.356 317.933 105.529 317.043 103.193 317.088C100.856 317.132 96.1424 318.625 93.4804 319.077C90.8173 319.528 89.4836 319.621 89.5578 320.02C89.6319 320.419 90.5196 321.404 93.4662 321.815C96.4128 322.226 98.933 321.443 100.503 321.413C102.074 321.382 102.425 322.311 102.425 322.311C102.425 322.311 100.837 326.549 95.7116 327.449C90.5861 328.348 88.5687 327.586 88.2208 326.858C87.8729 326.13 90.0474 321.145 89.4782 319.287C88.9078 317.428 88.043 317.578 86.9645 320.538C85.886 323.498 84.0037 326.338 84.0408 328.274C84.0779 330.21 87.3822 331.884 87.3822 331.884C87.3822 331.884 81.0233 331.138 79.1204 332.91C77.2174 334.683 81.0255 334.743 84.0364 335.02C87.0474 335.296 89.8686 336.177 91.6679 335.942C91.6679 335.942 83.585 335.829 82.007 337.129C80.429 338.428 83.6515 339.302 86.7224 339.243C89.7933 339.184 93.946 339.839 94.6145 339.826C94.6145 339.826 87.4182 340.699 87.6537 342.498C87.8882 344.296 89.2012 343.069 93.1489 343.461C97.0966 343.852 100.368 343.79 104.086 342.649C107.803 341.51 122.581 330.226 122.581 330.226L111.356 317.933Z" fill="#FFA488"/>
<path d="M360.328 335.569C329.538 339.939 243.34 362.003 243.34 362.003C243.34 362.003 197.931 341.22 167.487 336.347C138.575 331.727 121.707 334.025 125.574 330.936C139.58 326.925 164.925 322.077 192.879 321.814C193.321 321.778 193.74 321.754 194.148 321.718C197.835 316.187 211.459 302.156 211.459 302.156C211.459 302.156 221.036 310.213 234.133 315.002C235.186 320.078 253.348 345.063 266.433 340.956C279.518 336.861 296.697 331.211 304.91 334.037C313.123 336.862 329.799 335.318 341.292 332.731C352.774 330.146 360.328 335.569 360.328 335.569Z" fill="#CC6A4C"/>
<path d="M382.584 329.441C382.584 329.441 382.584 329.453 382.572 329.477C382.464 329.705 381.914 330.819 380.417 331.74C380.405 331.752 380.393 331.752 380.393 331.752C380.333 331.788 380.274 331.824 380.214 331.86C355.479 316.56 331.62 293.766 325.61 287.888C322.522 285.11 319.624 281.782 317.373 277.808C312.094 268.458 304.959 251.003 299.99 238.218L302.852 214.406C302.852 214.406 313.542 260.485 324.832 275.331C336.121 290.174 382.584 329.441 382.584 329.441Z" fill="#3F2935"/>
<path d="M211.711 242.071L210.287 236.935L209.52 234.169C204.492 246.655 195.225 268.911 188.761 279.853C186.438 283.78 183.493 287.048 180.332 289.766C174.226 295.524 149.888 317.887 124.867 332.733L122.58 330.231C122.58 330.231 171.867 288.138 186.342 271.582C200.803 255.024 209.699 218.918 209.699 218.918L211.711 242.071Z" fill="#3F2935"/>
<path d="M387.767 370.891C371.007 380.265 343.244 383.952 311.112 385.903C297.68 383.7 288.09 378.469 288.09 378.469V376.877L243.375 362.019C243.755 362.113 251.102 360.041 251.102 360.041C271.463 364.577 321.633 378.251 347.757 372.267C381.361 364.569 382.643 350.43 388.796 343.391C391.203 340.638 393.729 339.237 395.908 338.555C403.318 348.144 402.827 362.486 387.767 370.891Z" fill="#CC6A4C"/>
<path d="M288.094 378.461C288.094 378.461 295.132 379.498 297.582 380.024C297.582 380.024 307.464 378.804 311.601 379.061C315.739 379.317 317.905 384.29 320.139 389.684C322.373 395.077 331.324 400.953 334.461 404.346C337.597 407.738 337.587 412.625 337.498 413.658C337.408 414.689 339.436 417.674 338.292 420.07C337.147 422.466 335.971 421.636 334.957 421.339C333.943 421.043 333.261 419.32 333.261 419.32C333.261 419.32 330.654 419.405 329.554 418.893C328.455 418.382 329.41 418.153 326.934 417.937C324.457 417.721 323.133 417.398 321.63 416.747C320.127 416.096 309.954 405.123 304.391 402.143C298.827 399.162 290.148 399.655 290.148 399.655L288.094 378.461Z" fill="#FFA488"/>
<path d="M394.041 317.368C394.041 317.368 399.884 316.59 402.22 316.679C404.556 316.768 409.238 318.351 411.893 318.854C414.546 319.356 415.879 319.474 415.796 319.872C415.714 320.27 414.808 321.237 411.855 321.592C408.901 321.946 406.395 321.115 404.827 321.055C403.258 320.995 402.888 321.917 402.888 321.917C402.888 321.917 404.395 326.184 409.502 327.182C414.609 328.18 416.642 327.456 417.004 326.734C417.366 326.013 415.286 320.988 415.892 319.14C416.497 317.293 417.359 317.459 418.381 320.438C419.403 323.417 421.231 326.294 421.157 328.229C421.083 330.163 417.747 331.773 417.747 331.773C417.747 331.773 424.119 331.148 425.987 332.957C427.856 334.766 424.047 334.754 421.031 334.973C418.016 335.191 415.177 336.018 413.383 335.749C413.383 335.749 421.467 335.792 423.02 337.121C424.573 338.45 421.334 339.262 418.266 339.144C415.196 339.026 411.031 339.602 410.364 339.576C410.364 339.576 417.542 340.586 417.273 342.379C417.004 344.173 415.716 342.921 411.761 343.238C407.806 343.554 404.537 343.429 400.841 342.218C397.146 341.008 382.586 329.445 382.586 329.445L394.041 317.368Z" fill="#FFA488"/>
<path d="M292.974 400.399C279.721 400.244 248.822 399.849 216.605 399.202C164.505 398.173 123.058 385.243 111.086 373.714C105.316 368.147 101.892 359.276 103.114 350.992C107.519 354.416 116.031 360.378 132.264 368.495C158.937 381.844 208.19 389.026 247.194 392.787C286.185 396.546 289.693 394.893 289.693 394.893L292.974 400.399Z" fill="#CC6A4C"/>
<path d="M265.631 91.9335C260.365 89.3631 252.037 87.7862 252.037 87.7862C251.9 87.1231 251.808 86.4841 251.764 85.8898C252.45 83.1591 254.232 79.5615 258.88 77.8821C259.68 77.5963 260.468 77.3913 261.234 77.2539C260.355 78.1569 259.44 79.8352 260.24 82.6345C261.598 87.387 270.885 94.5038 265.631 91.9335Z" fill="#603030"/>
<path d="M260.726 101.728C260.726 101.728 251.021 98.0564 241.737 101.728C232.454 105.4 231.161 115.314 228.992 116.293C228.992 116.293 230.872 102.993 240.843 100.097C250.812 97.2003 260.726 101.728 260.726 101.728Z" fill="#603030"/>
<path d="M268.07 95.6055L264.398 103.884C264.398 103.884 269.416 101.602 268.07 95.6055Z" fill="#603030"/>
</svg>
