<?xml version="1.0" encoding="UTF-8"?>
<svg fill="none" viewBox="0 0 494 423" xmlns="http://www.w3.org/2000/svg">
<path d="m438.49 386.15s21.693-65.494 1.863-92.729c-19.83-27.234-35.549-39.253-25.614-61.213s5.512-57.857-20.744-68.637c-26.257-10.779-14.067-51.365-43.137-74.669-29.07-23.303-52.772-12.764-66.709-41.509-12.241-25.246-37.635-49.043-63.048-24.577-5.572 5.3632-9.311 12.357-11.253 19.923-2.033 7.9129-9.131 21.614-33.103 35.316-36.881 21.08-22.258 34.665-37.07 59.012-14.814 24.347-62.302 12.096-80.12 58.804-17.817 46.707 20.637 62.385 17.517 90.307s-21.592 43.148-10.339 99.202" stroke="#E5C2A5" stroke-miterlimit="10"/>
<path d="m448.98 386.86s25.376-72.46 3.981-99.981c-21.395-27.52-38.355-39.666-27.636-61.857 10.719-22.19 5.947-58.464-22.382-69.357-28.33-10.893-15.177-51.905-46.542-75.453-31.364-23.548-52.358-21.297-67.395-50.343-13.208-25.511-45.184-41.159-72.603-16.436-6.011 5.4199-10.046 12.486-12.142 20.132-2.193 7.9957-9.851 21.841-35.716 35.686-39.791 21.301-24.014 35.03-39.997 59.632-15.982 24.602-60.163 16.165-79.921 57.372-22.033 45.952 12.19 64.424 8.8245 92.639-3.3664 28.215-11.826 50.614 0.3163 107.26" stroke="#E5C2A5" stroke-miterlimit="10"/>
<path d="m224.58 37.425c-5.441 5.3632-9.093 12.357-10.991 19.923-1.985 7.9129-8.918 21.614-32.332 35.316-36.022 21.08-21.739 34.666-36.207 59.013-14.469 24.347-55.686 5.67-73.088 52.377-17.403 46.707 22.721 67.79 19.674 95.712s-27.001 29.56-16.01 85.614h363.11s19.369-50.114 0-77.349-34.722-39.253-25.018-61.213 5.384-57.857-20.261-68.637c-25.646-10.78-13.74-51.366-42.133-74.669-28.394-23.304-51.543-12.764-65.157-41.509-11.958-25.245-36.761-49.042-61.584-24.577z" fill="#F7E4D2"/>
<path d="m226.01 50.557c-5.205 5.1298-8.698 11.82-10.514 19.056-1.898 7.5683-8.53 20.674-30.926 33.779-34.455 20.163-20.793 33.157-34.633 56.445-13.839 23.289-53.263 5.424-69.908 50.098-16.646 44.674 21.732 64.84 18.818 91.548-2.915 26.707-25.827 28.274-15.313 81.889h347.31s18.526-47.934 0-73.983c-18.526-26.05-33.211-37.546-23.929-58.551 9.281-21.004 5.15-55.339-19.38-65.65s-13.141-49.131-40.299-71.421c-27.158-22.289-49.3-12.208-62.321-39.703-11.438-24.145-35.162-46.908-58.904-23.507z" stroke="#fff" stroke-miterlimit="10"/>
<path d="m360.03 182.92c-2.143-1.244-4.956-0.343-5.413-1.041-0.457-0.697 2.307-2.851 3.196-5.11 0.888-2.26-0.112-8.116-3.752-5.358-3.641 2.758-3.806 7.458-3.806 7.458s-0.059 0.259-0.107 0.689c-1.235-2.906-0.571-6.918-0.565-6.963 0.037-0.218-0.108-0.425-0.326-0.463-0.228-0.038-0.426 0.109-0.462 0.327-0.031 0.171-0.561 3.386 0.227 6.283-1.914-2.208-4.705-3.55-4.858-3.622-0.199-0.094-0.439-0.01-0.534 0.191-0.095 0.199-0.01 0.439 0.191 0.533 0.043 0.021 4.013 1.931 5.565 4.804-0.479-0.347-0.813-0.526-0.813-0.526s-3.664-2.945-8.129-1.988c-4.466 0.958-0.687 5.54 1.603 6.343 2.29 0.802 5.724 0.114 5.953 0.917 0.229 0.801-2.29 2.344-2.748 4.782-0.458 2.436 2.404 4.964 4.008 5.075 1.452 0.101 3.647-4.775 3.623-8.42 2.811 2.217 7.536 3.557 8.369 2.443 0.962-1.289 0.92-5.109-1.222-6.354z" fill="#DBA291"/>
<path d="m123 220.67c-0.401-1.997-2.485-3.238-2.306-3.9 0.18-0.661 3.008-0.132 4.881-0.813 1.872-0.683 4.929-4.486 1.251-5.226-3.677-0.741-6.656 1.715-6.656 1.715s-0.191 0.105-0.482 0.309c1.114-2.343 3.942-4.117 3.974-4.138 0.155-0.096 0.203-0.298 0.107-0.453-0.101-0.16-0.299-0.203-0.453-0.107-0.122 0.075-2.387 1.497-3.739 3.558 0.315-2.379-0.379-4.827-0.418-4.962-0.05-0.173-0.233-0.274-0.408-0.224-0.174 0.05-0.275 0.233-0.223 0.408 0.011 0.037 0.996 3.521 0.075 6.04-0.048-0.484-0.12-0.787-0.12-0.787s-0.183-3.859-3.202-6.088c-3.018-2.228-3.78 2.593-3.026 4.439 0.753 1.846 3.045 3.587 2.676 4.165s-2.688-0.135-4.435 0.91c-1.747 1.044-1.743 4.182-0.939 5.229 0.728 0.949 4.92-0.352 7.148-2.351 0.167 2.937 1.914 6.575 3.054 6.482 1.317-0.106 3.642-2.209 3.241-4.206z" fill="#DBA291"/>
<path d="m245.61 80.516c-0.401-1.9968-2.485-3.2378-2.305-3.8997 0.18-0.6609 3.008-0.132 4.88-0.8135 1.872-0.6816 4.929-4.4854 1.252-5.2259-3.677-0.7404-6.657 1.7165-6.657 1.7165s-0.19 0.1047-0.482 0.3087c1.115-2.3425 3.943-4.1168 3.974-4.1375 0.155-0.096 0.203-0.2988 0.107-0.4537-0.1-0.1603-0.299-0.2028-0.452-0.1068-0.123 0.0752-2.388 1.4973-3.74 3.5584 0.315-2.3796-0.378-4.8289-0.418-4.9619-0.05-0.1734-0.233-0.2748-0.407-0.2247-0.175 0.0502-0.275 0.2334-0.224 0.4079 0.011 0.0371 0.997 3.5213 0.075 6.0404-0.048-0.4831-0.12-0.7874-0.12-0.7874s-0.183-3.8582-3.201-6.0873c-3.019-2.2279-3.78 2.5922-3.027 4.4385 0.754 1.8462 3.045 3.5867 2.676 4.1647-0.368 0.5769-2.688-0.1342-4.435 0.9106-1.747 1.0436-1.742 4.181-0.939 5.229 0.729 0.9488 4.921-0.3522 7.149-2.3511 0.167 2.9367 1.914 6.5747 3.053 6.482 1.318-0.1058 3.643-2.2105 3.241-4.2072z" fill="#DBA291"/>
<path d="m189.95 134.66c-0.386 0.52-1.12 0.629-1.64 0.243s-0.629-1.121-0.243-1.641 1.12-0.629 1.64-0.243c0.52 0.385 0.629 1.12 0.243 1.641z" fill="#fff"/>
<path d="m192.98 129.66c-0.386 0.52-1.12 0.629-1.641 0.243-0.52-0.386-0.629-1.121-0.243-1.641s1.12-0.629 1.64-0.243c0.521 0.386 0.63 1.121 0.244 1.641z" fill="#fff"/>
<path d="m196.5 137.55c-0.386 0.52-1.12 0.629-1.64 0.243s-0.629-1.121-0.243-1.641 1.12-0.629 1.64-0.243c0.521 0.386 0.629 1.121 0.243 1.641z" fill="#fff"/>
<path d="m347.78 148.41c-0.386 0.52-1.12 0.63-1.64 0.243-0.52-0.386-0.629-1.121-0.243-1.641s1.12-0.629 1.64-0.243 0.629 1.12 0.243 1.641z" fill="#fff"/>
<path d="m350.8 143.41c-0.386 0.52-1.12 0.63-1.64 0.243-0.521-0.386-0.63-1.121-0.244-1.641 0.387-0.52 1.12-0.629 1.641-0.243 0.52 0.386 0.629 1.121 0.243 1.641z" fill="#fff"/>
<path d="m354.32 151.3c-0.386 0.52-1.12 0.629-1.64 0.243s-0.629-1.121-0.243-1.641 1.12-0.629 1.64-0.243 0.629 1.121 0.243 1.641z" fill="#fff"/>
<path d="m292.11 100.82c-0.386 0.521-1.12 0.63-1.64 0.244s-0.629-1.1214-0.243-1.6416 1.12-0.6292 1.64-0.2432c0.52 0.385 0.629 1.1198 0.243 1.6408z" fill="#fff"/>
<path d="m295.14 95.822c-0.386 0.5201-1.12 0.6292-1.64 0.2431-0.521-0.386-0.63-1.121-0.244-1.6412s1.12-0.6292 1.641-0.2432c0.52 0.3861 0.629 1.1211 0.243 1.6413z" fill="#fff"/>
<path d="m298.65 103.71c-0.386 0.52-1.12 0.629-1.64 0.243s-0.629-1.121-0.243-1.641 1.12-0.629 1.64-0.243c0.52 0.385 0.629 1.12 0.243 1.641z" fill="#fff"/>
<path d="m307.28 169.12c-0.499-0.413-0.569-1.152-0.157-1.652 0.412-0.499 1.152-0.57 1.651-0.157 0.5 0.412 0.569 1.153 0.157 1.652s-1.151 0.569-1.651 0.157z" fill="#fff"/>
<path d="m312.11 172.41c-0.499-0.412-0.569-1.152-0.157-1.652 0.412-0.499 1.152-0.57 1.651-0.157 0.5 0.412 0.57 1.153 0.157 1.652-0.413 0.5-1.151 0.57-1.651 0.157z" fill="#fff"/>
<path d="m304.06 175.51c-0.499-0.412-0.569-1.153-0.157-1.652 0.413-0.5 1.152-0.571 1.651-0.157 0.5 0.412 0.57 1.152 0.158 1.652-0.414 0.499-1.152 0.57-1.652 0.157z" fill="#fff"/>
<path d="m138.44 193.76c0 0.825-0.667 1.492-1.49 1.492-0.824 0-1.491-0.667-1.491-1.492 0-0.823 0.667-1.491 1.491-1.491 0.823 0 1.49 0.667 1.49 1.491z" fill="#fff"/>
<path d="m338.23 116.86c0 1.023-0.829 1.852-1.852 1.852s-1.852-0.829-1.852-1.852 0.829-1.853 1.852-1.853 1.852 0.83 1.852 1.853z" fill="#fff"/>
<path d="m210.28 174.6c0 1.023-0.828 1.853-1.85 1.853-1.023 0-1.852-0.83-1.852-1.853s0.829-1.853 1.852-1.853c1.022 0 1.85 0.83 1.85 1.853z" fill="#fff"/>
<path d="m245.67 53.614c0 0.6237-0.506 1.1297-1.13 1.1297s-1.13-0.506-1.13-1.1297c0-0.6238 0.506-1.1298 1.13-1.1298s1.13 0.506 1.13 1.1298z" fill="#fff"/>
<path d="m332.08 219.61c0 0.928-0.751 1.681-1.679 1.681-0.927 0-1.679-0.753-1.679-1.681s0.751-1.68 1.679-1.68 1.679 0.752 1.679 1.68z" fill="#fff"/>
<path d="m221.95 91.806c0 0.928-0.752 1.6805-1.68 1.6805-0.927 0-1.679-0.7525-1.679-1.6805s0.751-1.6805 1.679-1.6805 1.68 0.7525 1.68 1.6805z" fill="#fff"/>
<path d="m36.84 373.2h448.29c3.301 0 4.208 4.547 1.155 5.802-29.984 12.317-109.5 40.223-220.94 43.409-103.63 2.963-190.21-24.006-230.34-39.229-5.3632-2.034-3.9041-9.982 1.8309-9.982z" fill="#F7E4D2"/>
<path d="m186.26 279.3c-0.991-17.708-19.549-21.268-21.405-25.674-1.855-4.407-4.851-13.42-18.214-17.671-13.362-4.251-21.676 3.606-29.163-1.205-7.488-4.812-14.151-8.79-23.076-2.739-8.9249 6.052-15.249 3.827-28.133 2.368-12.884-1.459-23.117 10.967-23.117 10.967-5.0393 4.623-0.1778 10.477 11.702 13.348 16.776 4.055 11.985 14.95 20.927 19.366 8.9423 4.415 19.569 0.04 26.309 5.384 6.739 5.343 6.23 15.034 14.571 17.309 8.34 2.274 18.179-3.264 22.951 0.014s7.372 12.991 13.067 16.346c5.695 3.354 21.813 4.184 21.813 4.184l3.894-0.941s8.865-23.348 7.874-41.056z" fill="#B9BC7E"/>
<path d="m175.74 314.78s-4.206-36.146-29.064-52.611c-24.859-16.465-65.627-16.857-77.986-17.54l-12.359-0.683s49.89-3.173 74.628 6.888c33.974 13.817 43.654 36.389 44.781 63.946z" fill="#FFFBF4"/>
<path d="m157.5 276.73s-20.786-18.57-23.917-34.026c-3.131-15.454 6.057-21.228-0.129-29.052-6.185-7.825-3.421-21.866 3.238-25.43 6.659-3.563 9.386-11.34 10.038-22.092 0.652-10.751 8.848-14.751 11.386-11.769 6.991 8.213 3.515 16.611 14.208 21.835 10.692 5.224 14.484 16.043 11.801 24.902-2.682 8.859 9.108 11.686 16.917 25.209 7.808 13.524 2.151 24.83-1.161 33.313-3.313 8.482 5.868 18.701 2.535 28.479-3.333 9.777-26.337 25.873-26.337 25.873s-11.129-4.112-18.579-37.242z" fill="#CFC293"/>
<path d="m157.29 169.33s6.864 26.467 15.13 60.587c8.265 34.121 9.657 76.203 9.657 76.203s4.785-30.54-1.415-59.2c-6.199-28.659-22.848-73.179-23.372-77.59z" fill="#FFFBF4"/>
<path d="m160.29 290.54c-2.835-14.542 11.459-21.236 12.056-25.185 0.597-3.948 1.173-11.862 11.118-18.049 9.946-6.186 18.292-1.533 23.366-6.966 5.074-5.434 9.652-10.024 18.121-6.958 8.469 3.067 13.132-0.034 23.265-3.862 10.132-3.828 20.97 4.132 20.97 4.132 5.03 2.707 2.297 8.446-6.733 13.211-12.749 6.729-6.632 14.566-12.966 19.979-6.333 5.412-15.837 4.052-20.196 9.763-4.358 5.71-1.956 13.453-8.241 17.008s-15.389 1.092-18.579 4.725c-3.19 3.634-3.3 12.033-7.223 15.92-3.922 3.885-16.802 7.868-16.802 7.868l-3.346 0.038s-11.975-17.083-14.81-31.624z" fill="#B9BC7E"/>
<path d="m176.09 317.11s-4.02-30.131 12.725-48.568c16.745-18.438 49.674-27.13 59.54-30.222l9.866-3.092s-41.048 7.68-59.01 20.907c-24.668 18.167-27.869 38.431-23.121 60.975z" fill="#FFFBF4"/>
<path d="m166.26 317.06s-27.388-7.499-41.767-0.922c-14.38 6.577-17.033 15.616-17.033 15.616s6.158 2.153 17.869 0.513c11.712-1.641 13.467-8.579 21.633-5.279s10.846 6.479 17.721 4.509c6.875-1.969 10.408-9.33 10.408-9.33l-8.831-5.107z" fill="#9A9B82"/>
<path d="m179.75 318.04s7.364-8.489 18.046-7.924c10.681 0.565 12.558 4.289 17.792 4.527 5.233 0.237 8.124-1.414 15.268 1.026 7.07 2.414 11.25 5.722 11.25 5.722s-7.263 10.512-18.571 7.79c-11.307-2.722-19.862-4.477-23.561-0.688-3.699 3.79-26.932-3.116-26.932-3.116l6.708-7.337z" fill="#9A9B82"/>
<path d="m338.27 284.34s15.396 9.877 47.06 15.396c31.663 5.519 45.026-3.487 46.769-7.698 1.743-4.213-3.486-6.536-24.11-10.312-20.625-3.777-26.145-8.425-15.978-9.586s24.402 7.843 36.603 7.843 20.625-6.487 20.915-10.942c0.29-4.454-36.602-5.616-41.25-12.007-4.648-6.39 23.917 0.29 36.215 2.034 12.298 1.743 17.236-7.843 16.364-11.038-0.871-3.196-30.792-4.232-33.697-8.653-2.905-4.42 12.491-2.842 25.854 0s20.044-7.035 18.302-9.358c-1.743-2.324-26.435-4.067-29.05-8.425s13.362-3.195 21.497-1.452c8.134 1.742 16.848-6.101 13.943-8.715s-21.206-3.486-21.786-7.263c-0.582-3.776 24.381-1.742 22.357-7.261-2.024-5.52-8.995-10.684-19.743-10.862-10.749-0.177-20.626 11.152-26.435 7.666-5.81-3.486 14.234-11.91 9.006-15.106-5.229-3.195-16.849-1.452-20.915 4.067-4.067 5.519-4.358 14.815-8.715 14.525-4.358-0.29 3.195-13.363-0.581-16.268-3.777-2.905-13.653 3.196-15.686 9.006-2.034 5.809 0.29 17.43-3.777 18.01-4.066 0.581 0.979-18.591-2.561-20.334-3.539-1.743-14.868 9.586-15.159 16.558-0.29 6.972 3.487 17.955-2.614 19.726-6.1 1.771-4.937-20.017-9.585-22.049-4.648-2.034-13.944 11.291-12.491 22.203 1.452 10.912 4.648 19.841 0.29 19.879s-7.553-13.906-11.038-16.229c-3.487-2.324-6.626 3.486-7.525 18.301-0.903 14.815 6.086 34.712 7.521 38.344z" fill="#D1C795"/>
<path d="m333.3 308.2s16.317-41.858 35.299-65.053c18.982-23.194 55.613-37.181 73.263-38.18 0 0-41.755 7.762-68.601 40.96-26.845 33.198-36.964 78.591-36.964 78.591l-7.326-1.441 4.329-14.877z" fill="#FFFBF4"/>
<path d="m37.651 369.68s2.3304-8.684 13.768-12.709c11.437-4.024 13.132 6.778 20.334 6.355 7.2018-0.424 10.546 13.556 10.546 13.556h-47.19l2.542-7.202z" fill="#9A9B82"/>
<path d="m65.305 376.38c-0.6631-3.294-1.6795-7.006-2.9434-10.974 2.0709-4.022 7.9336-16.794 7.7929-32.254-0.1712-18.763-13.176-38.442-13.176-38.442s-3.4155 32.105 2.2443 61.638c-3.9161-10.57-8.9368-22.034-13.588-32.054 1.9793-4.144 5.5387-13.062 5.5115-23.638-0.0382-14.628-10.076-30.034-10.076-30.034s-2.6946 23.825 1.1396 46.4c-3.4275-7.171-6.385-13.066-8.1745-16.579-0.3152-4.952-1.5388-13.634-6.0394-22.152-6.8343-12.933-22.884-21.907-22.884-21.907s10.105 25.984 25.935 44.739c1.4319 2.811 3.8376 7.598 6.7187 13.556-2.1985-3.225-5.0076-6.656-8.5431-9.77-10.975-9.671-29.164-12.373-29.164-12.373s20.672 22.944 43.513 34.437c2.3719 5.148 4.8179 10.628 7.1495 16.14-2.638-3.584-5.8725-7.291-9.7842-10.692-14.158-12.315-37.512-15.629-37.512-15.629s25.289 27.708 53.734 42.609c2.3534 6.503 4.228 12.564 5.2356 17.565l2.9096-0.586z" fill="#B9BC7E"/>
<path d="m438.51 367.52h14.366s6.5-11.972 22.234-20.182c15.734-8.209 17.444-18.111 18.129-22.737 0.683-4.626-6.157-2.232-16.419 3.925s-12.998 20.733-17.445 20.457c-4.446-0.276-1.71-17.032 7.867-22.507s17.102-18.815 19.496-27.366c2.395-8.551-17.103-2.395-26.338 7.867-9.236 10.262-7.867 35.322-14.708 38.526s5.131-17.832-8.722-26.414c-5.555-3.44-7.014 6.4-5.303 18.864 1.713 12.464 10.264 18.279 6.843 29.567z" fill="#9A9B82"/>
<path d="m414.32 374.96s25.226 2.747 44.708 2.747c19.481 0 26.974-1.748 26.974-1.748s-4.246-7.993-16.734-10.99c-12.488-2.996-13.737 4.496-19.232 0-5.495-4.495-15.485-7.742-24.226-5.245-8.743 2.497-11.49 15.236-11.49 15.236z" fill="#D7CA8C"/>
<path d="m253.7 397.92c83.303 0 150.83-5.533 150.83-12.359s-67.531-12.359-150.83-12.359-150.83 5.533-150.83 12.359 67.531 12.359 150.83 12.359z" fill="#E2C9B5"/>
<path d="m394.04 317.36-11.457 12.079s0 0.012-0.012 0.036l-2.154 2.263c-0.012 0.012-0.024 0.012-0.024 0.012l-0.132 0.144c-0.012-0.012-0.036-0.024-0.048-0.036-24.735-15.3-48.594-38.094-54.604-43.972-3.088-2.777-5.986-6.106-8.237-10.08-5.279-9.35-12.414-26.805-17.383-39.59l-0.658 2.778-8.956 37.938c3.831 5.878 9.074 14.881 13.564 25.99 2.275 5.639 4.358 11.828 5.962 18.413l-51.466 30.276 0.012 0.767-0.695-0.371-0.682 0.395-0.012-0.767-52.593-28.277c1.7-8.333 4.178-16.055 6.86-22.867 0.048-0.107 0.084-0.226 0.132-0.334 3.663-9.194 7.722-16.725 10.823-21.921l-10.571-38.166-1.424-5.136-0.767-2.766c-5.028 12.487-14.294 34.742-20.759 45.684-2.323 3.927-5.267 7.196-8.429 9.913-6.105 5.758-30.444 28.121-55.465 42.967l-2.287-2.502-11.217-12.294 57.034-53.623 19.275-55.106c11.098-23.812 19.418-24.147 19.418-24.147v0.011c1.532-1.293 3.28-2.382 5.243-3.148 0.634-0.252 1.281-0.503 1.939-0.778l0.012-0.012c3.759-1.545 7.973-3.52 12.187-5.998 4.969-2.934 9.949-6.585 14.211-11.099 0.623-4.237 0.85-10.271 0.934-14.186 0.048-2.335 0.048-3.927 0.048-3.927l12.127 1.245 12.068-1.712s0.108 3.148 0.395 7.099c0.276 3.555 0.67 7.77 1.269 10.967 1.975 1.939 4.094 3.711 6.285 5.291 7.602 5.591 16.077 9.182 22.734 11.493 1.724 0.599 3.292 1.436 4.716 2.443 1.737 0.43 9.255 3.448 18.557 24.458l18.221 55.453 56.006 54.7z" fill="#5E4453"/>
<path d="m273.81 168.82c-1.951 2.191-7.924 6.895-24.853 10.786-22.89 5.255-34.682 1.544-34.682 1.544l0.012-0.012c3.759-1.544 7.973-3.519 12.188-5.998 4.969-2.933 9.949-6.584 14.211-11.098 0.622-4.238 0.849-10.271 0.933-14.186l24.638 2.705c0.276 3.555 0.671 7.77 1.27 10.966 1.974 1.941 4.093 3.713 6.283 5.293z" fill="#3F2935"/>
<path d="m286.7 250.66c-8.032 3.555-22.071-3.335-33.995 0.508-11.923 3.855-17.825 14.881-20.136 28.996-2.311 14.103 3.591 34.61 3.591 34.61s-10.654 2.957-24.698-12.619c3.663-9.194 7.722-16.724 10.822-21.92l-12.762-46.067s-2.862-14.81 4.321-26.099c0 0-2.238 12.068 1.965 23.094 4.189 11.027 14.078 11.027 24.398 10.775 10.319-0.252 10.175-3.792 21.836-1.282 19.451 4.189 27.052 2.308 31.589-4.08 2.992-4.213 1.09 10.528-6.931 14.084z" fill="#3F2935"/>
<path d="m231.34 132.83s-2.762-5.635-6.398-5.413c-3.636 0.221-4.852 7.98 0.269 14.024 5.121 6.045 9.773 3.452 9.773 3.452l-3.644-12.063z" fill="#EA8D78"/>
<path d="m276.94 131.95s2.544-5.736 6.185-5.654 5.155 7.788 0.269 14.024c-4.885 6.237-9.633 3.826-9.633 3.826l3.179-12.196z" fill="#EA8D78"/>
<path d="m278.58 120.31c0.431 22.515-12.984 42.642-23.672 42.847-12.964 0.249-25.503-20.896-25.906-41.895-0.298-15.532 9.02-28.308 24.552-28.606 15.533-0.2977 24.727 12.122 25.026 27.654z" fill="#FFA488"/>
<path d="m234.56 122.39s3.646-1.04 7.592-1.328c4.945-0.362 6.769 0.154 6.769 0.154s-0.952-2.773-5.115-2.694c-4.161 0.081-9.246 3.868-9.246 3.868z" fill="#2F2A00"/>
<path d="m248.66 128.47s-2.919-3.926-6.674-3.968c-3.754-0.041-7.085 4.231-7.085 4.231s1.025 1.127 6.359 1.357c5.464 0.237 7.4-1.62 7.4-1.62z" fill="#EA8D78"/>
<path d="m241.89 129.77c-3.539 0.034-6.417-0.856-6.903-1.015l-0.052-0.027-0.012 6e-3c-6e-3 -2e-3 -0.018-5e-3 -0.018-5e-3l0.012 8e-3c-0.621 0.401-1.898 0.507-1.898 0.507 1.316 0.411 2.359 0.274 2.826 0.172 1.021 0.693 2.829 1.603 6.067 1.567 4.65-0.051 6.751-2.518 6.751-2.518s-2.889 1.268-6.773 1.305z" fill="#2F2A00"/>
<path d="m272.82 121.66s-3.684-0.899-7.637-1.036c-4.957-0.171-6.758 0.414-6.758 0.414s0.845-2.809 5.006-2.888c4.162-0.081 9.389 3.51 9.389 3.51z" fill="#2F2A00"/>
<path d="m258.96 128.27s2.767-4.035 6.517-4.22c3.75-0.186 7.242 3.956 7.242 3.956s-0.981 1.165-6.302 1.6c-5.452 0.445-7.457-1.336-7.457-1.336z" fill="#EA8D78"/>
<path d="m274.62 128.45s-1.28-0.058-1.916-0.434c3e-3 -3e-3 8e-3 -7e-3 0.012-9e-3 0 0-0.011 4e-3 -0.016 6e-3 -4e-3 -2e-3 -9e-3 -3e-3 -0.012-5e-3l-0.052 0.029c-0.48 0.178-3.322 1.177-6.859 1.28-3.883 0.112-6.82-1.045-6.82-1.045s2.195 2.385 6.844 2.257c3.237-0.088 5.009-1.067 6.002-1.799 0.469 0.084 1.517 0.181 2.817-0.28z" fill="#2F2A00"/>
<path d="m250.59 141.97s1.994 1.213 3.627 1.296c1.632 0.083 3.575-1.434 3.575-1.434s-1.521-0.159-3.341-0.201c-1.821-0.041-3.861 0.339-3.861 0.339z" fill="#EA8D78"/>
<path d="m255.09 148.95c4.031-0.243 6.59-1.511 6.59-1.511s-4.313-0.463-5.417-0.247c-0.686 0.134-1.165 0.79-1.429 1.267-0.282-0.467-0.785-1.104-1.475-1.211-1.113-0.174-5.404 0.455-5.404 0.455s2.608 1.169 6.644 1.257c-1e-3 3e-3 -8e-3 0.018-8e-3 0.018 0.086-3e-3 0.168-9e-3 0.253-0.014 0.085 1e-3 0.167 5e-3 0.253 5e-3 0 0-4e-3 -0.016-7e-3 -0.019z" fill="#743F3D"/>
<path d="m249.19 149.42s0.849 1.206 3.992 1.971c3.143 0.764 5.421-0.532 7.304-1.733 0 0-1.701 3.246-5.248 3.683-3.546 0.439-5.924-3.44-6.048-3.921z" fill="#EA8D78"/>
<path d="m263.52 106s-5.401-2.853-12.674-2.486c-7.273 0.368-12.923 6.049-15.028 10.071-2.106 4.022-4.245 5.169-4.245 5.169s0.667 9.752-1.199 13.908c0 0-2.519-4.212-5.421-5.256 0 0-2.484-8.9-0.96-18.372 1.525-9.4709 11.566-19.674 25.077-21.071 13.509-1.397 20.348 5.1833 20.348 5.1833s8.969 5.06 11.637 13.654c2.667 8.594 0.379 19.749 0.379 19.749s-2.308 1.169-3.796 5.203c0 0-4.322-6.521-3.21-13.822-3e-3 0-1.771-11.613-10.908-11.931z" fill="#743F3D"/>
<path d="m271.55 97.998c-2.708 0.8572-20.186-8.602-20.186-8.602s-0.091-1.5311 0.4-3.5072c0.686-2.7306 2.468-6.3283 7.117-8.0077 0.8-0.2857 1.588-0.4907 2.354-0.6281 7.002-1.1876 12.816 3.6096 14.485 8.4995 1.85 5.4265-1.452 11.4-4.17 12.246z" fill="#743F3D"/>
<path d="m248.92 121.22s1.694 3.174 2.647 7.992c0.954 4.819 0.16 8.275 0.16 8.275s-0.933-13.63-7.87-16.519c0 0 3.804-0.081 5.063 0.252z" fill="#EA8D78"/>
<path d="m263.51 106.01s-8.629-2.888-15.974 0.306c-7.346 3.195-7.17 7.857-12.273 8.251l-0.658-1.22s1.36 0.261 4.468-2.189c3.107-2.45 9.662-11.264 24.437-5.148z" fill="#743F3D"/>
<path d="m228.42 363.57s-7.057 0.9-9.517 1.378c0 0-9.856-1.412-13.997-1.237-4.142 0.176-6.406 5.105-8.745 10.454s-11.404 11.048-14.606 14.38c-3.202 3.33-3.288 8.217-3.219 9.25 0.07 1.034-2.016 3.979-0.919 6.396 1.097 2.418 2.289 1.611 3.309 1.335 1.019-0.276 1.735-1.986 1.735-1.986s2.605 0.137 3.714-0.354c1.109-0.49 0.158-0.737 2.639-0.905 2.481-0.167 3.81-0.465 5.326-1.086 1.516-0.622 11.9-11.394 17.522-14.264 5.621-2.872 14.288-2.209 14.288-2.209l2.47-21.152z" fill="#FFA488"/>
<path d="m387.77 370.89c-16.761 9.374-44.523 13.061-76.656 15.012-3.915 0.24-7.888 0.454-11.923 0.646l0.55 13.935s-2.442-0.024-6.764-0.084c-13.253-0.156-44.152-0.551-76.369-1.197-52.1-1.03-93.547-13.959-105.52-25.488-5.77-5.567-9.194-14.439-7.972-22.722 0.969-6.561 4.86-12.751 12.797-16.664 1.892-0.934 5.195-2.119 9.661-3.389 14.006-4.011 39.351-8.859 67.305-9.122 0.443-0.036 0.861-0.06 1.269-0.096 3.687-5.531 17.311-19.562 17.311-19.562s9.577 8.057 22.674 12.846c6.92 2.525 14.834 4.153 22.83 3.184 23.13-2.79 46.367-15.683 46.367-15.683 4.705 4.682 9.207 15.671 9.207 15.671 23.154 0.216 61.499 7.243 69.747 11.373 0.06 0.036 0.108 0.072 0.156 0.096 5.603 1.508 10.272 4.764 13.468 8.907 7.411 9.589 6.921 23.932-8.139 32.337z" fill="#E9835B"/>
<path d="m111.36 317.93s-5.827-0.89-8.163-0.845c-2.337 0.044-7.0506 1.537-9.7126 1.989-2.6631 0.451-3.9968 0.544-3.9226 0.943 0.0741 0.399 0.9618 1.384 3.9084 1.795s5.4668-0.372 7.0368-0.402c1.571-0.031 1.922 0.898 1.922 0.898s-1.588 4.238-6.7134 5.138c-5.1255 0.899-7.1429 0.137-7.4908-0.591s1.8266-5.713 1.2574-7.571c-0.5704-1.859-1.4352-1.709-2.5137 1.251s-2.9608 5.8-2.9237 7.736 3.3414 3.61 3.3414 3.61-6.3589-0.746-8.2618 1.026c-1.903 1.773 1.9051 1.833 4.916 2.11 3.011 0.276 5.8322 1.157 7.6315 0.922 0 0-8.0829-0.113-9.6609 1.187-1.578 1.299 1.6445 2.173 4.7154 2.114s7.2236 0.596 7.8921 0.583c0 0-7.1963 0.873-6.9608 2.672 0.2345 1.798 1.5475 0.571 5.4952 0.963 3.9477 0.391 7.2191 0.329 10.937-0.812 3.717-1.139 18.495-12.423 18.495-12.423l-11.225-12.293z" fill="#FFA488"/>
<path d="m360.33 335.57c-30.79 4.37-116.99 26.434-116.99 26.434s-45.409-20.783-75.853-25.656c-28.912-4.62-45.78-2.322-41.913-5.411 14.006-4.011 39.351-8.859 67.305-9.122 0.442-0.036 0.861-0.06 1.269-0.096 3.687-5.531 17.311-19.562 17.311-19.562s9.577 8.057 22.674 12.846c1.053 5.076 19.215 30.061 32.3 25.954 13.085-4.095 30.264-9.745 38.477-6.919 8.213 2.825 24.889 1.281 36.382-1.306 11.482-2.585 19.036 2.838 19.036 2.838z" fill="#CC6A4C"/>
<path d="m382.58 329.44s0 0.012-0.012 0.036c-0.108 0.228-0.658 1.342-2.155 2.263-0.012 0.012-0.024 0.012-0.024 0.012-0.06 0.036-0.119 0.072-0.179 0.108-24.735-15.3-48.594-38.094-54.604-43.972-3.088-2.778-5.986-6.106-8.237-10.08-5.279-9.35-12.414-26.805-17.383-39.59l2.862-23.812s10.69 46.079 21.98 60.925c11.289 14.843 57.752 54.11 57.752 54.11z" fill="#3F2935"/>
<path d="m211.71 242.07-1.424-5.136-0.767-2.766c-5.028 12.486-14.295 34.742-20.759 45.684-2.323 3.927-5.268 7.195-8.429 9.913-6.106 5.758-30.444 28.121-55.465 42.967l-2.287-2.502s49.287-42.093 63.762-58.649c14.461-16.558 23.357-52.664 23.357-52.664l2.012 23.153z" fill="#3F2935"/>
<path d="m387.77 370.89c-16.76 9.374-44.523 13.061-76.655 15.012-13.432-2.203-23.022-7.434-23.022-7.434v-1.592l-44.715-14.858c0.38 0.094 7.727-1.978 7.727-1.978 20.361 4.536 70.531 18.21 96.655 12.226 33.604-7.698 34.886-21.837 41.039-28.876 2.407-2.753 4.933-4.154 7.112-4.836 7.41 9.589 6.919 23.931-8.141 32.336z" fill="#CC6A4C"/>
<path d="m288.09 378.46s7.038 1.037 9.488 1.563c0 0 9.882-1.22 14.019-0.963 4.138 0.256 6.304 5.229 8.538 10.623 2.234 5.393 11.185 11.269 14.322 14.662 3.136 3.392 3.126 8.279 3.037 9.312-0.09 1.031 1.938 4.016 0.794 6.412-1.145 2.396-2.321 1.566-3.335 1.269-1.014-0.296-1.696-2.019-1.696-2.019s-2.607 0.085-3.707-0.427c-1.099-0.511-0.144-0.74-2.62-0.956-2.477-0.216-3.801-0.539-5.304-1.19s-11.676-11.624-17.239-14.604c-5.564-2.981-14.243-2.488-14.243-2.488l-2.054-21.194z" fill="#FFA488"/>
<path d="m394.04 317.37s5.843-0.778 8.179-0.689 7.018 1.672 9.673 2.175c2.653 0.502 3.986 0.62 3.903 1.018-0.082 0.398-0.988 1.365-3.941 1.72-2.954 0.354-5.46-0.477-7.028-0.537-1.569-0.06-1.939 0.862-1.939 0.862s1.507 4.267 6.614 5.265 7.14 0.274 7.502-0.448c0.362-0.721-1.718-5.746-1.112-7.594 0.605-1.847 1.467-1.681 2.489 1.298s2.85 5.856 2.776 7.791c-0.074 1.934-3.41 3.544-3.41 3.544s6.372-0.625 8.24 1.184c1.869 1.809-1.94 1.797-4.956 2.016-3.015 0.218-5.854 1.045-7.648 0.776 0 0 8.084 0.043 9.637 1.372s-1.686 2.141-4.754 2.023c-3.07-0.118-7.235 0.458-7.902 0.432 0 0 7.178 1.01 6.909 2.803-0.269 1.794-1.557 0.542-5.512 0.859-3.955 0.316-7.224 0.191-10.92-1.02-3.695-1.21-18.255-12.773-18.255-12.773l11.455-12.077z" fill="#FFA488"/>
<path d="m292.97 400.4c-13.253-0.155-44.152-0.55-76.369-1.197-52.1-1.029-93.547-13.959-105.52-25.488-5.77-5.567-9.194-14.438-7.972-22.722 4.405 3.424 12.917 9.386 29.15 17.503 26.673 13.349 75.926 20.531 114.93 24.292 38.991 3.759 42.499 2.106 42.499 2.106l3.281 5.506z" fill="#CC6A4C"/>
<path d="m265.63 91.934c-5.266-2.5704-13.594-4.1473-13.594-4.1473-0.137-0.6631-0.229-1.3021-0.273-1.8964 0.686-2.7307 2.468-6.3283 7.116-8.0077 0.8-0.2858 1.588-0.4908 2.354-0.6282-0.879 0.903-1.794 2.5813-0.994 5.3806 1.358 4.7525 10.645 11.869 5.391 9.299z" fill="#603030"/>
<path d="m260.73 101.73s-9.705-3.6716-18.989 0c-9.283 3.672-10.576 13.586-12.745 14.565 0 0 1.88-13.3 11.851-16.196 9.969-2.8967 19.883 1.631 19.883 1.631z" fill="#603030"/>
<path d="m268.07 95.606-3.672 8.2785s5.018-2.282 3.672-8.2785z" fill="#603030"/>
</svg>
